<?xml version="1.0" encoding="UTF-8"?>
<svg id="Layer_1" xmlns="http://www.w3.org/2000/svg" version="1.1" viewBox="0 0 413.39 131.68">
  <!-- Generator: Adobe Illustrator 30.3.0, SVG Export Plug-In . SVG Version: 2.1.3 Build 182)  -->
  <defs>
    <style>
      .st0 {
        stroke: #000;
        stroke-miterlimit: 10;
        stroke-width: .1px;
      }
    </style>
  </defs>
  <g id="Group_39">
    <path id="Path_165" class="st0" d="M53.14,129.73c-8.31.15-16.56-1.45-24.21-4.71-6.62-2.79-12.38-7.27-16.71-13-4.08-5.56-6.28-12.27-6.29-19.17h26.49c.12,2.92,1.17,5.72,3.01,7.99,1.96,2.38,4.51,4.21,7.38,5.32,3.31,1.3,6.84,1.94,10.39,1.89,3.66.07,7.29-.65,10.63-2.13,2.9-1.27,5.4-3.31,7.23-5.89,3.54-5.33,3.48-12.27-.16-17.53-2.02-2.71-4.75-4.8-7.9-6.05-3.87-1.54-8.02-2.29-12.18-2.19h-11.61v-19.32h11.61c3.62.07,7.21-.63,10.54-2.06,2.86-1.22,5.33-3.21,7.14-5.74,1.72-2.53,2.62-5.54,2.55-8.6.17-5.86-3.13-11.26-8.42-13.79-2.89-1.39-6.06-2.08-9.26-2-3.36-.04-6.69.61-9.78,1.91-2.8,1.16-5.26,3.04-7.11,5.44-1.8,2.39-2.79,5.28-2.85,8.26H8.42c0-6.81,2.15-13.44,6.14-18.96,4.14-5.61,9.68-10.04,16.07-12.85,7.2-3.19,15-4.78,22.87-4.65,8.59,0,16.1,1.56,22.54,4.68,6.05,2.79,11.24,7.14,15.04,12.61,3.57,5.23,5.43,11.44,5.32,17.77.04,6.97-2.12,12.78-6.47,17.44-4.53,4.75-10.5,7.87-16.98,8.87v.97c9.15,1.17,16.13,4.34,20.93,9.51,4.8,5.16,7.18,11.62,7.14,19.35.13,6.8-2.02,13.46-6.11,18.89-4.42,5.75-10.28,10.23-16.98,13-7.84,3.28-16.29,4.89-24.79,4.73"/>
    <path id="Path_166" class="st0" d="M146.83,129.79c-5.47.1-10.89-.97-15.92-3.13-4.5-1.96-8.34-5.19-11.03-9.3s-4.04-9.24-4.04-15.4c-.15-4.52.83-9.01,2.85-13.06,1.83-3.45,4.51-6.37,7.78-8.51,3.45-2.22,7.23-3.86,11.21-4.86,4.34-1.12,8.76-1.89,13.22-2.31,5.43-.57,9.8-1.1,13.12-1.61,3.32-.51,5.73-1.27,7.23-2.28,1.49-1,2.35-2.71,2.25-4.5v-.36c0-3.85-1.2-6.83-3.61-8.94-2.41-2.11-5.82-3.16-10.24-3.15-4.66,0-8.36,1.02-11.12,3.07-2.63,1.88-4.56,4.58-5.47,7.69l-23.94-1.94c1.1-5.44,3.57-10.51,7.17-14.73,3.75-4.28,8.5-7.58,13.82-9.6,6.28-2.36,12.95-3.5,19.66-3.37,5.03-.02,10.04.59,14.92,1.82,4.53,1.12,8.83,3.03,12.7,5.65,3.67,2.52,6.69,5.88,8.78,9.81,2.25,4.43,3.36,9.34,3.22,14.31v62.94h-24.54v-12.94h-.73c-1.5,2.92-3.54,5.53-6.02,7.69-2.66,2.29-5.73,4.04-9.05,5.16-3.94,1.3-8.07,1.93-12.21,1.85M154.24,111.93c3.5.07,6.96-.71,10.09-2.28,2.79-1.41,5.16-3.54,6.86-6.17,1.67-2.63,2.54-5.69,2.49-8.81v-9.91c-1.03.63-2.15,1.11-3.31,1.43-1.55.46-3.12.85-4.71,1.15-1.74.35-3.48.65-5.22.91s-3.32.5-4.74.7c-2.74.36-5.41,1.08-7.96,2.13-2.07.83-3.89,2.18-5.28,3.92-1.3,1.77-1.96,3.92-1.88,6.11-.17,3.17,1.28,6.2,3.86,8.05,2.89,1.94,6.33,2.91,9.81,2.76"/>
    <path id="Path_167" class="st0" d="M219.49,128.03V34.7h24.67v16.47h1.09c1.77-5.24,5.18-9.78,9.72-12.94,4.8-3.24,10.49-4.89,16.28-4.74,6.4,0,11.85,1.59,16.34,4.77,4.44,3.1,7.63,7.68,8.99,12.91h.97c1.89-5.34,5.55-9.87,10.36-12.85,5.33-3.31,11.51-4.99,17.77-4.83,8.71,0,15.79,2.76,21.23,8.29,5.45,5.53,8.17,13.36,8.17,23.48v62.76h-25.83v-57.66c0-5.18-1.38-9.07-4.13-11.67-2.79-2.61-6.51-4-10.33-3.89-4.7,0-8.36,1.49-11,4.47-2.63,2.98-3.95,6.9-3.95,11.75v56.99h-25.09v-58.21c0-4.58-1.31-8.22-3.92-10.94-2.7-2.75-6.44-4.23-10.3-4.07-2.74-.04-5.42.71-7.75,2.16-2.32,1.48-4.2,3.55-5.44,6.02-1.39,2.8-2.08,5.9-2.01,9.02v56.02h-25.88l.04.02h0Z"/>
    <path id="Path_168" class="st0" d="M391.76,129.61c-8.66-.03-15.67-7.04-15.7-15.7-.05-4.14,1.62-8.12,4.61-10.99,6.08-6.1,15.96-6.1,22.05-.02,0,0,.01.01.02.02,5.16,4.92,6.21,12.77,2.52,18.87-1.42,2.33-3.38,4.29-5.72,5.69-2.35,1.41-5.04,2.15-7.78,2.13"/>
  </g>
</svg>