<?xml version="1.0" encoding="UTF-8"?>
<svg id="Layer_1" xmlns="http://www.w3.org/2000/svg" version="1.1" viewBox="0 0 114.11 25">
  <!-- Generator: Adobe Illustrator 30.3.0, SVG Export Plug-In . SVG Version: 2.1.3 Build 182)  -->
  <defs>
    <style>
      .st0 {
        fill: #999;
      }
    </style>
  </defs>
  <g id="Group_38">
    <path id="Path_165" d="M9.23,24.99c-1.62.03-3.24-.28-4.73-.92-1.29-.54-2.42-1.42-3.27-2.54C.43,20.44,0,19.13,0,17.78h5.18c.02.57.23,1.12.59,1.56.38.46.88.82,1.44,1.04.65.25,1.34.38,2.03.37.71.01,1.42-.13,2.08-.42.57-.25,1.06-.65,1.41-1.15.69-1.04.68-2.4-.03-3.43-.39-.53-.93-.94-1.54-1.18-.76-.3-1.57-.45-2.38-.43h-2.27v-3.78h2.27c.71.01,1.41-.12,2.06-.4.56-.24,1.05-.63,1.4-1.12.34-.49.51-1.08.5-1.68.03-1.15-.61-2.2-1.65-2.7-.56-.27-1.18-.41-1.81-.39-.66,0-1.31.12-1.91.37-.55.23-1.03.59-1.39,1.06-.35.47-.55,1.03-.56,1.61H.49c0-1.33.42-2.63,1.2-3.7.81-1.1,1.89-1.96,3.14-2.51C6.23.29,7.76-.02,9.3,0c1.52-.03,3.03.28,4.41.92,1.18.54,2.2,1.4,2.94,2.46.7,1.02,1.06,2.24,1.04,3.47.05,1.26-.41,2.48-1.26,3.41-.88.93-2.05,1.54-3.32,1.73v.19c1.54.11,2.99.77,4.09,1.86.95,1.03,1.45,2.39,1.4,3.78.03,1.33-.39,2.63-1.19,3.69-.86,1.12-2.01,2-3.32,2.54-1.53.64-3.18.96-4.84.93"/>
    <path id="Path_166" d="M27.54,25c-1.07.02-2.13-.19-3.11-.61-.88-.38-1.63-1.01-2.15-1.82-.55-.9-.83-1.95-.79-3.01-.03-.88.16-1.76.56-2.55.36-.67.88-1.25,1.52-1.66.67-.43,1.41-.75,2.19-.95.85-.22,1.71-.37,2.58-.45,1.06-.11,1.92-.22,2.57-.32.5-.05.98-.2,1.41-.44.29-.19.46-.53.44-.88v-.07c.04-.66-.22-1.3-.71-1.75-.57-.44-1.28-.66-2-.62-.77-.04-1.53.17-2.17.6-.51.37-.89.89-1.07,1.5l-4.68-.38c.22-1.06.7-2.05,1.4-2.88.73-.84,1.66-1.48,2.7-1.88,1.23-.46,2.53-.68,3.84-.66.99,0,1.97.12,2.92.36.89.22,1.73.59,2.48,1.1.72.49,1.31,1.15,1.72,1.92.44.87.66,1.83.63,2.8v12.3h-4.8v-2.53h-.14c-.29.57-.69,1.08-1.18,1.5-.52.45-1.12.79-1.77,1.01-.77.25-1.58.38-2.39.36M28.99,21.51c.68.01,1.36-.14,1.97-.45.55-.28,1.01-.69,1.34-1.2.33-.51.5-1.11.49-1.72v-1.94c-.2.12-.42.22-.65.28-.3.09-.61.17-.92.23-.34.07-.68.13-1.02.18l-.93.14c-.53.07-1.06.21-1.56.42-.4.16-.76.43-1.03.77-.25.35-.38.77-.37,1.19-.03.62.25,1.21.75,1.57.57.38,1.24.57,1.92.54"/>
    <path id="Path_167" d="M41.75,24.66V6.41h4.82v3.22h.21c.35-1.02,1.01-1.91,1.9-2.53,1.95-1.24,4.43-1.23,6.38,0,.87.61,1.49,1.5,1.76,2.52h.19c.37-1.04,1.08-1.93,2.02-2.51,1.04-.65,2.25-.98,3.47-.94,1.55-.06,3.05.53,4.15,1.62,1.13,1.25,1.71,2.91,1.6,4.59v12.27h-5.05v-11.27c.06-.84-.23-1.67-.81-2.28-.55-.51-1.27-.78-2.02-.76-.81-.04-1.6.28-2.15.87-.54.64-.81,1.46-.77,2.3v11.14h-4.9v-11.38c.04-.79-.24-1.56-.77-2.14-.53-.54-1.26-.83-2.01-.8-.53,0-1.06.14-1.51.42-.45.29-.82.69-1.06,1.18-.27.55-.41,1.15-.39,1.76v10.95h-5.07Z"/>
    <path id="Path_168" d="M75.42,24.96c-1.69,0-3.06-1.38-3.07-3.07-.01-.81.31-1.59.9-2.15,1.19-1.19,3.12-1.19,4.31,0,0,0,0,0,0,0,1.01.96,1.21,2.5.49,3.69-.28.46-.66.84-1.12,1.11-.46.28-.99.42-1.52.42"/>
    <g id="Group_37">
      <path id="Path_169" class="st0" d="M84.46,15.7h-1.85v-5.46h1.89c.49-.01.97.1,1.4.33.39.22.7.54.9.94.42.93.42,2,0,2.93-.2.4-.52.73-.91.94-.44.23-.93.34-1.43.33M83.61,14.85h.81c.33.01.66-.06.95-.21.26-.14.46-.36.57-.63.26-.67.26-1.41,0-2.09-.12-.26-.32-.48-.57-.62-.29-.15-.61-.22-.93-.21h-.84v3.75Z"/>
      <path id="Path_170" class="st0" d="M88.81,15.7v-5.46h3.55v.83h-2.56v1.48h2.38v.83h-2.38v1.49h2.59v.83h-3.57Z"/>
      <path id="Path_171" class="st0" d="M97.09,11.74c-.02-.22-.13-.42-.31-.54-.21-.14-.46-.21-.72-.19-.18,0-.36.03-.53.09-.13.05-.25.14-.34.25-.08.11-.12.23-.12.37,0,.11.02.21.08.3.05.09.13.16.21.21.09.06.19.11.3.15.11.04.22.07.33.1l.51.13c.21.05.41.11.6.19.19.08.36.18.51.31.15.12.27.28.36.45.09.19.14.41.13.62,0,.3-.08.59-.24.84-.18.25-.42.45-.71.57-.36.14-.74.21-1.12.2-.38,0-.76-.06-1.11-.2-.29-.12-.55-.32-.73-.58-.18-.27-.28-.59-.28-.92h.97c0,.17.07.34.18.48.11.13.24.23.4.28.18.06.37.1.56.09.19,0,.39-.03.57-.1.15-.06.28-.15.38-.27.09-.12.14-.26.14-.41,0-.13-.04-.25-.12-.35-.1-.1-.21-.18-.34-.24-.17-.07-.34-.13-.51-.17l-.62-.16c-.39-.09-.76-.27-1.07-.53-.26-.24-.41-.58-.39-.94,0-.3.09-.6.26-.85.18-.25.43-.44.72-.56.32-.14.67-.21,1.03-.2.35,0,.7.06,1.02.2.28.12.51.31.69.56.17.24.26.53.26.82h-.95Z"/>
      <rect id="Rectangle_38" class="st0" x="99.75" y="10.24" width=".99" height="5.46"/>
      <path id="Path_172" class="st0" d="M106.23,11.98c-.04-.14-.1-.27-.18-.39-.08-.11-.17-.21-.28-.3-.11-.08-.24-.15-.37-.19-.15-.04-.3-.06-.45-.06-.28,0-.55.07-.78.22-.24.16-.43.39-.54.65-.14.33-.21.68-.2,1.04-.01.36.06.72.2,1.05.22.55.76.9,1.35.88.25,0,.5-.05.72-.16.2-.1.36-.26.47-.45.11-.21.17-.45.17-.69l.23.03h-1.48v-.77h2.22v.66c.01.42-.09.84-.3,1.21-.19.34-.48.61-.82.79-.8.39-1.74.37-2.52-.06-.38-.23-.69-.57-.89-.97-.22-.47-.33-.98-.32-1.49,0-.4.06-.8.19-1.18.11-.33.29-.63.53-.88.22-.24.49-.43.79-.56.31-.13.65-.19.99-.19.29,0,.57.04.85.13.25.08.49.21.7.38.2.16.37.36.5.58.13.23.22.48.26.74h-1Z"/>
      <path id="Path_173" class="st0" d="M113.48,10.24v5.46h-.88l-2.57-3.72h-.05v3.72h-.99v-5.46h.89l2.57,3.73h.05v-3.73h.98Z"/>
      <path id="Path_174" class="st0" d="M85.58,20.67c-.02-.22-.13-.42-.31-.54-.21-.14-.46-.21-.72-.19-.18,0-.36.03-.53.09-.13.05-.25.14-.34.25-.08.11-.12.23-.12.37,0,.11.02.21.08.3.05.09.13.16.21.21.09.06.19.11.3.15.11.04.22.07.33.1l.51.13c.21.05.41.11.6.19.19.08.36.18.51.31.15.12.27.28.36.45.09.19.14.41.13.62,0,.3-.08.59-.24.84-.18.25-.42.45-.71.57-.36.14-.74.21-1.12.2-.38,0-.76-.06-1.11-.2-.29-.12-.55-.32-.73-.58-.18-.27-.28-.59-.28-.92h.97c0,.17.07.34.18.47.11.13.24.23.4.28.18.06.37.1.56.09.19,0,.39-.03.57-.1.15-.06.28-.15.38-.27.09-.12.14-.26.14-.41,0-.13-.04-.25-.12-.35-.1-.1-.21-.18-.34-.24-.17-.07-.34-.13-.51-.17l-.62-.16c-.39-.09-.76-.27-1.07-.53-.26-.24-.41-.58-.39-.94,0-.3.09-.6.26-.85.18-.25.43-.44.72-.56.32-.14.67-.21,1.03-.2.35,0,.7.06,1.02.2.28.12.51.31.69.56.17.24.26.53.26.82h-.95Z"/>
      <path id="Path_175" class="st0" d="M88,20v-.83h4.36v.83h-1.69v4.63h-.98v-4.63h-1.69Z"/>
      <path id="Path_176" class="st0" d="M97.4,19.17h.99v3.57c0,.36-.09.72-.28,1.03-.19.3-.46.54-.77.69-.74.33-1.59.33-2.34,0-.32-.15-.59-.39-.77-.69-.19-.31-.28-.67-.27-1.03v-3.57h.99v3.49c0,.21.05.42.15.61.1.18.25.32.43.42.41.2.89.2,1.3,0,.18-.1.33-.24.43-.42.1-.19.15-.4.15-.61v-3.49Z"/>
      <path id="Path_177" class="st0" d="M102.07,24.63h-1.85v-5.46h1.89c.49-.01.97.1,1.4.33.39.22.7.54.9.94.42.93.42,2,0,2.93-.2.4-.52.73-.91.94-.44.23-.93.34-1.43.33M101.21,23.77h.81c.33.01.66-.06.95-.21.26-.14.46-.36.57-.63.26-.67.26-1.41,0-2.09-.12-.26-.32-.48-.57-.62-.29-.15-.61-.22-.93-.21h-.84v3.75Z"/>
      <rect id="Rectangle_39" class="st0" x="106.41" y="19.17" width=".99" height="5.46"/>
      <path id="Path_178" class="st0" d="M114.11,21.9c.01.52-.1,1.04-.33,1.51-.2.4-.51.73-.9.96-.8.45-1.77.45-2.57,0-.39-.23-.7-.56-.9-.96-.44-.96-.44-2.06,0-3.02.2-.4.51-.73.9-.96.8-.44,1.77-.44,2.57,0,.39.23.7.56.9.96.23.47.34.99.33,1.51M113.11,21.9c.01-.36-.05-.72-.19-1.05-.11-.26-.3-.49-.54-.65-.48-.29-1.09-.29-1.58,0-.24.16-.42.38-.54.65-.26.68-.26,1.42,0,2.1.11.26.3.49.54.65.48.29,1.09.29,1.58,0,.24-.16.42-.38.54-.65.14-.33.2-.69.19-1.05"/>
    </g>
  </g>
</svg>