<svg xmlns="http://www.w3.org/2000/svg" width="114.106" height="25" viewBox="0 0 114.106 25">
  <g id="Group_38" data-name="Group 38" transform="translate(-101 -36)">
    <path id="Path_165" data-name="Path 165" d="M9.228,24.987a11.547,11.547,0,0,1-4.733-.92,7.967,7.967,0,0,1-3.266-2.542A6.335,6.335,0,0,1,0,17.778H5.178a2.648,2.648,0,0,0,.588,1.562,3.5,3.5,0,0,0,1.443,1.039,5.329,5.329,0,0,0,2.031.369,4.918,4.918,0,0,0,2.078-.416,3.406,3.406,0,0,0,1.413-1.152,3.055,3.055,0,0,0-.03-3.426,3.559,3.559,0,0,0-1.544-1.182,6.057,6.057,0,0,0-2.381-.427H6.508V10.367H8.777a4.97,4.97,0,0,0,2.06-.4,3.305,3.305,0,0,0,1.4-1.122,2.874,2.874,0,0,0,.5-1.681,2.9,2.9,0,0,0-1.645-2.7,3.976,3.976,0,0,0-1.811-.392,4.781,4.781,0,0,0-1.912.374A3.394,3.394,0,0,0,5.974,5.51a2.777,2.777,0,0,0-.558,1.615H.486a6.332,6.332,0,0,1,1.2-3.705A7.822,7.822,0,0,1,4.827.908,10.6,10.6,0,0,1,9.3,0a10,10,0,0,1,4.406.915,7.3,7.3,0,0,1,2.939,2.465,5.984,5.984,0,0,1,1.039,3.474,4.759,4.759,0,0,1-1.265,3.409,5.812,5.812,0,0,1-3.32,1.734v.19a6.5,6.5,0,0,1,4.091,1.858,5.3,5.3,0,0,1,1.4,3.783,5.953,5.953,0,0,1-1.194,3.693,8.07,8.07,0,0,1-3.319,2.541,11.962,11.962,0,0,1-4.845.926" transform="translate(101 36.001)" fill="#fff"/>
    <path id="Path_166" data-name="Path 166" d="M63.25,35.265a7.541,7.541,0,0,1-3.112-.612,4.917,4.917,0,0,1-2.155-1.817,5.381,5.381,0,0,1-.79-3.011,5.319,5.319,0,0,1,.558-2.553,4.522,4.522,0,0,1,1.52-1.663,7.379,7.379,0,0,1,2.191-.95,16.543,16.543,0,0,1,2.583-.452q1.591-.166,2.565-.315a3.583,3.583,0,0,0,1.413-.445.991.991,0,0,0,.439-.879V22.5a2.2,2.2,0,0,0-.706-1.746,2.947,2.947,0,0,0-2-.617,3.57,3.57,0,0,0-2.173.6,2.817,2.817,0,0,0-1.068,1.5l-4.679-.38a6.4,6.4,0,0,1,1.4-2.88,6.8,6.8,0,0,1,2.7-1.877,10.354,10.354,0,0,1,3.842-.659A11.753,11.753,0,0,1,68.7,16.8a7.7,7.7,0,0,1,2.482,1.1,5.4,5.4,0,0,1,1.716,1.918,5.819,5.819,0,0,1,.63,2.8v12.3h-4.8v-2.53h-.143a5.083,5.083,0,0,1-1.176,1.5,5.311,5.311,0,0,1-1.77,1.009,7.194,7.194,0,0,1-2.387.362M64.7,31.773a4.21,4.21,0,0,0,1.971-.446,3.447,3.447,0,0,0,1.342-1.205A3.119,3.119,0,0,0,68.5,28.4V26.464a2.569,2.569,0,0,1-.647.279,9.433,9.433,0,0,1-.921.226q-.51.1-1.021.178l-.926.136a6.265,6.265,0,0,0-1.556.415,2.515,2.515,0,0,0-1.033.766,1.908,1.908,0,0,0-.368,1.194,1.815,1.815,0,0,0,.754,1.574,3.211,3.211,0,0,0,1.918.54" transform="translate(65.291 25.735)" fill="#fff"/>
    <path id="Path_167" data-name="Path 167" d="M111.128,34.921V16.678h4.822V19.9h.214a5.062,5.062,0,0,1,1.9-2.53,5.937,5.937,0,0,1,6.377.006A4.447,4.447,0,0,1,126.2,19.9h.19a4.873,4.873,0,0,1,2.025-2.512,6.278,6.278,0,0,1,3.474-.944,5.57,5.57,0,0,1,4.151,1.621,6.265,6.265,0,0,1,1.6,4.59V34.921h-5.047V23.65a2.986,2.986,0,0,0-.808-2.28,2.832,2.832,0,0,0-2.019-.76,2.719,2.719,0,0,0-2.149.873,3.34,3.34,0,0,0-.772,2.3v11.14h-4.9V23.543a2.951,2.951,0,0,0-.767-2.138,2.666,2.666,0,0,0-2.013-.8,2.786,2.786,0,0,0-1.514.421,2.972,2.972,0,0,0-1.063,1.176,3.769,3.769,0,0,0-.392,1.764v10.95Z" transform="translate(31.617 25.735)" fill="#fff"/>
    <path id="Path_168" data-name="Path 168" d="M195.669,56.3a3.077,3.077,0,0,1-3.068-3.068,2.919,2.919,0,0,1,.9-2.148,3.048,3.048,0,0,1,4.315,0,2.972,2.972,0,0,1,.492,3.688,3.286,3.286,0,0,1-1.118,1.112,2.9,2.9,0,0,1-1.521.415" transform="translate(-19.251 4.664)" fill="#fff"/>
    <g id="Group_37" data-name="Group 37" transform="translate(0.858)">
      <path id="Path_169" data-name="Path 169" d="M219.493,32.722h-1.851V27.258h1.889a2.831,2.831,0,0,1,1.4.327,2.207,2.207,0,0,1,.9.938,3.556,3.556,0,0,1,0,2.929,2.2,2.2,0,0,1-.91.942,2.9,2.9,0,0,1-1.426.328m-.861-.856h.814a1.962,1.962,0,0,0,.952-.209,1.324,1.324,0,0,0,.574-.627,2.929,2.929,0,0,0,0-2.086,1.32,1.32,0,0,0-.567-.622,1.9,1.9,0,0,0-.93-.207h-.843Z" transform="translate(-34.886 18.981)" fill="#999"/>
      <path id="Path_170" data-name="Path 170" d="M234.131,32.722V27.258h3.553v.83H235.12v1.483h2.38v.83h-2.38v1.491h2.586v.83Z" transform="translate(-45.18 18.981)" fill="#999"/>
      <path id="Path_171" data-name="Path 171" d="M250.924,28.637a.729.729,0,0,0-.313-.544,1.216,1.216,0,0,0-.717-.195,1.357,1.357,0,0,0-.53.094.79.79,0,0,0-.339.254.618.618,0,0,0-.12.366.543.543,0,0,0,.079.3.687.687,0,0,0,.214.212,1.5,1.5,0,0,0,.3.145,3.383,3.383,0,0,0,.334.1l.512.128a3.585,3.585,0,0,1,.6.195,2.142,2.142,0,0,1,.515.31,1.381,1.381,0,0,1,.361.451,1.361,1.361,0,0,1,.133.619,1.475,1.475,0,0,1-.245.844,1.615,1.615,0,0,1-.709.568,2.766,2.766,0,0,1-1.119.2,2.834,2.834,0,0,1-1.107-.2,1.636,1.636,0,0,1-.731-.576,1.7,1.7,0,0,1-.284-.923h.974a.823.823,0,0,0,.176.475.929.929,0,0,0,.4.282,1.582,1.582,0,0,0,.559.094,1.518,1.518,0,0,0,.566-.1.9.9,0,0,0,.383-.272.651.651,0,0,0,.142-.41.525.525,0,0,0-.125-.353.938.938,0,0,0-.343-.235,3.522,3.522,0,0,0-.514-.169l-.621-.16a2.483,2.483,0,0,1-1.066-.527,1.207,1.207,0,0,1-.391-.94,1.4,1.4,0,0,1,.263-.846,1.725,1.725,0,0,1,.717-.564,2.5,2.5,0,0,1,1.027-.2,2.425,2.425,0,0,1,1.021.2,1.682,1.682,0,0,1,.69.557,1.435,1.435,0,0,1,.258.818Z" transform="translate(-53.688 19.105)" fill="#999"/>
      <rect id="Rectangle_38" data-name="Rectangle 38" width="0.99" height="5.464" transform="translate(199.894 46.24)" fill="#999"/>
      <path id="Path_172" data-name="Path 172" d="M274.192,28.88a1.421,1.421,0,0,0-.183-.388,1.207,1.207,0,0,0-.278-.295,1.156,1.156,0,0,0-.37-.186,1.568,1.568,0,0,0-.453-.063,1.421,1.421,0,0,0-.784.221,1.478,1.478,0,0,0-.54.65,2.491,2.491,0,0,0-.2,1.042,2.526,2.526,0,0,0,.195,1.048,1.4,1.4,0,0,0,1.347.875,1.536,1.536,0,0,0,.722-.16,1.127,1.127,0,0,0,.471-.455,1.393,1.393,0,0,0,.165-.692l.225.035h-1.484v-.774h2.217v.656a2.367,2.367,0,0,1-.3,1.214,2.027,2.027,0,0,1-.822.788,2.743,2.743,0,0,1-2.524-.064,2.317,2.317,0,0,1-.889-.968,3.259,3.259,0,0,1-.319-1.492,3.463,3.463,0,0,1,.189-1.182,2.535,2.535,0,0,1,.527-.884,2.277,2.277,0,0,1,.794-.555,2.549,2.549,0,0,1,.993-.191,2.63,2.63,0,0,1,.846.132,2.276,2.276,0,0,1,.7.375,2.1,2.1,0,0,1,.5.576,2.028,2.028,0,0,1,.259.736Z" transform="translate(-67.821 19.105)" fill="#999"/>
      <path id="Path_173" data-name="Path 173" d="M292.351,27.258v5.464h-.881L288.9,29h-.045v3.722h-.99V27.258h.886l2.572,3.725h.048V27.258Z" transform="translate(-78.727 18.981)" fill="#999"/>
      <path id="Path_174" data-name="Path 174" d="M220.284,52.4a.729.729,0,0,0-.313-.544,1.216,1.216,0,0,0-.717-.195,1.357,1.357,0,0,0-.53.094.79.79,0,0,0-.339.254.617.617,0,0,0-.12.366.543.543,0,0,0,.079.3.686.686,0,0,0,.214.212,1.5,1.5,0,0,0,.3.145,3.386,3.386,0,0,0,.334.1l.512.128a3.586,3.586,0,0,1,.6.195,2.143,2.143,0,0,1,.515.31,1.381,1.381,0,0,1,.361.451,1.36,1.36,0,0,1,.133.619,1.474,1.474,0,0,1-.245.844,1.615,1.615,0,0,1-.709.568,2.766,2.766,0,0,1-1.119.2,2.834,2.834,0,0,1-1.107-.2,1.636,1.636,0,0,1-.731-.576,1.7,1.7,0,0,1-.284-.923h.974a.824.824,0,0,0,.176.475.929.929,0,0,0,.4.282,1.582,1.582,0,0,0,.559.094,1.518,1.518,0,0,0,.566-.1.9.9,0,0,0,.383-.272.651.651,0,0,0,.142-.41.525.525,0,0,0-.125-.353.937.937,0,0,0-.343-.235,3.521,3.521,0,0,0-.514-.169l-.621-.16a2.485,2.485,0,0,1-1.066-.527,1.207,1.207,0,0,1-.391-.94,1.4,1.4,0,0,1,.263-.846,1.725,1.725,0,0,1,.717-.564,2.5,2.5,0,0,1,1.027-.2,2.425,2.425,0,0,1,1.021.2,1.683,1.683,0,0,1,.69.557,1.435,1.435,0,0,1,.258.818Z" transform="translate(-34.558 4.268)" fill="#999"/>
      <path id="Path_175" data-name="Path 175" d="M231.986,51.852v-.83h4.359v.83h-1.689v4.634h-.982V51.852Z" transform="translate(-43.841 4.144)" fill="#999"/>
      <path id="Path_176" data-name="Path 176" d="M251.265,51.022h.99v3.57a1.923,1.923,0,0,1-.276,1.033,1.872,1.872,0,0,1-.775.695,2.856,2.856,0,0,1-2.335,0,1.869,1.869,0,0,1-.773-.695,1.926,1.926,0,0,1-.275-1.033v-3.57h.99v3.487a1.215,1.215,0,0,0,.151.608,1.069,1.069,0,0,0,.426.418,1.484,1.484,0,0,0,1.3,0,1.06,1.06,0,0,0,.426-.418,1.222,1.222,0,0,0,.15-.608Z" transform="translate(-53.727 4.144)" fill="#999"/>
      <path id="Path_177" data-name="Path 177" d="M266.345,56.486h-1.851V51.022h1.889a2.831,2.831,0,0,1,1.4.327,2.207,2.207,0,0,1,.9.938,3.556,3.556,0,0,1,0,2.929,2.2,2.2,0,0,1-.91.942,2.9,2.9,0,0,1-1.426.328m-.861-.856h.814a1.962,1.962,0,0,0,.952-.209,1.324,1.324,0,0,0,.574-.627,2.929,2.929,0,0,0,0-2.086,1.32,1.32,0,0,0-.567-.622,1.9,1.9,0,0,0-.93-.207h-.843Z" transform="translate(-64.138 4.144)" fill="#999"/>
      <rect id="Rectangle_39" data-name="Rectangle 39" width="0.99" height="5.464" transform="translate(206.55 55.166)" fill="#999"/>
      <path id="Path_178" data-name="Path 178" d="M293.13,53.63a3.22,3.22,0,0,1-.329,1.511,2.355,2.355,0,0,1-.9.962,2.636,2.636,0,0,1-2.569,0,2.368,2.368,0,0,1-.9-.963,3.625,3.625,0,0,1,0-3.02,2.355,2.355,0,0,1,.9-.962,2.641,2.641,0,0,1,2.569,0,2.355,2.355,0,0,1,.9.962,3.22,3.22,0,0,1,.329,1.511m-1,0a2.54,2.54,0,0,0-.193-1.05,1.463,1.463,0,0,0-.535-.648,1.52,1.52,0,0,0-1.575,0,1.466,1.466,0,0,0-.535.648,2.957,2.957,0,0,0,0,2.1,1.466,1.466,0,0,0,.535.648,1.52,1.52,0,0,0,1.575,0,1.463,1.463,0,0,0,.535-.648,2.542,2.542,0,0,0,.193-1.05" transform="translate(-78.882 4.269)" fill="#999"/>
    </g>
  </g>
</svg>
