<svg xmlns="http://www.w3.org/2000/svg" width="271.201" height="89.065" viewBox="0 0 271.201 89.065">
  <g id="Group_56" data-name="Group 56" transform="translate(-976.678 -5499.773)">
    <path id="Path_194" data-name="Path 194" d="M9.86-39.707H2.379l11.4-33.02h9l11.383,33.02H26.677L18.406-65.182h-.258ZM9.393-52.686H27.064v5.45H9.393ZM45.106-72.727v33.02H38.124v-33.02Zm47.87,33.02v-33.02h6.981V-59.1h14.172V-72.727h6.965v33.02h-6.965v-13.64H99.957v13.64ZM142.6-50.251V-64.472h6.868v24.765h-6.594v-4.5h-.258a7.328,7.328,0,0,1-2.781,3.5,8.212,8.212,0,0,1-4.732,1.322,8.346,8.346,0,0,1-4.369-1.129,7.706,7.706,0,0,1-2.943-3.209,11.029,11.029,0,0,1-1.072-4.982V-64.472h6.868v14.543a5.009,5.009,0,0,0,1.177,3.466,4,4,0,0,0,3.112,1.274,4.885,4.885,0,0,0,2.322-.572,4.427,4.427,0,0,0,1.749-1.7A5.283,5.283,0,0,0,142.6-50.251Zm12.35,10.545V-64.472H161.5V-60.1h.29a6.87,6.87,0,0,1,2.58-3.434,7.37,7.37,0,0,1,4.321-1.258,7.318,7.318,0,0,1,4.337,1.266,6.034,6.034,0,0,1,2.386,3.426h.258a6.617,6.617,0,0,1,2.749-3.41,8.522,8.522,0,0,1,4.716-1.282,7.563,7.563,0,0,1,5.635,2.2,8.5,8.5,0,0,1,2.169,6.232v16.655h-6.852v-15.3a4.055,4.055,0,0,0-1.1-3.1,3.844,3.844,0,0,0-2.741-1.032,3.693,3.693,0,0,0-2.918,1.185,4.536,4.536,0,0,0-1.048,3.12v15.124h-6.659V-55.153a4.008,4.008,0,0,0-1.04-2.9,3.621,3.621,0,0,0-2.733-1.08,3.783,3.783,0,0,0-2.056.572,4.037,4.037,0,0,0-1.443,1.6,5.123,5.123,0,0,0-.532,2.394v14.866Zm48.466.468a10.234,10.234,0,0,1-4.224-.83,6.677,6.677,0,0,1-2.926-2.467,7.308,7.308,0,0,1-1.072-4.087,7.22,7.22,0,0,1,.758-3.466,6.136,6.136,0,0,1,2.064-2.257,10,10,0,0,1,2.975-1.29,22.4,22.4,0,0,1,3.507-.613q2.161-.226,3.483-.427a4.864,4.864,0,0,0,1.919-.6,1.346,1.346,0,0,0,.6-1.193v-.1a2.98,2.98,0,0,0-.959-2.37,4,4,0,0,0-2.717-.838,4.84,4.84,0,0,0-2.951.814,3.822,3.822,0,0,0-1.451,2.04l-6.353-.516a8.688,8.688,0,0,1,1.9-3.91,9.228,9.228,0,0,1,3.668-2.547,14.045,14.045,0,0,1,5.216-.895,15.94,15.94,0,0,1,3.958.484,10.437,10.437,0,0,1,3.37,1.5,7.336,7.336,0,0,1,2.33,2.6,7.908,7.908,0,0,1,.855,3.8v16.7h-6.514v-3.434h-.193a6.887,6.887,0,0,1-1.6,2.04,7.2,7.2,0,0,1-2.4,1.37A9.782,9.782,0,0,1,203.42-39.239Zm1.967-4.74a5.711,5.711,0,0,0,2.676-.6,4.681,4.681,0,0,0,1.822-1.637,4.24,4.24,0,0,0,.661-2.338v-2.628a3.512,3.512,0,0,1-.879.379q-.556.169-1.25.306t-1.387.242q-.693.1-1.258.185a8.5,8.5,0,0,0-2.112.564,3.409,3.409,0,0,0-1.4,1.04,2.587,2.587,0,0,0-.5,1.62,2.464,2.464,0,0,0,1.024,2.136A4.361,4.361,0,0,0,205.387-43.98Zm24.185-10.045v14.317H222.7V-64.472h6.546V-60.1h.29a6.952,6.952,0,0,1,2.757-3.426,8.384,8.384,0,0,1,4.692-1.266,8.71,8.71,0,0,1,4.5,1.129,7.682,7.682,0,0,1,2.983,3.217,10.832,10.832,0,0,1,1.064,4.974v15.769h-6.869V-54.25a5,5,0,0,0-1.161-3.555,4.181,4.181,0,0,0-3.241-1.282,4.881,4.881,0,0,0-2.443.6,4.1,4.1,0,0,0-1.645,1.733A6.015,6.015,0,0,0,229.572-54.024ZM11.15-27.324V5.7H4.169v-33.02Zm12.5,18.7V5.7H16.777V-19.069h6.546V-14.7h.29a6.952,6.952,0,0,1,2.757-3.426,8.383,8.383,0,0,1,4.692-1.266,8.71,8.71,0,0,1,4.5,1.129,7.682,7.682,0,0,1,2.983,3.217,10.833,10.833,0,0,1,1.064,4.974V5.7H32.739V-8.847A5,5,0,0,0,31.578-12.4a4.181,4.181,0,0,0-3.241-1.282,4.881,4.881,0,0,0-2.443.6,4.1,4.1,0,0,0-1.645,1.733A6.015,6.015,0,0,0,23.646-8.621ZM58.182-19.069v5.159H43.268v-5.159ZM46.654-25h6.869V-1.914a3.08,3.08,0,0,0,.29,1.475,1.588,1.588,0,0,0,.814.734A3.263,3.263,0,0,0,55.844.5a5.354,5.354,0,0,0,.967-.089l.742-.137,1.08,5.111q-.516.161-1.451.379a12.127,12.127,0,0,1-2.273.266,10.382,10.382,0,0,1-4.345-.661A6.071,6.071,0,0,1,47.669,3.02a7.2,7.2,0,0,1-1.016-4.031ZM73.676,6.18a13.131,13.131,0,0,1-6.57-1.556A10.524,10.524,0,0,1,62.874.206a14.552,14.552,0,0,1-1.483-6.78,14.477,14.477,0,0,1,1.483-6.707,10.948,10.948,0,0,1,4.184-4.5A12.143,12.143,0,0,1,73.4-19.392a13.107,13.107,0,0,1,4.571.782,10.3,10.3,0,0,1,3.708,2.346,10.686,10.686,0,0,1,2.475,3.926,15.682,15.682,0,0,1,.887,5.522v1.886H64.131V-9.186H78.578a5.262,5.262,0,0,0-.645-2.628,4.693,4.693,0,0,0-1.782-1.8,5.2,5.2,0,0,0-2.636-.653,5.288,5.288,0,0,0-2.765.717,5.146,5.146,0,0,0-1.878,1.919,5.465,5.465,0,0,0-.693,2.668v4.047a6.888,6.888,0,0,0,.685,3.176A4.9,4.9,0,0,0,70.806.327a5.868,5.868,0,0,0,2.983.726,6.5,6.5,0,0,0,2.1-.322,4.35,4.35,0,0,0,1.628-.967,4.206,4.206,0,0,0,1.032-1.58L84.9-1.4a8.66,8.66,0,0,1-1.975,3.991,9.923,9.923,0,0,1-3.837,2.644A14.421,14.421,0,0,1,73.676,6.18Zm22.718-33.5V5.7H89.525v-33.02Zm12.35,0V5.7h-6.868v-33.02ZM114.226,5.7V-19.069h6.868V5.7Zm3.466-27.958a3.716,3.716,0,0,1-2.628-1.024,3.246,3.246,0,0,1-1.1-2.459,3.229,3.229,0,0,1,1.1-2.443,3.7,3.7,0,0,1,2.612-1.024,3.708,3.708,0,0,1,2.636,1.024,3.24,3.24,0,0,1,1.088,2.443,3.257,3.257,0,0,1-1.088,2.459A3.688,3.688,0,0,1,117.693-22.262Zm20.041,37.6a16.128,16.128,0,0,1-5.716-.9A9.674,9.674,0,0,1,128.237,12a7.377,7.377,0,0,1-1.822-3.4l6.353-.855a3.95,3.95,0,0,0,.919,1.282,4.776,4.776,0,0,0,1.669.992,7.317,7.317,0,0,0,2.539.387,6.118,6.118,0,0,0,3.7-1.064,4.039,4.039,0,0,0,1.459-3.5V1.311h-.29a6.527,6.527,0,0,1-1.354,1.951,6.825,6.825,0,0,1-2.322,1.5,8.924,8.924,0,0,1-3.386.58,10.073,10.073,0,0,1-5.071-1.3A9.121,9.121,0,0,1,127,.061a15.12,15.12,0,0,1-1.346-6.8,16.035,16.035,0,0,1,1.37-7.03,9.826,9.826,0,0,1,3.652-4.224,9.375,9.375,0,0,1,5.006-1.4,7.746,7.746,0,0,1,3.483.7,6.9,6.9,0,0,1,2.265,1.741,9.613,9.613,0,0,1,1.33,2.04h.258v-4.16h6.82V5.938a8.464,8.464,0,0,1-1.548,5.184,9.434,9.434,0,0,1-4.281,3.152A17.223,17.223,0,0,1,137.734,15.338ZM137.879.182a4.686,4.686,0,0,0,2.814-.83,5.238,5.238,0,0,0,1.774-2.386,10.069,10.069,0,0,0,.621-3.733,10.583,10.583,0,0,0-.613-3.781,5.518,5.518,0,0,0-1.774-2.491,4.511,4.511,0,0,0-2.822-.887,4.481,4.481,0,0,0-2.854.911,5.571,5.571,0,0,0-1.757,2.523,10.7,10.7,0,0,0-.6,3.724,10.208,10.208,0,0,0,.6,3.7,5.242,5.242,0,0,0,1.757,2.4A4.677,4.677,0,0,0,137.879.182Zm28.732,6a13.131,13.131,0,0,1-6.57-1.556A10.524,10.524,0,0,1,155.808.206a14.552,14.552,0,0,1-1.483-6.78,14.477,14.477,0,0,1,1.483-6.707,10.948,10.948,0,0,1,4.184-4.5,12.143,12.143,0,0,1,6.344-1.612,13.107,13.107,0,0,1,4.571.782,10.3,10.3,0,0,1,3.708,2.346,10.686,10.686,0,0,1,2.475,3.926,15.682,15.682,0,0,1,.887,5.522v1.886H157.066V-9.186h14.446a5.262,5.262,0,0,0-.645-2.628,4.693,4.693,0,0,0-1.782-1.8,5.2,5.2,0,0,0-2.636-.653,5.288,5.288,0,0,0-2.765.717,5.146,5.146,0,0,0-1.878,1.919,5.465,5.465,0,0,0-.693,2.668v4.047a6.888,6.888,0,0,0,.685,3.176A4.9,4.9,0,0,0,163.741.327a5.868,5.868,0,0,0,2.983.726,6.5,6.5,0,0,0,2.1-.322,4.35,4.35,0,0,0,1.628-.967,4.206,4.206,0,0,0,1.032-1.58l6.353.419a8.659,8.659,0,0,1-1.975,3.991,9.923,9.923,0,0,1-3.837,2.644A14.421,14.421,0,0,1,166.611,6.18Zm22.718-14.8V5.7H182.46V-19.069h6.546V-14.7h.29a6.951,6.951,0,0,1,2.757-3.426,8.383,8.383,0,0,1,4.692-1.266,8.71,8.71,0,0,1,4.5,1.129,7.682,7.682,0,0,1,2.983,3.217,10.833,10.833,0,0,1,1.064,4.974V5.7h-6.869V-8.847a5,5,0,0,0-1.161-3.555,4.181,4.181,0,0,0-3.241-1.282,4.881,4.881,0,0,0-2.443.6,4.1,4.1,0,0,0-1.645,1.733A6.015,6.015,0,0,0,189.328-8.621Zm32.553,14.8a12.592,12.592,0,0,1-6.538-1.62A10.778,10.778,0,0,1,211.151.053a14.528,14.528,0,0,1-1.459-6.643,14.456,14.456,0,0,1,1.475-6.683,10.911,10.911,0,0,1,4.2-4.5,12.451,12.451,0,0,1,6.482-1.62,12.9,12.9,0,0,1,5.675,1.177,9.486,9.486,0,0,1,3.853,3.305,9.713,9.713,0,0,1,1.564,5H226.46a5.066,5.066,0,0,0-1.443-2.991,4.2,4.2,0,0,0-3.055-1.137,4.6,4.6,0,0,0-2.781.863,5.57,5.57,0,0,0-1.846,2.507,10.685,10.685,0,0,0-.661,3.982,11.035,11.035,0,0,0,.653,4.031,5.541,5.541,0,0,0,1.846,2.531,4.605,4.605,0,0,0,2.789.871,4.578,4.578,0,0,0,2.12-.484,4.136,4.136,0,0,0,1.564-1.411,5.375,5.375,0,0,0,.814-2.233h6.482a10.151,10.151,0,0,1-1.54,4.99,9.387,9.387,0,0,1-3.8,3.362A12.66,12.66,0,0,1,221.881,6.18Zm26.765,0a13.131,13.131,0,0,1-6.57-1.556A10.525,10.525,0,0,1,237.843.206a14.552,14.552,0,0,1-1.483-6.78,14.478,14.478,0,0,1,1.483-6.707,10.948,10.948,0,0,1,4.184-4.5,12.143,12.143,0,0,1,6.344-1.612,13.107,13.107,0,0,1,4.571.782,10.3,10.3,0,0,1,3.708,2.346,10.686,10.686,0,0,1,2.475,3.926,15.682,15.682,0,0,1,.887,5.522v1.886H239.1V-9.186h14.446a5.262,5.262,0,0,0-.645-2.628,4.693,4.693,0,0,0-1.782-1.8,5.2,5.2,0,0,0-2.636-.653,5.288,5.288,0,0,0-2.765.717,5.146,5.146,0,0,0-1.878,1.919,5.465,5.465,0,0,0-.693,2.668v4.047a6.888,6.888,0,0,0,.685,3.176A4.905,4.905,0,0,0,245.776.327a5.868,5.868,0,0,0,2.983.726,6.5,6.5,0,0,0,2.1-.322,4.35,4.35,0,0,0,1.628-.967,4.206,4.206,0,0,0,1.032-1.58l6.353.419a8.659,8.659,0,0,1-1.975,3.991,9.923,9.923,0,0,1-3.837,2.644A14.421,14.421,0,0,1,248.646,6.18Zm19.864-.064a3.726,3.726,0,0,1-2.733-1.137,3.726,3.726,0,0,1-1.137-2.733,3.681,3.681,0,0,1,1.137-2.709,3.74,3.74,0,0,1,2.733-1.129,3.764,3.764,0,0,1,2.709,1.129,3.644,3.644,0,0,1,1.161,2.709,3.638,3.638,0,0,1-.54,1.943,4.144,4.144,0,0,1-1.411,1.4A3.65,3.65,0,0,1,268.51,6.115Z" transform="translate(975 5573)" stroke="rgba(0,0,0,0)" stroke-miterlimit="10" stroke-width="1"/>
    <path id="Path_193" data-name="Path 193" d="M7.724,20.676V0h5.228V20.676ZM0,12.952V7.724H20.676v5.228H0Z" transform="translate(1044.742 5502.423) rotate(45)" stroke="rgba(0,0,0,0)" stroke-miterlimit="10" stroke-width="1"/>
  </g>
</svg>
