<svg xmlns="http://www.w3.org/2000/svg" width="1646.502" height="767.493" viewBox="0 0 1646.502 767.493">
  <g id="ayoh" transform="translate(-9.246 -18.818)">
    <path id="Path_179" data-name="Path 179" d="M355.786,638.209c7.064,1.391,23.912,5.588,29.056,1.245,2.958-3.085,1.755-9.013,1.689-13.149-.346-6.991-.486-13.666-.51-20.523-.121-35.027-.067-74.451,2.108-107.485,1.688-26.949,4.009-52.658,7.331-77.876,15.913-113.334,36.788-222.125,80.974-311.553,1.676-3.31,2.375-6.329-.541-9.578a31.667,31.667,0,0,0-4.646-4.118,97.1,97.1,0,0,0-9.961-6.487,283.352,283.352,0,0,0-47.654-21.373c-10.216-3.268-21.968-7.325-32.421-7.622-5.314.638-4.482,6.42-6.869,10.854-1.537,3.013-4.294,5.035-7.161,6.693q-10.158,5.913-20.656,13.113c-60.779,42.358-109.817,98.2-155.983,157.933a1029.481,1029.481,0,0,0-61.338,89.41,19,19,0,0,1-10.271,8.291c-16.526,4.179-32.166,6.906-45.643,12.4-7.1,2.818-14.826,6.487-20.389,11.7-9.949,9.378,3.626,7.41,9.876,7.6H87.927c3.924.255,9.074-.8,12.512,1.3,2.527,2.12-.37,6.408-1.64,8.91-14.388,25.94-26.25,48.194-38.671,72.975-17.194,34.717-33,67.405-44.313,102.438-4.9,17.122-12.56,38.92,1.585,53.818C28.988,628.82,40.741,632.063,57.82,638.3c6.754,2.284,12.785,2.927,13.083-5.916,4.245-41.392,14.395-82.14,28.37-121.709,13.872-41.374,33.7-81.229,54.3-119.918,2.642-5.32,7.7-7.987,13.587-7.683,9.584-.018,19.314,0,29.214-.006h59.85c14.437.231,27.556-.7,41.6,1.045,5.995.814,11.941,1.919,11.588,9.038-4.106,30.848-8.236,60.827-10.046,90.6-2.363,33.66-3.262,66.634-3.116,99.85,0,4.118,0,8.133.091,12.226.207,5.345-.1,11.424,2.849,15.925,11.71,14.249,38.9,21.829,56.473,26.414l.128.03v.012h-.006ZM183.508,336.818c-.686-1.263,1.415-4.671,2.587-6.42,14.467-22.308,29.068-42.928,44.915-63.293,30.077-38.1,60.809-73.94,99.037-101.509a159.822,159.822,0,0,1,22.813-13.672c5.138-2.484,9.821-4.719,8.5,3.025-7.446,40.189-19.77,80.05-28.552,119.705-3.911,16.7-7.458,33.611-10.92,50.49a10.388,10.388,0,0,1-2.606,5.217,9.436,9.436,0,0,1-5.788,2.29c-46.093.492-88.657,2.041-126.666,5.351-1.725.018-2.927-.285-3.3-1.136l-.024-.049h0Z" transform="translate(0 -15.968)" stroke="#fff" stroke-miterlimit="10" stroke-width="0.1"/>
    <path id="Path_180" data-name="Path 180" d="M1185.467,504.768c-6.991-5.357-14.067-10.107-20.529-15.949-5.879-5.15-11.74-10.714-18.543-14.625-44.441-24.246-97.518,34.219-125.36,70.308-23.347,32.008-76.643,60.961-107.576,56.224-27.246-3.741-24.434-34.474-17.031-55.106,3.371-9.876,7.944-18.033,9.56-28.109,2.824-14.868-7.021-26.615-21.98-29.658-20.492-4.616-33.873,7.987-43.991,24.173-3.456,5.223-6.614,10.155-9.888,15.336-36.241,57.645-66.148,149.958-124.843,180.751-3.426,1.871-8.546,3.948-11.576,3.213-2.308-.431-3.911-2.047-4.9-4.464-14.279-50.5,53.375-155.133,79.589-204.56,3.851-6.6,6.068-14.455,1.992-21.732-8.375-14.346-31.115-14.291-46.075-7.185-7.076,3.5-11.424,8.06-16.016,13.635-44.21,55.4-133.17,198.152-64.3,257.334,51.006,36.393,92.878-29.694,121.965-68.62,1.877-2.029,6.013-7.732,8.74-5.454,1.251,1.045,1.075,5.709.34,8.831C743.8,787.781,665.668,943.885,540.186,925.913c-5.843-.437-14.5-1.524-15.706,4.47,0,5.885,5.642,10.021,9.93,13.326,6.074,4.294,12.821,7.015,20.5,9.42,238.627,74.177,213.98-304.155,393.134-333.315,10.683-1.761,21.883.638,25.892,11.516,4.428,11.388,2.946,23.693,3.419,35.324,12.493,246.547,347.788-40.517,208.2-161.82l-.1-.073h.006ZM1156.593,624.54c-10.945,37.742-32.008,76.759-64.052,100.834-10.447,7.531-25.7,16.514-38.7,17.3a16.68,16.68,0,0,1-10-3.183c-74.347-59.941,131.883-323.111,122.973-176.39-1.184,21.069-4.9,40.463-10.192,61.319l-.03.115h0Z" transform="translate(-202.281 -176.472)" stroke="#fff" stroke-miterlimit="10" stroke-width="0.1"/>
    <path id="Path_181" data-name="Path 181" d="M2002.606,289.437a92.14,92.14,0,0,0-30.884-11.078c-23.8-4.343-45.819,8.139-64.866,21.361-35.64,25.315-66.348,58.489-95.623,91.572-5.958,6.784-11.722,13.6-16.824,19.466-4.786,5.144-17.492,21.118-20.863,17.5-2.654-5.551,3.426-22.74,6.11-31.613,7.811-23.681,17.1-47.052,27.2-69.865,22.539-50.715,47.915-99.474,80.482-144.431,8.916-12.518,18.184-24.817,27.7-36.867,15.555-19.788,31.5-38.227,48.1-56.9,7.24-8.242,15.561-18.992,18.3-28.2,8.3-24.9-21.6-39.43-42.473-41.094-28.23-2.812-48.31,17.079-64.1,38.689a981.515,981.515,0,0,0-60.505,91.341c-57.979,98.186-97.16,206.716-123.653,317.4-7.537,36.466-20.717,90.285-8.758,125.42,3.656,9.991,11.1,19.235,21.537,14.2,8.649-4.13,16.138-16.375,21.476-25.9,6.857-12.512,13.338-25.364,20.535-37.735,29.056-50.229,63.063-97.324,103.379-138.977,13.824-13.811,29.269-29.123,45.819-38.841,36.223-19.679,2.867,41.228-2.174,53.806-12.724,28.461-25.157,57.432-34.687,87.169-5.12,16.569-9.426,34.577-6.256,51.766,3.59,21.452,20.073,34.51,41.938,33.49,12.408-.067,28.813-6.474,36.758-14.492,4.416-4.306,4.482-9.268,1.245-14.364-10.981-15.822-15.962-24.653-10.258-45.637,2.29-8.546,5.934-17.292,9.6-25.57,6.748-15.087,14.425-29.785,22.5-44.192a843.372,843.372,0,0,1,54.231-84.3c20.28-27.5,30.119-52.507-4.889-73.078l-.091-.055h-.012Z" transform="translate(-654.856 0)" stroke="#fff" stroke-miterlimit="10" stroke-width="0.1"/>
    <path id="Path_182" data-name="Path 182" d="M2285.622,446.313c19.18-130.358,99.024-322.352,183-423.277,24.422-17.577,66.98,27.07,78.1,47.107a18.483,18.483,0,0,1-1.585,21.549c-108.827,102.292-182.4,245.672-214.46,392.654-1.269,3.772-3.292,7.2-6.122,8.892-6.268,3.626-14.14.273-19.746-3.419-14.255-9.444-19.782-27.028-19.187-43.4v-.109h0Z" transform="translate(-893.753)" stroke="#fff" stroke-miterlimit="10" stroke-width="0.1"/>
    <path id="Path_183" data-name="Path 183" d="M2307.351,860.762c16.095,34.267-16.532,58.9-52.391,56.46-8.333-.492-17.146-2.757-24.027-7.458-16.532-10.781-11.26-31.99-1.743-46.53,7.981-11.838,19.873-11.655,32.846-12.293,6.511-.34,13.064-1.215,19.514-2.01,12.074-1.755,20.365.759,25.74,11.71l.061.121h0Z" transform="translate(-868.102 -325.653)" stroke="#fff" stroke-miterlimit="10" stroke-width="0.1"/>
  </g>
</svg>
