<?xml version="1.0" encoding="UTF-8"?>
<svg id="Layer_1" xmlns="http://www.w3.org/2000/svg" version="1.1" viewBox="0 0 1646.5 767.49">
  <!-- Generator: Adobe Illustrator 30.3.0, SVG Export Plug-In . SVG Version: 2.1.3 Build 182)  -->
  <defs>
    <style>
      .st0 {
        stroke: #000;
        stroke-miterlimit: 10;
        stroke-width: .1px;
      }
    </style>
  </defs>
  <g id="ayoh">
    <path id="Path_179" class="st0" d="M346.54,603.42c7.06,1.39,23.91,5.59,29.06,1.24,2.96-3.09,1.76-9.01,1.69-13.15-.35-6.99-.49-13.67-.51-20.52-.12-35.03-.07-74.45,2.11-107.48,1.69-26.95,4.01-52.66,7.33-77.88,15.91-113.33,36.79-222.12,80.97-311.55,1.68-3.31,2.38-6.33-.54-9.58-1.41-1.52-2.97-2.9-4.65-4.12-3.18-2.36-6.51-4.53-9.96-6.49-15.19-8.58-31.15-15.73-47.65-21.37-10.22-3.27-21.97-7.33-32.42-7.62-5.31.64-4.48,6.42-6.87,10.85-1.54,3.01-4.29,5.04-7.16,6.69-6.77,3.94-13.66,8.31-20.66,13.11-60.78,42.36-109.82,98.2-155.98,157.93-22,28.71-42.48,58.55-61.34,89.41-2.32,3.9-5.97,6.84-10.27,8.29-16.53,4.18-32.17,6.91-45.64,12.4-7.1,2.82-14.83,6.49-20.39,11.7-9.95,9.38,3.63,7.41,9.88,7.6h25.15c3.92.26,9.07-.8,12.51,1.3,2.53,2.12-.37,6.41-1.64,8.91-14.39,25.94-26.25,48.19-38.67,72.98-17.19,34.72-33,67.41-44.31,102.44-4.9,17.12-12.56,38.92,1.58,53.82,11.59,11.7,23.34,14.94,40.42,21.17,6.75,2.28,12.78,2.93,13.08-5.92,4.25-41.39,14.4-82.14,28.37-121.71,13.87-41.37,33.7-81.23,54.3-119.92,2.64-5.32,7.7-7.99,13.59-7.68,9.58-.02,19.31,0,29.21,0h59.85c14.44.23,27.56-.7,41.6,1.05,5.99.81,11.94,1.92,11.59,9.04-4.11,30.85-8.24,60.83-10.05,90.6-2.36,33.66-3.26,66.63-3.12,99.85,0,4.12,0,8.13.09,12.23.21,5.34-.1,11.42,2.85,15.92,11.71,14.25,38.9,21.83,56.47,26.41l.13.03h0s0,.01,0,.01h0ZM174.26,302.03c-.69-1.26,1.41-4.67,2.59-6.42,14.47-22.31,29.07-42.93,44.92-63.29,30.08-38.1,60.81-73.94,99.04-101.51,7.21-5.18,14.84-9.76,22.81-13.67,5.14-2.48,9.82-4.72,8.5,3.02-7.45,40.19-19.77,80.05-28.55,119.71-3.91,16.7-7.46,33.61-10.92,50.49-.35,1.95-1.26,3.76-2.61,5.22-1.61,1.4-3.66,2.2-5.79,2.29-46.09.49-88.66,2.04-126.67,5.35-1.73.02-2.93-.29-3.3-1.14l-.02-.05h0Z"/>
    <path id="Path_180" class="st0" d="M973.94,309.48c-6.99-5.36-14.07-10.11-20.53-15.95-5.88-5.15-11.74-10.71-18.54-14.62-44.44-24.25-97.52,34.22-125.36,70.31-23.35,32.01-76.64,60.96-107.58,56.22-27.25-3.74-24.43-34.47-17.03-55.11,3.37-9.88,7.94-18.03,9.56-28.11,2.82-14.87-7.02-26.61-21.98-29.66-20.49-4.62-33.87,7.99-43.99,24.17-3.46,5.22-6.61,10.16-9.89,15.34-36.24,57.65-66.15,149.96-124.84,180.75-3.43,1.87-8.55,3.95-11.58,3.21-2.31-.43-3.91-2.05-4.9-4.46-14.28-50.5,53.38-155.13,79.59-204.56,3.85-6.6,6.07-14.45,1.99-21.73-8.38-14.35-31.11-14.29-46.08-7.18-7.08,3.5-11.42,8.06-16.02,13.64-44.21,55.4-133.17,198.15-64.3,257.33,51.01,36.39,92.88-29.69,121.96-68.62,1.88-2.03,6.01-7.73,8.74-5.45,1.25,1.04,1.08,5.71.34,8.83-31.24,108.67-109.38,264.77-234.86,246.8-5.84-.44-14.5-1.52-15.71,4.47,0,5.89,5.64,10.02,9.93,13.33,6.07,4.29,12.82,7.02,20.5,9.42,238.63,74.18,213.98-304.15,393.13-333.32,10.68-1.76,21.88.64,25.89,11.52,4.43,11.39,2.95,23.69,3.42,35.32,12.49,246.55,347.79-40.52,208.2-161.82l-.1-.07h.01ZM945.07,429.25c-10.94,37.74-32.01,76.76-64.05,100.83-10.45,7.53-25.7,16.51-38.7,17.3-3.59.04-7.1-1.07-10-3.18-74.35-59.94,131.88-323.11,122.97-176.39-1.18,21.07-4.9,40.46-10.19,61.32l-.03.11h0Z"/>
    <path id="Path_181" class="st0" d="M1338.5,270.62c-9.55-5.51-20.01-9.26-30.88-11.08-23.8-4.34-45.82,8.14-64.87,21.36-35.64,25.32-66.35,58.49-95.62,91.57-5.96,6.78-11.72,13.6-16.82,19.47-4.79,5.14-17.49,21.12-20.86,17.5-2.65-5.55,3.43-22.74,6.11-31.61,7.81-23.68,17.1-47.05,27.2-69.86,22.54-50.71,47.92-99.47,80.48-144.43,8.92-12.52,18.18-24.82,27.7-36.87,15.56-19.79,31.5-38.23,48.1-56.9,7.24-8.24,15.56-18.99,18.3-28.2,8.3-24.9-21.6-39.43-42.47-41.09-28.23-2.81-48.31,17.08-64.1,38.69-21.85,29.3-42.05,59.79-60.51,91.34-57.98,98.19-97.16,206.72-123.65,317.4-7.54,36.47-20.72,90.29-8.76,125.42,3.66,9.99,11.1,19.23,21.54,14.2,8.65-4.13,16.14-16.38,21.48-25.9,6.86-12.51,13.34-25.36,20.54-37.73,29.06-50.23,63.06-97.32,103.38-138.98,13.82-13.81,29.27-29.12,45.82-38.84,36.22-19.68,2.87,41.23-2.17,53.81-12.72,28.46-25.16,57.43-34.69,87.17-5.12,16.57-9.43,34.58-6.26,51.77,3.59,21.45,20.07,34.51,41.94,33.49,12.41-.07,28.81-6.47,36.76-14.49,4.42-4.31,4.48-9.27,1.24-14.36-10.98-15.82-15.96-24.65-10.26-45.64,2.29-8.55,5.93-17.29,9.6-25.57,6.75-15.09,14.43-29.79,22.5-44.19,16.39-29.15,34.5-57.3,54.23-84.3,20.28-27.5,30.12-52.51-4.89-73.08l-.09-.05h-.01,0Z"/>
    <path id="Path_182" class="st0" d="M1382.62,427.49c19.18-130.36,99.02-322.35,183-423.28,24.42-17.58,66.98,27.07,78.1,47.11,4.16,6.78,3.52,15.45-1.58,21.55-108.83,102.29-182.4,245.67-214.46,392.65-1.27,3.77-3.29,7.2-6.12,8.89-6.27,3.63-14.14.27-19.75-3.42-14.25-9.44-19.78-27.03-19.19-43.4v-.11h0Z"/>
    <path id="Path_183" class="st0" d="M1430,516.29c16.09,34.27-16.53,58.9-52.39,56.46-8.33-.49-17.15-2.76-24.03-7.46-16.53-10.78-11.26-31.99-1.74-46.53,7.98-11.84,19.87-11.66,32.85-12.29,6.51-.34,13.06-1.22,19.51-2.01,12.07-1.76,20.36.76,25.74,11.71l.06.12h0Z"/>
  </g>
</svg>