<?xml version="1.0" encoding="UTF-8"?>
<svg id="Layer_1" xmlns="http://www.w3.org/2000/svg" version="1.1" viewBox="0 0 698.76 695.22">
  <!-- Generator: Adobe Illustrator 30.3.0, SVG Export Plug-In . SVG Version: 2.1.3 Build 182)  -->
  <defs>
    <style>
      .st0 {
        fill: #efeeee;
      }

      .st1 {
        fill: #857979;
      }

      .st2 {
        fill: #584c4c;
      }

      .st3 {
        fill: #110f0f;
      }

      .st4 {
        fill: #e4e5e5;
      }

      .st5 {
        fill: #201414;
      }

      .st6 {
        fill: #a5b5b5;
      }

      .st7 {
        fill: #473939;
      }

      .st8 {
        fill: #637171;
      }

      .st9 {
        fill: #484444;
      }

      .st10 {
        fill: #384c4c;
      }

      .st11 {
        fill: #302727;
      }

      .st12 {
        fill: #494f4f;
      }

      .st13 {
        stroke: #f8ff71;
      }

      .st13, .st14, .st15, .st16 {
        fill: none;
        stroke-miterlimit: 10;
      }

      .st17 {
        fill: #c6cccc;
      }

      .st18 {
        fill: #617c7c;
      }

      .st19 {
        fill: #595353;
      }

      .st20 {
        fill: #8d9f9f;
      }

      .st21 {
        fill: #ffe200;
      }

      .st22 {
        fill: #a2aaaa;
      }

      .st23 {
        fill: #4e3838;
      }

      .st24 {
        fill: #1d1d1d;
      }

      .st25 {
        fill: #4f6262;
      }

      .st26 {
        fill: #7c7474;
      }

      .st27 {
        fill: #837070;
      }

      .st28 {
        fill: #111212;
      }

      .st29 {
        fill: #606060;
      }

      .st30 {
        fill: #373232;
      }

      .st31 {
        fill: #e7ebeb;
      }

      .st32 {
        fill: #2a3232;
      }

      .st33 {
        fill: #473838;
      }

      .st34 {
        fill: #4b5d5d;
      }

      .st35 {
        fill: #5b6363;
      }

      .st36 {
        fill: #060606;
      }

      .st37 {
        fill: #3b2b2b;
      }

      .st38 {
        fill: #403838;
      }

      .st39 {
        fill: #b0baba;
      }

      .st40 {
        fill: #646565;
      }

      .st41 {
        fill: #e1e3e3;
      }

      .st42 {
        fill: #7ea2a2;
      }

      .st43 {
        fill: #a88989;
      }

      .st44 {
        fill: #515858;
      }

      .st45 {
        fill: #c7c8c8;
      }

      .st46 {
        fill: #839191;
      }

      .st47 {
        fill: #242727;
      }

      .st48 {
        fill: #0b0b0b;
      }

      .st49 {
        fill: #fff;
      }

      .st50 {
        fill: #2a3535;
      }

      .st51 {
        fill: #859696;
      }

      .st52 {
        fill: #0a0808;
      }

      .st53 {
        fill: #f0f0f0;
      }

      .st54 {
        fill: #040404;
      }

      .st55 {
        fill: #322727;
      }

      .st56 {
        fill: #0d0b0b;
      }

      .st57 {
        fill: #e0dfdf;
      }

      .st58 {
        fill: #6a8484;
      }

      .st59 {
        fill: #525555;
      }

      .st60 {
        fill: #766565;
      }

      .st61 {
        fill: #3e3030;
      }

      .st62 {
        fill: #040303;
      }

      .st63 {
        fill: #141212;
      }

      .st64 {
        fill: #374848;
      }

      .st65 {
        fill: #384747;
      }

      .st66 {
        fill: #aac7c7;
      }

      .st67 {
        fill: #00ffe2;
      }

      .st68 {
        fill: #f2f2f2;
      }

      .st69 {
        fill: #acbebe;
      }

      .st70 {
        fill: #2d2f2f;
      }

      .st71 {
        fill: #352b2b;
      }

      .st72 {
        fill: #131010;
      }

      .st73 {
        fill: #212d2d;
      }

      .st74 {
        fill: #b0b7b7;
      }

      .st75 {
        fill: #d5e3e3;
      }

      .st76 {
        fill: #e9e7e7;
      }

      .st77 {
        fill: #493939;
      }

      .st14 {
        stroke-linecap: round;
      }

      .st14, .st15 {
        stroke: #000;
        stroke-width: 3px;
      }

      .st78 {
        fill: #564b4b;
      }

      .st79 {
        fill: #707373;
      }

      .st80 {
        fill: #353535;
      }

      .st81 {
        fill: #4a3d3d;
      }

      .st82 {
        fill: #1f1a1a;
      }

      .st83 {
        fill: #99afaf;
      }

      .st84 {
        fill: #796767;
      }

      .st16 {
        stroke: #26cbff;
      }
    </style>
  </defs>
  <g id="Group_149">
    <path id="Path_457" d="M1.25,676.9c.82-1.25,1.48-2.61,2.18-3.93,1.18-2.14,2.57-4.14,4.17-5.98,1.22-1.45,2.72-2.57,4.02-3.92,2.06-2.3,3.94-4.75,5.65-7.32,3.34-4.72,6.93-9.26,10.77-13.58.52-.13.4-.75.76-1.01v-.02c.46-.31.83-.71,1.09-1.18.59-.72,1.17-1.44,1.76-2.16,1.97-2.36,3.93-4.73,5.91-7.08,2.59-3.08,5.23-6.12,7.8-9.21,4.24-5.11,8.03-10.56,12.09-15.8,2.8-3.62,5.66-7.18,8.75-10.55,5.4-5.89,10.5-12.03,15.3-18.41,3.16-4.2,6.6-8.19,9.91-12.28.29-.49.77-.84,1.32-.98,1.45-.22,2.92-.35,4.39-.38,3.37.03,6.73.21,10.1.29,2.52.05,5.04.02,7.56.04,3.27.02,6.54.12,9.81.06,2.52-.09,5.05.09,7.53.55,2.02.39,4.07.59,6.13.6,2.02.17,4.04.24,6.06.2.23-.96.35-1.94.37-2.92-.24-3.35-.27-6.71-.09-10.06.1-4.28.42-8.56.32-12.84-.1-4.21.25-8.38.51-12.57.43-5.86.55-11.74.36-17.61-.11-.83-.14-1.67-.07-2.5.35-2.69.48-5.4.37-8.11.04-3.08-.1-6.16,0-9.24.1-2.96.36-5.92.17-8.87-.15-2.32,0-4.65.06-6.95.1-3.36.21-6.72.27-10.08.12-5.96.13-11.93.2-17.9.04-3.34.21-6.67.12-10.01.12-.82.2-1.65.22-2.48-.37-2.59.04-5.18.03-7.78-.02-4.2.21-8.4.19-12.6-.03-7-.16-13.99-.26-20.99-.1-.83-.14-1.67-.1-2.5.56-4.37.8-8.77.72-13.18.09-5.33.17-10.67.09-16-.05-3.16.51-6.32-.04-9.48.53-1.01-.25-2.01-.01-3.03.58-2.48.38-5.02.56-7.53.16-2.14.09-4.28.32-6.43.22-2.03.14-4.08.28-6.12.27-3.92.6-7.83.91-11.75.2-2.51.26-5.03.26-7.55,0-2.23.58-4.46.61-6.7s.23-4.49.25-6.72c.04-4.12.45-8.21.74-12.31.1-1.39.08-2.79.19-4.18.47-5.75,1-11.5,1.46-17.25.54-6.59,1.16-13.17,2.1-19.72.18-1.29.34-2.58.55-3.87.4-2.38.24-4.85.97-7.2.04-.19.04-.38,0-.56-.11-1.95.09-3.91.6-5.8.97-4.3,1.17-8.7,1.96-13.01.79-4.3,1-8.7,1.73-13.03.9-5.32,1.59-10.68,2.42-16.02.73-4.7,1.5-9.4,2.31-14.09.72-4.24,1.6-8.45,2.22-12.7.64-4.14,1.5-8.25,2.59-12.29,1.15-4.43,2.3-8.87,3.58-13.26,1.11-3.79,2.47-7.46,3.77-11.17,1.48-3.73,3.19-7.37,5.1-10.9.86-1.77,1.77-3.51,2.7-5.25.96-1.81,1.88-3.65,2.98-5.38,2.95-4.66,6-9.27,8.99-13.91,3.02-4.74,6.4-9.24,10.11-13.46,3.17-3.58,6.36-7.14,9.56-10.69,3.94-4.53,8.32-8.66,13.07-12.33,4.26-3.35,8.83-6.29,13.65-8.76,1.61-.77,3.14-1.68,4.59-2.72,1.83-1.32,3.86-2.34,6.01-3,1.46-.37,2.86-.93,4.17-1.67,3.04-1.96,6.5-2.88,9.84-4.1,1.29-.58,2.65-.96,4.05-1.14.45-.49,1.19-.05,1.65-.5.11-.15.32-.2.48-.11.51-.41,1.29.04,1.75-.53h.04c.48-.45,1.22-.02,1.69-.52.05-.13.19-.19.32-.14.03.01.05.02.07.04.56-.36,1.35.08,1.83-.53h.03c1.48.4.8,1.1.17,1.66-.79.5-1.61.94-2.47,1.3-.24.12-.5.21-.76.27-4.56,1.54-8.91,3.63-12.97,6.23-.37.54-.86.99-1.45,1.29-6.22,2.8-11.83,6.67-17.73,10.04-.88.17-1.71.57-2.39,1.15-2.89,2.21-6.15,3.87-9.01,6.13-5.64,4.47-10.53,9.71-15.47,14.91-.71.49-1.32,1.11-1.8,1.83-.16.2-.32.4-.49.58-.36.42-.67.87-.99,1.31-1.89,2.82-4.42,5.11-6.44,7.82-7.03,9.42-13.04,19.47-18.93,29.65-7.12,12.31-11.41,25.56-14.44,39.25-4.2,19-7.08,38.24-9.69,57.52-1.71,12.66-3.42,25.32-5.14,37.98-1.67,12.29-2.3,24.67-3.39,37.02-1.05,11.79-1.07,23.62-2.11,35.4-.19,2.19.62,3.38,2.92,3.51,2.06.11,4.13.12,6.19.32,11.12,1.08,22.26,2.27,33.39,2.81,9.76.47,19.42,1.86,29.2,2.14,10.41.29,20.73,2.12,31.06,3.46,3.66.48,6.23-.21,8.17-3.28.62-.6,1.55-.76,2.08-1.49.14-.18.27-.36.42-.53.14-.17.28-.34.44-.49.08-.08.15-.16.23-.23.15-.16.3-.32.46-.46.08-.07.16-.15.24-.23.16-.15.33-.3.52-.42.19-.13.39-.25.59-.36.77-.41,1.52-.83,1.64-1.82-.36-7.96-.15-15.93-.29-23.89-.18-10.23.08-20.45.13-30.67.05-9.87.26-19.73.39-29.59.1-7.05.13-14.06,1.2-21.05.52-2.98,1.98-5.72,4.18-7.81,3.67-3.75,7.67-4.07,12.28-1.53,9.25,5.22,18.14,11.05,26.62,17.44,6.67,4.9,11.06,11.45,14.11,18.97,4.22,10.4,5.57,21.39,6.45,32.48,1.02,11.41-1.58,22.84-7.44,32.68-4.61,7.82-10.44,14.68-16.43,21.42-2.04,2.29-2.69,4.34-1.62,7.36,2.27,5.87,4.91,11.58,7.91,17.11,1.08,2.87,3.03,5.33,5.58,7.03,2.37,2.55,4.22,5.51,6.46,8.16,2.3,2.73,3.32,3.06,6.08.77,4.43-3.68,9.48-6.42,14.16-9.71,10.27-7.24,19.71-15.26,26.77-25.87,3.6-5.41,6.6-11.15,9.86-16.75,3.9-6.37,6.25-13.57,6.85-21.01.97-16.3-.54-32.45-5.58-48.09-5.14-14.63-12.27-28.49-21.17-41.18-4.41-6.3-8.41-12.92-13.71-18.55-12.11-12.89-26.31-23.18-41-32.86-1.48-.97-2.58-.6-3.82.3-10.6,7.75-22.77,10.16-35.49,9.43-10.83-.62-18.61-6.55-23.79-16.1-1.91-3.53-1.83-7.18-2.03-10.92-.3-5.4.07-10.61,2.41-15.65,1.56-3.52,3.36-6.93,5.37-10.21,2.31-3.62,4.5-7.39,7.84-10.25,8.86-5.58,17.5-11.55,27.2-15.7,1.31-1.04,3.1-1.32,4.21-2.67,5.62-2.8,11.41-5.26,17.34-7.34,7.48-2.71,14.96-5.46,22.48-8.1,18.24-6.48,37.36-10.14,56.7-10.86,14.72-.54,29.45-.56,44.11,1.45,2.79.38,3.29-.27,2.92-3.14-.17-1.28-.95-2.51-.33-3.85.72-1.75,1-3.65.82-5.53-.42-11.26.25-22.5.4-33.75.03-2.01-1.05-2.31-2.61-2.44-7.38-.61-14.81-.48-22.17-1.48-2.85-.26-5.72.01-8.57-.33-.27-.01-.53-.04-.8-.08-.63-.02-1.26.13-1.82.43-5.89-.3-11.77.15-17.67-.07-8.6-.31-17.22.08-25.76,1.17-3.06.38-5.99,1.56-9.12,1.41-1.51-.33-2.67.68-4.01,1-1.5.42-3.04.67-4.6.74-.94-.07-1.88.04-2.78.3-8.76,2.02-17.53,4.01-26.19,6.42-2.72.76-5.55.87-8.26,1.64-6.94,1.98-14.12,3.03-20.99,5.31-1.01.33-1.93.21-1.44-1.3l.13-.15.19.05c.45-.14.97-.09,1.34-.47l.05-.02c.44-.48,1.23.01,1.63-.57h.03c.46-.46,1.25.03,1.65-.59h.01c.49-.41,1.25.05,1.68-.54h.03c.49-.43,1.22-.03,1.69-.5.32-.19.66-.36,1.01-.49,3.52-.98,6.95-2.28,10.6-2.77.92-.16,1.83-.39,2.72-.69,2.43-.7,4.83-1.51,7.28-2.14,5.63-1.45,11.26-2.88,16.78-4.71,1.23-.45,2.49-.81,3.77-1.06,6.02-.95,12.03-2,17.99-3.28,2.81-.76,5.67-1.31,8.55-1.65,2.43-.16,4.86-.43,7.29-.66,1.97-.19,3.93-.5,5.89-.56,6.19-.18,12.38-.58,18.58-.33,7.88.31,15.78.17,23.66.61,4.88.28,9.75.56,14.63.74,3.57.13,7.14.12,10.71.13,1.03,0,2.06.13,3.07.36.57.1,1,.59,1.04,1.17.04.27,0,.56.01.84.05.65.4,1.12,1.06,1.03,2.33-.31,4.64.32,6.96.07,1.59-.14,3.18-.06,4.75.21,1.38.21,2.75.53,4.12.82,3.65.78,7.35,1.43,10.95,2.41,3.88,1.05,7.77,2.07,11.7,2.96,2.28.52,4.58.98,6.79,1.72,1.59.53,3.23.82,4.8,1.51,2.73,1.2,5.46,2.43,8.17,3.67,3.27,1.59,6.46,3.37,9.53,5.33,1.97,1.06,3.11,3.21,2.87,5.43.07,1.28-.84,2.41-2.1,2.61-.75.23-1.55.31-2.71.53,1.03.74,1.72,1.34,2.5,1.79,1.52.93,2.88,2.1,4.01,3.47,1.26,1.2,1.67,3.03,1.05,4.66-.55,1.65-2.2,2.67-3.92,2.43-.56-.03-1.12-.04-1.68-.02-1.46.02-2.92.05-4.47.08.24,1.1,1.13,1.4,1.68,1.98.89.84,1.55,1.89,1.92,3.05.45,1.53-.42,3.13-1.95,3.58-.24.07-.49.11-.74.12-5.15.12-10.31.17-15.38-.97-.53-.12-1.07-.32-1.57.08,0,.1-.02.23.03.28.31.34.63.68.97,1,2.91,2.74,2.98,3.03,1.66,6.86-.4,1.18-.54,1.35-1.8,1.34-3.66.12-7.32-.08-10.94-.6-2.3-.43-4.61-.82-6.93-1.17-3.05-.49-6.06-1.24-8.98-2.26-3.72-1.25-7.37-2.72-11.21-3.6-2.46-.56-4.88-1.28-7.32-1.91-1.62-.41-3.26-.79-4.89-1.17-.67-.15-1.06.13-1.08.87-.07,2.16-.08,4.32-.14,6.48-.02.63.22,1.32-.34,1.94-3.53.02-7.05-.32-10.51-1-2.76-.5-5.55-.79-8.35-.88-4.94-.09-9.89-.12-14.83-.19-3.25-.05-6.5-.14-9.76-.17-4.02-.03-8.03.29-12.03.66-4.64.43-9.28.91-13.92,1.22-4.08.37-8.11,1.1-12.06,2.19-4.11,1.03-8.19,2.23-12.31,3.24-2.34.57-4.62,1.28-6.9,2.04-1.69.56-3.29,1.33-4.97,1.89-2.12.7-4.33,1.1-6.45,1.79-2.94.9-5.83,1.96-8.66,3.18-2.31,1.05-4.68,1.87-7.05,2.71-2.31.78-4.58,1.68-6.79,2.7-1.68.81-3.4,1.54-5.13,2.21-9.08,3.45-17.81,7.79-26.04,12.95-.5.32-1.31.42-1.34,1.34.24.08.47.18.72.24,1.52.18,2.82,1.2,3.36,2.64.17.51.6.54,1.14.48,1.58-.16,3.17-.25,4.76-.29,2.69-.07,5.38-.09,8.07-.11.75.05,1.43-.42,1.66-1.13,1.29-2.57,3.05-3.36,6.04-1.93.25.12.48.29.73.42.95.48,1.07.45,1.92-.35,2.62-2.48,6.76-2.37,9.25.25,1.22,1.3,2.26,2.75,3.09,4.31,1.08,2.03,1.73,2.12,3.82,1,.39-.23.74-.51,1.04-.85.57-.85,1.73-1.07,2.57-.5.21.14.39.33.53.55.39.41.71.87.95,1.38,1.2,2.54,2.26,5.14,3.18,7.79.19.63.42,1.25.67,1.86.12.47.57.78,1.05.73,1.77-.21,2.79.77,3.47,2.22,1.12,2.27,1.88,4.71,2.25,7.22.29,2.32.52,4.67.98,6.96.52,3.15.66,6.34.44,9.52-.05.94-.21,1.86-.48,2.76-.41,1.61-1.92,2.69-3.58,2.56-1.72-.09-3.28-1.04-4.16-2.53-.48-.8-.89-1.63-1.23-2.5-.53-1.11-1.05-2.22-1.48-3.37.2.95-.07,1.89.1,2.8.04.38-.04.77-.24,1.11.14,1.31-.14,2.62-.8,3.76-1.14,1.74-2.57,2.34-4.5,1.65-.7-.25-1.36-.61-2.04-.92-1.32-.92-1.63.56-2.37,1.01-.6,1.02-.58.99.12,1.48,4.03,2.81,8.35,5.19,12.21,8.26.69.7,1.49,1.27,2.38,1.7,1.27,1.01,2.67,1.83,3.9,2.88,2.64,1.63,5.1,3.54,7.34,5.68,2.3,2.93,5.57,4.85,8.04,7.61,1.4,1.27,2.88,2.46,4.43,3.55h0c.51.81,1.12,1.55,1.83,2.19,1.28,1.01,2.43,2.16,3.44,3.44.47.44.81,1,.99,1.61.98,1.45,2.11,2.8,3.37,4.02,1.68,1.94,3.16,4.04,4.42,6.27.52.47.62,1.22,1.16,1.68,1.66,2.12,3.19,4.35,4.58,6.66.2.58.55,1.1,1.02,1.51.27.17-.15.53.2.67l.26-.05.14.23h0c.34.94.78,1.84,1.3,2.68,1.04,1.26,1.55,2.87,2.75,4.01v-.02c.21.36.1.9.58,1.12.4,1.03.95,1.99,1.65,2.85.1.25.32.41.46.63l.02.05c.35,1.39.99,2.69,1.86,3.83,1.04.84.94,2.27,1.68,3.27.05.29.2.56.43.74h0c.34.31.24.81.5,1.14.28.49.6.96.84,1.46,3.98,8.29,7.01,17,9.03,25.96,1.13,5.68,1.7,11.47,1.68,17.27.02,3.36-.23,6.74.04,10.08.41,5.14-.36,10.26.02,15.39,0,.38-.04.75-.14,1.11-.68,3.21-1.19,6.46-2.03,9.64-.98,3.7-2.74,7.11-4.02,10.69-.95,2.67-2.72,5.06-4.2,7.53-1.43,2.38-2.92,4.73-4.36,7.1-1.38,2.34-2.95,4.55-4.71,6.61-3.54,3.89-7.31,7.58-11.28,11.03-.57.48-1.18.93-1.81,1.34-6.09,4.23-12.23,8.39-18.27,12.7-4.36,3.11-8.52,6.48-12.57,9.99-.86.91-2.24,1.09-3.3.42-1.49-.79-2.81-1.86-3.91-3.15-2.41-2.87-4.63-5.89-6.8-8.94-.96-1.35-1.01-1.29-3.08-1.68-1.28-.24-2.52-.65-3.8-.88-4.59-.8-9.31-.67-13.82-1.98-.26-.08-.55-.02-.82-.09-.57-.13-1.15.15-1.4.68-.19.32-.34.67-.44,1.03-1.51,4.12-3.55,8.04-6.07,11.64-.88,1.33-1.86,2.57-2.84,3.82-.86,1.33-1.65,2.7-2.35,4.12-1.22,2.01-2.76,3.56-5.37,3.35-.19,0-.38,0-.56.02-1.29.11-1.44.4-1.54,1.79-.07.95.19,1.84.16,2.78-.08,6.44.21,12.88.86,19.29.43,5.12.8,10.25,1.1,15.38.26,4.55.42,9.11.58,13.67s.3,9.12.39,13.67c.06,3.08,0,6.17.03,9.25.04,5.5.06,11-.02,16.5-.04,2.99.17,6-.07,8.97-.34,4.43-.3,8.87-.26,13.28.06,5.67.33,11.36.91,17.03.36,3.53.52,7.09.61,10.65.09,3.73-.06,7.48-.01,11.22.08,6.52-.07,13.04-.28,19.55-.1,3.09.12,6.18.18,9.28-.06.53.32,1.01.85,1.07.06,0,.12,0,.17,0,3.27.09,6.55.25,9.82.18,5.62-.11,11.25-.21,16.86-.84,6.98-.78,14.04-.57,21-1.65,6.8-1.05,13.67-.43,20.5-.51,4.21-.05,8.43.25,12.64.21,4.02-.04,8.04-.3,12.06-.51,3.17-.31,6.36-.21,9.5.29,1.29.23,2.61.35,3.92.33,6.95.1,13.9.2,20.85.22,3.29.01,6.58-.03,9.86-.27,7.22-.53,14.43-.89,21.67-.94,3.64-.03,7.28-.07,10.92-.11.18-.65-.34-1.03-.69-1.41-3.88-4.15-7.23-8.76-9.98-13.73-2.3-4.22-4.3-8.6-5.97-13.11-.88-2.17-1.42-4.46-1.58-6.8-.24-5.61-.32-11.23-.15-16.85.07-2.15.09-4.3.23-6.44.02-1.68.23-3.34.63-4.97,1.24-4.12,2.15-8.32,3.59-12.39,1.43-4.46,3.32-8.75,5.65-12.81,1.32-2.15,2.64-4.31,3.92-6.48.72-1.32,1.67-2.5,2.8-3.49,3.83-3.11,7.29-6.68,11.47-9.34,2.67-1.7,5.17-3.67,8.17-4.85,1.84-.71,3.62-1.55,5.33-2.52,1.79-1.04,3.67-1.86,5.55-2.72,1.36-.65,2.84-.98,4.35-.99,1.22,0,2.44-.04,3.66.01,2.42.1,4.83.31,6.79,2,1.8.32,2.63,1.99,4,2.91,1.75,1.17,1.51,3.09,1.87,4.78.1.46.28.9.35,1.36.26,1.72.16,3.37-1.21,4.65-.31.21-.53.51-.63.87-.18,1.19-1.04,1.67-2.02,2.13-.92.47-1.81,1-2.67,1.57-.85.59-1.82.99-2.84,1.19-3.42.49-6.85,1.01-10.29,1.41-2.68.36-5.3,1.06-7.81,2.06-1.06.32-2.06.79-2.99,1.39-2.38,1.76-4.67,3.64-6.85,5.64-2.66,2.6-4.98,5.51-6.92,8.69-1.28,2.04-2.42,4.17-3.66,6.23-1.1,1.83-2.24,3.65-3.32,5.51-1.34,2.46-2.09,5.2-2.19,8-.19,2.78-.12,5.58-.27,8.37-.23,5.06.61,10.12,2.46,14.84,2.52,6.27,5.75,12.22,9.64,17.74.52.77,1.02,1.57,1.55,2.33.23.43.77.59,1.2.36.16-.09.29-.22.37-.38.34-.45.62-.93.91-1.41.58-1.07,1.23-2.11,1.93-3.1,2.83-3.72,5.86-7.29,9.09-10.67.52-.54,1.08-1.02,1.69-1.45,3.93-2.87,8.14-5.32,12.58-7.31,3.93-1.56,8.14-2.31,12.37-2.22,4.2.03,8.41-.19,12.62.21,2.34.15,4.64.65,6.84,1.48,5.33,2.2,10.6,4.55,15.88,6.88,1.54.68,2.99,1.56,4.55,2.19,1.56.62,3.05,1.4,4.45,2.33,1.32.9,2.66,1.76,3.99,2.64.31.31.82.32,1.13,0,.03-.03.06-.07.09-.1.24-.28.59-.48.8-.78,1.57-1.99,3.54-3.63,5.76-4.84,2.64-1.61,5.23-3.31,7.85-4.95,2.65-1.79,5.52-3.22,8.55-4.23.63-.19,1.25-.41,1.9-.53.84-.31,1.77.12,2.08.96.06.17.09.34.1.52.3,1.47.56,2.95.77,4.44.61,4.26,1.71,8.49,1.27,12.85.05.93.28,1.83.67,2.67.45.84,1.05,1.58,1.79,2.19,1.3,1.17,2.6,2.36,3.92,3.52.65.53,1.49.78,2.32.68,1.87-.14,3.69-.65,5.36-1.5,1.38-.53,2.86-.71,4.33-.53.57,0,1.02.48,1.01,1.04,0,.1-.02.19-.05.29-.21,1-.49,1.99-.84,2.95-1.36,3.47-3.03,6.82-4.98,10,1.1,1.84,2.67.6,4.05.62,1.75-.33,3.53-.4,5.3-.2,2.93-.66,5.96-.21,8.91-.77,1.11-.14,2.24-.17,3.36-.09,3.06.07,6.12.12,9.18.28.83-.12,1.66-.18,2.49-.18,2.02.36,4.07.57,6.11.79.83.12,1.68.14,2.52.06,5.04-.7,10.1-.52,15.16-.56,2.61-.1,5.23-.04,7.84.2,4.48.55,8.98.32,13.46.42,5.89.13,11.77-.09,17.61,1.14,1.85.26,3.59,1.04,5.01,2.25-.13,1.12-.11,2.26.04,3.38-.8,1.59-1.83,3.06-3.07,4.34-2.39,2.65-4.81,5.27-7.16,7.95-2.54,3.01-5.25,5.88-8.11,8.59-6.43,5.89-12.22,12.45-17.25,19.58-3.16,4.55-6.84,8.72-10.97,12.42-1.04.95-1.99,2-2.81,3.14-1.78,2.42-3.73,4.71-5.85,6.84-3.81,3.77-7.07,8.03-10.73,11.93-3.21,3.41-6.13,7.09-9.13,10.69-1.14,1.37-2.12,2.87-3.24,4.25-1.42,1.74-2.96,3.39-4.36,5.15-.88,1.1-1.88,2.1-2.97,2.98-.36.3-.71.78-1.18.67-.94-.22-1.36.38-1.86.94-1.71,2.12-3.61,4.08-5.68,5.85-.51.41-.97.89-1.35,1.43-.77,1.07-1.75,1.97-2.87,2.66-.93.63-1.76,1.4-2.43,2.3-1.18,1.57-2.53,3-4.03,4.27-2.29,1.79-4.18,4.03-5.56,6.59-.66,1.12-1.46,2.15-2.4,3.05-.95,1.04-2.46,1.34-3.74.75-1.56-.64-3.23-.93-4.92-.86-4.47.06-8.97.05-13.42.47-5.12.35-10.26.4-15.38.15-2.97-.02-5.93-.19-8.88-.51-1.98-.25-3.94.16-5.89,0-3.91-.3-7.84-.26-11.74.11-3.36.24-6.73.22-10.08-.06-3.16-.21-6.3-.71-9.46-.86-4.39-.21-8.78-.24-13.17-.3-3.61-.05-7.22-.02-10.82-.07-4.01-.05-8.02-.18-12.04-.24-1.78-.03-3.56.07-5.34.04-4.84-.07-9.68-.18-14.52-.26-.84-.06-1.69,0-2.52.16-3.22.83-6.5.42-9.75.54-2.62.09-5.26.01-7.88-.09-6.46-.24-12.9.2-19.34.58-3.17.19-6.36.26-9.5.65-4.52.65-9.07,1.01-13.64,1.06-2.16-.12-4.33.1-6.43.63-1.85-.09-3.69.06-5.5.45-1.24-.37-2.57-.37-3.81,0l-.19-.04h-.02c-2.69-.44-5.4-.07-8.09-.19-3.54,0-7.07,0-10.61,0-3.95-.15-7.92.29-11.86-.25-.45-.1-.91-.17-1.38-.21-1.12-.03-2.26.1-3.38,0-2.41-.24-4.8-.76-7.22-.87-5.51-.27-11.03-.39-16.54-.52-4.86-.12-9.72-.18-14.58-.27-2.99-.05-5.98-.08-8.97-.16-3.45-.09-6.91-.2-10.36-.36-3.17-.15-6.34-.52-9.51-.51-5.21.01-10.42-.24-15.63-.15-4.57.07-9.14-.2-13.71-.29-3.82-.08-7.64-.13-11.46-.16-2.4-.02-4.83.78-7.21-.21-.08-.03-.18.02-.28.02-5.78.3-11.56-.18-17.34-.2-7.93-.03-15.86-.09-23.79-.18-2.15.04-4.3-.04-6.44-.26-1.2-.17-2.41-.24-3.62-.2-.65.05-1.31.05-1.96.02-3.74-.28-7.48-.4-11.24-.4-1.3-.03-2.6-.2-3.87-.5-2.7-.65-5.44-1.13-8.2-1.43-4.95-.39-9.81-1.43-14.75-1.9-3.43-.32-6.85-.59-10.29-.74-4.34-.2-8.69-.38-13.03-.6-1.21-.06-2.4.19-3.62.15-6.35-.23-12.71-.32-19.07-.47-1.39-.03-2.79-.2-4.18-.13-5.23.25-10.46-.03-15.69-.11-4.48-.07-8.97.13-13.44-.37-3.15.62-6.33.02-9.49.15-3.22.13-6.46-.13-9.7.1-2.14.15-4.3.14-6.45.11-2.2-.03-4.38.29-6.59.25-2.2-.14-4.41-.1-6.6.12-.65.04-1.3.03-1.94-.03-2.09-.03-4.09-.42-5.54-2.15-.41-1.85-.02-3.79,1.08-5.33M276.72,266.6c.38,6,1.17,11.98.92,18.01-.08,1.83-.17,3.66-.26,5.49-.06.15-.09.3-.1.46-.22,4.49-.43,9-.27,13.5.12,3.33.21,6.96,1.42,10.11.82,1.96,2.41,3.5,4.4,4.26.16.08.33.15.49.23,2.41,2.42,5.4,4.17,8.69,5.08,2.02.59,4.11.91,6.22.93,2.13.72,4.28,1.41,6.41,2.12.73.19,1.49-.23,1.7-.96.35-.9.9-1.6,1.18-2.46.33-.43.64-.89.93-1.36.75-.46,1.46-.99,2.12-1.57.89-.67,1.72-1.41,2.48-2.23.35-.37.67-.76.98-1.15,2.45-1.99,4.39-4.53,5.67-7.42,3.43-4.26,6.24-8.98,8.36-14.02.96-1.73,1.83-3.52,2.6-5.34,4.05-9.68,4.07-20.62,2.11-30.79-.58-3-1.34-5.97-2.26-8.88-1.05-5.6-3.13-10.95-6.14-15.79-.36-.56-.81-1.05-1.32-1.47-.37-.68-.76-1.37-1.17-2.03-2.18-3.45-4.98-6.47-8.26-8.9-1.69-1.26-3.51-2.3-5.26-3.46-1.26-.87-2.46-1.81-3.62-2.82-2.95-2.59-6.03-5.02-9.24-7.28-1.82-1.37-3.9-2.34-6.12-2.85-.83-.48-1.73-.8-2.68-.95-1.83-.38-3.73.04-5.23,1.15-1.78.62-3.08,2.17-3.37,4.04-2.71,12.92.24,26.07-.72,39.14-.43,5.77-1.02,11.43-.66,17.23M199.6,564.62c1.42,1.51,4.06,1.01,5.86.71.49-.08.98-.17,1.47-.27.21-.04.42-.08.63-.11.05,0,.35-.05.36-.06,1.56-.14,3.12-.2,4.68-.18,3.04-.05,6.08.06,9.11.33,2.67.27,5.49.64,8.07-.35.18-.07.34-.18.48-.31.73.08,1.4-.44,1.48-1.18,0-.04,0-.09,0-.13.08-2.22.04-4.43-.04-6.65.7-2.5.03-5.08.04-7.67.01-3.24.32-6.47.16-9.72-.24-5.09.92-10.46-.28-15.48.37-12.84.93-25.68.94-38.53v-.02c.34-.66.07-1.47-.59-1.81-.21-.11-.44-.16-.67-.15-2.8-.74-5.69-1.04-8.58-.89-.86-.51-1.56-.72-2.05-1.09-.37-2.24-.51-4.52-.43-6.79.1-5.26.7-10.47.56-15.74-.16-5.9-.74-11.77-.78-17.67v-.18c.03-6.55-.07-13.1-.13-19.65-.06-6.52-.07-13.02-.54-19.53-.48-6.56-1.13-13.12-1.15-19.71-.01-.45-.38-.8-.83-.79-.15,0-.3.05-.43.14-.26.02-.48.17-.59.41-.05.09-.08.19-.12.28-.43-.02-.79.3-.81.73,0,.02,0,.04,0,.06,0,.94-.03,1.87-.07,2.8-.04.43-.06.86-.07,1.3-.28,5.04-.95,10.05-1.45,15.07-.27,2.8-.49,5.61-.54,8.42,0,.47,0,.94,0,1.41-.29,1.26-.46,2.54-.53,3.83-.16,2.58-.28,5.17-.42,7.75-.55,9.98-.62,20.02-.29,30.01.11,3.19.25,6.38.38,9.57-.05.93-.11,1.86-.16,2.79-.08.09-.12.2-.14.32-.31,2.28-.53,4.58-.61,6.89-.1,1.74-.04,3.49.2,5.22-.04,1.39-.07,2.78-.09,4.17-.1.09-.19.18-.27.28h-.13c-2.63-.2-6.28-.61-8.4,1.37-1.85,1.73-1.51,4.72-1.22,6.98.74,7.13.78,14.32.12,21.45-.54,7.94-1.42,15.85-1.85,23.8-.21,3.91-.29,7.83-.48,11.75-.17,3.36-.34,6.72-.45,10.08-.02.09-.04.18-.05.27-.23,2.01-.9,4.83.65,6.49"/>
    <path id="Path_458" class="st72" d="M344.17,8.32c-.89-.22-1.81-.24-2.71-.06-2.14.39-4.11,1.36-6.31,1.55-1.07.2-2.11.48-3.14.83-.9.26-1.82.39-2.76.39-.66-.08-1.32.12-1.84.53-.13.14-.29.23-.48.26-2.63-.13-4.8,1.39-7.23,1.95-2.58.6-5.16,1.28-7.77,1.69-1.35.21-2.68.99-4.12.46-1.38,1.11-3.16.81-4.69,1.36-.47.28-1.04.35-1.57.2-.9-.35-1.17.75-1.93.88-1.93.32-3.83.78-5.75,1.18-2.95.49-5.83,1.32-8.58,2.47-.79.36-.96-.22-1.05-.82-1.21.03-2.38.4-3.39,1.07.35.36.6.77.04,1.1-.56.28-1.15.53-1.75.73-.54.14-.94.6-1.02,1.15,1.63.67,3.15.04,4.62-.5,8.83-3.26,18.05-4.87,27.18-6.96,10.58-2.43,21.18-4.85,31.68-7.62,1.06-.28,2.26-.45,2.58-1.83"/>
    <path id="Path_459" class="st2" d="M343.38,165.15c-.07.66.23,1.29.77,1.67,1.58,1.29,3.04,2.73,4.66,3.97.89.68,1.2,1.93,2.41,2.23.19.18.49.18.67,0,.03-.04.06-.08.09-.12-2.56-2.9-5.45-5.5-8.6-7.75"/>
    <path id="Path_460" class="st70" d="M328.75,139.13c.37-1.96-.76-3.32-1.86-4.7-.71.58.03,1.2-.1,1.8-.12.54-.18,1.08-.17,1.63,0,.23.27.45.42.67.38-.2.76-.42,1.13.02l.58.57"/>
    <path id="Path_461" class="st7" d="M351.97,172.9l-.76.12c1.09,1.02,2.17,2.06,3.29,3.05.39.28.88.37,1.34.24-1.01-1.42-2.33-2.59-3.87-3.41"/>
    <path id="Path_462" class="st11" d="M384.02,215.86c-.7,1.92.54,2.89,1.86,3.83-.26-1.42-.9-2.74-1.86-3.83"/>
    <path id="Path_463" class="st71" d="M378.31,207.4c.45.81.89,1.62,1.36,2.43.32.68.91,1.2,1.64,1.41-.34-1.55-1.4-2.68-2.28-3.92-.12-.18-.37-.23-.55-.11-.07.05-.13.12-.16.2"/>
    <path id="Path_464" class="st77" d="M362.1,183.56c-.08.47.06.95.37,1.3.73.85,1.44,1.71,2.21,2.52.16.17.52.14.79.2-.73-1.62-1.9-3.02-3.37-4.02"/>
    <path id="Path_465" class="st84" d="M332.13,156.6c.79,1.51,2.23,2.57,3.9,2.88-.28-.57-.59-1.32-1.18-1.41-1.13-.17-1.4-1.79-2.73-1.47"/>
    <path id="Path_466" class="st1" d="M597.71,559.87c-.47.3-.56.99-.14,1,1.4,0,2.87.46,4.19-.37-.97-.05-1.95-.1-2.92-.14-.45-.02-.89-.01-1.14-.49"/>
    <path id="Path_467" class="st33" d="M375.63,202.18c-.27.49-.51.94.15,1.38.35.28.66.6.93.96h0l.26.05.27-.03c-.11-1.08-.93-1.67-1.61-2.35"/>
    <path id="Path_468" class="st33" d="M378.32,207.4l.71-.09-1.77-2.76c-.12,1.06.27,2.12,1.06,2.85"/>
    <path id="Path_469" class="st11" d="M381.88,212.33c.07,1.24.37,2.34,1.67,2.87-.11-1.15-.72-2.2-1.67-2.87"/>
    <path id="Path_470" class="st25" d="M319.79,144.15c-.48-1.15-.72-1.31-1.54-.38-.36.41-.84.76-.83,1.39.85-.19,1.3-1.34,2.37-1.01"/>
    <path id="Path_471" class="st60" d="M584.85,541.23c-.1,1.3.67,1.89,1.79,2.19-.22-1.04-1.17-1.47-1.79-2.19"/>
    <path id="Path_472" class="st6" d="M328.17,138.56c.03-.17.04-.35.04-.52-.03-.26-.09-.54-.43-.5-.17.04-.31.14-.4.29-.13.23-.25.47-.34.72.03.38.06.75.09,1.13l1.04-1.1"/>
    <path id="Path_473" class="st7" d="M355.85,176.32c-.08,1.3.78,1.82,1.83,2.18-.26-.96-.93-1.76-1.83-2.18"/>
    <path id="Path_474" class="st27" d="M369.89,193.85c-.03.85.14,1.55,1.16,1.68.03-.75-.44-1.44-1.16-1.68"/>
    <path id="Path_475" class="st72" d="M276.9,23.41c.65.11,1.27.13,1.69-.51-.61-.11-1.24.08-1.69.51"/>
    <path id="Path_476" class="st72" d="M278.98,22.8c.7.12,1.39.22,1.83-.53-.66-.11-1.33.08-1.83.53"/>
    <path id="Path_477" class="st72" d="M275.12,23.95c.67.11,1.33.18,1.75-.53-.64-.14-1.3.06-1.75.53"/>
    <path id="Path_478" class="st72" d="M285.95,20.61c.64.07,1.26.12,1.63-.57-.61-.14-1.24.09-1.63.57"/>
    <path id="Path_479" class="st72" d="M272.99,24.57c.62.08,1.24.11,1.65-.5-.6-.15-1.23.04-1.65.5"/>
    <path id="Path_480" class="st72" d="M287.61,20.02c.65.09,1.29.14,1.65-.58-.61-.09-1.23.13-1.65.58"/>
    <path id="Path_481" class="st72" d="M289.28,19.44c.65.1,1.29.17,1.68-.54-.62-.16-1.27.05-1.68.54"/>
    <path id="Path_482" class="st72" d="M290.99,18.89c.65.12,1.27.15,1.69-.49-.61-.12-1.24.06-1.69.49"/>
    <path id="Path_483" class="st61" d="M28.81,641.14c.81.02,1.14-.41,1.08-1.18-.58.12-1.01.59-1.08,1.18"/>
    <path id="Path_484" class="st61" d="M28.03,642.16c.64-.04.81-.44.76-1.01-.46.12-.77.53-.76,1.01"/>
    <path id="Path_485" class="st81" d="M387.98,223.71c-.14.51-.07.93.5,1.13.12-.45-.09-.92-.5-1.13"/>
    <path id="Path_486" class="st71" d="M381.3,211.22c-.19.4,0,.88.39,1.06.07.03.14.05.21.06.08-.47-.16-.93-.6-1.12"/>
    <path id="Path_487" class="st72" d="M284.56,21.09c.5.19,1.07,0,1.34-.47-.5-.12-1.02.06-1.34.47"/>
    <path id="Path_488" class="st81" d="M387.55,222.96c-.08.32.11.65.43.74.1-.3-.07-.63-.38-.73-.02,0-.04-.01-.06-.01"/>
    <path id="Path_489" class="st11" d="M383.53,215.18c-.05.3.15.59.45.64,0,0,0,0,0,0,.08-.27-.08-.54-.34-.62-.04-.01-.08-.02-.12-.02"/>
    <path id="Path_490" class="st39" d="M371.79,695.22c-1.19-.63-2.62-.63-3.81,0h3.81"/>
    <path id="Path_491" class="st21" d="M325.46,669.42c-.72.6-1.6.97-2.54,1.04-4.82,1.13-9.75,1.74-14.7,1.82-3.46.11-6.93-.42-10.39.17-1.76-.31-3.54-.43-5.32-.37-4.98,0-9.96.01-14.94-.07-6.2-.1-12.39-.28-18.59-.43-.84,0-1.69-.07-2.52-.22-2.76-.42-5.54-.62-8.33-.58-2.61-.19-5.19-.63-7.71-1.3-.27-.07-.5-.24-.65-.48-.32-.7-.95-1.2-1.7-1.35-1.23-.19-2.15-1.22-2.22-2.46-.18-.92-.57-1.79-1.14-2.55-.58-.96-.95-2.03-1.07-3.15-.78-4.08-.65-8.2-.85-12.31-.22-4.63-.08-9.27-.45-13.9-.36-4.55-.16-9.13-.27-13.7-.08-3.55-.26-7.1-.37-10.65-.13-4.49-.34-8.98-.34-13.48,0-8.64.14-17.28.22-25.92,0-.28,0-.56,0-.85.05-.43-.26-.81-.68-.86-.06,0-.12,0-.17,0-2.53,0-5.07.02-7.6.01-5.16,0-10.33.1-15.48-.06-3.04-.1-5.97.61-8.97.72-.58.02-.78.45-.81.95-.14,2.34-.29,4.69-.39,7.04-.2,4.41-.33,8.82-.58,13.23-.16,2.71-.52,5.42-.75,8.13-.21,2.51-.44,5.02-.5,7.53-.19,8.43-.31,16.86-.43,25.28-.04,1.3.01,2.61.15,3.91.56,5.68.69,11.39.42,17.09-.05,1.67-.03,3.35.02,5.02-.03,2.35-.25,4.69-.66,7-.25,1.36-.71,2.67-1.35,3.9-.38.67-1.1,1.07-1.87,1.03-1.4.06-2.82,0-4.2-.06-6.34-.26-12.68-.15-19.03-.25-2.48-.04-4.96-.18-7.43-.38-.57-.05-1.12.11-1.65.06-3.13-.3-6.26-.66-9.39-1-.37-.04-.75-.29-1.1-.23-2.61.46-5.21-.25-7.8-.12-2.53.12-5.03-.33-7.53-.34-4.12-.03-8.22-.42-12.34-.38-1.95-.11-3.89-.36-5.81-.75-1.16-.11-2.1-1-2.26-2.16-.44-2-.5-4.07-.18-6.1.18-1.51,1.14-2.82,2.53-3.45.92-.46,1.87-.86,2.85-1.18,3.26-.9,6.57-1.59,9.91-2.07,4.34-.76,8.72-1.36,12.78-3.25.88-.31,1.79-.55,2.71-.71.24-.07.6-.22.64-.4,0-.27-.14-.51-.37-.65-.56-.13-.94-.66-.89-1.23.06-2.99.15-5.97.1-8.96-.03-1.66-.11-3.31-.02-4.97.38-6.91.2-13.84.4-20.75.11-3.64.08-7.28.13-10.91.05-3.5.56-7.02.08-10.54.01-1.01.09-2.02.24-3.02.04-5.06.05-10.12.05-15.18,0-.95-.28-1.23-1.14-1.11-4.09.5-8.24.25-12.24-.74-1.37-.16-2.75-.21-4.13-.15-1.4-.08-2.81,0-4.21,0-1.68-.01-3.36-.02-5.04-.09-2.88-.12-5.76-.15-8.65-.07-3.27.09-6.54-.1-9.81-.24-1.42-.06-2.8-.19-4.04.72-.31.22-.67.33-1.05.31-1.29-.09-2.24.2-2.41,1.68-.05.18-.16.34-.32.45-3.67,3.28-6.14,7.53-9.11,11.38-3.15,4.08-6.32,8.13-9.78,11.96-5.7,6.22-11.04,12.76-16,19.59-4.65,6.48-9.72,12.62-14.88,18.71-6.36,7.49-12.9,14.83-18.78,22.71-1.62,2.17-3.14,4.41-4.72,6.6-1.17,1.7-2.51,3.28-3.99,4.71-.52.53-.96,1.13-1.31,1.78-.76,1.29-1.6,2.53-2.52,3.72-1.43,1.74-2.66,3.63-3.66,5.64-.24.49-.69.88-.96,1.36-.19.32-.28.69-.26,1.05.07.47.58.39.91.36,3.63-.26,7.26-.05,10.89.03,2.24.05,4.49-.33,6.74-.36,6.64-.08,13.28-.12,19.92-.11,5.67.02,11.35.15,17.02.24,7.3.11,14.59.22,21.88.36,5.5.11,10.99.26,16.49.4,3.56.09,7.12.06,10.68.28,3.83.24,7.66.43,11.5.3.38.02.75.07,1.12.15,4.09.53,8.18,1.02,12.26,1.6,4.71.67,9.44,1.22,14.09,2.18,3.4.65,6.86.95,10.33.88,2.62-.01,5.23.2,7.84.22,5.41.06,10.82.38,16.24.24,2.69-.07,5.39.05,8.07.21,2.15.19,4.31.2,6.46.03,1.21-.01,2.42.05,3.63.17,7.29,0,14.59.09,21.88.13.65.03,1.31-.02,1.95-.15,2.02-.46,4.1-.59,6.17-.38,2.99.26,5.98.16,8.96.26,1.78.06,3.55.27,5.32.41.46.04.93.1,1.39.1,5.79.02,11.59-.01,17.38.07,4.39.07,8.77-.19,13.17.04,2.25.03,4.49-.11,6.72-.42,3.88-.34,7.78-.43,11.68-.25,2.49.09,4.97-.31,7.46,0,1.3.17,2.6.33,3.91.37,3.54.11,7.08.17,10.63.22,4.28.05,8.56-.16,12.85.22,2.05.18,4.11.15,6.17.16,3.55,0,7.11-.14,10.66.08,1.21,0,2.43-.09,3.63-.28,3.26-.31,6.54-.28,9.81-.5,5.69-.37,11.39-.76,17.1-.58,5.8.19,11.6.37,17.4.5,3.19.07,6.38.04,9.57.02,1.78-.04,3.56.16,5.3.59,1.55.35,3.15.44,4.73.28,2.4-.15,4.82-.1,7.23-.12,2.88-.02,5.76-.02,8.64,0,2.04-.05,4.08,0,6.12.16,1.86.18,3.74.07,5.57-.32,2.01-.35,4.06-.49,6.1-.42,8.44.12,16.88.22,25.31.35,6.43.1,12.87.37,19.3.28,2.51-.04,5,.33,7.55.09,2.15-.03,4.3.17,6.4.61,4.34.41,8.69.59,13.05.54,5.96-1.11,11.96-.11,17.93-.36,1.12.01,2.24.1,3.35.27,2.23.23,4.49.26,6.73.3,5.5.1,11.02.32,16.51-.14,1.86-.15,3.72.08,5.56-.22,1.77-.21,3.56-.28,5.34-.21,1.5-.04,3,.09,4.46.39,1.53.33,1.53.26,2.34-1.14.26-.5.59-.95.97-1.36,2.02-1.96,4.08-3.88,6.11-5.82.4-.39.78-.8,1.12-1.24.83-1.05,1.71-2.01,3.2-1.99.64,0,.96-.51,1.37-.89,2.76-2.53,5.75-4.82,8.36-7.53,1.11-1.15,2.26-2.25,3.42-3.34,1.36-1.28,2.41-2.89,4.14-3.77.25-.13.46-.33.61-.57,1.3-2.31,3.49-3.89,4.91-6.07,1.39-2.13,3.14-3.95,4.62-6,.81-1.12,1.84-2.09,2.76-3.14,1.78-2.02,3.55-4.05,5.31-6.08,2.77-3.16,5.73-6.14,8.31-9.47.48-.58,1-1.12,1.57-1.61,1.86-1.7,3.56-3.57,5.08-5.59,2.41-3.33,5.2-6.37,8.32-9.05,1.85-1.72,3.5-3.64,4.92-5.73,1.93-2.51,3.8-5.07,5.75-7.56,1.6-2.05,3.2-4.12,4.94-6.05,2.05-2.27,4.32-4.34,6.39-6.59,3.15-3.44,6.89-6.31,9.64-10.13.79-.92,1.63-1.8,2.53-2.62,1.91-2.05,3.81-4.12,5.71-6.18.13-.14.25-.28.38-.42,1.7-1.97,1.44-2.88-1.1-3.3-2.66-.51-5.36-.78-8.07-.81-4.73.04-9.47-.22-14.2-.35-2.42-.06-4.85-.07-7.27-.17-1.21-.05-2.41-.33-3.62-.36-3.65-.09-7.29-.14-10.94-.16-3.38-.12-6.76.08-10.11.6-2.14.39-4.29.03-6.43,0-4.55-.06-9.09-.12-13.64-.18-.18,0-.38-.12-.55-.1-2.29.33-4.6.51-6.92.57-4.63.21-9.25.61-13.88.87-1.05-.03-2.02.58-2.44,1.55-.84,1.77-1.67,3.55-2.54,5.3-1.28,2.71-2.88,5.25-4.77,7.58-.38.32-.42.88-.11,1.26.06.07.13.13.21.18,3.14,2.79,6.59,5.2,10.29,7.2,6.47,3.37,12.95,6.73,18.81,11.15,1.84,1.3,3.86,2.33,6,3.05,3.25,1.27,5.87,3.75,7.32,6.92.52,1.12.73,2.36.59,3.58.02,1.35-.76,2.59-1.99,3.14-.56.33-1.1.71-1.61,1.12-.93.65-2.02,1.02-3.15,1.07-1.4.01-2.8-.03-4.2,0-3.66-.03-7.29-.72-10.71-2.03-1.04-.39-2.11-.72-3.2-.98-3.35-.84-6.61-2.02-9.73-3.51-2.22-.99-4.19-2.46-6.4-3.42-3.67-1.59-7.39-3.06-11.12-4.51-2.26-.88-4.59-1.56-6.84-2.44-1.07-.33-2.09-.81-3.03-1.42-.69-.49-1.47-.82-2.29-.99-1.28-.26-2.51-.73-3.64-1.39-.84-.38-1.71-.68-2.61-.88-2.21-.74-4.41-1.49-6.61-2.21-.34-.17-.74-.15-1.07.05-.41.3-.25.73-.09,1.01.86,1.51.83,3.22,1.18,4.85.5,2.28,1.32,4.48,1.83,6.76,1.08,4.81,2.53,9.53,3.21,14.42.07.54.2,1.07.39,1.57.31.79.51,1.61.6,2.46.41,3.98,1.39,7.88,1.6,11.86.13,2.49.6,4.97.54,7.45.09,2.12.02,4.25-.22,6.35-.09.65-.38,1.25-.85,1.71-1.78,1.75-3.63,3.21-6.41,2.55-1.16-.27-2.38.07-3.6-.35-1.25-.38-2.33-1.16-3.1-2.22-1.44-1.96-2.7-4.04-3.77-6.22-1.77-3.7-3.48-7.44-5.22-11.15-2.29-4.89-4.59-9.78-6.89-14.67-.35-.76-.65-1.55-.93-2.35-1.54-4.35-4.09-8.19-6.14-12.27-.93-1.61-1.94-3.16-3.05-4.65-1.43-2.17-2.83-4.37-4.3-6.52-.83-1.37-1.97-2.53-3.32-3.39-.88-.72-2.19-.59-2.91.29-.09.11-.17.23-.23.35-1.2,1.68-2.33,3.41-3.46,5.14-2.08,3-3.97,6.14-5.64,9.38-.45.92-.46,2.04-1.26,2.79-.48.7-.83,1.47-1.05,2.29h0c-.45.54-.81,1.15-1.07,1.81-.32,1.6-1.34,2.87-2.07,4.26-1.7,3.23-3.15,6.57-4.6,9.91-1.58,3.61-3.45,7.08-5.6,10.39-1.3,2.04-2.28,4.28-3.43,6.42-1.02,1.9-2.1,3.77-3.1,5.68-.95,1.63-2.19,3.06-3.67,4.23-1.37.97-3.02,1.49-4.7,1.48-.46-.06-.9-.25-1.26-.54-.31-.19-.52-.67-.83-.72-1.78-.27-2.08-1.6-2.43-3.02-.68-2.79-.23-5.58,0-8.36.34-2.88,1.03-5.71,2.04-8.43.81-2.78,1.41-5.61,1.78-8.48.81-4.89,1.53-9.79,2.2-14.7.21-1.56.15-3.17.21-4.75.01-.39-.06-.78-.52-.83-.42-.05-.68.27-.85.61-1.46,2.91-2.68,5.93-3.86,8.96-1.15,2.97-1.72,6.11-2.6,9.16-.59,2.44-1.33,4.84-2.22,7.19-1.13,2.66-1.9,5.48-2.89,8.2-1.27,3.33-2.93,6.5-4.96,9.43-1.55,2.34-3.86,3.43-6.29,4.41-.34.14-.8.07-1.08.28-1.86,1.35-3.08-.12-4.39-1-.45-.36-.71-.91-.7-1.48.05-.65-.02-1.31-.21-1.94-.76-1.65-.45-3.32-.25-4.97.87-7.05,1.75-14.11,2.75-21.14.64-4.54,1.55-9.04,2.25-13.57.75-4.9,2.12-9.66,3.02-14.52.68-3.68,1.34-7.36,2.23-11,.56-2.64,1.29-5.24,2.19-7.78.61-1.85,1.1-3.74,1.47-5.66.52-2.38,1.3-4.7,2.31-6.92-.49-1.44-1.52-.72-2.4-.61-1.84.25-3.71.32-5.57.21-3.91-.29-7.84-.39-11.77-.38-5.39.01-10.77.12-16.16-.18-.93.03-1.87.1-2.8.22-3.54.18-7.09.36-10.63.5-2.06.08-4.07.53-6.13.65-5.5.32-10.99.4-16.49.45-4.46.04-8.93.04-13.39.47-3.06.32-6.14.37-9.21.13-2.65-.19-5.31-.2-7.97-.02-3.01.17-5.99-.1-8.98-.2-5.91-.23-11.83.08-17.69.91-3.98.55-8.01.77-12.03.66-2.16-.04-4.32-.02-6.48-.01-1.5-.07-3.01.08-4.47.44-.54.15-1.11.22-1.67.19-3.21-.18-6.36.42-9.54.68-1.02.17-2.05.23-3.08.17-1.79-.27-3.52.19-5.28.16-.89-.02-1.15.33-1.08,1.24.3,3.63.28,7.27.24,10.9-.06,4.76-.34,9.52-.23,14.27.07,3.07-.23,6.12-.09,9.19.09,1.94-.19,3.9-.18,5.85-.16,2.25-.08,4.5.25,6.73.23,1.29.31,2.6.24,3.91.04,2.52.23,5.04.58,7.54.07,1.02.09,2.05.05,3.07-.06,5.26-.13,10.52-.21,15.78-.03.56-.02,1.13.02,1.69.11.91-.17,2.05.61,2.66.8.63,1.74,1.04,2.74,1.21,3.62.48,7.1,1.67,10.78,1.91,2.12.14,4.22.79,6.36,1.1,2.78.4,5.52,1.03,8.29,1.49,1.29.23,2.57.55,3.81.96,2.03.71,4.09,1.31,6.19,1.8.87.29,1.7.71,2.45,1.23.26.1.45.32.5.6.2,1.9.95,3.8.11,5.72-.35.7-1.2.69-1.7,1.18"/>
    <path id="Path_492" class="st13" d="M325.46,669.42c-.72.6-1.6.97-2.54,1.04-4.82,1.13-9.75,1.74-14.7,1.82-3.46.11-6.93-.42-10.39.17-1.76-.31-3.54-.43-5.32-.37-4.98,0-9.96.01-14.94-.07-6.2-.1-12.39-.28-18.59-.43-.84,0-1.69-.07-2.52-.22-2.76-.42-5.54-.62-8.33-.58-2.61-.19-5.19-.63-7.71-1.3-.27-.07-.5-.24-.65-.48-.32-.7-.95-1.2-1.7-1.35-1.23-.19-2.15-1.22-2.22-2.46-.18-.92-.57-1.79-1.14-2.55-.58-.96-.95-2.03-1.07-3.15-.78-4.08-.65-8.2-.85-12.31-.22-4.63-.08-9.27-.45-13.9-.36-4.55-.16-9.13-.27-13.7-.08-3.55-.26-7.1-.37-10.65-.13-4.49-.34-8.98-.34-13.48,0-8.64.14-17.28.22-25.92,0-.28,0-.56,0-.85.05-.43-.26-.81-.68-.86-.06,0-.12,0-.17,0-2.53,0-5.07.02-7.6.01-5.16,0-10.33.1-15.48-.06-3.04-.1-5.97.61-8.97.72-.58.02-.78.45-.81.95-.14,2.34-.29,4.69-.39,7.04-.2,4.41-.33,8.82-.58,13.23-.16,2.71-.52,5.42-.75,8.13-.21,2.51-.44,5.02-.5,7.53-.19,8.43-.31,16.86-.43,25.28-.04,1.3.01,2.61.15,3.91.56,5.68.69,11.39.42,17.09-.05,1.67-.03,3.35.02,5.02-.03,2.35-.25,4.69-.66,7-.25,1.36-.71,2.67-1.35,3.9-.38.67-1.1,1.07-1.87,1.03-1.4.06-2.82,0-4.2-.06-6.34-.26-12.68-.15-19.03-.25-2.48-.04-4.96-.18-7.43-.38-.57-.05-1.12.11-1.65.06-3.13-.3-6.26-.66-9.39-1-.37-.04-.75-.29-1.1-.23-2.61.46-5.21-.25-7.8-.12-2.53.12-5.03-.33-7.53-.34-4.12-.03-8.22-.42-12.34-.38-1.95-.11-3.89-.36-5.81-.75-1.16-.11-2.1-1-2.26-2.16-.44-2-.5-4.07-.18-6.1.18-1.51,1.14-2.82,2.53-3.45.92-.46,1.87-.86,2.85-1.18,3.26-.9,6.57-1.59,9.91-2.07,4.34-.76,8.72-1.36,12.78-3.25.88-.31,1.79-.55,2.71-.71.24-.07.6-.22.64-.4,0-.27-.14-.51-.37-.65-.56-.13-.94-.66-.89-1.23.06-2.99.15-5.97.1-8.96-.03-1.66-.11-3.31-.02-4.97.38-6.91.2-13.84.4-20.75.11-3.64.08-7.28.13-10.91.05-3.5.56-7.02.08-10.54.01-1.01.09-2.02.24-3.02.04-5.06.05-10.12.05-15.18,0-.95-.28-1.23-1.14-1.11-4.09.5-8.24.25-12.24-.74-1.37-.16-2.75-.21-4.13-.15-1.4-.08-2.81,0-4.21,0-1.68-.01-3.36-.02-5.04-.09-2.88-.12-5.76-.15-8.65-.07-3.27.09-6.54-.1-9.81-.24-1.42-.06-2.8-.19-4.04.72-.31.22-.67.33-1.05.31-1.29-.09-2.24.2-2.41,1.68-.05.18-.16.34-.32.45-3.67,3.28-6.14,7.53-9.11,11.38-3.15,4.08-6.32,8.13-9.78,11.96-5.7,6.22-11.04,12.76-16,19.59-4.65,6.48-9.72,12.62-14.88,18.71-6.36,7.49-12.9,14.83-18.78,22.71-1.62,2.17-3.14,4.41-4.72,6.6-1.17,1.7-2.51,3.28-3.99,4.71-.52.53-.96,1.13-1.31,1.78-.76,1.29-1.6,2.53-2.52,3.72-1.43,1.74-2.66,3.63-3.66,5.64-.24.49-.69.88-.96,1.36-.19.32-.28.69-.26,1.05.07.47.58.39.91.36,3.63-.26,7.26-.05,10.89.03,2.24.05,4.49-.33,6.74-.36,6.64-.08,13.28-.12,19.92-.11,5.67.02,11.35.15,17.02.24,7.3.11,14.59.22,21.88.36,5.5.11,10.99.26,16.49.4,3.56.09,7.12.06,10.68.28,3.83.24,7.66.43,11.5.3.38.02.75.07,1.12.15,4.09.53,8.18,1.02,12.26,1.6,4.71.67,9.44,1.22,14.09,2.18,3.4.65,6.86.95,10.33.88,2.62-.01,5.23.2,7.84.22,5.41.06,10.82.38,16.24.24,2.69-.07,5.39.05,8.07.21,2.15.19,4.31.2,6.46.03,1.21-.01,2.42.05,3.63.17,7.29,0,14.59.09,21.88.13.65.03,1.31-.02,1.95-.15,2.02-.46,4.1-.59,6.17-.38,2.99.26,5.98.16,8.96.26,1.78.06,3.55.27,5.32.41.46.04.93.1,1.39.1,5.79.02,11.59-.01,17.38.07,4.39.07,8.77-.19,13.17.04,2.25.03,4.49-.11,6.72-.42,3.88-.34,7.78-.43,11.68-.25,2.49.09,4.97-.31,7.46,0,1.3.17,2.6.33,3.91.37,3.54.11,7.08.17,10.63.22,4.28.05,8.56-.16,12.85.22,2.05.18,4.11.15,6.17.16,3.55,0,7.11-.14,10.66.08,1.21,0,2.43-.09,3.63-.28,3.26-.31,6.54-.28,9.81-.5,5.69-.37,11.39-.76,17.1-.58,5.8.19,11.6.37,17.4.5,3.19.07,6.38.04,9.57.02,1.78-.04,3.56.16,5.3.59,1.55.35,3.15.44,4.73.28,2.4-.15,4.82-.1,7.23-.12,2.88-.02,5.76-.02,8.64,0,2.04-.05,4.08,0,6.12.16,1.86.18,3.74.07,5.57-.32,2.01-.35,4.06-.49,6.1-.42,8.44.12,16.88.22,25.31.35,6.43.1,12.87.37,19.3.28,2.51-.04,5,.33,7.55.09,2.15-.03,4.3.17,6.4.61,4.34.41,8.69.59,13.05.54,5.96-1.11,11.96-.11,17.93-.36,1.12.01,2.24.1,3.35.27,2.23.23,4.49.26,6.73.3,5.5.1,11.02.32,16.51-.14,1.86-.15,3.72.08,5.56-.22,1.77-.21,3.56-.28,5.34-.21,1.5-.04,3,.09,4.46.39,1.53.33,1.53.26,2.34-1.14.26-.5.59-.95.97-1.36,2.02-1.96,4.08-3.88,6.11-5.82.4-.39.78-.8,1.12-1.24.83-1.05,1.71-2.01,3.2-1.99.64,0,.96-.51,1.37-.89,2.76-2.53,5.75-4.82,8.36-7.53,1.11-1.15,2.26-2.25,3.42-3.34,1.36-1.28,2.41-2.89,4.14-3.77.25-.13.46-.33.61-.57,1.3-2.31,3.49-3.89,4.91-6.07,1.39-2.13,3.14-3.95,4.62-6,.81-1.12,1.84-2.09,2.76-3.14,1.78-2.02,3.55-4.05,5.31-6.08,2.77-3.16,5.73-6.14,8.31-9.47.48-.58,1-1.12,1.57-1.61,1.86-1.7,3.56-3.57,5.08-5.59,2.41-3.33,5.2-6.37,8.32-9.05,1.85-1.72,3.5-3.64,4.92-5.73,1.93-2.51,3.8-5.07,5.75-7.56,1.6-2.05,3.2-4.12,4.94-6.05,2.05-2.27,4.32-4.34,6.39-6.59,3.15-3.44,6.89-6.31,9.64-10.13.79-.92,1.63-1.8,2.53-2.62,1.91-2.05,3.81-4.12,5.71-6.18.13-.14.25-.28.38-.42,1.7-1.97,1.44-2.88-1.1-3.3-2.66-.51-5.36-.78-8.07-.81-4.73.04-9.47-.22-14.2-.35-2.42-.06-4.85-.07-7.27-.17-1.21-.05-2.41-.33-3.62-.36-3.65-.09-7.29-.14-10.94-.16-3.38-.12-6.76.08-10.11.6-2.14.39-4.29.03-6.43,0-4.55-.06-9.09-.12-13.64-.18-.18,0-.38-.12-.55-.1-2.29.33-4.6.51-6.92.57-4.63.21-9.25.61-13.88.87-1.05-.03-2.02.58-2.44,1.55-.84,1.77-1.67,3.55-2.54,5.3-1.28,2.71-2.88,5.25-4.77,7.58-.38.32-.42.88-.11,1.26.06.07.13.13.21.18,3.14,2.79,6.59,5.2,10.29,7.2,6.47,3.37,12.95,6.73,18.81,11.15,1.84,1.3,3.86,2.33,6,3.05,3.25,1.27,5.87,3.75,7.32,6.92.52,1.12.73,2.36.59,3.58.02,1.35-.76,2.59-1.99,3.14-.56.33-1.1.71-1.61,1.12-.93.65-2.02,1.02-3.15,1.07-1.4.01-2.8-.03-4.2,0-3.66-.03-7.29-.72-10.71-2.03-1.04-.39-2.11-.72-3.2-.98-3.35-.84-6.61-2.02-9.73-3.51-2.22-.99-4.19-2.46-6.4-3.42-3.67-1.59-7.39-3.06-11.12-4.51-2.26-.88-4.59-1.56-6.84-2.44-1.07-.33-2.09-.81-3.03-1.42-.69-.49-1.47-.82-2.29-.99-1.28-.26-2.51-.73-3.64-1.39-.84-.38-1.71-.68-2.61-.88-2.21-.74-4.41-1.49-6.61-2.21-.34-.17-.74-.15-1.07.05-.41.3-.25.73-.09,1.01.86,1.51.83,3.22,1.18,4.85.5,2.28,1.32,4.48,1.83,6.76,1.08,4.81,2.53,9.53,3.21,14.42.07.54.2,1.07.39,1.57.31.79.51,1.61.6,2.46.41,3.98,1.39,7.88,1.6,11.86.13,2.49.6,4.97.54,7.45.09,2.12.02,4.25-.22,6.35-.09.65-.38,1.25-.85,1.71-1.78,1.75-3.63,3.21-6.41,2.55-1.16-.27-2.38.07-3.6-.35-1.25-.38-2.33-1.16-3.1-2.22-1.44-1.96-2.7-4.04-3.77-6.22-1.77-3.7-3.48-7.44-5.22-11.15-2.29-4.89-4.59-9.78-6.89-14.67-.35-.76-.65-1.55-.93-2.35-1.54-4.35-4.09-8.19-6.14-12.27-.93-1.61-1.94-3.16-3.05-4.65-1.43-2.17-2.83-4.37-4.3-6.52-.83-1.37-1.97-2.53-3.32-3.39-.88-.72-2.19-.59-2.91.29-.09.11-.17.23-.23.35-1.2,1.68-2.33,3.41-3.46,5.14-2.08,3-3.97,6.14-5.64,9.38-.45.92-.46,2.04-1.26,2.79-.48.7-.83,1.47-1.05,2.29h0c-.45.54-.81,1.15-1.07,1.81-.32,1.6-1.34,2.87-2.07,4.26-1.7,3.23-3.15,6.57-4.6,9.91-1.58,3.61-3.45,7.08-5.6,10.39-1.3,2.04-2.28,4.28-3.43,6.42-1.02,1.9-2.1,3.77-3.1,5.68-.95,1.63-2.19,3.06-3.67,4.23-1.37.97-3.02,1.49-4.7,1.48-.46-.06-.9-.25-1.26-.54-.31-.19-.52-.67-.83-.72-1.78-.27-2.08-1.6-2.43-3.02-.68-2.79-.23-5.58,0-8.36.34-2.88,1.03-5.71,2.04-8.43.81-2.78,1.41-5.61,1.78-8.48.81-4.89,1.53-9.79,2.2-14.7.21-1.56.15-3.17.21-4.75.01-.39-.06-.78-.52-.83-.42-.05-.68.27-.85.61-1.46,2.91-2.68,5.93-3.86,8.96-1.15,2.97-1.72,6.11-2.6,9.16-.59,2.44-1.33,4.84-2.22,7.19-1.13,2.66-1.9,5.48-2.89,8.2-1.27,3.33-2.93,6.5-4.96,9.43-1.55,2.34-3.86,3.43-6.29,4.41-.34.14-.8.07-1.08.28-1.86,1.35-3.08-.12-4.39-1-.45-.36-.71-.91-.7-1.48.05-.65-.02-1.31-.21-1.94-.76-1.65-.45-3.32-.25-4.97.87-7.05,1.75-14.11,2.75-21.14.64-4.54,1.55-9.04,2.25-13.57.75-4.9,2.12-9.66,3.02-14.52.68-3.68,1.34-7.36,2.23-11,.56-2.64,1.29-5.24,2.19-7.78.61-1.85,1.1-3.74,1.47-5.66.52-2.38,1.3-4.7,2.31-6.92-.49-1.44-1.52-.72-2.4-.61-1.84.25-3.71.32-5.57.21-3.91-.29-7.84-.39-11.77-.38-5.39.01-10.77.12-16.16-.18-.93.03-1.87.1-2.8.22-3.54.18-7.09.36-10.63.5-2.06.08-4.07.53-6.13.65-5.5.32-10.99.4-16.49.45-4.46.04-8.93.04-13.39.47-3.06.32-6.14.37-9.21.13-2.65-.19-5.31-.2-7.97-.02-3.01.17-5.99-.1-8.98-.2-5.91-.23-11.83.08-17.69.91-3.98.55-8.01.77-12.03.66-2.16-.04-4.32-.02-6.48-.01-1.5-.07-3.01.08-4.47.44-.54.15-1.11.22-1.67.19-3.21-.18-6.36.42-9.54.68-1.02.17-2.05.23-3.08.17-1.79-.27-3.52.19-5.28.16-.89-.02-1.15.33-1.08,1.24.3,3.63.28,7.27.24,10.9-.06,4.76-.34,9.52-.23,14.27.07,3.07-.23,6.12-.09,9.19.09,1.94-.19,3.9-.18,5.85-.16,2.25-.08,4.5.25,6.73.23,1.29.31,2.6.24,3.91.04,2.52.23,5.04.58,7.54.07,1.02.09,2.05.05,3.07-.06,5.26-.13,10.52-.21,15.78-.03.56-.02,1.13.02,1.69.11.91-.17,2.05.61,2.66.8.63,1.74,1.04,2.74,1.21,3.62.48,7.1,1.67,10.78,1.91,2.12.14,4.22.79,6.36,1.1,2.78.4,5.52,1.03,8.29,1.49,1.29.23,2.57.55,3.81.96,2.03.71,4.09,1.31,6.19,1.8.87.29,1.7.71,2.45,1.23.26.1.45.32.5.6.2,1.9.95,3.8.11,5.72-.36.72-1.21.71-1.71,1.2Z"/>
    <path id="Path_493" class="st67" d="M344.17,8.32c-.42.77-1.24.77-1.93.94-4.52,1.09-9.04,2.18-13.58,3.2-5.94,1.33-11.8,2.94-17.72,4.33-2.44.57-4.93.96-7.37,1.53-5.4,1.27-10.79,2.58-16.17,3.93-.89.22-1.71.72-2.59,1-2.22.69-4.45,1.33-6.68,1.99h-.02c-4.69,1.68-9.24,3.73-13.59,6.15-.33.31-.62.76-1.01.91-2.18.81-4.1,2.13-6.18,3.08-2.93,1.34-5.3,3.6-8.35,4.73-1.33.49-2.41,1.68-3.6,2.55-.75.39-1.66.47-2.27,1.13-2.76,1.21-5.03,3.2-7.61,4.71-1.48.87-2.69,2.25-4.16,3.27-1.43.99-2.49,2.48-3.83,3.62-2.72,2.31-4.97,5.07-7.44,7.61-.65.67-1.2,1.44-1.8,2.16-.69.45-.93,1.32-1.62,1.77v.02c-.34.42-.74.79-1.19,1.07-3.08,3.72-6.25,7.36-9.09,11.29-1.64,2.26-3.31,4.5-4.95,6.76-1.53,2.1-2.78,4.4-4.14,6.63-1.74,2.86-3.35,5.81-5.26,8.55-.65.93-.45,2.1-1.43,2.94-.78.67-1.04,1.92-1.57,2.88s-1.17,1.91-1.69,2.9-.85,2.07-1.4,3.04c-4.02,7.07-6.31,14.78-8.42,22.56-1.18,4.34-2.34,8.69-3.35,13.08-.8,3.47-1.38,6.99-1.99,10.5-1.27,7.3-2.54,14.59-3.71,21.9-.94,5.84-1.76,11.7-2.59,17.55-.96,6.87-1.75,13.77-2.86,20.61-.64,3.98-.98,8-1.6,11.98-.78,4.99-1.36,10.02-1.93,15.04-.67,5.87-1.27,11.74-1.63,17.64-.36,5.99-.98,11.97-1.42,17.96-.31,4.21-.66,8.41-.76,12.63-.09,4.02-.41,8.03-.63,12.05-.17,3.09-.34,6.18-.49,9.27-.06,1.27.08,1.33,1.31,1.72,1.72.42,3.49.62,5.27.6,4.82.27,9.63.74,14.44,1.07,2.13.15,4.23.7,6.39.44.37-.04.75,0,1.11.12,1.36.35,2.76.5,4.16.44,2.5.05,5,.27,7.47.67,3.14.41,6.31.59,9.48.54,4.77.17,9.52.62,14.23,1.36,2.05.3,4.11.21,6.16.31,5.89.29,11.77.74,17.62,1.58,3.02.43,6.07.72,9.1,1.1,2.59.32,5.17.69,7.75,1.03.74.1,1.48.21,2.23.25.82.18,1.67.16,2.49-.06.65-.33.99-1.28,1.44-1.98.61-.94,1.34-1.8,2.18-2.55.69-.42,1.26-1.02,1.63-1.75h0c.26-.12.44-.35.51-.63l.1.1-.11-.09c.3-.04.53-.28.56-.58.3-.03.53-.27.56-.57h.01c1.05-.4,2.02-.96,2.87-1.69.07-.17.21-.35.2-.52-.19-1.75-.22-3.52-.08-5.27-.8-2.36-.02-4.79-.34-7.17-.18-2.32-.12-4.66.19-6.97.18-2.25.17-4.5-.03-6.75.04-1.27,0-2.55-.12-3.81-.22-1.2-.28-2.42-.17-3.63.08-1.29-.06-2.59.1-3.9.14-1.65.15-3.31.01-4.95-.2-4.19.5-8.36.08-12.53.61-6.69.11-13.4.48-20.1.14-2.57.08-5.17.29-7.75.07-.82-.55-1.61-.03-2.41-.76-2.58-.09-5.17-.04-7.75,0-3.34.2-6.67.61-9.98.19-1.37.81-2.64.76-4.07.05-.47.22-.92.51-1.3,1.18-1.91,2.56-3.7,4.12-5.32,2.02-2.05,6.44-2.62,9.15-1.1,6.51,3.56,12.82,7.47,18.91,11.69,3.53,2.49,7.04,5.01,10.47,7.64,3.14,2.49,5.83,5.51,7.93,8.93,3.85,6.22,6.54,13.09,7.94,20.26.75,3.48,1.28,7,1.83,10.52,1.02,6.52.94,13.07.9,19.63-.1,4.57-1.13,9.06-3.03,13.21-.74,1.7-1.35,3.46-2.03,5.18-.94,2.23-2.08,4.36-3.42,6.36-1.65,2.63-3.52,5.13-5.4,7.61-1.4,1.84-3.06,3.49-4.46,5.34-2.3,3.03-4.9,5.8-7.39,8.68-.36.43-.54.98-.49,1.53.01,1.28.28,2.54.8,3.71,1.12,2.67,1.89,5.5,3.09,8.13,1.23,2.7,2.81,5.25,4.23,7.86.41.51.66,1.12.74,1.77,2.05,2.14,3.47,4.8,5.71,6.77,1.3,1.81,2.55,3.66,3.92,5.41,1.25,1.61,2.61,3.14,3.96,4.67.38.41.82.76,1.3,1.04.39.3.94.29,1.32-.03.7-.62,1.54-1.06,2.45-1.28.36-.1.68-.31.91-.6.99-1.72,2.68-2.58,4.26-3.55,3.99-2.46,7.84-5.12,11.72-7.75,4.12-2.9,8.04-6.06,11.76-9.46,4.25-3.67,8.02-7.86,11.21-12.48,5.41-7.99,10.24-16.37,14.43-25.06.94-1.94,1.65-4,2.09-6.11.12-.74.3-1.47.53-2.18,1.66-4.5,1.81-9.18,1.72-13.89-.05-2.91-.04-5.83-.13-8.74s-.73-5.77-.7-8.69c.02-1.4-.19-2.81-.3-4.21,0-.38-.05-.75-.16-1.11-1.42-3.23-1.37-6.76-2.05-10.13-.33-2.03-.87-4.01-1.61-5.93-.34-.87-.61-1.76-.81-2.67-.44-1.9-1.13-3.75-2.03-5.48-.2-.42-.36-.86-.48-1.3-1.38-3.85-3.07-7.58-5.05-11.16-.53-.98-.91-2.04-1.38-3.06-1.63-3.55-3.52-6.97-5.65-10.24-1.2-1.86-2.3-3.78-3.5-5.64-1.15-1.8-2.29-3.62-3.56-5.34-1.13-1.71-2.35-3.35-3.67-4.93-.2-.2-.37-.42-.52-.66-1.72-3.36-4.27-6.1-6.52-9.07-2.32-3.05-4.91-5.89-7.73-8.49-3.15-2.93-6.52-5.62-9.68-8.53-2.14-1.97-4.48-3.67-6.75-5.47-3.22-2.56-6.57-4.94-9.97-7.25-3.64-2.47-7.28-4.93-10.92-7.38q-.93-.63-1.91.08c-3.87,2.97-8.16,5.35-12.73,7.06-3.02.99-6.11,1.77-9.24,2.33-3.57.66-7.18,1.05-10.81,1.15-2.99.16-5.99-.15-8.88-.93-.9-.25-1.77-.62-2.68-.83-1.19-.28-2.3-.81-3.27-1.55-2.46-1.85-4.98-3.63-7.31-5.63-1.35-1.3-2.6-2.69-3.75-4.17-.17-.22-.28-.49-.32-.77-.27-1.09-.71-2.14-1.3-3.1-.95-1.74-1.46-3.68-1.5-5.66-.22-4.22-.12-8.46.3-12.66.13-1.49.55-2.95,1.26-4.27.79-1.38,1.4-2.85,1.84-4.38.52-1.61,1.29-3.12,2.27-4.49.83-1.23,1.42-2.64,2.2-3.87,2.14-3.53,4.62-6.85,7.39-9.91,7.64-5.5,15.47-10.69,24.07-14.62.49-.37,1.08-.59,1.69-.65.23-.07.45-.17.66-.29.19-.14.39-.28.58-.41.21-.11.41-.25.6-.39,1.06-.82,2.45-.95,3.55-1.7,3.97-2.07,8.23-3.46,12.3-5.29,2.19-.98,4.47-1.75,6.72-2.6,2.87-1.08,5.72-2.21,8.55-3.4,3.02-1.23,6.13-2.23,9.3-3.01,3.78-.97,7.3-2.79,11.09-3.76,1.45-.37,2.9-.7,4.34-1.09,2.59-.7,5.17-1.5,7.78-2.14,4.36-1.07,8.68-2.4,13.16-2.9,4-.45,8.02-.74,12.03-1.11,2.33-.22,4.65-.42,6.97-.68,3.35-.36,6.72-.51,10.09-.46,8.43.07,16.86.16,25.3.33,4.96.22,9.9.74,14.8,1.55.55.08,1.11.13,1.73.21.66-1.87.28-3.74.26-5.58,0-.09-.02-.23-.08-.26-1.52-.95-1.03-1.91-.07-2.93.58-.62.39-1.42.39-2.16.01-3.82-.03-7.64,0-11.47.02-3.56.07-7.12.12-10.68.05-3.66.11-7.31.21-10.97.05-1.77.21-3.55.31-5.32.06-1.16-.14-1.34-1.18-1.38-5.1-.2-10.21-.34-15.31-.66-2.61-.16-5.2-.6-7.82-.51-.46-.05-.92-.17-1.34-.36-3.22.4-6.47.42-9.69.06h-.02c-.34-.44-.68-.42-1.03-.01-.24.12-.54.39-.72.32-1.37-.47-2.77-.2-4.16-.25-2.1-.08-4.22.31-6.31-.11-.36-.07-.73-.05-1.09.04-1.52.23-3.06.23-4.58.02-3.05-.22-6.12-.25-9.17-.07-1.66.11-3.33.1-5,.15-4.44.17-8.88.56-13.28,1.19-2.29.32-4.53.78-6.78,1.23-.82.13-1.66.21-2.49.24-1.1.49-2.26.84-3.44,1.06l-4.32.72"/>
    <path id="Path_494" class="st16" d="M344.17,8.32c-.42.77-1.24.77-1.93.94-4.52,1.09-9.04,2.18-13.58,3.2-5.94,1.33-11.8,2.94-17.72,4.33-2.44.57-4.93.96-7.37,1.53-5.4,1.27-10.79,2.58-16.17,3.93-.89.22-1.71.72-2.59,1-2.22.69-4.45,1.33-6.68,1.99h-.02c-4.69,1.68-9.24,3.73-13.59,6.15-.33.31-.62.76-1.01.91-2.18.81-4.1,2.13-6.18,3.08-2.93,1.34-5.3,3.6-8.35,4.73-1.33.49-2.41,1.68-3.6,2.55-.75.39-1.66.47-2.27,1.13-2.76,1.21-5.03,3.2-7.61,4.71-1.48.87-2.69,2.25-4.16,3.27-1.43.99-2.49,2.48-3.83,3.62-2.72,2.31-4.97,5.07-7.44,7.61-.65.67-1.2,1.44-1.8,2.16-.69.45-.93,1.32-1.62,1.77v.02c-.34.42-.74.79-1.19,1.07-3.08,3.72-6.25,7.36-9.09,11.29-1.64,2.26-3.31,4.5-4.95,6.76-1.53,2.1-2.78,4.4-4.14,6.63-1.74,2.86-3.35,5.81-5.26,8.55-.65.93-.45,2.1-1.43,2.94-.78.67-1.04,1.92-1.57,2.88s-1.17,1.91-1.69,2.9-.85,2.07-1.4,3.04c-4.02,7.07-6.31,14.78-8.42,22.56-1.18,4.34-2.34,8.69-3.35,13.08-.8,3.47-1.38,6.99-1.99,10.5-1.27,7.3-2.54,14.59-3.71,21.9-.94,5.84-1.76,11.7-2.59,17.55-.96,6.87-1.75,13.77-2.86,20.61-.64,3.98-.98,8-1.6,11.98-.78,4.99-1.36,10.02-1.93,15.04-.67,5.87-1.27,11.74-1.63,17.64-.36,5.99-.98,11.97-1.42,17.96-.31,4.21-.66,8.41-.76,12.63-.09,4.02-.41,8.03-.63,12.05-.17,3.09-.34,6.18-.49,9.27-.06,1.27.08,1.33,1.31,1.72,1.72.42,3.49.62,5.27.6,4.82.27,9.63.74,14.44,1.07,2.13.15,4.23.7,6.39.44.37-.04.75,0,1.11.12,1.36.35,2.76.5,4.16.44,2.5.05,5,.27,7.47.67,3.14.41,6.31.59,9.48.54,4.77.17,9.52.62,14.23,1.36,2.05.3,4.11.21,6.16.31,5.89.29,11.77.74,17.62,1.58,3.02.43,6.07.72,9.1,1.1,2.59.32,5.17.69,7.75,1.03.74.1,1.48.21,2.23.25.82.18,1.67.16,2.49-.06.65-.33.99-1.28,1.44-1.98.61-.94,1.34-1.8,2.18-2.55.69-.42,1.26-1.02,1.63-1.75h0c.26-.12.44-.35.51-.63l.1.1-.11-.09c.3-.04.53-.28.56-.58.3-.03.53-.27.56-.57h.01c1.05-.4,2.02-.96,2.87-1.69.07-.17.21-.35.2-.52-.19-1.75-.22-3.52-.08-5.27-.8-2.36-.02-4.79-.34-7.17-.18-2.32-.12-4.66.19-6.97.18-2.25.17-4.5-.03-6.75.04-1.27,0-2.55-.12-3.81-.22-1.2-.28-2.42-.17-3.63.08-1.29-.06-2.59.1-3.9.14-1.65.15-3.31.01-4.95-.2-4.19.5-8.36.08-12.53.61-6.69.11-13.4.48-20.1.14-2.57.08-5.17.29-7.75.07-.82-.55-1.61-.03-2.41-.76-2.58-.09-5.17-.04-7.75,0-3.34.2-6.67.61-9.98.19-1.37.81-2.64.76-4.07.05-.47.22-.92.51-1.3,1.18-1.91,2.56-3.7,4.12-5.32,2.02-2.05,6.44-2.62,9.15-1.1,6.51,3.56,12.82,7.47,18.91,11.69,3.53,2.49,7.04,5.01,10.47,7.64,3.14,2.49,5.83,5.51,7.93,8.93,3.85,6.22,6.54,13.09,7.94,20.26.75,3.48,1.28,7,1.83,10.52,1.02,6.52.94,13.07.9,19.63-.1,4.57-1.13,9.06-3.03,13.21-.74,1.7-1.35,3.46-2.03,5.18-.94,2.23-2.08,4.36-3.42,6.36-1.65,2.63-3.52,5.13-5.4,7.61-1.4,1.84-3.06,3.49-4.46,5.34-2.3,3.03-4.9,5.8-7.39,8.68-.36.43-.54.98-.49,1.53.01,1.28.28,2.54.8,3.71,1.12,2.67,1.89,5.5,3.09,8.13,1.23,2.7,2.81,5.25,4.23,7.86.41.51.66,1.12.74,1.77,2.05,2.14,3.47,4.8,5.71,6.77,1.3,1.81,2.55,3.66,3.92,5.41,1.25,1.61,2.61,3.14,3.96,4.67.38.41.82.76,1.3,1.04.39.3.94.29,1.32-.03.7-.62,1.54-1.06,2.45-1.28.36-.1.68-.31.91-.6.99-1.72,2.68-2.58,4.26-3.55,3.99-2.46,7.84-5.12,11.72-7.75,4.12-2.9,8.04-6.06,11.76-9.46,4.25-3.67,8.02-7.86,11.21-12.48,5.41-7.99,10.24-16.37,14.43-25.06.94-1.94,1.65-4,2.09-6.11.12-.74.3-1.47.53-2.18,1.66-4.5,1.81-9.18,1.72-13.89-.05-2.91-.04-5.83-.13-8.74s-.73-5.77-.7-8.69c.02-1.4-.19-2.81-.3-4.21,0-.38-.05-.75-.16-1.11-1.42-3.23-1.37-6.76-2.05-10.13-.33-2.03-.87-4.01-1.61-5.93-.34-.87-.61-1.76-.81-2.67-.44-1.9-1.13-3.75-2.03-5.48-.2-.42-.36-.86-.48-1.3-1.38-3.85-3.07-7.58-5.05-11.16-.53-.98-.91-2.04-1.38-3.06-1.63-3.55-3.52-6.97-5.65-10.24-1.2-1.86-2.3-3.78-3.5-5.64-1.15-1.8-2.29-3.62-3.56-5.34-1.13-1.71-2.35-3.35-3.67-4.93-.2-.2-.37-.42-.52-.66-1.72-3.36-4.27-6.1-6.52-9.07-2.32-3.05-4.91-5.89-7.73-8.49-3.15-2.93-6.52-5.62-9.68-8.53-2.14-1.97-4.48-3.67-6.75-5.47-3.22-2.56-6.57-4.94-9.97-7.25-3.64-2.47-7.28-4.93-10.92-7.38q-.93-.63-1.91.08c-3.87,2.97-8.16,5.35-12.73,7.06-3.02.99-6.11,1.77-9.24,2.33-3.57.66-7.18,1.05-10.81,1.15-2.99.16-5.99-.15-8.88-.93-.9-.25-1.77-.62-2.68-.83-1.19-.28-2.3-.81-3.27-1.55-2.46-1.85-4.98-3.63-7.31-5.63-1.35-1.3-2.6-2.69-3.75-4.17-.17-.22-.28-.49-.32-.77-.27-1.09-.71-2.14-1.3-3.1-.95-1.74-1.46-3.68-1.5-5.66-.22-4.22-.12-8.46.3-12.66.13-1.49.55-2.95,1.26-4.27.79-1.38,1.4-2.85,1.84-4.38.52-1.61,1.29-3.12,2.27-4.49.83-1.23,1.42-2.64,2.2-3.87,2.14-3.53,4.62-6.85,7.39-9.91,7.64-5.5,15.47-10.69,24.07-14.62.49-.37,1.08-.59,1.69-.65.23-.07.45-.17.66-.29.19-.14.39-.28.58-.41.21-.11.41-.25.6-.39,1.06-.82,2.45-.95,3.55-1.7,3.97-2.07,8.23-3.46,12.3-5.29,2.19-.98,4.47-1.75,6.72-2.6,2.87-1.08,5.72-2.21,8.55-3.4,3.02-1.23,6.13-2.23,9.3-3.01,3.78-.97,7.3-2.79,11.09-3.76,1.45-.37,2.9-.7,4.34-1.09,2.59-.7,5.17-1.5,7.78-2.14,4.36-1.07,8.68-2.4,13.16-2.9,4-.45,8.02-.74,12.03-1.11,2.33-.22,4.65-.42,6.97-.68,3.35-.36,6.72-.51,10.09-.46,8.43.07,16.86.16,25.3.33,4.96.22,9.9.74,14.8,1.55.55.08,1.11.13,1.73.21.66-1.87.28-3.74.26-5.58,0-.09-.02-.23-.08-.26-1.52-.95-1.03-1.91-.07-2.93.58-.62.39-1.42.39-2.16.01-3.82-.03-7.64,0-11.47.02-3.56.07-7.12.12-10.68.05-3.66.11-7.31.21-10.97.05-1.77.21-3.55.31-5.32.06-1.16-.14-1.34-1.18-1.38-5.1-.2-10.21-.34-15.31-.66-2.61-.16-5.2-.6-7.82-.51-.46-.05-.92-.17-1.34-.36-3.22.4-6.47.42-9.69.06h-.02c-.34-.44-.68-.42-1.03-.01-.24.12-.54.39-.72.32-1.37-.47-2.77-.2-4.16-.25-2.1-.08-4.22.31-6.31-.11-.36-.07-.73-.05-1.09.04-1.52.23-3.06.23-4.58.02-3.05-.22-6.12-.25-9.17-.07-1.66.11-3.33.1-5,.15-4.44.17-8.88.56-13.28,1.19-2.29.32-4.53.78-6.78,1.23-.82.13-1.66.21-2.49.24-1.1.49-2.26.84-3.44,1.06l-4.32.72Z"/>
    <path id="Path_495" class="st49" d="M274.03,378.22c-1.5,1.01-3.38,1.27-5.09.7-.82-.21-1.48-.83-1.74-1.64-.28-.75,0-1.6-.75-2.31-.6-.58-.1-1.63-.26-2.46-.05-.18-.11-.36-.19-.53-.54-.02-1.08.15-1.51.47-2.81,1.2-6.05.7-8.37-1.29-1.01-.87-1.63-2.11-1.7-3.44-.14-3.73-.69-7.46.12-11.17.32-1.46.67-2.91.98-4.37.62-2.99,1.57-5.89,2.18-8.89.65-2.53,1.51-5,2.55-7.39.4-1.34.94-2.64,1.61-3.86.45-.71.11-1.26-.71-1.4-1.76-.28-3.51-.56-5.28-.79-3.63-.46-7.26-.88-10.89-1.33-2.69-.33-5.38-.84-8.08-.97-4.21-.19-8.4-.78-12.64-.63-4.58,0-9.16-.28-13.71-.82-2.21-.18-4.44-.22-6.66-.19-4.39.03-8.77-.18-13.14-.63-1.58-.15-3.18-.05-4.77-.16-4.1-.3-8.2-.67-12.3-.97-2.97-.22-5.94-.34-8.91-.58-2.98-.24-5.96-.57-8.93-.86-.28-.03-.55-.07-.83-.09-.49-.11-.98.2-1.09.69-.02.09-.03.18-.02.26-.18,2.05-.36,4.1-.48,6.15-.22,4.02-.28,8.06-.65,12.06-.28,2.61-.38,5.23-.28,7.86.09,1.68.24,3.37.23,5.05-.02,3.46-.11,6.92-.19,10.37.03.66-.05,1.31-.24,1.95-.45,1.52-.6,3.12-.43,4.7.07,5.06.11,10.12.18,15.19.02,1.3.05,2.61.18,3.91.34,4,.45,8.01.33,12.02-.06,4.77.1,9.54.07,14.31-.03,5.15-.18,10.29-.25,15.44-.09,6.56-.16,13.12-.22,19.69-.05,4.76-.05,9.52-.11,14.28-.04,3.45-.14,6.9-.22,10.35-.03.47-.03.93,0,1.4.03.39.34.7.72.74.37.05.75.07,1.12.06,7.51.06,15.02.1,22.53.19,4.03.05,8.05.31,12.07.23,4.31-.09,8.6.34,12.9.22,1.68-.05,3.38-.1,5.05-.28,1.5-.16,1.68-.52,1.47-2.03-.23-2.71-.28-5.42-.16-8.14-.03-5.42.01-10.85.05-16.27.02-2.23.13-4.45.16-6.68.04-2.31.22-4.62.32-6.93.07-1.68.2-3.36.33-5.04.2-2.49.14-5.01.15-7.51.02-4.5.22-8.99.55-13.47.15-1.96.02-3.94.2-5.9.34-3.74.79-7.48,1.23-11.21.67-5.69,1.37-11.38,2.04-17.07.45-3.81.5-3.88,4.3-3.75,2.05-.13,3.81,1.43,3.94,3.48,0,0,0,.01,0,.02.28,2.52.57,5.05.68,7.58.27,5.91.85,11.78,1.68,17.63.24,1.29.24,2.61,0,3.9-.15,1.02-.07,2.07.21,3.06.74,3.42.68,6.91.89,10.37.26,4.2.06,8.44.39,12.64.43,5.51.39,11.03.63,16.54.25,5.79.36,11.6.05,17.41-.15,2.89-.12,5.79-.17,8.68,0,.28-.09.55-.07.83.1,1.58,1.24,2.25,2.86,1.69.25-.09.52-.33.74-.28,1.99.39,3.92-.18,5.87-.4,3.55-.41,7.12-.32,10.67-.49,3.46-.17,6.93-.38,10.39-.41,3.94-.04,7.85-.5,11.77-.73,3.09-.15,6.2-.07,9.28.25.99.09,1.43-.27,1.45-1.22-.07-1.67-.05-3.34.05-5.01.27-2.13-.03-4.26.26-6.4.26-2.05.23-4.13-.1-6.16-.34-2.23.16-4.43-.13-6.63.03-.46.14-.91.33-1.34.09-7.82.07-15.69-.51-23.45-.77-10.23-.66-20.54-2.29-30.7-.4-3.85-.42-7.72-.08-11.58.07-.72-.58-1.18-.4-1.86.68-1.47-.62-3.35.96-4.63l.07-.05c.21-.14.39-.32.54-.52l.02-.02c.12-.11.17-.22.13-.33s-.08-.17-.12-.17h0c-.38-.44-1.03-.48-1.46-.09-.04.03-.08.07-.11.11l-.05.05c-.22.11-.41.28-.55.49l-.04.02c-.22.15-.41.34-.64.48"/>
    <path id="Path_496" class="st49" d="M494,526.62c-1.14.62-2.3,1.22-3.42,1.86-6.31,3.59-11.92,7.96-15.95,14.14-1.43,2.2-3.02,4.28-4.52,6.43-.64.92-.57,1.44.32,2.13.97.9,2.22,1.43,3.54,1.49.85.02,1.69.12,2.52.27.93.14,1.19.49,1.23,1.5,0,.28.01.56.02.84.06.49-.28.94-.76,1.01-2.39.61-4.92.26-7.05-.98-2.74-1.46-5.03-3.64-6.64-6.3-.6-.83-1.25-1.63-1.94-2.39-3.06-4.34-5.92-8.8-8.56-13.4-.88-3.16-2.75-5.93-3.48-9.17-.42-1.89-1.1-3.73-1.51-5.63-.43-2.59-.68-5.21-.74-7.83-.21-2.9.04-5.78.12-8.67.25-4.04,1.44-7.96,3.49-11.46,2.2-4.12,4.48-8.21,7.07-12.09,2.27-3.39,4.61-6.77,7.93-9.37,1.68-1.31,3.3-2.73,4.95-4.11,3.29-2.66,7.23-4.38,11.42-5,3.32-.58,6.67-.98,10.01-1.44,2.13-.29,4.27-.52,6.4-.84,1.46-.22,1.96-.79,2.07-2.2.04-.55.05-1.11.04-1.66-.01-1.2.15-2.46-.8-3.43-1.12-1.14-2.21-2.37-3.9-2.63-5.37-.82-10.64-.76-15.51,2.12-1.94,1.15-3.86,2.33-5.79,3.49-4.01,2.25-7.9,4.71-11.66,7.35-2.56,1.92-4.87,4.14-6.89,6.62-.71.99-1.35,2.03-1.92,3.1-1.36,2.23-2.88,4.37-4.03,6.7-1.6,3.17-2.99,6.43-4.17,9.78-1.21,3.54-1.86,7.22-3.07,10.76-.65,2.33-.95,4.75-.87,7.17-.12,4.95-.5,9.9-.23,14.86.09,1.58.08,3.16.12,4.73.19,3.94,1.23,7.79,3.05,11.29,1.45,3.02,2.87,6.06,4.55,8.96.87,1.54,1.86,3.01,2.97,4.4.71.87,1.33,1.82,1.96,2.75,1.46,2.17,3.2,4.13,5.17,5.86.31.2.58.45.81.74,1.41,2.54,2.8,5.09,4.15,7.66.36.7-.13,1.25-.98,1.17-.37-.06-.73-.15-1.09-.27-.44-.15-.91.08-1.06.51-.01.03-.02.06-.03.09-.74,1.91-1.33,3.88-1.78,5.88-.53,3.15-1.65,6.13-2.46,9.19-1.2,4.49-2.27,9-3.15,13.57-.77,4.03-1.68,8.04-2.52,12.07-.29,1.37-.56,2.74-.79,4.13-.53,3.14-1.05,6.27-1.53,9.42-.55,3.58-1.06,7.18-1.59,10.76-.7,4.7-1.09,9.45-2.04,14.11-.15.92-.23,1.85-.24,2.78-.06,1.44-.04,1.35,1.29,1.38.85.06,1.68-.31,2.2-.99,2.38-2.88,4.31-6.1,5.72-9.55,1.32-3.38,2.48-6.82,3.69-10.23,1.02-2.88,1.63-5.91,2.45-8.86.67-2.41,1.5-4.77,2.25-7.15.83-2.66,2.24-5.05,3.19-7.65.71-1.52,1.61-2.94,2.69-4.22.58-.63,1.42-.96,2.28-.87,1.22-.11,2.44.09,3.55.6,1.43.84,2.55,1.9,1.94,3.82.5,2.52-.08,5-.26,7.49-.11,1.58-.52,3.11-.73,4.68-.75,5.56-1.66,11.1-2.67,16.63-.45,2.2-1.08,4.35-1.86,6.45-.77,2.69-1,5.5-.68,8.28.07,1.2,1.1,2.13,2.3,2.06.45-.03.89-.19,1.25-.48.56-.35,1.04-.81,1.4-1.36,1.01-1.36,1.79-2.87,2.32-4.48.36-1.17.88-2.28,1.54-3.32,2.28-4.1,4.57-8.19,6.44-12.51,1.07-2.47,2.18-4.92,3.24-7.39,1.24-2.71,2.62-5.36,4.13-7.93,1.18-2,2.22-4.07,3.11-6.21,1.68-3.85,3.74-7.52,6.15-10.95,1.71-2.66,3.55-5.25,5.27-7.91,1.37-2.11,3.18-2.36,5.29-2.12,2.91.33,4.96,2.09,6.62,4.32,1.4,1.87,2.59,3.89,3.96,5.79,2.69,3.93,5.18,8,7.46,12.18,1.54,2.89,2.89,5.87,4.04,8.94,1.75,4.24,3.63,8.41,5.78,12.47.74,1.4,1.32,2.89,2,4.33,1.8,3.8,3.59,7.61,5.44,11.4.56,1.08,1.18,2.13,1.87,3.13.74,1.12,1.93,1.85,3.26,2,2.5.4,3.35-.44,3.3-3-.18-5.53-.71-11.04-1.59-16.5-.36-2.86-.89-5.7-1.57-8.51-.62-2.33-.99-4.76-1.56-7.13-.63-2.64-1.21-5.29-1.9-7.91-.43-1.62-1.12-3.18-1.48-4.81-.32-1.47-.49-2.96-.51-4.46-.02-1.68.05-3.35.23-5.02.37-3.94,1.13-4.3,4.51-2.93,4.69,1.9,9.36,3.86,14.23,5.3,1.89.56,3.83.96,5.68,1.63,3.96,1.42,7.88,2.96,11.8,4.46,1.22.47,2.4,1.04,3.63,1.47,4.41,1.57,8.23,4.35,12.55,6.13,2.25.91,4.55,1.67,6.91,2.27.73.14,1.45.36,2.14.64,2.24.97,4.6,1.63,7.02,1.96,2.51.37,5.07.28,7.55-.27,1.57-.31,2.15-1.37,1.66-2.94-.34-1.67-1.49-3.06-3.07-3.71-1.66-.62-3.22-1.49-4.84-2.24-2.19-1.04-4.28-2.28-6.24-3.71-3.18-2.26-6.64-4.11-9.99-6.12-3.22-1.94-6.66-3.4-9.9-5.25-.67-.34-1.29-.75-1.86-1.24-1.84-1.74-3.66-3.51-5.58-5.16-1.72-1.47-3.16-3.2-4.74-4.78-.48-.45-.82-1.02-.99-1.66-1.19-4.8-3.58-9.07-6.1-13.25-1.99-3.3-4.12-6.51-6.22-9.73-.57-.96-1.36-1.78-2.29-2.4-1.25-.79-2.01-2.2-2.88-3.42-1.04-1.45-2.09-2.9-3.17-4.31-.55-.9-1.45-1.52-2.48-1.71-.65-.15-1.22-.54-1.59-1.09-1.06-1.2-2.38-2.15-3.86-2.76-.53-.19-1.02-.49-1.43-.88-1.95-2.09-4.63-3.13-6.85-4.83-2.33-1.76-4.97-3.06-7.79-3.82-2.17-.61-4.27-1.41-6.41-2.1-3.5-1.25-7.14-2.08-10.84-2.47-1.96-.15-3.93-.15-5.89-.2-1.1-.08-2.21-.06-3.31.06-1.03.04-2.05-.05-3.06-.26-1.49.06-2.96.28-4.41.63-.83.11-1.65.23-2.48.35-1.17.31-2.33.69-3.46,1.12"/>
    <path id="Path_497" class="st49" d="M239.07,662.57l.84,2.02c1.58.29,3.15.54,4.71.89,1.46.34,2.96.49,4.46.45,4.08-.17,8,.85,11.92,1.76,1.27.31,2.58.46,3.89.46,4.03-.04,8.06-.1,12.09-.09,4.12.01,8.24.11,12.36.16,1.69.04,3.38-.08,5.05-.35,4.01-.67,8.05-.33,12.08-.31,1.87.04,3.75-.08,5.6-.35,2.04-.33,4.13-.11,6.15-.65.37-.03.74-.09,1.1-.2.86-.48,2.14,0,2.68-1.18-.67-.81-1.7-.59-2.55-.9-4.86-1.59-9.89-2.65-14.98-3.15-2.19-.27-4.37-.88-6.59-1.18-4.35-.59-8.51-2.06-12.89-2.55-1.36-.12-2.45-1.2-2.59-2.56-.26-1.76-.35-3.55-.26-5.33.01-3.08-.34-6.15-1.04-9.15-.11-.26-.18-.53-.21-.81.26-2.62-.34-5.17-.62-7.74-.09-.83-.22-1.64-.35-2.45-.18-1.66-.28-3.34-.29-5.01-.2-3.24-.42-6.48-.63-9.72-.74-.96.46-1.99-.1-2.96.38-5.45.41-10.92.09-16.38.85-1.48.15-3.07.34-4.6.18-1.48.04-2.99.33-4.48.09-.84,0-1.68-.25-2.49-.18-.73-.24-1.48-.17-2.23.31-3.14.19-6.27.19-9.41,0-2.5-.34-4.99-.16-7.51.17-2.4-.23-4.84-.23-7.27,0-2.72.18-5.43.23-8.15.05-3.42-.12-6.85.1-10.26.22-3.33-.1-6.66.25-10,.07-1.87-.02-3.74-.26-5.59-.34-5.87-.52-11.74-1.03-17.6-.4-5.19-.51-10.4-.32-15.61-.1-1.95-.02-3.9.22-5.83.1-.51-.23-1.09-.23-1.64,0-.62-.34-.79-.83-.89-1.08-.23-2.2.37-3.25-.19-3.94.5-7.92.52-11.88.83-3.55.28-7.13.54-10.72.55-3.17,0-6.33.31-9.5.43-1.19.05-2.39-.05-3.58-.04-1.51.01-1.92.37-1.79,1.8.35,3.6-.02,7.21.12,10.81-.58,1.42-.2,2.92-.35,4.37-.14,1.39-.23,2.79-.28,4.19-.09,2.21-.2,4.43-.17,6.64.04,3.35-.03,6.7.05,10.05.06,2.88-.07,5.77-.18,8.65-.07,1.84-.07,3.67-.05,5.52.02,3.03-.07,6.07-.1,9.11-.04,4.05-.26,8.12-.17,12.15.1,4.27.21,8.55.27,12.83.07,4.38.26,8.75.29,13.13.02,3.05-.23,6.12.32,9.16-.52,2.13.42,4.3-.14,6.42-.19.72.3,1.2.33,1.85.12,3.33.11,6.66.34,9.99.23,3.25.27,6.52.34,9.78.1,4.74.08,9.49.28,14.23.08,1.84.33,3.67.36,5.52.08,5.04.18,10.08.27,15.11.5,2.62.63,5.28,1.09,7.91"/>
    <path id="Path_498" class="st49" d="M148.96,625.91c.3,2.11.36,4.25.2,6.37,0,3.94-.17,7.87-.16,11.81.06,1.03-.25,2.05-.88,2.87-.57.72-.88,1.57-2.06,1.7-.83.19-1.58.62-2.17,1.23-1.47,1.16-3.23,1.88-5.09,2.08-1.06.34-2.14.6-3.23.77-2.96.13-5.8,1.07-8.64,1.78-1.95.48-3.9,1.14-5.82,1.79-.34.16-.7.28-1.07.34-.65.03-1.3-.14-1.76.54-.48.82-.62,1.79-.39,2.71.15.57.67.96,1.26.94,1.59.15,3.17.39,4.75.45,7.1.29,14.2.6,21.31.78,4.6.11,9.15.64,13.72,1.08,2.6.25,5.22.37,7.84.43,5.71.12,11.42.15,17.14.23,1.4.02,2.81.11,4.21.15,1.85.05,1.92,0,1.95-1.78.06-3.08-.05-6.18.17-9.25.34-4.76-.04-9.51-.01-14.27,0-1.23-.47-2.41-.5-3.6-.27-4.19-.23-8.4.09-12.59.67-5.6,1.04-11.22,1.53-16.82.61-7.02,1.07-14.06,1.13-21.11.05-5.17.72-10.28,1.27-15.4.32-2.97.7-5.93,1.02-8.9.42-3.9.86-7.81,1.21-11.72.27-2.41.4-4.84.38-7.27-.05-1.52.41-2.95.38-4.42-.07-3.71.07-7.41.19-11.11.12-3.54.07-7.07.09-10.61s.22-7.09.28-10.63c.09-5.78.14-11.55.2-17.33,0-.56-.01-1.13-.04-1.69,0-.39-.29-.72-.67-.78-.53-.17-1.09-.24-1.65-.22-1.76.28-3.53.01-5.3.15-1.67.12-3.35.1-5.03-.07-1.93-.09-3.86-.07-5.79.04-5.3.05-10.6-.21-15.9-.33-3.27-.07-6.53-.12-9.8-.17-.51-.09-1.03.04-1.44.35-.04.55-.13,1.2-.14,1.85-.08,6.28-.13,12.55-.23,18.83-.1,6.17-.11,12.34-.42,18.51-.18,3.65-.55,7.29-.61,10.96-.08,5.24-.16,10.48-.24,15.72-.1,6.74-.2,13.48-.29,20.22-.08,5.43-.26,10.86-.24,16.3.02,4.58-.15,9.15-.27,13.72-.78,3.42-.21,6.89-.25,10.32-.05,5.03-.16,10.05-.23,15.08"/>
    <path id="Path_499" class="st49" d="M303.91,149.67c3.65-2.34,7.03-5.08,10.09-8.16-.98-.8-1.81-1.76-2.46-2.86-.54-1.19-1-2.42-1.38-3.67-.24-.75-.51-1.39-1.32-1.64-.56.45-.24,1.02-.3,1.54-.02.65-.57,1.16-1.22,1.14-.13,0-.26-.03-.38-.08-1.93-.46-3.59-1.7-4.57-3.43-1.38-2.44-2.51-5.02-3.36-7.7-1.92-6.27-2.94-12.77-3.04-19.33-.01-.74-.42-.89-1.06-.98-2.68-.28-5.38-.29-8.06-.04-1.4.11-2.8.15-4.21.11-.94-.21-1.91.2-2.42,1.02-.16.23-.37.43-.62.56-.44.35-1.09.27-1.44-.17-.13-.17-.21-.38-.22-.59-.05-1.03-.11-2.07-.23-3.09-.15-1.29-.35-1.39-1.53-1.57-2.26-.41-4.56.45-5.99,2.25-2.35,2.66-4.91,5.14-7.65,7.41-.07.06-.14.13-.2.2-.55.64-1.06,1.31-1.54,2-1.72,2.75-3.97,5.12-5.08,8.32-1.16,3.56-1.81,7.26-1.95,11-.08,1.31.07,2.63-.03,3.94-.32,4.38,1.57,7.82,4.52,10.79,2.36,2.25,4.89,4.3,7.57,6.16.28.25.6.45.95.6,2.59.75,5.05,2.04,7.83,2.04,2.25,0,4.44.57,6.71.41,5.6-.35,11.13-1.41,16.47-3.16.98-.33,1.69-1.23,2.8-1.15,1.22-.38,2.34-1,3.3-1.84"/>
    <path id="Path_500" class="st49" d="M459.19,44.08c-.25-.88-.17-1.72.53-2.09.77-.42,1.19-1.3,2.32-1.31,1.77.05,3.53.34,5.23.86,5.15,1.37,10.27,2.88,15.46,4.09,6.57,1.53,13.15,3.01,19.84,3.96,1.3.18,2.61.28,3.92.34.56,0,1.12-.08,1.66-.23.28-.03.5-.27.5-.55-.02-.18-.11-.35-.26-.46-1.79-1.02-3.52-2.15-5.39-3-3.34-1.44-6.76-2.7-10.24-3.77-5.25-1.73-10.59-3.13-15.96-4.42-1.37-.31-2.69-.84-3.9-1.56-.48-.25-.67-.85-.42-1.34.07-.12.16-.23.27-.32.48-.45,1.04-.8,1.49-1.28.33-.34.8-.49,1.26-.4,2.79.25,5.55.82,8.21,1.7,3.83,1.2,7.74,2.08,11.57,3.25,3.75,1.15,7.66,1.62,11.43,2.74,2.73.68,5.56.87,8.36.58.37-.02.77-.07.86-.53.07-.38-.06-.76-.34-1.02-.96-1.14-2.14-2.07-3.47-2.74-.82-.38-1.62-.81-2.39-1.29-2.86-1.59-5.92-2.79-9.1-3.58-4.6-1.19-9.2-2.45-13.68-4-3.51-1.21-6.86-2.9-10.28-4.4-.33-.18-.63-.41-.88-.69-.39-.43-.42-1.08-.07-1.55.97-1.31,2.66-1.88,4.22-1.43,5.29,1.47,10.6,2.93,15.95,4.15,3.44.88,6.82,2.01,10.1,3.37,1.76.63,3.61,1.02,5.48,1.14.18.04.37.03.55-.03.31-.17.58-.4.8-.68.06-.09-.22-.51-.43-.65-1.38-.96-2.82-1.84-4.3-2.65-2.9-1.44-5.77-2.95-8.74-4.25-4.14-1.75-8.4-3.18-12.76-4.27-3.97-1.05-8.01-1.81-11.96-2.96-4.84-1.41-9.84-2.27-14.78-3.36-2.01-.46-4.07-.7-6.14-.7-2.35.02-4.69-.01-7.04,0-.62,0-1.09.2-1.18.92-.18,1.49-.46,2.98-.54,4.47-.54,10.32-.54,20.66-.71,31,0,.28-.02.56-.01.85-.04.68.46,1.28,1.14,1.36,5.47,1.29,10.95,2.55,16.39,3.96,2.44.69,4.83,1.5,7.18,2.44,2.88,1.09,5.83,1.96,8.84,2.59,3.75.79,7.57,1.07,11.3,1.92,1.11.1,2.24.09,3.35-.05.4,0,.83-.1.82-.54-.04-.36-.21-.7-.49-.93-3.86-2.96-8.19-5.24-12.8-6.77-5.25-1.71-10.49-3.49-15.89-4.71-1.64-.37-3.27-.79-4.86-1.18"/>
    <path id="Path_501" class="st49" d="M315.72,352.94c.15-.46.04-.96-.3-1.3-2.46-3.66-4.05-7.77-6.05-11.67-.74-1.6-1.3-3.27-1.67-4.99-.24-.9-.6-1.76-1.07-2.57-.52-1.01-1.49-1.7-2.61-1.87-3.83-.77-7.63-1.64-11.41-2.63-3.13-.92-6.09-2.34-8.75-4.22-1.53-1.05-3.19-1.89-4.95-2.5-.97-.37-2.07-.27-2.95.28-2.87,1.62-5.27,3.95-6.99,6.76-2.99,5.2-5.28,10.78-6.8,16.58-1.05,3.78-1.83,7.64-2.74,11.45-.74,3.46-1.08,7-1.04,10.54-.13.83.44,1.61,1.27,1.74.14.02.29.02.43,0,1.24.08,2.4-.61,2.91-1.74.92-1.72,1-3.59,1.41-5.39.23-1.19.54-2.36.94-3.51,1.16-2.96,1.57-6.12,2.46-9.16.44-1.51.81-3.04,1.23-4.55.12-.45.3-.89.51-1.3.89-1.64,1.74-1.67,2.93-.87.3.23.63.41.98.55.81.26.86,1.01.92,1.59.02.66-.1,1.31-.35,1.92-1.1,3.59-1.85,7.27-2.22,11.01-.19,1.39-.52,2.76-.78,4.15-.41,2.21-.88,4.42-1.21,6.65-.13,1.12-.16,2.25-.08,3.37-.08.98.53,1.89,1.47,2.2,1.04.23,2.11-.18,2.74-1.04.25-.28.44-.61.58-.96.4-1.44.9-2.85,1.5-4.22,1-2.1,1.8-4.29,2.39-6.55,1.21-3.95,3.02-7.65,4.43-11.52.09-.36.2-.72.34-1.07.9-1.73,1.61-1.92,3.31-.93.55.32,1.3.52,1.58,1,.33.79.3,1.69-.07,2.46-.78,2.3-1.61,4.59-2.42,6.88-1.09,3.08-2.23,6.13-3.37,9.18-.94,2.14-1.68,4.37-2.21,6.64-.09.46-.15.92-.18,1.39,0,.28.07.55.22.79.91,1.1,2.34,1.63,3.75,1.4.71-.25,1.28-.81,1.54-1.52,1.86-3.79,3.76-7.55,5.65-11.33.06-.18.14-.35.22-.51,2.08-2.94,3.23-6.32,4.49-9.64,1.2-3.16,2.28-3.49,5.67-2.72,2.63.65,5.31,1.14,8,1.46,2.02.2,4.08.33,6.13.4.07,0,.15-.09.22-.14"/>
    <path id="Path_502" class="st49" d="M595.97,550.38c-2.72.02-5.37-.86-8.11-.67-.58-.01-1.11-.32-1.4-.82-2.09-2.52-4.34-4.91-6.74-7.15-.33-.34-.51-.79-.5-1.26-.04-1.12-.02-2.25-.01-3.37.02-3.46.04-6.91.07-10.37,0-.38.01-.75-.02-1.12-.04-.52-.48-.91-1-.87-.07,0-.14.02-.2.04-.74.13-1.44.41-2.07.82-2.02,1.8-4.65,2.6-6.68,4.42-1.29,1.15-3.05,1.77-4.58,2.67-2.6,1.55-4.86,3.6-6.64,6.05,1.9,2.35,3.76,4.68,5.64,7,2.42,2.97,4.85,5.92,7.27,8.89.29.37.54.77.74,1.19,1.57,3.28,3.6,6.33,4.89,9.76.95,2.53,2.24,4.93,3.37,7.4.62,1.36,1.19,2.74,1.82,4.09.55,1.17,1.24,1.24,2.06.3,1.25-1.63,2.31-3.4,3.15-5.27.79-1.49,1.47-3.03,2.19-4.55.29-.48.51-1,.65-1.54.33-1.93,1.19-3.73,2.49-5.2.8-1.15,1.47-2.38,2-3.67.24-.51.6-.95,1.06-1.27.49-1.64,2.42-2.93,1.22-4.98-.16-.24-.39-.42-.66-.51"/>
    <path id="Path_503" class="st24" d="M275.78,396.3c-.06,1.11-.05,2.22.03,3.33.33,2.48.29,4.99.54,7.46.34,3.31.27,6.62.52,9.93.05,1.02.17,2.04.35,3.05.27,1.08.32,2.2.16,3.3-.15,1.01-.07,2.03.24,3,.2,1.27.21,2.56.03,3.83-.07,1.85.03,3.7.29,5.53.05.18.07.37.08.55-.38,3.44.25,6.87.06,10.3-.13,1.31.04,2.63.5,3.86.91-.61.54-1.51.46-2.31-.05-.54-.46-1.06-.28-1.63.29-.93.65-1.85.97-2.77-.62-.82-.94-1.82-.91-2.85-.2-.62-.21-1.29-.04-1.92.26-.79.31-1.64.15-2.46-.14-3.14-.2-6.27-.31-9.41-.03-.56-.08-1.12-.17-1.67-.29-1.17-.35-2.38-.19-3.57.12-.73.07-1.47-.13-2.18-.49-2.36-.69-4.76-.62-7.17-.12-1.21-.08-2.43.14-3.63.07-.27.07-.55-.03-.81-.68-2.04-.91-4.21-.67-6.35.07-1.6-.75-3.08-.43-4.69.04-.19-.49-.49-.76-.73"/>
    <path id="Path_504" class="st68" d="M314.59,130.5c-.41-1.05-.59-2.18-.54-3.31-.02-.84-.12-1.67-.31-2.49-.64-2.53-1.12-5.11-1.44-7.7-.1-.65-.31-1.27-.61-1.85-.14-.23-.39-.37-.66-.38-.72.14-1.42.39-2.26.64-.11,1.53.75,2.86.96,4.3.29,1.47.68,2.92,1.18,4.33.41,1.35.89,2.67,1.31,4.01.45,1.42.88,2.85,1.32,4.28,1.54.07.44-1.37,1.04-1.83"/>
    <path id="Path_505" class="st5" d="M292.64,81.94l-.5.25c-.21.16-.43.29-.66.4h.03c-.37.69-1.22.12-1.66.63-3.89,1.79-7.68,3.79-11.36,5.97-3.95,2.25-7.52,5.05-11.37,7.42-.77.34-1.37.99-1.65,1.78,1.39-.52,2.7-1.24,3.88-2.15,2.57-1.83,5.38-3.33,7.9-5.21,1.5-1.12,3.4-1.51,4.7-2.9,1.92-.51,3.4-1.9,5.22-2.63,1.62-.65,3.05-1.74,4.84-2.04.27-.05.46-.54.69-.83.18-.14.22-.4.09-.58-.04-.05-.08-.09-.14-.12"/>
    <path id="Path_506" class="st28" d="M148.96,625.91c.15-.53.26-1.07.32-1.62.1-7.74.19-15.49.26-23.23-.01-.19-.05-.37-.09-.55-.74.59-1.07,1.55-.86,2.47.33,2.11.36,4.26.09,6.38-.04,1.86.02,3.71.17,5.56,0,1.07.42,2.28-.62,3.16.12.87.44,1.72-.23,2.57-.21.27.24.62.5.89.25.28.34.68.21,1.04-.3,1.11-.21,2.28.26,3.33"/>
    <path id="Path_507" class="st45" d="M317.41,118.36c.47,2.6.95,5.21,1.42,7.82.13.72.29,1.44.43,2.15.41.51.02,1.24.49,1.73h0c.2.25.35.24.47-.07-.03-1.47-.04-2.94-.11-4.41-.05-.99-.44-1.96-.08-2.98.08-.36.01-.74-.18-1.05-.8-1.56-1.43-3.2-1.88-4.89-.05-.15-.26-.24-.4-.36-.41.61-.47,1.39-.16,2.05"/>
    <path id="Path_508" class="st31" d="M312.88,101.36c-.44-.33-.84-.73-1.16-1.18-.81-1.03-2.31-1.22-3.34-.41-.34.26-.59.61-.75,1.01-.11.26-.15.53-.12.81.12.79,2.69,1.96,3.43,1.57.16-.09.28-.26.45-.34.34-.15.7-.26,1.05-.38.31-.29.94-.44.44-1.07"/>
    <path id="Path_509" class="st4" d="M331.02,132.88c.64,2.04,1.26,4.09,1.93,6.12.06.19.4.32.64.39.07.02.26-.24.34-.39.6-1.14.28-2.39.34-3.58.08-1.46-.41-2.75-2.12-3.1-.23-.05-.41-.33-.61-.51-.97-.02-.86.47-.53,1.08"/>
    <path id="Path_510" class="st72" d="M264.5,31.38c.6.25,1.05-.11,1.55-.35,2.97-1.39,5.75-3.17,8.96-4.06,1.15-.33,2.2-.93,3.08-1.74-.44-.37-1.05-.45-1.57-.19-3.21,1.67-6.7,2.73-9.74,4.74-.5.24-1.03.42-1.57.51-.54.16-.67.59-.71,1.08"/>
    <path id="Path_511" class="st82" d="M360.26,690.9c.92.65,1.98.42,2.98.44,3.81.04,7.63-.02,11.44.07,1.66.06,3.32.02,4.98-.12.35-.09.69-.23,1-.42-.1-.12-.2-.25-.31-.38-1.24-.54-2.55-.21-3.82-.3-1.93,0-3.85-.01-5.78.01-.79-.02-1.53.36-2.32.28-.76-.06-1.51-.06-2.27-.01-.59.02-1.18.01-1.77.01-1.15,0-2.31,0-3.47,0-.29-.04-.58.13-.67.42"/>
    <path id="Path_512" class="st78" d="M325.51,356.75c.02-.37-.12-.74-.39-1-1.48-1.5-2.81-3.14-3.98-4.9-.27-.49-.78-.82-1.34-.87,1.3,2.77,2.93,5.26,5.71,6.77"/>
    <path id="Path_513" class="st40" d="M302.93,120.83v-.16c.13-.3.13-.65-.01-.95-.07-.33-.14-.66-.22-.99-.23-.61-.11-1.28-.32-1.89-.19-.87.19-1.88-.67-2.57-.2-.18-.51-.17-.69.03-.02.03-.04.05-.06.08-.16.73-.12,1.48.12,2.19.23.93.46,1.86.69,2.79.42.58.16,1.32.43,1.93.05.28.31.48.59.45.28-.22.35-.62.15-.91"/>
    <path id="Path_514" class="st59" d="M380.73,689.67c-3.37-.24-6.75-.13-10.12-.04-.47-.06-.94.09-1.29.41.3.56.85.38,1.32.42h5.89c1.29-.02,2.58.04,3.88-.04.28-.07.45-.35.38-.63-.01-.04-.03-.08-.05-.12"/>
    <path id="Path_515" class="st73" d="M406.56,3.79c.15.1.29.29.44.3,2.21.1,4.42.25,6.63.22.91.16,1.85-.04,2.61-.58-2.78-.1-5.56-.22-8.35-.28-.46.05-.91.17-1.34.34"/>
    <path id="Path_516" class="st19" d="M239.07,662.57c.23-.99.22-2.01-.03-2.99-.43-1.48-.66-3.02-.68-4.56,0-.11-.25-.23-.38-.35-.34,2.68.03,5.41,1.09,7.9"/>
    <path id="Path_517" class="st47" d="M596.62,550.89c.12.91,0,1.83-.37,2.67-.35.74-.96,1.4-.85,2.32,1.35-1,1.78-2.55,2.26-4.03.22-.67-.41-.93-1.04-.96"/>
    <path id="Path_518" class="st23" d="M292.64,81.94c.02.24.03.47.05.7.93-.39,1.86-.79,2.79-1.17.54-.17.96-.58,1.13-1.12-1.63-.25-2.7.93-3.97,1.59"/>
    <path id="Path_519" class="st37" d="M303.91,149.67c-1.44,0-2.18,1.27-3.3,1.84.34.09.74.35,1.01.25,1.09-.23,1.97-1.03,2.3-2.09"/>
    <path id="Path_520" class="st38" d="M314.59,130.5c-.5.52-.09,1.56-1.04,1.83-.12.54,0,1.11.34,1.55.11.13.28.2.45.19.16-.05.28-.17.32-.32.2-1.08.17-2.18-.07-3.25"/>
    <path id="Path_521" class="st10" d="M494,526.62c1.27.23,2.57-.19,3.46-1.11-1.46-.58-2.48.22-3.46,1.11"/>
    <path id="Path_522" class="st82" d="M360.38,690.21c-.93.03-1.87.05-2.8.11-.13,0-.32.23-.34.38-.02.12.25.39.29.38.89-.43,1.85.21,2.73-.17l.12-.17c.17-.12.22-.23.17-.35-.06-.11-.11-.17-.17-.17"/>
    <path id="Path_523" class="st74" d="M276.26,378.24c-.58,0-1.05.46-1.06,1.03,0,0,0,.01,0,.02-.19,1.19-.16,2.4.11,3.58.66-.57.4-1.37.37-2.03-.04-.9.16-1.8.59-2.6"/>
    <path id="Path_524" class="st59" d="M385.14,689.68c-1.13-.14-2.28-.14-3.41.02-.2.58.29.74.61,1.01,1.02.21,1.89-.42,2.85-.52.19-.13.24-.25.17-.36s-.14-.15-.21-.15"/>
    <path id="Path_525" class="st64" d="M348.49,7.6c1.25.19,2.51-.2,3.44-1.06-.12-.11-.3-.33-.36-.31-1.02.47-2.26.45-3.08,1.37"/>
    <path id="Path_526" class="st80" d="M301.07,116.57c.05-.78.1-1.57.15-2.35.16-.15.32-.32.47-.48l-.51-1.13c-.21-.32-.41-.32-.63,0,.12,1.33-.35,2.74.51,3.97"/>
    <path id="Path_527" class="st18" d="M360.38,690.21c-.05.17-.05.35,0,.52,1.31.12,2.63.11,3.94-.03.17-.1.23-.21.17-.31s-.11-.15-.17-.15l-3.94-.03"/>
    <path id="Path_528" class="st55" d="M273.46,317.22c-1.16.1-2.21.72-2.87,1.68,1.28,0,2.38-.32,2.87-1.68"/>
    <path id="Path_529" class="st30" d="M312.88,101.36l-.44,1.07c.22.27.46.53.72.77.14.08.31.13.47.12.04,0,.14-.14.13-.2-.17-.65-.04-1.44-.87-1.76"/>
    <path id="Path_530" class="st20" d="M331.02,132.87c.19-.35.07-.86.53-1.08.05-.37.08-.73-.3-.97-.22-.18-.54-.14-.71.08-.05.07-.09.15-.1.23-.11.64.11,1.3.59,1.74"/>
    <path id="Path_531" class="st82" d="M355.29,690.2c-.27.1-.85-.09-.66.54.06.19.41.37.65.42.39.08.87-.38.75-.64-.09-.21-.31-.3-.74-.31"/>
    <path id="Path_532" class="st58" d="M455.03,564.34c.52.05,1.03.12,1.55.14.35-.02.68.16.85.47.39-.7.34-1.12-.13-1.08-.79-.06-1.58.1-2.27.47"/>
    <path id="Path_533" class="st32" d="M498.55,612.37c.63-.6,1.01-1.42,1.05-2.29-1.45,1.03-1.47,1.08-1.05,2.29"/>
    <path id="Path_534" class="st74" d="M275.3,377.17l1.57-.03c.05-.39-.06-.79-.43-.88-.68-.15-.91.41-1.14.9"/>
    <path id="Path_535" class="st55" d="M268.96,320.67c-.78.36-1.53.76-1.63,1.75,1.45-.36,1.46-.38,1.63-1.75"/>
    <path id="Path_536" class="st50" d="M385.14,689.68c.02.17.04.34.04.51.78-.08,1.62.27,2.38-.3-.8-.5-1.63-.22-2.43-.21"/>
    <path id="Path_537" class="st43" d="M382.33,690.71l-.61-1.01-1-.03c-.04.14-.06.29-.05.44-.19.11-.26.22-.2.34.05.12.11.19.17.19v.23s1.69-.16,1.69-.16"/>
    <path id="Path_538" class="st22" d="M317.41,118.36c.05-.68.1-1.36.16-2.05-.02-.31-.05-.61-.07-.92-.53-.14-.78.02-.64.6-.04.83.16,1.65.56,2.37"/>
    <path id="Path_539" class="st69" d="M216.62,66.92c1.12-.06,1.28-1,1.62-1.77-1.08.1-1.38.9-1.62,1.77"/>
    <path id="Path_540" class="st83" d="M243.08,43.78c.92.12,1.82-.33,2.27-1.13-.93-.2-1.87.27-2.27,1.13"/>
    <path id="Path_541" class="st35" d="M314.64,106c.19.5.64.85,1.17.9l-.03.03c.03-.87-.4-1.69-1.12-2.17-.26.37-.27.86-.02,1.24"/>
    <path id="Path_542" class="st8" d="M365.98,690.72h2.31c.16-.12.21-.23.15-.34s-.11-.16-.17-.16c-.73-.34-1.57-.33-2.29.02-.17.1-.23.21-.17.32s.11.16.17.16"/>
    <path id="Path_543" class="st32" d="M497.48,614.18c.66-.36,1.08-1.06,1.07-1.82-.78.18-1.27.96-1.09,1.74,0,.02.01.05.02.07"/>
    <path id="Path_544" class="st34" d="M325.46,669.42c1.26-.07,1.38-.15,1.7-1.18-.67.24-1.52.24-1.7,1.18"/>
    <path id="Path_545" class="st12" d="M316.86,115.99l.64-.6c-.06-.17-.08-.4-.2-.5-.21-.15-.44-.27-.69-.37-.1.24-.15.5-.16.76.09.26.23.5.4.71"/>
    <path id="Path_546" class="st66" d="M368.28,690.22c0,.16,0,.33.02.49.72.23,1.5.22,2.22-.04.01-.12.02-.24.04-.36l-1.23-.27-1.04.18"/>
    <path id="Path_547" class="st29" d="M302.38,116.83c-.04.66-.26,1.34.32,1.89.01-.65.27-1.35-.32-1.89"/>
    <path id="Path_548" class="st29" d="M302.19,121.29c.04-.69.24-1.41-.43-1.94-.15.68.01,1.38.43,1.94"/>
    <path id="Path_549" class="st46" d="M322.43,139.3c-.12.09-.33.16-.37.28-.1.27-.01.55.32.58.15.01.43-.13.45-.24.05-.28-.12-.55-.4-.63"/>
    <path id="Path_550" class="st26" d="M319.75,130.07c.27-.62.06-1.34-.49-1.73-.15.67-.19,1.3.49,1.73"/>
    <path id="Path_551" class="st42" d="M365.98,690.72c.02-.16.02-.32,0-.48h-1.66c-.02.15-.02.31,0,.46h1.65"/>
    <path id="Path_552" class="st69" d="M215.42,68.01q1.04-.09,1.18-1.07c-.53.21-1.05.43-1.18,1.07"/>
    <path id="Path_553" class="st29" d="M302.93,120.83c-.05.3-.1.61-.14.91.02.15.05.29.08.44l-.03-.03c.68-.39.47-.85.1-1.32"/>
    <path id="Path_554" class="st44" d="M300.56,112.59h.63c0-.18-.02-.36-.07-.53-.05-.11-.22-.17-.35-.22-.02,0-.13.12-.15.2-.03.18-.05.37-.05.55"/>
    <path id="Path_555" class="st73" d="M405.51,3.78h1.03c-.52-.65-.53-.65-1.03,0"/>
    <path id="Path_556" class="st79" d="M314.64,106l.02-1.24c-.76.3-.77.42-.02,1.24"/>
    <path id="Path_557" class="st26" d="M320.22,130c-.16-.05-.33-.02-.47.07-.13.37-.02.85.3.82.29-.02.31-.54.17-.89"/>
    <path id="Path_558" class="st74" d="M276.88,377.15c-.1.15-.1.35,0,.49l.36-.23-.36-.27"/>
    <path id="Path_559" class="st55" d="M270.02,319.48c-.36.02-.57.2-.56.58.27.04.52-.14.57-.41,0-.06,0-.11,0-.17"/>
    <path id="Path_560" class="st55" d="M270.58,318.91c-.29-.02-.54.19-.56.48,0,.03,0,.06,0,.09.27.04.53-.15.56-.43,0-.05,0-.09,0-.14"/>
    <path id="Path_561" class="st29" d="M302.92,119.72v.95c.26-.24.28-.64.05-.9-.02-.02-.03-.03-.05-.05"/>
    <path id="Path_562" class="st33" d="M376.71,204.52c-.07.04-.22.1-.21.12.04.18.13.14.21-.12h0Z"/>
    <path id="Path_563" class="st74" d="M274.7,377.71c.36.04.53-.14.55-.49-.26-.04-.5.14-.54.41,0,.03,0,.06,0,.09"/>
    <path id="Path_564" class="st74" d="M276.86,377.67c-.28-.02-.52.18-.54.46,0,.02,0,.04,0,.06.34,0,.57-.12.54-.52"/>
    <path id="Path_565" class="st74" d="M274.03,378.21c.26.08.54-.07.62-.33.02-.05.02-.1.02-.15-.28-.06-.56.12-.63.4,0,.03,0,.05-.01.08"/>
    <path id="Path_566" class="st29" d="M302.86,122.17l-.26.21s.11-.01.14-.05c.04-.06.07-.13.09-.2l.03.03"/>
    <path id="Path_567" class="st47" d="M595.97,550.38c.11.28.36.48.66.51,0-.29-.24-.53-.53-.53-.04,0-.08,0-.12.02"/>
    <path id="Path_568" class="st9" d="M315.81,106.91c.01.24.1.34.27.28,0,0,0-.15-.04-.18-.08-.04-.16-.06-.25-.07l.03-.03"/>
    <path id="Path_569" class="st65" d="M300.32,110.14l.05-.16-.14.02.09.14Z"/>
    <path id="Path_570" class="st51" d="M301.69,113.73c-.3.02-.49.15-.47.48.16.02.33.04.49.05.07-.17.06-.37-.02-.54"/>
    <path id="Path_571" class="st55" d="M269.46,320.04c-.28-.01-.51.21-.53.49,0,.05,0,.1.02.15.36-.06.56-.25.51-.64"/>
    <path id="Path_572" class="st53" d="M221.91,590.37c.36-1.35.39-2.07-.03-2.72-.1-.15-.26-.24-.44-.26-.15.07-.26.22-.28.39.17.69.38,1.37.75,2.6"/>
    <path id="Path_573" class="st76" d="M644.3,565.5c0,.28.22.5.49.51,0,0,0,0,.01,0,.46.03.91-.06,1.02-.59.07-.33-.22-.42-.5-.42-.42.01-.91-.08-1.03.5"/>
    <path id="Path_574" class="st41" d="M221.24,655.34c.06.01.15.06.18.03.05-.05.08-.12.08-.19-.06-.22-.18-.24-.29-.06-.03.05.02.14.03.22"/>
    <path id="Path_575" class="st57" d="M308.32,569.26c.07.03.15.09.2.07.22-.06.25-.18.06-.29-.07-.02-.15,0-.22.04-.04.03-.03.11-.05.18"/>
    <path id="Path_576" class="st23" d="M289.85,83.23c.69.13,1.33.13,1.66-.65-.62-.05-1.23.19-1.66.65"/>
    <path id="Path_577" class="st23" d="M291.48,82.6c.26.09.55-.05.64-.31.01-.03.02-.06.02-.09-.29-.07-.58.1-.66.39,0,0,0,0,0,.01"/>
    <path id="Path_578" class="st0" d="M250.01,345.8c-.59-.34-1.31-.36-1.93-.07-.14.09-.22.25-.22.42.03.16.14.3.29.37.79.24,1.28-.21,1.86-.72"/>
    <path id="Path_579" class="st54" d="M268.55,518.25c3.18.51,5.15-1.62,6.85-4.07.6-.97.79-2.14.51-3.25-.07-.33-.25-.71-.79-.44-1.22.62-2.53.92-3.43,2.21-1.02,1.47-2.83,1.26-4.37,1.05-.87-.08-1.59-.71-1.78-1.56-.25-.71-.62-1.37-1.1-1.95-.27-.39-.66-.64-1.17-.25-.38.25-.83.4-1.29.42-1.09.28-1.75,1.38-1.48,2.47,1.7,4.49,3.86,5.66,8.04,5.35"/>
    <path id="Path_580" class="st62" d="M169.59,518.18c2.6.43,4.53-1.08,6.03-3.28,1.03-1.21,1.82-2.6,2.32-4.11.19-.72.26-1.47.19-2.21-.09-.68-.4-.86-1.16-.62-.33.13-.67.23-1.02.31-.83.1-1.51.69-1.72,1.5-.29.89-.76,1.7-1.4,2.38-1.95,2.13-4.41,2.39-6.56.41-1.17-.93-2.19-2.04-3-3.29-.69-1.24-1.32-1.32-2.8-.9-.54.11-1.08.26-1.59.46-.71.32-1.02,1.16-.7,1.87.03.07.07.13.1.19,1.51,2.36,3.42,4.44,5.65,6.14.98.74,3.36,1.16,5.67,1.15"/>
    <path id="Path_581" class="st36" d="M281.11,140.44c-.5-2.09-.87-3.73-1.3-5.35-.21-.5-.48-.98-.79-1.42-.58.59-1.09,1.06-1.53,1.59-.18.22-.27.5-.25.78.39,2.31.82,4.61,1.22,6.91.07.88.75,1.59,1.63,1.68,1.04.22,2.11-.23,2.68-1.13,1.8-3.07,4.17-5.78,6.98-7.96.44-.35.89-.69,1.3-1.08.48-.45.51-1.2.06-1.68-.02-.02-.04-.05-.07-.07-.27-.39-.81-.49-1.2-.22,0,0-.01.01-.02.02-2.66,1.2-4.99,3.04-6.76,5.37-.53.75-1.11,1.47-1.95,2.56"/>
    <path id="Path_582" class="st56" d="M269.64,109.14c.06.26.08.52.41.64.9.33,1.83.6,2.59-.16,1.04-1.04,1.99-2.18,2.94-3.31.13-.15.07-.51.02-.76-.04-.16-.25-.27-.35-.42q-1.19-1.85-2.81-.49c-.58.46-1.13.95-1.66,1.47-.8.79-1.22,1.9-1.14,3.03"/>
    <path id="Path_583" class="st56" d="M292.9,144.61c.84-.1,1.47-.11,2.09-.25,1.12-.16,2.06-.95,2.42-2.03.39-1.22-.07-1.76-1.34-2.12-1.16-.32-2.41-.11-3.4.57-1,.61-1.15,1.4-.5,2.47.24.39.44.81.74,1.35"/>
    <path id="Path_584" class="st52" d="M288.22,127.53c1.38.16,2.62-.82,2.79-2.2.05-.38,0-.77-.13-1.14-.18-.54-.66-.93-1.23-.98-1.32-.19-2.63.32-3.49,1.33-.67.6-.72,1.63-.12,2.3.3.33.71.52,1.16.54.36.07.74.1,1.02.14"/>
    <path id="Path_585" class="st3" d="M570.3,544.49c.13.5.29,1,.48,1.48.15.36.56.52.92.37,0,0,0,0,.01,0,.61-.21,1.22-.46,1.8-.74,1.12-.59,1.6-1.93,1.12-3.1-.31-1.11-1.38-1.84-2.53-1.72-.86.05-1.16.29-1.34,1.12s-.29,1.65-.45,2.6"/>
    <path id="Path_586" class="st48" d="M578.6,554.34c-.06-1.66-.8-3.23-2.03-4.34-.34-.36-.91-.38-1.27-.04-.06.06-.11.12-.16.2-.8,1.04-.95,2.45-.37,3.64.47.91,1.17,1.68,2.04,2.23.4.26.77.58,1.25.4.68-.25.52-.88.54-2.07"/>
    <path id="Path_587" class="st63" d="M584.83,556.17c.02.23.06.46.11.68.15.48.66.75,1.15.6.04-.01.09-.03.13-.05,1.03-.53,2.21-.84,2.66-2.15.39-.75.25-1.66-.36-2.25-.43-.34-.92-.61-1.44-.8-.7-.28-1.49.06-1.77.76-.01.03-.02.05-.03.08-.37,1-.53,2.07-.46,3.13"/>
    <path id="Path_588" class="st75" d="M370.55,690.31c0,.12-.01.24-.04.36,2.05.29,4.14.3,6.19.02.19-.1.26-.19.2-.29s-.12-.15-.19-.15c-2.05-.22-4.12-.2-6.16.06"/>
    <path id="Path_589" class="st17" d="M376.71,690.25c0,.15,0,.29,0,.44,1.31.19,2.64.17,3.94-.05-.01-.18,0-.35.03-.53-1.32.21-2.65-.25-3.96.14"/>
  </g>
  <circle class="st15" cx="288.32" cy="124.9" r="6.53"/>
  <circle class="st15" cx="294.63" cy="142.34" r="6.53"/>
  <line class="st15" x1="291.03" y1="131.44" x2="292.14" y2="135.81"/>
  <line class="st15" x1="288.32" y1="118.37" x2="281.23" y2="101.36"/>
  <line class="st14" x1="475.22" y1="575.26" x2="480.34" y2="581.04"/>
  <line class="st14" x1="480.34" y1="575.26" x2="475.22" y2="581.04"/>
</svg>