<?xml version="1.0" encoding="UTF-8"?>
<svg id="Layer_1" xmlns="http://www.w3.org/2000/svg" xmlns:xlink="http://www.w3.org/1999/xlink" version="1.1" viewBox="0 0 156 357">
  <!-- Generator: Adobe Illustrator 30.3.0, SVG Export Plug-In . SVG Version: 2.1.3 Build 182)  -->
  <defs>
    <style>
      .st0 {
        fill: none;
      }

      .st1 {
        fill: #fff;
      }

      .st2 {
        fill: #00ffe2;
      }

      .st3 {
        clip-path: url(#clippath);
      }
    </style>
    <clipPath id="clippath">
      <rect class="st0" y="0" width="156" height="357"/>
    </clipPath>
  </defs>
  <polygon class="st1" points="22.5 96.98 21.18 101.82 26.73 118.38 32.67 144.56 35.53 170.74 32.01 210.12 31.35 267.77 30.47 347.63 28.36 356.76 80.63 356.99 79.53 284.49 75.13 234.33 68.31 181.74 65.23 165.9 71.61 137.08 78 119.92 78 106.72 74.52 101.47 68.53 103.42 64.36 96.6 58.63 99.46 54.93 94.62 48.07 99.02 51.87 68.44 47.47 64.04 42.19 68.22 39.27 97.92 38.39 112 33.33 108.7 27.19 96.64 22.5 96.98"/>
  <g class="st3">
    <g id="hand_05">
      <g id="Group_130">
        <rect id="Rectangle_90" class="st2" x="23.86" y="215.47" width="58" height="22"/>
        <rect id="Rectangle_91" class="st2" x="28.86" y="250.47" width="58" height="22"/>
        <rect id="Rectangle_92" class="st2" x="26.86" y="288.47" width="58" height="22"/>
        <g id="Group_100">
          <path id="Path_185" d="M36.32,152.76c-.46,2.84-.08,5.31,1.15,7.41-.47-2.82.34-5.27-1.15-7.41M50.22,157.29c-.07-1.59-.09-2.9-.21-4.22,0-.66-.55-1.2-1.21-1.19-.1,0-.21.02-.31.04-.58,0-1.03.48-1.02,1.06v.09c-.1,1.31-.14,2.63-.11,3.95.1,1.41.07,3.46,2.04,3.24,1.94-.22.69-2.1.81-2.98M43.64,157.89c0-1.74.04-3.48,0-5.22-.04-1.15-.84-1.42-1.82-1.29-.93.13-1.63.43-1.47,1.65.23,1.72.38,3.46.47,5.2.06,1.22.5,1.93,1.82,1.82,1.42-.12,1.56-1.03,1.02-2.16M57.14,159.14c-.34-1.86-.76-4.16-1.17-6.47-.12-.67-.44-1.09-1.16-.95-.61.08-1.03.65-.95,1.26.07,2.35.14,4.69.19,7.03.02,1.06.5,1.64,1.57,1.67,1.48.04,1.6-.95,1.52-2.54M60.14,152.53c.32,2.82.64,5.27.87,7.73.05.6-.07,1.18.69,1.36.72.27,1.53,0,1.92-.68.4-.78.73-1.61.97-2.45,1.56-5.12,1.48-5.23-4.44-5.97M60.32,128.88c2.46-2.48,3.02-3.57,3.44-7.8.48-4.83.83-9.67,1.12-14.51.03-1.76-.06-3.53-.27-5.28.05-1.07-.66-2.04-1.7-2.3-1.04-.17-2.08.26-2.7,1.11-.91.98-1.32,2.33-1.11,3.65.59,6.28.16,12.62-1.26,18.76-.16.69-.8,1.66-.08,2.02,1.82.89,1.29,3.15,2.56,4.34M54.42,97.26c-3.42,1.1-5.03,2.79-4.63,6.24.16,2.77.15,5.55-.04,8.32,0,.87.23,2.05-.52,2.48-2.22,1.27-2.17,3.32-2.15,5.36.02,2.12,1.34,3.84,2.07,5.74.49,1.29,1.62.93,2.49.1,1.69-1.66,2.76-3.86,3.02-6.22.54-4.35,1.41-8.7,1.02-13.1-.25-2.85-.27-5.78-1.25-8.91M35.41,292.06c-.97,5.64-.7,6.01,4.54,6.2.59.02,1.18-.03,1.76,0,11.1.72,21.9-2.35,32.92-2.69,1.29-.04,3.12-.19,2.93-1.89-.23-2.08-2.06-.99-3.21-.84-11.72,1.54-23.41,2-35.07-.55-1.24-.43-2.58-.51-3.87-.24M35.03,274.36c-.53,3.44.83,5.38,4.08,5.82.58.08,1.16.17,1.75.2,10.55.57,21.13-.21,31.48-2.33.72-.12,1.43-.33,2.09-.65,1.51-.77,2.21-2.54,1.63-4.13-.54-2.02-2.1-.95-3.28-.87-.57.04-1.11.39-1.68.48-11.96,1.87-23.92,3.88-36.06,1.48M74.79,263.53c-5.53,1.8-11.21,1.88-16.95,1.62-7.03-.33-14.08.18-21.1-.66-.88-.1-1.73-.12-2.06,1.05-1.03,3.76.5,6.22,4.32,6.8.87.15,1.75.21,2.63.18,10.09-.6,20.21-.83,30.09-3.41,3.91-1.02,3.99-.91,3.07-5.58M74.03,252.82c-13.1,2.8-26.55,3.52-39.87,2.16-.08,6.93-.08,6.95,6.29,7.02,7.19.08,14.38.09,21.57.16,2.64,0,5.26-.43,7.77-1.26,4.31-1.37,5.23-3.22,4.25-8.08M33.25,220.18c-.68,11.37-1.52,9.93,9.04,10.58.59-.02,1.17-.09,1.75-.21,5.54-.64,11.09-1.2,16.62-1.95,2.76-.39,5.5-.96,8.19-1.7,2.65-.7,3.15-1.68,2.96-4.08-.22-2.68-2.2-1.89-3.63-1.84-4.1.13-8.2.44-12.31.66-7.57.47-15.17-.02-22.62-1.46M33.81,243.7v3.71c-.04,4.61.16,4.79,4.93,5.08,10.93.67,21.65-.77,32.29-3.06.73-.08,1.44-.27,2.11-.57,2.08-1.23.78-3.14.77-4.75s-1.04-1.67-2.44-1.52c-9.75,1.01-19.52,1.74-29.32,2.18-2.64.12-5.28.36-8.33-1.07M33.38,231.98c-.14.45-.24.92-.3,1.39.05,1.32.11,2.63.2,3.95.26,3.59,1.39,4.73,4.97,4.47,9.93-.71,19.87-1.36,29.74-2.69,1.8-.24,3.53-.99,5.38-.16.35-2.16.26-4.36-.25-6.49-.3-1.49-.87-2.19-2.7-1.83-4.58.97-9.22,1.69-13.88,2.17-7.66.69-15.41,2.82-23.17-.8M34.98,282.22c-.56,1.31-.34,2.63-.41,3.93-.12,2.2.86,3.15,3.02,3.37,2.91.3,5.8.87,8.7,1.29,8.67,1.26,17.26.33,25.85-.88,5.54-.78,5.55-.7,4.95-6.07-.34-2.97-.33-2.95-3.14-2.45-12.91,2.32-25.86,3.17-38.98.81M23.74,97.71c-1.48,2.01-3.58,2.93-2.49,5.17,3.12,7.91,3.76,9.96,8.12,17.36.76,3.63,4.16,21.83,4.82,25.98.53,3.29.71,3.24,3.91,2.96,1.6-.24,3.22-.31,4.84-.21,7.13.9,14.43-.96,21.47,1.52,1.54.54,2.82-.21,3.02-2.17.67-6.36,2.81-12.26,5.32-18.11,2.7-6.27,4.39-12.78,3.48-19.74-.22-2.2-.97-4.32-2.2-6.16-.69-1-1.97-1.41-3.11-.99-1.06.18-1.83,1.1-1.83,2.17-.54,6.26-1.09,12.51-1.67,19.14,2.57-2.45,2.94-3.08,3.3-6.23.25-2.19.28-4.41.53-6.6.11-.94.02-2.27,1.49-2.28,1.27,0,1.7,1,1.77,2.1.4,4.1.02,8.24-1.13,12.2-.74,2.27-2.28,4.3-5.04,4.23-1.49-.14-2.89.71-3.47,2.08-1.02,1.92-2.72,1.87-4.59,1.63-2.7-.34-3.59-2.61-4.79-4.54-1.2,1.02-2.64,1.72-4.18,2.03-1.41.22-2.84.11-3.61-1.07-2.66-4.08-5.37-8.27-3.36-13.49,1.03-2.76,1.57-5.67,1.57-8.62.1-10,1.61-25.26,3.1-35.14.29-1.88.47-3.8-.82-5.6-3.64.8-4.12,3.92-4.73,6.68-1.49,6.9-2.87,19.23-2.67,26.28.09,3.82.19,7.65.09,11.47-.07,2.79-1.24,3.55-3.99,3.22-1.32-.23-2.5-.94-3.31-2-1.41-1.51-2.51-3.29-3.24-5.23-4.03-6.1-4.86-7.33-6.61-8.08M52.73,218.13h2.3c4.12.05,8.24-.28,12.3-.97,3.8-.66,3.87-.79,3.54-4.53-.45-5.13-1.25-10.21-2.21-15.27-1.63-8.67-3.39-17.32-4.66-26.04-.93-6.39-.63-6.35-6.94-6.8-1.39,0-2.76.38-3.96,1.07-1.88.79-2.06-2.33-3.79-2.33-3.77-.02-7.53-1.24-11.32.14-1.64.6-2.25,1.23-1.94,3.17.99,6.11,1.06,12.33.21,18.46-.98,6.85-1.61,13.72-2.46,20.57-.53,2.89-.79,5.82-.79,8.75.18,3.17.13,3.18,3.11,3.55,5.5.85,11.09.92,16.61.2M37.38,109.52c0-5.74.15-11.14-.04-16.52-.22-6.11,1.98-17.27,2.76-23.24.27-1.61,1-3.11,2.1-4.32,2.1-2.49,4.32-3.27,6.99-2.49,2.96.86,3.47,3.14,3.77,5.8.4,3.6-1.27,12.3-1.83,15.76-.5,3.43-.7,6.89-.61,10.35,2.7-.81,5.08-.7,6.97,1.4.78.87,1.63.25,2.45.08,2.78-.76,5.75.26,7.48,2.57.67.96,1.75,1.55,2.92,1.61,5.91.49,8.45,3.12,9.54,9.01,1.46,7.85-.15,15.15-3.3,22.3-2.83,6.43-5.92,12.83-5.42,20.17.07.98-.69,1.56-1.03,2.33-1.96,4.11-2.86,8.64-2.62,13.18.8,11.44,3.96,22.46,5.64,33.74.95,6.4,1.42,12.85,2.04,19.28.65,6.73,1.86,13.4,2.52,20.12.57,5.85.6,11.75,1.05,17.61.7,9.09,1.57,18.16,2.35,27.24,1.04,12.04.76,24.11.73,36.17,0,2.93.19,28.93.35,31.85.17.86.11,1.76-.19,2.59-.18.58-.75.94-1.36.86-.44-.07-.78-.43-.82-.87-.88-3.12-1.43-29.39-1.57-32.62,0-6.77-.06-13.55-.16-20.32-.06-4.27-.12-3.99-4.19-3.97-9.29.04-18.35,2.73-27.69,2.11-3.65-.24-7.32-.27-11.2-.76-.49,3.88-.9,7.58-1.02,11.39-.25,7.61,1.48,32.29-.04,39.87-.28,1.39-.59,2.54-1.81,3.33-1.18.76-2.1,2.52-3.75,1.63-1.42-.76-.67-2.4-.59-3.63.69-11.17.76-39.33,1.29-50.5.94-19.97,1.49-39.97.95-59.95-.2-7.65-.65-15.29-.71-22.95-.09-10.51,1.76-20.82,3.01-31.18.98-8.13,1.2-16.13-.41-24.16-.26-1.27-.9-2.55.38-3.68.61-.68.76-1.66.37-2.48-2.05-7.77-1.77-15.9-2.85-23.61s-8.01-23.17-9.08-26.07c-4.8-8.38-1.36-11.81.48-13.16,1.44-1.06,4.23-.43,6.05,1.33,3.33,3.21,3.26,2.29,5.41,6.31,1.25,2.33.87,1.86,2,4.25.45,1.17,1.48,2.02,2.71,2.24"/>
        </g>
      </g>
    </g>
  </g>
</svg>