<svg xmlns="http://www.w3.org/2000/svg" width="71.243" height="272.041" viewBox="0 0 71.243 272.041">
  <g id="Group_125" data-name="Group 125" transform="translate(-1550.757 -742.481)">
    <rect id="Rectangle_90" data-name="Rectangle 90" width="58" height="22" transform="translate(1559 890)" fill="#00ffe2"/>
    <rect id="Rectangle_91" data-name="Rectangle 91" width="58" height="22" transform="translate(1564 925)" fill="#00ffe2"/>
    <rect id="Rectangle_92" data-name="Rectangle 92" width="58" height="22" transform="translate(1562 963)" fill="#00ffe2"/>
    <g id="Group_100" data-name="Group 100">
      <path id="Path_185" data-name="Path 185" d="M3201.134,358.621c-.691,4.264-.691,4.264,1.146,7.406-.471-2.818.344-5.274-1.146-7.406m13.9,4.533c-.073-1.586-.094-2.9-.212-4.216a1.2,1.2,0,0,0-1.518-1.146,1.042,1.042,0,0,0-1.019,1.153,37.824,37.824,0,0,0-.108,3.949c.1,1.413.068,3.461,2.042,3.238,1.936-.216.687-2.1.814-2.979m-6.579.6c0-1.739.039-3.48-.015-5.216-.037-1.146-.845-1.422-1.821-1.288-.925.129-1.634.433-1.47,1.649.229,1.722.378,3.459.468,5.2.063,1.221.5,1.934,1.822,1.822,1.418-.124,1.56-1.026,1.017-2.162m13.5,1.24c-.337-1.855-.761-4.163-1.17-6.473-.12-.672-.44-1.092-1.164-.947a1.114,1.114,0,0,0-.95,1.256c.072,2.345.144,4.686.19,7.029.02,1.058.5,1.643,1.571,1.671,1.483.039,1.6-.952,1.523-2.536m3-6.607c.324,2.82.64,5.272.87,7.733.055.595-.074,1.182.686,1.365a1.574,1.574,0,0,0,1.916-.676,13.4,13.4,0,0,0,.969-2.453c1.56-5.117,1.476-5.235-4.439-5.968m.177-23.653c2.456-2.481,3.021-3.57,3.439-7.8.479-4.826.834-9.669,1.12-14.511a37.936,37.936,0,0,0-.269-5.279,2.256,2.256,0,0,0-1.7-2.3,2.793,2.793,0,0,0-2.7,1.114,4.359,4.359,0,0,0-1.111,3.651,58.743,58.743,0,0,1-1.262,18.762c-.16.691-.8,1.661-.077,2.017,1.825.893,1.293,3.148,2.562,4.34m-5.9-31.618c-3.42,1.1-5.027,2.791-4.632,6.239a66.142,66.142,0,0,1-.044,8.322c-.013.873.225,2.054-.518,2.477-2.218,1.267-2.166,3.318-2.148,5.355.017,2.122,1.339,3.844,2.067,5.74.492,1.287,1.625.93,2.487.1a10.281,10.281,0,0,0,3.017-6.217c.543-4.345,1.413-8.705,1.019-13.1-.254-2.853-.267-5.782-1.247-8.908m-19.015,194.8c-.971,5.638-.7,6.012,4.539,6.2.588.022,1.177-.029,1.765.009,11.1.722,21.9-2.345,32.918-2.689,1.289-.041,3.116-.19,2.927-1.892-.232-2.081-2.058-.993-3.207-.842-11.72,1.54-23.413,2-35.073-.545a7.275,7.275,0,0,0-3.868-.245m-.379-17.7c-.79,5.163-.783,5.174,4.083,5.815.58.075,1.161.171,1.746.2a123.541,123.541,0,0,0,31.476-2.325,7.632,7.632,0,0,0,2.091-.65,3.343,3.343,0,0,0,1.626-4.128c-.536-2.015-2.1-.951-3.277-.873-.569.039-1.113.389-1.684.477-11.964,1.871-23.924,3.879-36.062,1.485m39.759-10.834c-5.528,1.8-11.21,1.882-16.946,1.617-7.029-.328-14.085.177-21.1-.658-.881-.1-1.734-.124-2.058,1.05-1.033,3.759.5,6.222,4.319,6.8a12.7,12.7,0,0,0,2.627.179c10.088-.6,20.21-.834,30.089-3.408,3.914-1.019,3.993-.908,3.072-5.585m-.757-10.7a128.228,128.228,0,0,1-39.871,2.157c-.083,6.932-.083,6.955,6.292,7.024,7.187.079,14.378.092,21.567.162a24.947,24.947,0,0,0,7.766-1.26c4.309-1.367,5.226-3.218,4.246-8.082m-40.78-32.643c-.677,11.369-1.518,9.932,9.044,10.576a10.368,10.368,0,0,0,1.746-.212c5.541-.639,11.094-1.2,16.62-1.951a66.544,66.544,0,0,0,8.191-1.695c2.651-.705,3.154-1.68,2.955-4.076-.223-2.677-2.2-1.888-3.631-1.844-4.105.129-8.2.44-12.306.658a90.293,90.293,0,0,1-22.62-1.457m.555,23.522c0,1.7.009,2.706,0,3.715-.042,4.607.16,4.787,4.925,5.08,10.925.674,21.645-.768,32.286-3.063a7.1,7.1,0,0,0,2.115-.569c2.076-1.232.779-3.139.768-4.754s-1.042-1.675-2.443-1.525q-14.624,1.519-29.32,2.181c-2.64.122-5.281.365-8.331-1.065m-.429-11.717a8.059,8.059,0,0,0-.3,1.385c.048,1.317.109,2.634.2,3.949.263,3.594,1.389,4.728,4.966,4.472,9.928-.715,19.869-1.36,29.742-2.687,1.8-.241,3.529-.989,5.384-.158a16.615,16.615,0,0,0-.245-6.491c-.3-1.49-.869-2.194-2.7-1.835a133.374,133.374,0,0,1-13.879,2.17c-7.664.687-15.406,2.824-23.168-.805m1.6,50.24c-.564,1.311-.339,2.63-.411,3.929-.123,2.2.856,3.15,3.021,3.373,2.914.3,5.8.866,8.7,1.285,8.67,1.262,17.261.335,25.854-.877,5.541-.781,5.552-.7,4.948-6.069-.337-2.971-.333-2.955-3.137-2.448-12.908,2.323-25.858,3.166-38.978.807m-14.926-192.377a6.709,6.709,0,0,0-.639,6.922c3.118,7.909,5.607,16.078,9.972,23.485,2.4,4.069,4.08,8.543,3.41,13.432-.593,4.332.748,8.4,1.414,12.547.529,3.293.713,3.238,3.905,2.964a23.339,23.339,0,0,1,4.837-.206c7.127.9,14.43-.956,21.466,1.521,1.538.542,2.82-.212,3.025-2.169.67-6.355,2.811-12.264,5.321-18.107,2.7-6.268,4.389-12.783,3.478-19.744a13.48,13.48,0,0,0-2.2-6.156,2.653,2.653,0,0,0-3.111-.991,2.2,2.2,0,0,0-1.833,2.17c-.536,6.259-1.089,12.513-1.665,19.138,2.566-2.45,2.938-3.085,3.3-6.233.249-2.19.278-4.406.529-6.6.106-.939.022-2.271,1.488-2.277,1.271,0,1.7,1,1.772,2.1a32.358,32.358,0,0,1-1.131,12.2c-.737,2.275-2.279,4.3-5.043,4.225a3.422,3.422,0,0,0-3.467,2.081c-1.024,1.919-2.719,1.866-4.588,1.634-2.7-.337-3.594-2.606-4.793-4.544a9.287,9.287,0,0,1-4.177,2.03c-1.406.219-2.838.114-3.612-1.072-2.664-4.085-5.371-8.267-3.358-13.488a24.662,24.662,0,0,0,1.571-8.617,214.643,214.643,0,0,1,2.375-29.864c.287-1.884.468-3.8-.818-5.6-3.644.8-4.123,3.918-4.727,6.684a87.891,87.891,0,0,0-1.953,21c.092,3.822.19,7.651.087,11.471-.073,2.787-1.236,3.55-3.992,3.218a5.311,5.311,0,0,1-3.313-2,15.867,15.867,0,0,1-3.235-5.226c-1.586-4.317-4.128-8.119-6.368-12.081a7.5,7.5,0,0,0-3.927-3.855m32.684,128.289c.531,0,1.413-.006,2.3,0a68.73,68.73,0,0,0,12.3-.971c3.8-.663,3.866-.785,3.537-4.529-.453-5.128-1.254-10.206-2.207-15.266-1.63-8.665-3.389-17.316-4.662-26.036-.934-6.388-.63-6.353-6.939-6.8a8.059,8.059,0,0,0-3.964,1.074c-1.884.794-2.063-2.325-3.787-2.334-3.769-.02-7.534-1.24-11.319.144-1.64.6-2.248,1.231-1.938,3.174a61.861,61.861,0,0,1,.208,18.464c-.978,6.845-1.608,13.719-2.457,20.573a48.252,48.252,0,0,0-.792,8.753c.182,3.172.129,3.181,3.113,3.551a59.1,59.1,0,0,0,16.613.2M3202.192,315.38c0-5.739.153-11.135-.041-16.515-.221-6.112,1.258-11.989,2.041-17.961a8.45,8.45,0,0,1,2.1-4.318c2.1-2.487,4.32-3.266,6.994-2.489,2.962.862,3.474,3.139,3.769,5.8.4,3.6-.554,7.023-1.115,10.483a61.039,61.039,0,0,0-.611,10.352c2.7-.807,5.08-.705,6.966,1.4.777.867,1.628.248,2.446.085a7.035,7.035,0,0,1,7.478,2.568,3.8,3.8,0,0,0,2.922,1.608c5.909.486,8.447,3.117,9.545,9.009,1.459,7.845-.151,15.147-3.3,22.3-2.835,6.431-5.917,12.828-5.415,20.168.066.982-.691,1.56-1.032,2.334a27.346,27.346,0,0,0-2.623,13.179c.8,11.437,3.958,22.457,5.638,33.736.954,6.4,1.417,12.849,2.037,19.283.645,6.725,1.862,13.4,2.516,20.121.569,5.848.6,11.752,1.05,17.613.7,9.086,1.566,18.16,2.352,27.237,1.041,12.039.759,24.106.731,36.169-.005,2.934.147,5.872.31,8.8a4.869,4.869,0,0,1-.188,2.59,1.251,1.251,0,0,1-1.356.864.982.982,0,0,1-.825-.869,41.973,41.973,0,0,1-1.529-9.571c.006-6.773-.062-13.549-.162-20.324-.062-4.266-.12-3.993-4.194-3.973-9.288.044-18.348,2.733-27.692,2.105-3.649-.245-7.318-.271-11.2-.764-.488,3.877-.9,7.581-1.022,11.391-.252,7.613.619,15.277-.9,22.852-.276,1.385-.595,2.542-1.812,3.326-1.179.755-2.1,2.522-3.752,1.634-1.422-.763-.67-2.4-.593-3.63.694-11.166,1.621-22.316,2.148-33.489.941-19.971,1.489-39.967.952-59.954-.2-7.646-.65-15.288-.713-22.949-.086-10.51,1.759-20.82,3.01-31.177.982-8.129,1.2-16.132-.405-24.159-.256-1.274-.9-2.546.378-3.682a2.291,2.291,0,0,0,.374-2.485c-2.048-7.768-1.057-16.145-4.723-23.585.134-6.139-4.034-11.208-4.163-17.4-.064-2.918-1.975-5.8-3.048-8.694-1.886-5.095-4.036-10.1-4.955-15.519-.38-2.249-.094-4.148,1.75-5.5,1.441-1.056,4.231-.431,6.055,1.33,3.327,3.214,5.486,7.261,7.64,11.28,1.247,2.328,2.33,4.749,3.458,7.143a3.6,3.6,0,0,0,2.711,2.244" transform="translate(-1629.675 468.672)"/>
    </g>
  </g>
</svg>
