<?xml version="1.0" encoding="UTF-8"?>
<svg id="Layer_1" xmlns="http://www.w3.org/2000/svg" xmlns:xlink="http://www.w3.org/1999/xlink" version="1.1" viewBox="0 0 156 357">
  <!-- Generator: Adobe Illustrator 30.3.0, SVG Export Plug-In . SVG Version: 2.1.3 Build 182)  -->
  <defs>
    <style>
      .st0 {
        fill: none;
      }

      .st1 {
        fill: #fff;
      }

      .st2 {
        clip-path: url(#clippath);
      }
    </style>
    <clipPath id="clippath">
      <rect class="st0" x="29.75" y="283.03" width="25.96" height="27.51"/>
    </clipPath>
  </defs>
  <path class="st1" d="M73,42.7s-1.26,2.42,0,7.04,7.2,22.02,7.2,22.02c0,0,7.7,28.59,10.12,33.87s3.3,10.06,3.3,10.06l-7.7,82.35,2.86,97.9,3.3,31.02-3.3,29.99,61.82.06,3.08-25.21-2.64-40.26-12.98-76.34-8.8-43.78-4.4-57.14,3.96-20.02,7.26-8.71,3.52-18.19-.53-11.05-12.97-.83-4.3,10.78-4.41-2.64,5.49-38.72-1.08-6.19-4.41-1.95-4.95,9.02-4.3,18.04-3.08,9.9-2.74-35.01h-3.2l-5.06,16.97-1.32,31.46-13.64-22.22s-3.11-1.49-6.1-2.2v-.02h0Z"/>
  <rect class="st0" y="0" width="156" height="357"/>
  <g id="hand_04">
    <g id="Group_106">
      <g id="Group_105">
        <g class="st2">
          <g id="Group_104">
            <path id="Path_212" d="M45.27,299.71c.8.26,1.5.6,1.61,1.37.42,2.71,1.66,5.17,2.25,7.83.13.6.2,1.28-.49,1.56-.6.21-1.26-.11-1.47-.71h0c-.93-2.76-2.51-5.3-2.88-8.25-.11-.86,0-1.61.98-1.78"/>
            <path id="Path_213" d="M44.41,292.04c-.06.56.07,1.15-.61,1.28-.52.12-1.05-.17-1.23-.68-.9-2.68-2.02-5.31-1.93-8.22.02-.63.13-1.27.89-1.38.78-.18,1.57.31,1.75,1.09,0,.05.02.11.03.16.2,1.19.22,2.42.39,3.62.2,1.4.48,2.8.71,4.12"/>
            <path id="Path_214" d="M37.83,295.24c.35.07.69.16,1.03.28.49.16.82.63.81,1.15,0,.6-.36.88-.93.97-2.5.33-4.95.97-7.28,1.91-.57.3-1.27.1-1.59-.46-.39-.73.31-1.07.76-1.42,2.07-1.61,4.6-1.92,7.21-2.44"/>
            <path id="Path_215" d="M49.62,294.85c-.73.17-1.5,0-2.09-.49-.55-.5-.68-1.16.04-1.47,2.09-1.04,4.34-1.71,6.66-2,.64-.08,1.24.31,1.43.92.21.71-.32,1.13-.94,1.34-1.82.62-3.65,1.21-5.11,1.69"/>
          </g>
        </g>
      </g>
    </g>
    <g id="Group_129">
      <g id="Group_99">
        <path id="Path_184" d="M96.73,116.93c-.11-.22-.28-.58-.46-.94-.25.41-.45.85-.62,1.3-.13.48.2.77.67.71.51-.07.57-.47.42-1.07M110.35,115.22c-.42,1.52-.34,2.5.99,3.13.5-1.27.16-2.12-.99-3.13M116.05,114.26c-.74.21-1.18.97-1,1.71.07.56.26,1.23,1.03,1.1.7-.11,1.53-.34,1.23-1.34-.19-.62-.28-1.48-1.27-1.47M100.58,115.42c.85,2.75,2.99,3.83,6.4,3.23-1.44-3.85-1.53-3.9-6.4-3.23M127.69,58.29c-.88,2.87-1.72,5.48-2.48,8.12-.73,2.53-2.65,14.12-3.33,16.67-.44,1.66.82,2,1.92,2.36,1.26.42,1.34-.66,1.67-1.45,2.14-5.29,6.17-21.44,4.57-26.68M130.94,77.07c.95,4.88,4.34,6.44,4.59,5.34,1.21-5.14,3.28-18.8,1.53-24.11-1.75.87-4.3,2.29-4.18,4.01.18,2.05.14,4.11-.12,6.15-.39,2.72-.8,13.54-1.5,16.76M100.55,21.04c-.85.28-1.46,1.01-1.59,1.89-3.62,9.84-4.25,20.05-3.58,30.38.28,4.4.84,8.78.37,13.21-.16,1.46-.66,2.55-2.13,3-1.3.38-2.71.05-3.7-.87-.86-.81-1.52-1.81-1.93-2.92-2.4-5.04-4.77-10.1-7.1-15.17-.98-2.31-2.52-4.34-4.5-5.89-.87-.66-1.87-1.14-2.84-.5-.84.56-.51,1.55-.35,2.43.8,3.74,2.13,7.35,3.93,10.73,2.9,5.81,4.86,12.03,5.83,18.45,1.81,11.75,5.17,22.88,11.12,33.22.65,1.47,2.02,2.5,3.62,2.69,5.4.84,10.92.4,16.12-1.29,1.65-.63,3.4-.93,5.16-.89,3.57.19,4.19-.37,5.09-3.96.86-3.42,1.76-6.83,2.51-10.27.61-2.8,1.36-5.4,4.25-6.79.63-.23.96-.93.73-1.56-.03-.08-.07-.15-.11-.23-1.9-.51-3.08.96-4.3,1.79-4.55,3.11-8.7-.1-8.96-4.77-.23-4.15-.36-8.2,1.02-12.19.7-2.03,1.1-3.98-1.49-5.21-1.26-.6-1.62-1.94-1.82-3.34-.55-3.19-.53-6.46.06-9.64.66-3.16,1.4-6.31,2.13-9.45,1.5-6.42,3.55-12.77,2.68-19.52-.27-2.07.6-5.24-1.88-5.64-2.14-.35-3.34,2.6-4.14,4.59-2.83,7.11-5.63,14.26-4.86,22.18.26,2.66-.31,5.33-1.63,7.65-1.31,2.33-3.11,3.3-4.94,2.75-2.42-.73-2.4-2.67-2.34-4.64.01-.44.05-.88.04-1.32-.05-9.54.29-19.08-.49-28.89M111.72,122.3c1.76,5.33,1.86,10.58,1.81,15.85-.07,8.38-.01,16.76-.09,25.13-.2,7.5-.9,14.98-2.1,22.38-1.51,10.38-2.18,20.74-.87,31.2.51,4.08.51,8.22.73,12.34.72,13.65,1.38,27.3,2.16,40.95.82,14.23,1.72,28.46,2.69,42.69.39,5.7,2.03,11.27,2.05,17.03.01,3.38.32,21.72.44,25.1.03.92-.04,1.91-1.17,2.02-1.18.12-1.37-.97-1.49-1.81-.45-3.06-.87-21.1-1.32-24.15-3.16-21.44-3.8-43.1-5.21-64.68-.74-11.3-.66-22.67-1.53-33.98-.52-6.75-.48-13.53-1.29-20.27-1.28-10.79.81-21.44,1.8-32.13,1-10.84,2.39-21.64,1.68-32.58-.36-5.57-.03-11.18-.07-16.78-.02-1.47-.14-2.94-.38-4.4-.63-3.94-.66-3.94-5.5-4.04,1.32,7.32-.97,14.49-.69,21.76.18,4.49-1.01,8.76-1.76,13.09-2.67,15.82-3.72,31.86-3.14,47.89.37,10.13.22,20.28-.44,30.4-.6,8.28.3,16.45.72,24.66.16,3.23.58,6.44.51,9.69-.08,4.13.58,8.21.92,12.31,1.33,15.97,2.39,31.97,3.79,47.93.39,4.48,1.26,18.93.27,23.48-.12.87-.3,1.73-.51,2.58-.22.74-1,1.18-1.75.98-.59-.12-1.03-.62-1.08-1.23-.06-.29-.09-.58-.08-.88.9-14.35-2.06-38.34-2.83-52.57-1-18.37-3.2-36.68-3.51-55.08-.21-12.07.34-24.14.47-36.22.08-7.51-.2-15.03.07-22.53.44-12.07,1.42-24.09,3.98-35.94.75-3.16,1.14-6.39,1.15-9.63-.06-4.72.28-9.43,1.02-14.09.11-.58.18-1.16.22-1.75.18-4.4-.36-5.01-5.35-5.81-.48,8.47-2.56,16.73-2.85,25.21-.12,3.8-.61,7.57-1.48,11.26-.49,2.05-.11,4.1-.37,6.14-.93,7.4-1.8,14.82-2.67,22.23-.72,6.86-1.05,13.75-.99,20.65-.06,11.92.49,23.82,1,35.73.79,18.51,1.3,37.03,2.18,55.54.23,4.8.41,9.69,2,14.36.24,1,.3,2.03.18,3.06-.13,6.6.12,13.21.74,19.78.24,3.3-2.01,16.36-2.86,19.48-.28,1.01-.53,2.64-2.14,2.26s-1.17-1.84-.83-2.94c1.3-4.7,2.82-19.57,2.14-24.4-.45-4.24-.63-8.5-.55-12.77.08-1.03-.02-2.06-.27-3.06-2.2-6.69-2.11-13.65-2.42-20.53-.67-15.14-.98-30.3-1.66-45.44-.7-15.59-1.08-31.18-1.45-46.77-.17-7.24,1.18-14.36,1.7-21.54.99-13.51,3.77-26.82,4.14-40.4.2-3.38.65-6.74,1.35-10.06.87-4.78.35-9.62.87-14.44.34-3.18-1.53-6.22-3.19-9.03-3.45-6.01-5.86-12.55-7.14-19.36-1.38-6.77-2.94-13.51-4.61-20.21-1.11-3.97-2.66-7.81-4.62-11.44-1.36-2.78-2.32-5.74-2.87-8.78-.66-3.4.93-5.13,4.38-4.73,3.87.45,6.75,2.65,9.01,5.75,2.19,2.99,3.42,6.47,5.08,9.73,1.12,2.19,1.79,4.62,3.73,7.32.71-2.76.25-4.83.05-6.9-1.26-11.3-.25-22.74,2.98-33.64.63-2.28,1.71-4.41,3.18-6.26,1.08-1.28,2.4-2.38,4.19-1.8,1.77.54,2.89,2.28,2.64,4.12-.24,8.1,1.46,16.13.8,24.25-.22,1.17-.08,2.38.41,3.46.43-.6.57-1.37.38-2.08-.73-8.05,2.07-15.37,4.69-22.72,1.03-2.79,2.92-5.18,5.4-6.82,1.41-1.2,3.49-1.15,4.84.12,2.45,1.94,3.91,4.87,4,7.99.55,7.47-1,14.62-2.84,21.74-1.12,4.42-1.88,8.92-2.24,13.46-.17,1.64.12,3.3.82,4.79,1.6-1.43,1.43-3.5,2.08-5.23.41-1.09.49-2.31.89-3.41,1.61-4.32,3.17-4.59,6.24-1.2.86.95,1.51,1.74,3.29,1.24,3.89-1.1,6.48.66,7.12,4.87.76,3.91.87,7.92.32,11.86-.83,4.61-1.94,9.17-2.93,13.76-.38,1.75-.82,3.68-2.31,4.65-4.34,2.84-4.7,7.58-5.97,11.84-2.12,7.14-1.89,14.52-1.51,21.85.34,6.59.76,13.19,1.12,19.77.41,7.48,1.39,14.88,1.86,22.34.69,12.16,2.5,24.23,5.4,36.06,2.31,9.27,4.17,18.64,6.43,27.91,1.71,7.03,2.58,14.18,3.76,21.28,1.41,8.55,2.6,17.13,3.94,25.68,1.25,8,1.73,16.08,2.66,24.1.88,7.58,1.27,15.2,2.23,22.78.97,7.75-1.5,25.78-4.86,33.28-1.52-.33-.99-1.41-.93-2.15.6-9.55,2.59-29.11,1.1-38.57-1.28-8.72-1.9-17.55-2.71-26.34-1.12-12.17-3.31-24.2-4.92-36.3-2.42-18.27-6.76-36.12-11.1-54-2.64-11.32-4.46-22.82-5.45-34.4-1.19-12.6-1.96-25.24-3.04-37.84-.3-2.6-.48-5.21-.52-7.83-2.3-.04-2.72,1.15-2.45,2.87,1.34,8.48-.06,17.11,1.01,25.53,1.34,10.64,0,21.15-.21,31.71-.21,10.28-.08,20.56.23,30.83.21,7.18.16,14.38,1.27,21.52,1.23,7.85,2.68,15.68,3.39,23.58,1.2,13.36,4.58,26.36,6.07,39.65.9,8.03,1.55,16.1,2.29,24.15.51,5.57,1,26.37,1.46,31.94.11,1.32.14,2.64.1,3.96,0,.93-.73,1.69-1.66,1.71-.89.01-1.63-.67-1.7-1.56-.13-1.02-.07-2.06-.2-3.08-1.87-14.17-2.61-43.68-4.27-57.87-.64-5.4-1.42-10.81-2.46-16.15-2.96-15.18-4.1-30.61-6.53-45.88-1.69-10.61-1.48-21.43-1.65-32.18-.22-13.4-.03-26.8,1.05-40.18.27-3.09.14-6.2-.37-9.25-.58-3.79-.79-7.62-.63-11.44.09-5.01.27-10.01-.67-14.98-.56-2.95-.48-2.97-3.55-2.57-.43.05-.85.2-1.81.43"/>
      </g>
    </g>
  </g>
</svg>