<svg xmlns="http://www.w3.org/2000/svg" xmlns:xlink="http://www.w3.org/1999/xlink" width="161.33" height="274.272" viewBox="0 0 161.33 274.272">
  <defs>
    <clipPath id="clip-path">
      <rect id="Rectangle_87" data-name="Rectangle 87" width="25.961" height="27.511" fill="none"/>
    </clipPath>
  </defs>
  <g id="Group_123" data-name="Group 123" transform="translate(-1221.879 -738.596)">
    <circle id="Ellipse_19" data-name="Ellipse 19" cx="17.5" cy="17.5" r="17.5" transform="translate(1222 828)" fill="#ffe200"/>
    <circle id="Ellipse_20" data-name="Ellipse 20" cx="17.5" cy="17.5" r="17.5" transform="translate(1266 838)" fill="#ffe200"/>
    <circle id="Ellipse_22" data-name="Ellipse 22" cx="17.5" cy="17.5" r="17.5" transform="translate(1240 943)" fill="#ffe200"/>
    <circle id="Ellipse_23" data-name="Ellipse 23" cx="23.5" cy="23.5" r="23.5" transform="translate(1261 910)" fill="#ffe200"/>
    <circle id="Ellipse_21" data-name="Ellipse 21" cx="17.5" cy="17.5" r="17.5" transform="translate(1244 874)" fill="#ffe200"/>
    <g id="Group_96" data-name="Group 96" transform="translate(-11.856)">
      <path id="Path_186" data-name="Path 186" d="M1815.228,277.359c-.954-1.442-2.324-1.387-3.194-2.157-.483-.425-.983-.659-1.358.125-.313.658-.737,1.442.177,1.864,1.295.6,2.667,1.149,4.375.168m-12.111-1.5c1.081-.466,3.314,1.03,3.483-1,.138-1.637-2.326-1.138-3.479-1.9-.313-.206-.845-.094-1.278-.1-1.212-.029-1.363.8-1.385,1.733-.02.84.3,1.382,1.223,1.372.431,0,.862-.061,1.437-.105m13.5-16.777c-2.382,1.426-4.13,2.883-3.875,5.01.21,1.754,2.334,1.067,3.747,1.267.805-1.89.726-3.721.129-6.277m-5.03,20.459c-1.291-.249-1.544.451-1.582,1.457-.074,1.984.914,3.883,2.1,3.7,1.672-.264,2.339-1.6,2.468-3.122.2-2.4-1.995-1.418-2.984-2.03m-11.358-1.345a24.506,24.506,0,0,0,.247,4.174c.394,1.68,1.369,2.931,3.422,2.632,1-.144,2.286-.033,2.223-1.477-.055-1.214-1.269-.908-2.066-1.061a11.05,11.05,0,0,1-1.3-.168c-.667-.217-1.562-.385-1.5-1.29s.866-1.079,1.643-1.02c.877.066,1.746.267,2.621.282a.838.838,0,0,0,.787-.877c.007-.464-.32-.975-.728-.921a18.747,18.747,0,0,1-5.342-.275m11.879-8.637c1.035-.823,2.078-.149,3.049-.319a.876.876,0,0,0,.772-1.254c-.429-1.148-1.52-1.206-2.529-1.35-.689-.1-1.4-.405-1.838.543a7.069,7.069,0,0,0-.7,4.681c.449,1.831,2.219,1.589,3.579,1.833a1.048,1.048,0,0,0,1.2-1c.07-1.405-1.1-1.5-2.05-1.805a2.053,2.053,0,0,1-1.49-1.326m-9.985-3.947c2.028-2.023,4.38,1.728,6.126-.8-.7-1.107-1.328-2.083-1.945-3.063-.687-1.09-1.615-1.09-2.662-.6-2.161,1.007-3.116,3.708-2.673,7.347.309,2.523,2.411,2.115,4,2.492.827.2,1.834.37,2.139-.807a1.787,1.787,0,0,0-1.17-2.461c-1.349-.426-2.835-.584-3.818-2.111m10.816,49.295c-1.3,0-2.9-.032-4.5.015a1.345,1.345,0,0,0-1.472,1.289,1.538,1.538,0,0,0,1.151,1.643,61.152,61.152,0,0,0,15.913,2.641c1.269.053,1.829-.665,1.825-1.9-.005-1.064-.037-2.229-1.392-2.313-3.781-.238-7.337-2.1-11.523-1.372m-26.747,138.271a7.04,7.04,0,0,0,3.658-4.133c.912-2.767,1.746-5.57,2.387-8.41.8-3.564.155-4.38-3.474-4.946a23.826,23.826,0,0,0-2.435-.116c-.261,5.786.593,11.435-.136,17.605M1828,334.005c.407-3.642-1.14-6.806-2.52-10.011a2,2,0,0,0-1.634-1.315c-2.187-.227-4.378-.431-6.574-.534-1.254-.059-1.739.643-1.737,1.951.017,6.8,5.4,11.16,12.465,9.91m-5.813-68.9c1.6-1.059,2.708-.356,3.815-.12.615.131,1.266.2,1.545-.392a3.467,3.467,0,0,0-.332-3.756,1.925,1.925,0,0,0-3.091-.062c-1.472,1.521-3.083,2.978-3.61,5.257-.963,4.158-1.177,8.407-1.722,12.614a13.028,13.028,0,0,0-.138,3.522,4.81,4.81,0,0,0,3.29,3.793c1.286.422,2.269-.916,2.713-2.157-.969-1.442-3.564-.6-3.953-2.893,1.506-.706,2.759-.079,4.025.177.818.168,1.472.033,1.759-.818.3-.88-.192-1.385-.97-1.652-1.621-.56-3.518-.742-3.949-2.9.91-.718,1.7-.315,2.516.057,1.094.5,2.255,1.041,2.842-.648.477-1.374-.039-2.07-1.427-2.641-1.271-.523-3.076-.9-3.1-2.9,1.35-.593,2.24.149,3.2.409.737.2,1.545.426,1.866-.46a1.449,1.449,0,0,0-.956-2.081c-1.455-.521-3.161-.65-4.329-2.343m24.852,261.134c1.365-7.205.989-29.136-.5-33.1-9.536,8.462-8.9,28.053.5,33.1M1789.52,383.842c5.106-2.612,9.633-6.939,10.357-10.264,1.625-7.458,3.129-14.948,3.433-22.61a7.781,7.781,0,0,0-.7-3.872c-1.076-2.113-2.669-2.179-3.787-.131a41.154,41.154,0,0,0-2.163,4.8c-2.448,6.312-3.478,12.993-4.988,19.551-.917,3.975-2.032,7.922-2.151,12.524m49.932,4.119c-3.17-14-4.388-27.488-8.689-40.306a3.578,3.578,0,0,0-1.068.186,2.857,2.857,0,0,0-.98.853c-5.425,8.9-7.976,18.2-4.48,28.558,2.372,7.034,7.92,9.223,15.217,10.709m7.125,90.938c1.008-3.284.652-5.775.654-8.241.009-12.9.228-25.809-.991-38.694-.344-3.64-1.293-4.382-4.649-2.209-4.458,2.89-7.742,6.642-8.853,12.061-.468,2.284-1.395,4.472-2.045,6.723a21.321,21.321,0,0,0-.669,11.236c2.19,9.127,9.026,13.929,16.552,19.123m-6.863-211.091c.306-2.139-.676-4-1.389-5.88-.823-2.164-2.669-1.134-4.174-1.013-1.293.107-2.192.549-2.109,2.135.254,4.914-.862,9.76-1.024,15.288,4.321-3.443,4.165-8.241,5.425-12.306a2.779,2.779,0,0,1,3.323,1.691,15.537,15.537,0,0,1-1.263,6.854c-.949,2.407-1.52,5.611-4.29,6.318-2.933.75-3.951,2.942-5.567,4.852-4.054,4.8-4.94,4.868-10.07,1.263-.589-.414-1.041-.954-1.912-.58-3.586,1.542-7.412,1.291-11.182,1.358-6.239.109-8.359-1.87-9.015-8.191-.173-1.671.158-3.477-.967-5.09a56.237,56.237,0,0,1-10.457,2.157c-3.861.422-6.753,2.459-7.72,6.664,1.378.5,2.546.116,3.691.048,4.557-.267,8.18,1.5,10.16,5.541,1.52,3.1,3.835,4.981,6.636,6.719,5.235,3.255,9.821,7.127,9.752,14.091-.013,1.343.516,1.967,1.768,1.842,5.03-.5,9.906.84,14.857,1.258,1.626.136,2.358-.217,3.056-1.6A76.456,76.456,0,0,1,1835.976,297a13.777,13.777,0,0,0,2.875-5.907,97.013,97.013,0,0,0,1.836-21.466,1.86,1.86,0,0,0-.974-1.822m5.559,158.481c-.665-6.108-1.208-12.1-2-18.051-.6-4.518-1.695-8.972-2.232-13.5-.319-2.662-1.651-3.842-4.032-4.47a31.5,31.5,0,0,1-11.368-5.7,11.623,11.623,0,0,1-3.3-4.056c-5.749-11.376-3.8-22.242,2.2-32.829a6.464,6.464,0,0,1,3.078-3.072c2.3-.893,1.884-2.59,1.645-4.388-.249-1.886-1.4-2.069-3.034-2.387-7.637-1.5-12.645-5.876-14.257-13.737-.225-1.1.042-2.422-1.164-3.188A2.9,2.9,0,0,0,1806.14,323c-.821,6.279-1.975,12.448-4.826,18.176a1.728,1.728,0,0,0,.873,2.56c4.728,2.54,4.831,6.716,4.481,11.4a139.1,139.1,0,0,1-3.233,19.121,11.673,11.673,0,0,1-3.918,6.716c-3.214,2.708-5.662,6.463-10.192,7.4-1.25.258-1.221,1.47-1.438,2.474a75.83,75.83,0,0,0-1.771,16.639c.048,5.749-.145,11.481-.363,17.217-.046,1.172-.046,2.352.022,3.522.232,3.988.249,3.988,4.194,5.008,6,1.553,7.7,4.535,5.835,10.444-1.184,3.745-1.518,7.773-4.1,11.067-1.022,1.3-1.7,2.721-3.551,2.929-1.684.186-2.221,1.225-1.945,2.791,1.589,9.06.877,18.221.833,27.315a150.781,150.781,0,0,0,2.173,23.682,104.057,104.057,0,0,1,.805,10.969,4.185,4.185,0,0,1-1.356,3.879c-.158-6.22-1.424-11.989-2.573-17.782a86.746,86.746,0,0,1-1.308-18.46,199.452,199.452,0,0,0-1.065-28.665,14.249,14.249,0,0,1-.193-3.083c.952-10.159.029-20.3-.287-30.443-.565-18.193,1.413-36.113,4.8-53.975,2.039-10.761,4.8-21.142,9.355-31.161a66.026,66.026,0,0,0,5.87-32.175c-.409-6.136-3.082-10.394-8.048-13.277-3.579-2.078-6.445-4.568-8.14-8.352-1.087-2.424-3.049-3.076-5.463-2.529-1.571.354-3.089.941-4.638,1.4a4.308,4.308,0,0,1-4.5-.989c-1.409-1.374-.376-2.717.2-4.03.291-.674.708-1.3.978-1.978,1.9-4.773,5.4-7.123,10.536-7.267a32.941,32.941,0,0,0,9.875-2.194c1.719-.6,2.785-1.446,2.881-3.374a24.844,24.844,0,0,1,.573-3.483c1.14-5.8,5.778-7.81,10.836-4.71.359.221.726.433,1.192.713.7-.794,1.385-1.547,2.039-2.328.923-1.1,2.406-2.023,3.468-1.448,4.925,2.66,10.286-1.078,15.18,1.28,1.238.6,2.6.018,3.909-.153,4.148-.543,6.706,1.446,8.528,5.253,3.678,7.688,1.94,15.55,1.255,23.376a29.963,29.963,0,0,1-6.773,16,20.025,20.025,0,0,0-3.437,6.625c-.446,1.5-.645,3.229-2.573,3.818-1.03.315-.94,1.389-1.161,2.212-.685,2.551-.293,5.3-1.472,7.773a1.5,1.5,0,0,0,.03,1.263c3.321,4.9,2.763,10.728,3.854,16.143,1.744,8.655,4.306,17.112,6.016,25.782,1.164,5.915,1.533,11.947,3.085,17.792,4.594,17.291,5.905,35.06,7.6,52.772.9,9.377.971,18.764,1.087,28.177.066,5.513.414,11.149.595,16.677.146,4.436-.04,9.026.063,13.518.237,10.427-.374,20.838-.214,31.26a12.372,12.372,0,0,1-.081,2.205c-.409,2.441-1.289,2.844-3.638,1.72-5.1-2.44-8.13-6.718-9.917-11.842-2.794-8.014-1.489-15.647,2.669-22.932.746-1.3,2.015-2.306,1.687-4.307-.236-1.435,1.776-1.556,2.932-2.046,1.249-.528,3.1-.343,2.868-2.582-.225-2.207.38-4.253-2.468-5.872-7.631-4.341-14.157-10-17.55-18.5a17.069,17.069,0,0,1-1.007-9.129,84.82,84.82,0,0,1,4.666-16.545c1.711-4.487,5.266-7.318,9.144-9.873,1.715-1.131,3.391-.243,5.355-.3" transform="translate(-538.027 482.052)"/>
      <path id="Path_187" data-name="Path 187" d="M1871.89,1146.062c-3.213,1.735-5.983,3.373-7.716,6.292a38.461,38.461,0,0,0-5.253,13.037c-1.173,6.859,1.255,12.824,5.682,17.856,3.1,3.529,6.268,3.293,9.447-.184a17.58,17.58,0,0,0,5.036-11.021c.552-9.391-1.326-18.081-7.2-25.981m11.512,23.093a19.171,19.171,0,0,1-4.338,14.352c-4.78,5.913-11.168,6.519-16.8,1.395-6.648-6.057-9.613-18.127-4.891-28.1,2.577-5.435,5.975-9.959,11.059-13.216a4.965,4.965,0,0,1,7.226,1.625c4.675,7.578,7.211,13.247,7.738,23.94" transform="translate(-602.586 -204.655)"/>
      <path id="Path_188" data-name="Path 188" d="M1880.024,863.294c.129,2.157.1,3.64.324,5.08.6,3.82,2.47,5.122,6.182,4.065,4.66-1.33,8.7-3.647,10.632-8.431,3.315-8.23,2.761-16.4-1.059-24.274-1.877-3.866-5.2-4.073-8.066-.9a11.706,11.706,0,0,0-1,1.448,43.576,43.576,0,0,0-7.016,23.008m22.407-7.081c-.109,1.367-.171,3.13-.4,4.872a16.7,16.7,0,0,1-16.5,14.169c-4.187-.083-7.464-2.514-8.05-6.67a41.916,41.916,0,0,1,7.313-30.9c1.6-2.273,4.124-4.972,6.681-4.43a11.558,11.558,0,0,1,8.136,6.71,35.241,35.241,0,0,1,2.818,16.246" transform="translate(-619.589 35.183)"/>
    </g>
    <g id="Group_106" data-name="Group 106" transform="translate(480.249 124.771)">
      <g id="Group_105" data-name="Group 105" transform="translate(877 644)">
        <g id="Group_104" data-name="Group 104" clip-path="url(#clip-path)">
          <path id="Path_212" data-name="Path 212" d="M94.011,106.984c.8.263,1.495.6,1.612,1.367.416,2.71,1.663,5.174,2.254,7.826.134.6.2,1.283-.489,1.559a1.158,1.158,0,0,1-1.477-.719c-.935-2.761-2.514-5.3-2.882-8.255-.107-.855,0-1.608.982-1.778" transform="translate(-78.492 -90.299)"/>
          <path id="Path_213" data-name="Path 213" d="M73.583,9.01c-.061.558.07,1.155-.613,1.285a1.061,1.061,0,0,1-1.229-.675c-.9-2.677-2.022-5.313-1.926-8.224.019-.627.13-1.275.887-1.376a1.459,1.459,0,0,1,1.78,1.252c.2,1.192.223,2.418.393,3.618.2,1.4.477,2.8.709,4.12" transform="translate(-58.922 0)"/>
          <path id="Path_214" data-name="Path 214" d="M8.078,78.32a7.63,7.63,0,0,1,1.031.278,1.18,1.18,0,0,1,.807,1.154c-.009.6-.364.881-.932.967A29.908,29.908,0,0,0,1.7,82.633a1.191,1.191,0,0,1-1.588-.457c-.388-.729.311-1.07.758-1.417,2.074-1.615,4.6-1.92,7.207-2.439" transform="translate(0 -66.105)"/>
          <path id="Path_215" data-name="Path 215" d="M113.595,54.372a2.467,2.467,0,0,1-2.091-.485c-.55-.5-.682-1.158.042-1.473a20.738,20.738,0,0,1,6.662-2,1.327,1.327,0,0,1,1.435.92c.208.706-.325,1.132-.938,1.342-1.822.622-3.652,1.211-5.11,1.691" transform="translate(-93.728 -42.551)"/>
        </g>
      </g>
    </g>
  </g>
</svg>
