<?xml version="1.0" encoding="UTF-8"?>
<svg id="Layer_1" xmlns="http://www.w3.org/2000/svg" version="1.1" viewBox="0 0 156 357">
  <!-- Generator: Adobe Illustrator 30.3.0, SVG Export Plug-In . SVG Version: 2.1.3 Build 182)  -->
  <defs>
    <style>
      .st0 {
        fill: none;
      }

      .st1 {
        fill: #9fff4d;
      }

      .st2 {
        fill: #fff;
      }
    </style>
  </defs>
  <polygon class="st2" points="61.86 110.54 52.77 127.4 42.93 166.67 40.41 274.28 43.78 326.4 39.83 356.96 102.68 356.9 106.37 304.62 103.13 251.82 99.61 210.06 97.87 170.75 96.37 147.46 94.86 124.11 95.34 102.58 62.87 102.58 61.86 110.54"/>
  <path class="st2" d="M98.11,40.89c-3.81,4.34-6.29,9.69-7.14,15.4-.67,4.06-1.79,8.04-3.34,11.85-.65,1.61-1.81,2.7-3.79,2.26-2.21-.49-2.09-2.24-1.96-3.84.3-3.37.87-6.72,1.73-9.99,1.26-4.99,2.52-9.99,3.62-15.02.46-2.14,1.13-4.44-.77-6.84-5,6.89-8.1,14-7.75,22.26.09,2.5-.31,5-1.15,7.35-.6,1.76-1.37,3.96-3.68,3.84-2.76-.15-2.75-2.66-2.99-4.68-.71-6.08.6-12.02,1.33-18,.3-2.48.68-4.95.95-7.44.13-1.19.13-2.67-1.24-2.96-1.52-.32-1.64,1.22-2.01,2.3-1.74,5.14-3.66,10.21-4.94,15.51-1.69,6.98-3.65,13.86-2.55,21.2.56,2.62.2,5.36-1.02,7.75-1.63,2.84-4.25,3.19-6.47.83-.5-.54-.93-1.15-1.26-1.81-2.18-4.33-5.21-8.19-7.07-12.71-.68-1.67-1.37-3.52-3.67-4.01-.49,2.49-1.54,4.76-.79,7.12,1.24,3.91,2.24,7.97,4.1,11.58,3.96,7.68,8.39,15.13,12.65,22.66.76,1.35,1.7,2.46,3.53,1.79,2.14-.79,4.38-.35,6.57-.48,7.34-.45,14.71-.44,22.03-1.4,1.63-.02,3.01-1.21,3.27-2.83,3.16-11.34,7.4-22.34,12.67-32.87,2.1-4.05,3.8-8.31,5.05-12.7.66-1.77.7-3.71.12-5.51-2.12,1.44-3.87,3.37-5.1,5.62-2.1,3.55-3.95,7.24-5.54,11.04-.91,2.03-2,3.96-4.17,4.96-3.06,1.41-5.85-.17-5.78-3.45-.02-2.21.28-4.41.87-6.54,1.35-4.35,2.21-8.84,3.83-13.13,1.3-2.86,1.94-5.98,1.88-9.12"/>
  <rect class="st0" y="0" width="156" height="357"/>
  <g id="hand_06">
    <path id="Polygon_3" class="st1" d="M55.06,116.47l40.5,70H14.56l40.5-70Z"/>
    <path id="Polygon_5" class="st1" d="M55.06,237.47l40.5,70H14.56l40.5-70Z"/>
    <path id="Polygon_4" class="st1" d="M85.06,266.47l-40.5-70h81l-40.5,70Z"/>
    <g id="Group_94">
      <path id="Path_193" d="M86.52,120.04c.97-5.51.57-9.52-.92-12.24.35,4.61.63,8.42.92,12.24M92.12,115.6c.49-2.13.99-4.26,1.47-6.39.15-.66.57-1.54-.57-1.66-.99-.11-1.07.82-1.2,1.5-.38,2.18-.28,4.42.29,6.55M68.03,109.27c-.17,3.38-.86,6.75.4,10.01,1.42-3.4.56-6.73-.4-10.01M80.97,119.57c.95-3.33.87-6.87-.23-10.15-.67,3.36-.59,6.83.23,10.15M63.17,110.69c-.44-.05-.88-.1-1.32-.14-.38,2.65-.92,5.27-1.62,7.86-.34,1.09.51,1.86,1.77,1.87,1.36.01,1.16-.97,1.16-1.8.01-2.6,0-5.19,0-7.79M72.02,109.39c.6.77.96,1.71,1.01,2.69.35,1.86.53,3.75.55,5.64-.03.65.09,1.6,1.01,1.68,1.28.12,1.33-1.01,1.33-1.81,0-2.04-.31-4.09-.24-6.13.09-2.71-1.27-2.86-3.67-2.08M101.42,302.48c-.28,2.38-.89,4.4-.67,6.32.65,6.27.85,12.58.6,18.88-.03,1.18-.14,2.86,1.3,2.82,1.53-.04,1.08-1.79,1.06-2.86-.14-7.35-.32-14.69-.55-22.04.21-1.32-.51-2.62-1.75-3.13M101.82,271.48c-.47-4.14-.94-8.21-1.39-12.29-.4-3.64-.76-7.29-1.15-10.93.01-.75-.58-1.38-1.34-1.39-.02,0-.03,0-.05,0-.91,0-1.25.68-1.2,1.47.08,1.61.24,3.21.48,4.8,1.14,6.03,1.83,12.14,2.05,18.27.03,1.44-.91,4.36,1.68,4.15,2.04-.17.23-2.74.92-4.08M91.46,245.21c-.73.75-1,1.85-.7,2.86.53,5.99,1.24,12.01.77,18-.25,3.2,1.29,5.82,1.54,8.79.06.44.46.75.9.69.02,0,.04,0,.06-.01.45-.07.84-.29.85-.81,0-.73-.05-1.46-.05-2.2,0-7.07-1.16-14.04-2.06-21.02-.25-1.93.13-4.08-1.3-6.3M86.48,158.79c.12-.5.2-1,.22-1.51-.5-5.25-1.6-10.44-1.42-15.76.08-2.33-1.43-2.84-3.76-2.9.06,6.31.65,12.45.25,18.58-.06.92.61,1.23,1.4,1.29,1.01.08,1.95.7,3.31.29M77.89,147.94h-.57v-8.76c0-1.14-.3-2-1.7-1.99-1.36,0-1.72.82-1.75,1.98-.15,5.55-.14,11.11.12,16.66-.11,1.04.65,1.98,1.7,2.08.17.02.34.01.5-.02,1.35,0,1.69-.95,1.7-2.07.02-2.63,0-5.26,0-7.89M96.87,319.44c-.29-5.23-.6-11.08-.93-16.92-.05-.91-.21-1.82-1.46-1.65-.95.13-1.01.89-1,1.64-.03.59-.02,1.17.03,1.76.64,5.23.63,10.51-.03,15.74-.15,1.44-.49,2.94.4,4.28.85,1.27.48,2.54.03,3.78-.35.97-1.1,1.92.54,2.37,1.77.48,2.41-.41,2.41-2.04v-8.95ZM53.3,139.95c-.58-.08-1.17-.15-1.75-.22-.92,7.46-3.95,14.43-4.84,22.01,1.71.33,3.49-.03,4.94-1,.71-.5.43-2.37.66-3.61.19-1,.46-2,.7-2.99,1.17-4.76.31-9.46.29-14.19M95.59,198.04c-.15-2.66-.4-7.34-.67-12.01-.04-.76-.24-1.47-1.14-1.6-1.21-.18-1.59.74-1.61,1.59-.05,1.89.11,3.79.19,5.68.3,7.01.58,14.01.92,21.02.04.9-.26,2.34,1.35,2.17,1.18-.12.94-1.29.95-2.11.02-4.24.01-8.49.01-14.74M48.55,315.93h.55c.15-1.76.27-3.52.44-5.27.29-3.67.18-7.35-.31-11-.12-.98-.43-1.7-1.59-1.66s-1.41.75-1.41,1.77c0,.87-.27,1.76-.21,2.62.65,8.77.05,17.56.38,26.34.03.71-.3,1.66.7,1.7.93.04,1.5-.58,1.48-1.73-.07-4.25-.03-8.51-.03-12.77M65.02,158.02c1.19,0,1.92,0,2.64,0,2.08-.02,2.67-1.07,2.53-3.09-.37-5.26-.81-10.52-.24-15.79.16-1.52-.63-2.13-2.07-2.11-1.22.02-2.26.03-2.27,1.8-.04,6.27-.92,12.52-.6,19.19M71.01,273.4c-.63-4.59-1.2-8.35-1.64-12.13-.65-5.23-1-10.5-1.03-15.77,0-1.01.15-2.2-1.35-2.27-1.74-.08-1.71,1.12-1.65,2.38.07,1.6-.06,3.22.07,4.82.51,6.42,1.06,12.84,1.65,19.25.1,1.31.35,2.61.76,3.86.35,1,1.42.84,2.29.71,1.02-.15.9-.95.9-.84M56.68,139.4c.46,5.92,1.64,11.26-.96,16.49-.64,1.29-1.03,2.72-.05,4.11.52-.09.95-.17,1.38-.26,3.95-.84,4.01-.07,4.17-5.12.13-4.26.16-8.52.33-12.79.15-3.79.2-3.8-3.4-2.9-.55.14-1.08.34-1.48.46M62.3,267.12s.08,0,.12-.01c-.43-5.27-.86-10.53-1.29-15.8-.18-2.19-.38-4.38-.58-6.57,0-.7-.55-1.27-1.25-1.28-.07,0-.14,0-.2.01-.87.02-1.9-.09-2.07,1.09-.18,1.01-.2,2.04-.08,3.06,1.13,7.55,1.81,15.16,2.04,22.79.07.87.22,1.74.47,2.58.12.96,1,1.65,1.97,1.52.11-.01.22-.04.33-.08,1.15-.24,1.17-1.14,1.08-2.06-.17-1.75-.36-3.5-.54-5.26M72.72,305.62c0-2.33.04-3.94-.01-5.55-.03-1.12.18-2.45-1.55-2.61-1.84-.17-1.74,1.16-1.79,2.31-.07,1.76-.03,3.51-.08,5.27-.21,7.89,1.5,15.69,1.2,23.58-.04.96.55,1.27,1.36,1.28.71,0,1.58.05,1.71-.9.12-1.16.17-2.33.17-3.5.07-6.64-.27-13.28-1.01-19.88M56.9,313.87h-.2c0-4.27.01-8.54,0-12.81.03-1.02-.05-2.05-.24-3.05-.19-.87-1.04-.93-1.79-.84-.61.03-1.09.54-1.1,1.15-.05.73-.03,1.47-.02,2.21.2,7.21-.05,14.42-.76,21.6-.11,2.18.27,4.36,1.1,6.39.14.87.95,1.47,1.83,1.34.02,0,.04,0,.06-.01,1.24-.08,1.18-.82,1.17-1.83-.08-4.71-.04-9.42-.04-14.14M71.46,196.01h-.57c0-5.14,0-10.27,0-15.41,0-1.1-.22-2.15-1.62-2.09-1.06.05-1.41.93-1.55,1.83-.12.72-.12,1.46-.23,2.19-.51,4.08-.47,8.21.11,12.28.6,5.13-.06,10.26-.06,15.4,0,1.53.25,2.52,2.09,2.57,2.16.06,1.84-1.39,1.84-2.68,0-4.7,0-9.39,0-14.09M82.41,259.05h.29c0,3.8,0,7.61,0,11.42-.03.88,0,1.76.1,2.63.31,2.14,2.06,1.73,3.42,1.73,1.55,0,1.32-1.14,1.15-2.22-.37-3.5-.47-7.02-.31-10.53,0-5.13-.51-10.23-.96-15.34-.15-1.72-.87-2.98-2.59-2.82-1.66.15-1.08,1.78-1.1,2.83-.05,4.1-.02,8.2-.02,12.29M63.41,179.27c-2.62-.22-3.5.79-3.49,2.8.02,3.08.07,6.16-.04,9.23-.22,5.7-.54,11.41-.84,17.11-.11,1.31.08,2.63.54,3.87.46,1.17,1.32.91,2.16.83.75-.08,1.57-.29,1.49-1.23-.42-4.71,1.12-9.32.63-14.02-.81-6.16-.96-12.39-.44-18.58M78.26,258.61h-.4c0-4.4-.01-8.79,0-13.19,0-1.5.23-2.91-2.1-2.92-2.22,0-2.82,1.1-2.82,2.97,0,1.76-.04,3.51.03,5.27.13,7.33,1.02,14.62,2.64,21.76.22.88.54,1.84,1.6,1.77,1.22-.08,1.04-1.21,1.04-2.03.03-4.54.01-9.09.01-13.63M60.85,297.12c0,2.37-.03,4.41,0,6.45.12,7.74.27,15.48.38,23.22.02,1.56,0,2.87,2.19,2.95,2.1.08,2.49-1.03,2.49-2.69,0-.88-.05-1.76-.03-2.64.12-8.07-1.38-16.06-1.12-24.13.1-3.26.02-3.26-3.9-3.17M44.55,244.81c.33,10.06-.12,19.65,1.11,29.51,3.13-1.49,6.15-.65,9.03-1.29-.11-1.97-.27-3.73-.28-5.49-.03-7.52-1.51-14.91-1.86-22.4-.03-.73-.07-1.52-1.1-1.51-1.18.02-1.52.75-1.26,1.76.37,1.87.6,3.77.69,5.68.55,5.24.15,10.55,1.41,15.74.37,1.5-.49,2.04-2.05,1.61-1.77-.48-2.18-1.83-2.33-3.35-.51-5.26-.95-10.53-1.47-15.8-.14-1.4.18-3-1.88-4.48M89.49,329.9c-1.23-3.59-.85-6.86-.39-10.01.93-6.34.45-12.63-.18-18.93-.09-.86,0-1.88-1.32-1.8-1.13.06-1.44.96-1.49,1.86-.24,1.89-.25,3.8-.03,5.69,1.14,6.07.38,12.32,1.84,18.38.36,1.49.02,3.38-2.09,3.82-1.69.34-3.2-1.07-3.13-3.2.3-8.41-1.33-16.73-1.11-25.13.04-1.43-.28-2.21-1.86-2.29-1.47-.07-2.23.5-2.35,1.94-.08.58-.13,1.17-.13,1.76.39,8.52.82,17.05,1.2,25.57.08,1.95,1.11,2.45,2.87,2.39,2.64-.09,5.28-.02,8.17-.02M91.32,138.19c0-4.2,0-7.41,0-10.63.09-1.2-.53-2.33-1.59-2.9-1.88-1.34-4.09-2.14-6.4-2.29-2.77-.08-5.84,1.36-8.48-.83-.54-.19-1.14-.11-1.61.23-1.02,2.41-2.6,1.89-4.3.97-.55-.3-1.36-.51-1.64-.09-1.61,2.46-3.09,1.02-4.84.15-2.25-1.12-4.39-.52-5.28,1.47-2.01,4.19-3.41,8.65-4.13,13.25,12.99-5.18,25.5-4,38.26.67M94.62,181.03c.29-1.81.26-3.66-.09-5.47-1.24-10.22-1.71-20.5-2.17-30.77-.03-.59-.05-1.17-.08-1.76-.05-.96-.41-1.81-1.45-1.9-1.26-.1-1.33,1.03-1.3,1.83.14,3.82.03,7.69.7,11.42.47,2.6-.6,5.63,1.96,7.85.87.76-.18,1.85-1.1,1.59-4.08-1.02-8.22-1.73-12.4-2.14-2.46-.3-4.9-.9-7.4-.72-7.76.62-15.46,1.91-23,3.87-1.4.35-1.96.94-2.03,2.33-.16,3.06-.47,6.12-.62,9.18-.13,2.51.37,3.05,2.74,2.35,4.97-1.34,10.03-2.32,15.14-2.93,9.92-1.4,19.66-1.34,28.41,4.64.71.68,1.74.92,2.67.62M102.74,299.32c.55-5.44.51-10.91-.1-16.34-.12-1.22-.16-2.67-2.04-2.92-4.51-.61-9-1.39-13.51-2.05-1.33-.19-2.46-.11-3.27,1.46-.53,1.1-1.85,1.56-2.95,1.03-.31-.15-.59-.37-.8-.65-1.93-2.7-4.58-2.02-7.11-2.22-4.4-.36-8.82.6-13.2-.08-4.61-.71-9.19-1.69-14.24-1.06.29,5.91.58,11.85.89,18.01,9.45-1.04,18.99-1.02,28.44.05,9.32.95,18.72,1.4,27.88,4.76M44.41,241.42c18.18-1.48,36.11-3.61,54.4,2.39-.94-8.26-1.8-15.66-2.61-23.07-.18-1.66-.97-2.2-2.61-2.1-4.56.26-9.13-.12-13.58-1.12-10.03-2.39-20.51-2.11-30.4.81-.95.41-2.03.46-3.01.12-2.61-1.24-2.76.66-2.7,2.24.29,6.83.62,13.65.52,20.73M98.11,40.89c-3.81,4.34-6.29,9.69-7.14,15.4-.67,4.06-1.79,8.04-3.34,11.85-.65,1.61-1.81,2.7-3.79,2.26-2.21-.49-2.09-2.24-1.96-3.84.3-3.37.87-6.72,1.73-9.99,1.26-4.99,2.52-9.99,3.62-15.02.46-2.14,1.13-4.44-.77-6.84-5,6.89-8.1,14-7.75,22.26.09,2.5-.31,5-1.15,7.35-.6,1.76-1.37,3.96-3.68,3.84-2.76-.15-2.75-2.66-2.99-4.68-.71-6.08.6-12.02,1.33-18,.3-2.48.68-4.95.95-7.44.13-1.19.13-2.67-1.24-2.96-1.52-.32-1.64,1.22-2.01,2.3-1.74,5.14-3.66,10.21-4.94,15.51-1.69,6.98-3.65,13.86-2.55,21.2.56,2.62.2,5.36-1.02,7.75-1.63,2.84-4.25,3.19-6.47.83-.5-.54-.93-1.15-1.26-1.81-2.18-4.33-5.21-8.19-7.07-12.71-.68-1.67-1.37-3.52-3.67-4.01-.49,2.49-1.54,4.76-.79,7.12,1.24,3.91,2.24,7.97,4.1,11.58,3.96,7.68,8.39,15.13,12.65,22.66.76,1.35,1.7,2.46,3.53,1.79,2.14-.79,4.38-.35,6.57-.48,7.34-.45,14.71-.44,22.03-1.4,1.63-.02,3.01-1.21,3.27-2.83,3.16-11.34,7.4-22.34,12.67-32.87,2.1-4.05,3.8-8.31,5.05-12.7.66-1.77.7-3.71.12-5.51-2.12,1.44-3.87,3.37-5.1,5.62-2.1,3.55-3.95,7.24-5.54,11.04-.91,2.03-2,3.96-4.17,4.96-3.06,1.41-5.85-.17-5.78-3.45-.02-2.21.28-4.41.87-6.54,1.35-4.35,2.21-8.84,3.83-13.13,1.3-2.86,1.94-5.98,1.88-9.12M51.36,214.56c3.73-1.07,3.76-1.08,3.67-4.99-.03-2.93.15-5.87.54-8.77.72-5.99.49-12.02.51-18.04,0-2.15-1.04-2.46-2.76-2.12-1.94.38-3.24,1.4-3.29,3.51-.05,2.49-.06,4.99-.02,7.48.07,5.12.75,10.21.07,15.37-.33,2.51-.65,5.33,1.31,7.56-.73.02-1.47,0-2.2-.07-2.73-.38-3.44-1.05-3.13-3.67.95-8.09.12-16.16-.04-24.24-.01-.62.6-1.76-.99-2.07-1.99,10.57-.99,21.12-1.02,31.57,2.9.72,4.9-1.48,7.37-1.51M81.4,214.43c2.29.14,4.53,1.17,6.93.4.7-1.51.46-3.14.4-4.73-.35-8.79-.74-17.58-1.14-26.38.04-.73-.08-1.46-.33-2.14-.68-1.17-1.99-1.83-3.34-1.68-1.21.03-1.16,1.11-1,2,1.84,10.13.59,20.49,2.22,30.63.18,1.11-.21,1.71-1.22,1.86-.87.07-1.75.08-2.62.03-.96-2.27-1.41-4.71-1.34-7.17.07-2.94-.07-5.88,0-8.81.16-5.75-.67-11.43-1.25-17.12-.23-2.19-.93-3.77-3.42-2.83-.8,10.07.27,20,.45,29.94.08,4.17,1.34,5.47,5.67,6M57.56,79.54c.75-1.64,1.02-3.46.76-5.24-1.1-7.03.42-13.82,2.1-20.51,1.47-5.83,3.58-11.51,5.4-17.26.07-.29.16-.57.28-.84.96-1.78,1.59-3.94,4.27-3.83,2.37.1,4.8,2.36,5.66,4.86.84,2.47-.57,4.84-.05,7.76,1.98-3.78,3.39-7.34,5.55-10.49,1.26-1.84,2.32-3.89,5.13-3.17,2.71.69,3.7,2.79,3.97,5.24.12,1.97.13,3.95.04,5.93,1.83-.32,2-2.01,2.88-3.01,1.42-1.62,2.66-3.74,5.36-3.12,1.78.4,2.64,2.65,2.6,5.96-.06,5.13-2.52,9.62-3.67,14.46-.94,3.95-3.01,7.65-2.75,12.08,1.71-.79,1.87-2.38,2.43-3.63,1.68-3.93,3.78-7.66,6.29-11.12,2.05-2.73,4.4-5.2,8.33-4.95,2.65.17,3.69,1.04,4.05,3.67.27,2.8-.23,5.63-1.47,8.16-2.34,5.38-4.71,10.75-7.27,16.02-3.73,7.67-6.36,15.71-8.96,23.8-1.25,3.89-.31,7.94-1.85,11.71-1.58,3.85-1.47,8.06-1.76,12.1-.16,2.27.7,4.7.85,7.15.32,5.4.62,10.76.66,16.19,0,7.79.49,15.57,1.5,23.29.94,6.8,1.99,13.68,1.84,20.5-.14,6.27-.04,12.55-.1,18.81-.06,7.45,1.58,14.8,2.24,22.2.9,10.15,3.06,20.11,3.82,30.26.71,9.52,1.88,19.01,2.33,28.54.36,7.72-.09,15.48-.11,23.22-.02,5.53.07,11.07.09,16.6,0,1.02-.22,2.03.68,2.87.42.39.73,1.23.26,1.6-3.67,2.89-1.7,14.91-3.34,18.5-.3.66-.36,1.44-.71,2.06-.36.86-1.32,1.29-2.2.98-.91-.33-.69-1.17-.57-1.87.5-2.9.39-13.17.89-16.07.35-2.05-.24-3.1-2.56-3.66-6.31-1.47-12.76-2.2-19.24-2.2-9.12-.07-18.24-.36-27.36-.33-7.83.02-7.84.15-9.77,7.73-.29,1.14-1.97,13.99-2.27,15.12-.14.89-.97,1.5-1.86,1.36-.03,0-.07-.01-.1-.02-1.06-.23-.65-1.14-.52-1.81,2.09-10.36,2.58-32.51,2.68-42.94.11-11.63-.64-23.25-1.4-34.85-.77-11.77-.38-23.55-.54-35.33-.14-10.59.21-21.19-.42-31.78-.61-10.45,0-20.93,1.83-31.23.44-3.21.63-6.45.57-9.68.07-4.71.73-9.4,1.98-13.95,1.27-4.53,2.21-9.15,3.2-13.75,1.28-6.35,3.41-12.51,6.32-18.3,1.61-3.1,3.79-5.86,4.45-9.43.4-1.56.13-3.21-.73-4.56-4.54-7.22-8.64-14.69-12.8-22.14-2.77-4.96-4.04-10.4-5.86-15.67-.52-1.86-.56-3.82-.12-5.7.76-4.29,4.32-5.64,7.81-2.97,1.81,1.52,3.16,3.53,3.89,5.79,1.38,3.59,3.86,6.57,5.68,9.91.28.68,1,1.08,1.72.95"/>
      <path id="Path_194" d="M140.05,7.24c-.13.37-.31.72-.53,1.04-2.05,2.5-4.7,4.44-6.52,7.16-.49.72-1.47.91-2.19.43-.05-.04-.11-.08-.15-.12-1.01-.66-.84-1.42-.27-2.22,2.09-2.85,4.75-5.23,7.81-6.99.54-.38,1.29-.25,1.67.3.09.12.15.26.18.4"/>
      <path id="Path_195" d="M8.14,20.89c.94-.29,1.96.07,2.51.89,2.19,2.94,4.31,5.94,7.36,8.1.67.34.95,1.16.61,1.84,0,.02-.02.03-.03.05-.47.81-1.24.48-1.94.25-2.09-.76-3.84-2.25-4.93-4.2-1.27-2.11-2.28-4.37-3.59-6.92"/>
      <path id="Path_196" d="M16.95,38.76c-.75.91-2.06,1.1-3.04.46-2.79-1.37-5.03-3.66-6.32-6.49-.27-.54-.41-1.13.14-1.59.38-.38.99-.39,1.38-.02.06.05.11.12.15.18,1.98,3.05,5,5.09,7.69,7.46"/>
      <path id="Path_197" d="M7,42.87c3.17.55,5.7,2.41,8.76,2.88.74.01,1.33.62,1.32,1.35,0,.18-.04.36-.12.53-.27.67-1.03,1-1.7.73-.04-.02-.09-.04-.13-.06-3.17-1.12-6.61-1.88-8.13-5.43"/>
      <path id="Path_198" d="M147.07,17.27c-2.01,1.83-3.99,3.71-6.05,5.48-.58.51-1.45.51-2.02,0-.55-.4-.67-1.17-.27-1.71.06-.08.12-.15.19-.21,2.09-2.18,4.17-4.45,8.15-3.55"/>
      <path id="Path_199" d="M156.32,34.29c-1.26,2.02-3.55,2.64-4.62,4.64-.46.85-1.29,1.27-2.11.43-.65-.63-.67-1.67-.03-2.33,0-.01.02-.02.03-.03,1.82-1.85,3.97-3.07,6.73-2.72"/>
    </g>
  </g>
</svg>