<svg xmlns="http://www.w3.org/2000/svg" xmlns:xlink="http://www.w3.org/1999/xlink" width="117.601" height="266.261" viewBox="0 0 117.601 266.261">
  <defs>
    <clipPath id="clip-path">
      <rect id="Rectangle_86" data-name="Rectangle 86" width="41.302" height="26.001" fill="none"/>
    </clipPath>
  </defs>
  <g id="Group_121" data-name="Group 121" transform="translate(-887.318 -748.129)">
    <g id="Group_101" data-name="Group 101" transform="translate(-740)">
      <path id="Path_189" data-name="Path 189" d="M3797.884,444.735c-.295-.118-.588-.237-.883-.355a10.439,10.439,0,0,0-1.092,2.3c-1.44,7.029-2.785,14.076-4.2,21.111-.786,3.888-1.731,7.832-3.894,11.137-3.111,4.758-7.889,8.309-10.164,13.745a1.668,1.668,0,0,1-2.593.75c-1.231-.742-.812-1.637-.468-2.663.458-1.361,1.6-2.584,1.114-4.163-1.208-3.933-1.883-8.18-3.853-11.691-2.936-5.229-4.218-10.885-5.887-16.475a20.926,20.926,0,0,0-.632-2.111c-.4-.951-.869-2.056-2.153-1.743-.956.234-1.155,1.245-1.2,2.142-.4,7.326-1.169,14.662,1.185,21.855,1.078,3.3,2.737,6.506,3.487,9.742,2.078,8.963,3.229,18.142,4.743,27.234.536,3.214.978,3.855,4.043,3.933a65.9,65.9,0,0,1,14.412,1.82c2.072.521,3.352-.175,3.673-2.481.785-5.636,3.262-10.632,5.94-15.572s6.182-9.3,9.51-13.789a42.8,42.8,0,0,0,7.25-15.469,15.307,15.307,0,0,0,.394-5.688c-.07-.533-.055-1.244-.847-1.349a1.391,1.391,0,0,0-1.588,1.164c-.2.7-.232,1.455-.427,2.163a78.354,78.354,0,0,1-4.725,13.247,9.04,9.04,0,0,1-2.295,3.189,1.728,1.728,0,0,1-2.065.031,1.4,1.4,0,0,1-.628-1.879c.206-.545.44-1.085.7-1.61,3.522-7.2,5.192-14.975,6.941-22.721a2.521,2.521,0,0,0-.908-3.135c-1.039,4.027-2.044,7.626-2.888,11.26a54.837,54.837,0,0,1-4.926,14.1c-.8,1.457-.9,4.447-3.73,2.932-2.5-1.333-.842-3.384-.039-4.975,4.04-7.992,5.568-16.708,7.347-25.338.461-2.238.785-4.7-.974-6.734-3.537,1.615-3.525,1.617-3.888,4.9a82.763,82.763,0,0,1-3.329,16.817,13.236,13.236,0,0,0-.632,5.051c-4.017-.685-4.5-1.267-3.709-4.378.289-1.137.771-2.225,1.083-3.356,2.072-7.523,3.479-15.123,2.805-22.951m3.988,208.924c-7.813.543-7.813.543-9.917-2.1,2.87-.344,5.537-.792,8.223-.941,1.54-.085,2.059-.711,2.122-2.118.274-6.217-.665-12.33-1.481-18.457-.173-1.3-.83-1.811-2.066-1.617a17.106,17.106,0,0,1-5.274.081c-1.471-.23-2.834-.545-3.606-2.577a47.866,47.866,0,0,0,8.023-.241c1.989-.2,2.91-1.057,2.664-3.144-.312-2.63-.413-5.284-.729-7.913A386.217,386.217,0,0,1,3797,566.176c.005-.869-.122-1.739-.2-2.73-2.03-.669-3.761.927-5.629.471-.869-.212-1.844-.37-1.94-1.435-.081-.9.761-1.107,1.466-1.354s1.343-.6,2.035-.842c3.8-1.313,4-1.332,3.476-5.365-.876-6.7-2.019-13.373-3.076-20.052a38.11,38.11,0,0,1-.81-7.889c.072-1.446-.229-2.472-1.91-2.945-5.436-1.531-11.026-1.754-16.592-2.253-1.347-.12-1.868.7-2.095,1.768a34.516,34.516,0,0,0-.591,3.929c-.488,5.316-1.535,4.59,4.667,6.086,1.56.376,3.271-.164,4.756.678a1.642,1.642,0,0,1,.81.982c.079.637-.405,1.009-1.039,1.162-3.275.794-6.353-.029-9.51-1.363-.838,4.7-1.693,9.151-2.409,13.633-.5,3.089-.4,3.083,2.479,3.9q2.542.724,5.047,1.571c.713.242,1.4.681,1.05,1.59-.247.641-.886.615-1.5.5-1.733-.343-3.476-.634-5.2-1-1.512-.322-2.634-.138-2.77,1.724-.02.285-.2.558-.245.846-2.512,15.951-6.215,31.728-7.123,47.917a29.168,29.168,0,0,0-.072,4.408c.192,2-1.033,4.9.637,5.817,2.7,1.476,5.895,2.686,9.258,1.774.422-.114.823-.324,1.25-.42a1.354,1.354,0,0,1,1.728.945c.3.88-.359,1.328-.963,1.744a6.013,6.013,0,0,1-4.251.742,25.434,25.434,0,0,1-2.615-.414c-5.141-1.122-5.2-1.129-5.2,3.9,0,4.852.131,9.707.252,14.561.068,2.636.422,3.067,3.192,2.929,2.636-.133,5.255-.615,7.876-.989,1.275-.183,2.593-.8,3.7.764-3.2,2.542-6.985,2.842-10.784,2.962-3.859.122-3.823.061-3.909,3.75-.125,5.353,1.216,10.49,2.141,15.693a2.246,2.246,0,0,0,1.42,1.94c.963.444.365,1.238-.066,1.8a1.5,1.5,0,0,1-2.284.4,2.034,2.034,0,0,1-.687-1.085c-1.606-6.786-4.633-13.083-4.36-20.5.422-11.455-.333-22.958.031-34.439a219.012,219.012,0,0,1,5.71-44.132A89.581,89.581,0,0,0,3764.3,553.9a65.963,65.963,0,0,1,1.525-11.339c1.845-7.191.882-14.68,2.618-21.884.383-1.592-.2-3.468-.54-5.178-1.961-9.908-2.56-20.07-5.975-29.714a68.274,68.274,0,0,1-3.323-28.278c.179-2.367.223-5.1,3.028-5.784,2.748-.671,4.73,1.258,6.257,3.313a10.054,10.054,0,0,1,1.6,3.59,65.888,65.888,0,0,0,5.686,16.1c1.442,2.684,1.332,5.952,3.107,8.939,3.669-3.034,6.62-6.191,8-10.509.939-2.938,1.759-5.926,2.424-8.937,1.393-6.314,2.651-12.656,3.962-18.989.03-.144.025-.295.059-.436.53-2.212,1.232-4.36,3.813-4.894,1.978-.411,3.369.93,4.807,4.281a11.775,11.775,0,0,0,.627,1.138c3.988-.928,5.841-.1,7.533,3.861,1.033,2.417,1.759,4.739,4.423,6.108,1.768.912,2.176,3.083,1.849,5.106-.31,1.928-.048,3.22,2.085,4.139,2.846,1.227,3.181,4.03,2.982,6.779-.518,7.1-3.421,13.28-7.491,18.985-3.658,5.128-7.6,10.063-10.667,15.6a36.53,36.53,0,0,0-3.848,9.781,85.04,85.04,0,0,1-2.376,9.366c-.945,2.742-.052,5.822.25,8.749.621,6,2.163,11.849,3.12,17.8,1.061,6.576,1,13.22.919,19.834a307.832,307.832,0,0,0,2.571,40.061c.223,1.894.271,3.807.382,5.712,1,17.3,3.608,34.5,3,51.894a29.112,29.112,0,0,0,.249,3.08c.063.853.346,1.846-.871,2.139-1.234.3-1.914-.405-2.345-1.461a13.676,13.676,0,0,1-.739-5.657,70.143,70.143,0,0,0-.427-11.02,4.8,4.8,0,0,0-.7-2.512" transform="translate(-2075.978 340.011)"/>
      <path id="Path_190" data-name="Path 190" d="M3807.682,1090.368c3.881-.84,7.486-.158,11.043.25,2.658.306,5.205.864,7.67-.7a1.838,1.838,0,0,1,2.885.98c.5,1.181-.412,1.844-1.42,2.325a6.458,6.458,0,0,1-3.411.729c-4.968-.51-9.925-1.1-14.883-1.695-.746-.09-1.348-.518-1.883-1.894" transform="translate(-2115.763 -163.483)"/>
      <path id="Path_191" data-name="Path 191" d="M3847.133,1183.061c-3.388,3.091-7.412,2.452-11.448,1.687a1.325,1.325,0,0,1-1.077-1.249,1.074,1.074,0,0,1,1.186-1.028,42.274,42.274,0,0,0,10.031-.652c.542-.088,1.081.348,1.308,1.242" transform="translate(-2136.629 -234.982)"/>
    </g>
    <g id="Group_103" data-name="Group 103" transform="translate(887.318 748.129)">
      <g id="Group_102" data-name="Group 102" clip-path="url(#clip-path)">
        <path id="Path_209" data-name="Path 209" d="M1.192,35.677a3.555,3.555,0,0,1,2.971,1.485c3.177,3.3,5.828,7.179,10.345,8.95a1.126,1.126,0,0,1,.7,1.637,2.677,2.677,0,0,1-1.52,1.185C9.146,49.576-.1,41.537,0,37.1a1.383,1.383,0,0,1,1.191-1.418" transform="translate(0 -22.969)"/>
        <path id="Path_210" data-name="Path 210" d="M38.5,5.457c-.017-1.736-.131-3.288,1.637-3.672A2.411,2.411,0,0,1,42.786,3.59a65.8,65.8,0,0,0,4.267,9.518,1.916,1.916,0,0,1-.609,2.49,2.414,2.414,0,0,1-2.6.076C39.02,13.688,39.354,9.1,38.5,5.457" transform="translate(-24.795 -1.118)"/>
        <path id="Path_211" data-name="Path 211" d="M104.672,12c-3.327.3-5.6-.632-6.148-3.58A8.821,8.821,0,0,1,101.462.3a2.225,2.225,0,0,1,1.949-.148,1.873,1.873,0,0,1,.987,2.318c-.879,3.137-.029,6.276.274,9.527" transform="translate(-63.371 0)"/>
      </g>
    </g>
  </g>
</svg>
