<?xml version="1.0" encoding="UTF-8"?>
<svg id="Layer_1" xmlns="http://www.w3.org/2000/svg" xmlns:xlink="http://www.w3.org/1999/xlink" version="1.1" viewBox="0 0 156 357">
  <!-- Generator: Adobe Illustrator 30.3.0, SVG Export Plug-In . SVG Version: 2.1.3 Build 182)  -->
  <defs>
    <style>
      .st0 {
        fill: none;
      }

      .st1 {
        fill: #fff;
      }

      .st2 {
        clip-path: url(#clippath);
      }
    </style>
    <clipPath id="clippath">
      <rect class="st0" x="134.93" y="110.36" width="17.37" height="27.59" transform="translate(-27.56 42.07) rotate(-15.22)"/>
    </clipPath>
  </defs>
  <path class="st1" d="M76.01,119.04s-1.32,8.14-1.32,12.32,5.72,26.84,5.72,26.84l4.84,25.96-2.2,17.82-5.05,37.84-3.31,17.82-.88,50.38,1.94,45.23,1.39,3.54,44.41.12-3.3-56.6-4.84-62.34-1.32-25.88-2.42-19.14,3.08-18.26,12.1-17.82,8.58-14.08v-10.78l-4.84-4.4.22-6.85-3.74-.85-4.63-5.79-8.13-6.53-4.18,8.14-7.26,28.16-8.14,9.24-9.96-32.63-6.76-1.47h0Z"/>
  <rect class="st0" y="0" width="156" height="357"/>
  <g id="Group_127">
    <g id="Group_101">
      <path id="Path_189" d="M112.77,110.21c-.29-.12-.59-.24-.88-.36-.46.72-.82,1.49-1.09,2.3-1.44,7.03-2.78,14.08-4.2,21.11-.79,3.89-1.73,7.83-3.89,11.14-3.11,4.76-7.89,8.31-10.16,13.74-.31.87-1.27,1.32-2.14,1-.16-.06-.32-.14-.46-.25-1.23-.74-.81-1.64-.47-2.66.46-1.36,1.6-2.58,1.11-4.16-1.21-3.93-1.88-8.18-3.85-11.69-2.94-5.23-4.22-10.89-5.89-16.48-.17-.71-.38-1.42-.63-2.11-.4-.95-.87-2.06-2.15-1.74-.96.23-1.16,1.24-1.2,2.14-.4,7.33-1.17,14.66,1.19,21.86,1.08,3.3,2.74,6.51,3.49,9.74,2.08,8.96,3.23,18.14,4.74,27.23.54,3.21.98,3.85,4.04,3.93,4.86.07,9.69.68,14.41,1.82,2.07.52,3.35-.17,3.67-2.48.78-5.64,3.26-10.63,5.94-15.57s6.18-9.3,9.51-13.79c3.43-4.62,5.9-9.88,7.25-15.47.49-1.85.62-3.78.39-5.69-.07-.53-.05-1.24-.85-1.35-.76-.12-1.47.4-1.59,1.16h0c-.2.7-.23,1.45-.43,2.16-1.17,4.55-2.76,8.98-4.73,13.25-.52,1.22-1.31,2.31-2.29,3.19-.61.47-1.45.48-2.06.03-.69-.34-.97-1.19-.63-1.88h0c.21-.55.44-1.08.7-1.61,3.52-7.2,5.19-14.98,6.94-22.72.51-1.13.12-2.45-.91-3.14-1.04,4.03-2.04,7.63-2.89,11.26-.99,4.9-2.65,9.65-4.93,14.1-.8,1.46-.9,4.45-3.73,2.93-2.5-1.33-.84-3.38-.04-4.98,4.04-7.99,5.57-16.71,7.35-25.34.46-2.24.78-4.7-.97-6.73-3.54,1.61-3.52,1.62-3.89,4.9-.52,5.71-1.64,11.34-3.33,16.82-.54,1.63-.75,3.34-.63,5.05-4.02-.68-4.5-1.27-3.71-4.38.29-1.14.77-2.23,1.08-3.36,2.07-7.52,3.48-15.12,2.8-22.95M116.76,319.13c-5.21.36-8.51-.34-9.92-2.1,2.87-.34,5.54-.79,8.22-.94,1.54-.09,2.06-.71,2.12-2.12.27-6.22-.67-12.33-1.48-18.46-.17-1.3-.83-1.81-2.07-1.62-1.74.3-3.52.33-5.27.08-1.47-.23-2.83-.54-3.61-2.58,2.68.14,5.36.06,8.02-.24,1.99-.2,2.91-1.06,2.66-3.14-.31-2.63-.41-5.28-.73-7.91-1.96-16.08-2.91-32.26-2.84-48.45,0-.87-.12-1.74-.2-2.73-2.03-.67-3.76.93-5.63.47-.87-.21-1.84-.37-1.94-1.43-.08-.9.76-1.11,1.47-1.35s1.34-.6,2.03-.84c3.8-1.31,4-1.33,3.48-5.36-.88-6.7-2.02-13.37-3.08-20.05-.54-2.59-.82-5.24-.81-7.89.07-1.45-.23-2.47-1.91-2.95-5.44-1.53-11.03-1.75-16.59-2.25-1.35-.12-1.87.7-2.09,1.77-.27,1.3-.47,2.61-.59,3.93-.49,5.32-1.53,4.59,4.67,6.09,1.56.38,3.27-.16,4.76.68.39.21.68.56.81.98.08.64-.41,1.01-1.04,1.16-3.27.79-6.35-.03-9.51-1.36-.84,4.7-1.69,9.15-2.41,13.63-.5,3.09-.4,3.08,2.48,3.9,1.69.48,3.38,1.01,5.05,1.57.71.24,1.4.68,1.05,1.59-.25.64-.89.61-1.5.5-1.73-.34-3.48-.63-5.2-1-1.51-.32-2.63-.14-2.77,1.72-.02.28-.2.56-.25.85-2.51,15.95-6.22,31.73-7.12,47.92-.14,1.47-.16,2.94-.07,4.41.19,2-1.03,4.9.64,5.82,2.7,1.48,5.9,2.69,9.26,1.77.42-.11.82-.32,1.25-.42.71-.23,1.48.16,1.71.87,0,.02.02.05.02.08.3.88-.36,1.33-.96,1.74-1.28.76-2.79,1.03-4.25.74-.88-.09-1.75-.23-2.61-.41-5.14-1.12-5.2-1.13-5.2,3.9s.13,9.71.25,14.56c.07,2.64.42,3.07,3.19,2.93,2.64-.13,5.25-.61,7.88-.99,1.27-.18,2.59-.8,3.7.76-3.2,2.54-6.99,2.84-10.78,2.96-3.86.12-3.82.06-3.91,3.75-.12,5.35,1.79,33.64,2.71,38.84.06.87.61,1.62,1.42,1.94.96.44.36,1.24-.07,1.8-.41.72-1.32.98-2.04.57-.09-.05-.17-.1-.24-.17-.34-.28-.58-.66-.69-1.09-1.61-6.79-5.2-36.23-4.93-43.65.42-11.46-.33-22.96.03-34.44.4-14.87,2.31-29.65,5.71-44.13,1.08-4.59,1.8-9.25,2.15-13.96.18-3.82.69-7.61,1.52-11.34,1.84-7.19.88-14.68,2.62-21.88.38-1.59-.2-3.47-.54-5.18-1.96-9.91-2.56-20.07-5.98-29.71-3.08-9.09-4.22-18.72-3.32-28.28.18-2.37.22-5.1,3.03-5.78,2.75-.67,4.73,1.26,6.26,3.31.76,1.08,1.31,2.3,1.6,3.59,1.19,5.59,3.1,11,5.69,16.1,1.44,2.68,1.33,5.95,3.11,8.94,3.67-3.03,6.62-6.19,8-10.51.94-2.94,1.76-5.93,2.42-8.94,1.39-6.31,2.65-12.66,3.96-18.99.03-.14.02-.3.06-.44.53-2.21,1.23-4.36,3.81-4.89,1.98-.41,3.37.93,4.81,4.28.19.39.4.77.63,1.14,3.99-.93,5.84-.1,7.53,3.86,1.03,2.42,1.76,4.74,4.42,6.11,1.77.91,2.18,3.08,1.85,5.11-.31,1.93-.05,3.22,2.08,4.14,2.85,1.23,3.18,4.03,2.98,6.78-.52,7.1-3.42,13.28-7.49,18.98-3.66,5.13-7.6,10.06-10.67,15.6-1.75,3.06-3.04,6.35-3.85,9.78-.61,3.16-1.41,6.29-2.38,9.37-.95,2.74-.05,5.82.25,8.75.62,6,2.16,11.85,3.12,17.8,1.06,6.58,1,13.22.92,19.83-.02,13.4.84,26.78,2.57,40.06.22,1.89.27,3.81.38,5.71,1,17.3,3.61,34.5,3,51.89.03,1.03.7,19.2.84,20.22.06.85.35,1.85-.87,2.14-1.23.3-1.91-.41-2.34-1.46-.64-1.81-1.48-20.88-1.33-22.8.15-3.68,0-7.36-.43-11.02,0-.89-.24-1.76-.7-2.51"/>
      <path id="Path_190" d="M82.78,252.35c3.88-.84,7.49-.16,11.04.25,2.66.31,5.21.86,7.67-.7.81-.61,1.96-.46,2.58.35.14.19.25.4.31.63.5,1.18-.41,1.84-1.42,2.32-1.05.55-2.23.8-3.41.73-4.97-.51-9.93-1.1-14.88-1.69-.75-.09-1.35-.52-1.88-1.89"/>
      <path id="Path_191" d="M101.37,273.55c-3.39,3.09-7.41,2.45-11.45,1.69-.61-.11-1.05-.63-1.08-1.25.02-.59.52-1.06,1.11-1.03h.07c3.36.18,6.73-.04,10.03-.65.54-.09,1.08.35,1.31,1.24"/>
    </g>
  </g>
  <g id="Group_103">
    <g class="st2">
      <g id="Group_102">
        <path id="Path_209" d="M140.39,111.56c.22.75.06,1.57-.44,2.18-1.57,2.63-3.61,5.02-3.95,8.24,0,.41-.33.75-.74.76-.06,0-.13,0-.19-.03-.43-.12-.79-.39-1.03-.77-1.21-2.81,2.35-10.19,5.22-10.9.45-.14.94.08,1.12.52"/>
        <path id="Path_210" d="M147.98,118.16c1.12-.32,2.1-.66,2.65.41.32.75.01,1.62-.7,2.03-1.91,1.33-3.71,2.81-5.39,4.42-.47.45-1.22.47-1.71.04-.48-.41-.67-1.06-.51-1.66.44-3.46,3.45-4.05,5.65-5.23"/>
        <path id="Path_211" d="M147.88,137.3c-.78-2.09-.58-3.72,1.23-4.59,1.87-.85,4.05-.68,5.75.47.33.32.49.77.44,1.23-.1.64-.68,1.09-1.32,1.05-2.18-.02-4.05,1.08-6.1,1.85"/>
      </g>
    </g>
  </g>
</svg>