<svg xmlns="http://www.w3.org/2000/svg" width="86.774" height="332.512" viewBox="0 0 86.774 332.512">
  <g id="Group_124" data-name="Group 124" transform="translate(-1442.003 -689.114)">
    <g id="Group_99" data-name="Group 99" transform="translate(64)">
      <path id="Path_184" data-name="Path 184" d="M2440.313,139.017c-.106-.216-.285-.577-.464-.941a7.921,7.921,0,0,0-.619,1.3c-.131.481.2.77.665.706.51-.068.569-.468.418-1.066m13.623-1.709c-.422,1.522-.339,2.5.986,3.135.5-1.269.155-2.117-.986-3.135m5.7-.951a1.417,1.417,0,0,0-.995,1.711c.07.562.263,1.225,1.03,1.1.7-.114,1.531-.343,1.234-1.343-.186-.624-.276-1.481-1.269-1.47m-15.471,1.159c1.276,4.126,1.276,4.126,6.4,3.227-1.444-3.852-1.527-3.9-6.4-3.227m27.11-57.131c-.88,2.868-1.724,5.482-2.481,8.121-.727,2.533-1.361,5.093-2.039,7.642-.442,1.662.825,2,1.916,2.36,1.26.416,1.345-.657,1.667-1.448a25.585,25.585,0,0,0,.938-16.675m3.251,18.779c3.909-1.737,4.018-1.711,4.273-2.811,1.208-5.143,1.652-10.286-.1-15.6a3.365,3.365,0,0,0-2.236,3.649,29.235,29.235,0,0,1-.118,6.154c-.387,2.721-1.122,5.392-1.824,8.613m-30.4-56.033a2.351,2.351,0,0,0-1.594,1.89c-3.625,9.836-4.255,20.046-3.583,30.379.285,4.4.838,8.779.372,13.205-.155,1.464-.656,2.547-2.126,3a3.854,3.854,0,0,1-3.7-.869,7.6,7.6,0,0,1-1.932-2.918q-3.6-7.562-7.1-15.172a14.79,14.79,0,0,0-4.5-5.892c-.869-.656-1.871-1.144-2.839-.5-.843.558-.512,1.554-.348,2.429a41.216,41.216,0,0,0,3.927,10.728,62.162,62.162,0,0,1,5.835,18.446c1.811,11.748,5.17,22.883,11.122,33.222a4.558,4.558,0,0,0,3.62,2.693,34.735,34.735,0,0,0,16.117-1.295,13.441,13.441,0,0,1,5.161-.89c3.566.192,4.187-.372,5.091-3.955.858-3.419,1.761-6.83,2.514-10.273.614-2.8,1.359-5.4,4.251-6.79a1.217,1.217,0,0,0,.619-1.785c-1.9-.508-3.08.962-4.3,1.794-4.55,3.115-8.7-.1-8.961-4.771-.23-4.15-.359-8.2,1.022-12.192.7-2.026,1.1-3.982-1.492-5.211-1.258-.6-1.617-1.94-1.824-3.338a27.192,27.192,0,0,1,.065-9.644c.661-3.161,1.4-6.305,2.133-9.451,1.5-6.423,3.547-12.768,2.676-19.519-.269-2.07.6-5.235-1.881-5.638-2.136-.35-3.345,2.6-4.139,4.592-2.835,7.11-5.627,14.257-4.863,22.179a12.878,12.878,0,0,1-1.634,7.655c-1.308,2.334-3.106,3.3-4.936,2.748-2.419-.728-2.4-2.671-2.34-4.638.013-.444.048-.884.044-1.324-.053-9.539.293-19.085-.49-28.889m11.182,101.255c1.765,5.329,1.86,10.576,1.814,15.854-.07,8.377-.015,16.755-.088,25.132a166.677,166.677,0,0,1-2.1,22.384c-1.507,10.383-2.179,20.74-.871,31.2.51,4.08.514,8.223.729,12.336.722,13.649,1.376,27.3,2.164,40.945q1.233,21.352,2.691,42.691c.392,5.7,2.026,11.269,2.05,17.034.015,3.378.219,6.755.339,10.133.033.924-.042,1.912-1.171,2.02-1.183.116-1.367-.972-1.49-1.809-.449-3.056-.77-6.13-1.221-9.182-3.161-21.444-3.8-43.1-5.207-64.681-.735-11.3-.659-22.673-1.534-33.981-.521-6.751-.484-13.526-1.289-20.267-1.284-10.794.811-21.44,1.8-32.131,1-10.835,2.391-21.636,1.678-32.579-.363-5.57-.035-11.184-.075-16.779a29.594,29.594,0,0,0-.378-4.4c-.626-3.944-.659-3.938-5.5-4.041,1.323,7.324-.973,14.487-.691,21.761.177,4.487-1.01,8.755-1.765,13.089a236.051,236.051,0,0,0-3.141,47.893,297.2,297.2,0,0,1-.442,30.4c-.6,8.276.3,16.447.718,24.657.164,3.229.577,6.443.514,9.69-.081,4.13.578,8.208.919,12.308,1.326,15.973,2.387,31.967,3.792,47.935.393,4.478,1.328,9.033.337,13.584a23.855,23.855,0,0,1-.514,2.581,1.441,1.441,0,0,1-1.746.978,1.369,1.369,0,0,1-1.085-1.225,3.7,3.7,0,0,1-.081-.875c.9-14.353-2.125-28.436-2.9-42.667-1-18.374-3.2-36.676-3.513-55.079-.206-12.065.341-24.142.474-36.217.083-7.511-.2-15.032.073-22.533.438-12.067,1.42-24.093,3.982-35.939a42.266,42.266,0,0,0,1.151-9.63,82.174,82.174,0,0,1,1.022-14.087,14.876,14.876,0,0,0,.215-1.75c.179-4.4-.357-5.006-5.349-5.806-.475,8.469-2.562,16.725-2.848,25.211a56.877,56.877,0,0,1-1.481,11.265c-.486,2.05-.109,4.1-.367,6.14-.932,7.4-1.8,14.817-2.67,22.229a183.941,183.941,0,0,0-.991,20.652c-.065,11.921.492,23.82,1,35.727.787,18.512,1.3,37.034,2.176,55.541.228,4.8.414,9.69,1.995,14.356a8.7,8.7,0,0,1,.178,3.056,174.24,174.24,0,0,0,.741,19.783c.243,3.3-.811,6.41-1.658,9.525-.276,1.011-.529,2.645-2.135,2.264s-1.17-1.84-.831-2.936a35.48,35.48,0,0,0,.938-14.445,103.716,103.716,0,0,1-.553-12.765,9.526,9.526,0,0,0-.274-3.063c-2.2-6.688-2.115-13.649-2.417-20.534-.665-15.143-.98-30.3-1.658-45.443-.7-15.587-1.083-31.181-1.446-46.775-.17-7.239,1.177-14.356,1.7-21.538.989-13.505,3.769-26.823,4.135-40.4a67.131,67.131,0,0,1,1.354-10.057c.867-4.78.354-9.624.869-14.437.343-3.177-1.527-6.219-3.19-9.027a61.723,61.723,0,0,1-7.141-19.361c-1.38-6.771-2.94-13.509-4.612-20.214a54.96,54.96,0,0,0-4.622-11.437,33.472,33.472,0,0,1-2.868-8.783c-.664-3.4.928-5.128,4.375-4.73,3.874.446,6.747,2.647,9.009,5.747,2.188,2.991,3.42,6.469,5.08,9.729,1.116,2.192,1.792,4.618,3.73,7.316.711-2.763.25-4.83.051-6.9a85.314,85.314,0,0,1,2.975-33.64,17.506,17.506,0,0,1,3.179-6.26c1.079-1.284,2.4-2.38,4.19-1.8a3.767,3.767,0,0,1,2.64,4.115c-.24,8.1,1.461,16.128.8,24.246a5.886,5.886,0,0,0,.407,3.463,2.507,2.507,0,0,0,.381-2.081c-.726-8.048,2.072-15.373,4.688-22.719a14.045,14.045,0,0,1,5.4-6.823,3.624,3.624,0,0,1,4.837.122,10.585,10.585,0,0,1,4,7.989c.549,7.473-1,14.616-2.836,21.735A81.184,81.184,0,0,0,2463.6,80.84a9.123,9.123,0,0,0,.816,4.794c1.6-1.429,1.429-3.5,2.082-5.227.411-1.092.486-2.31.891-3.406,1.606-4.319,3.172-4.594,6.235-1.2.86.954,1.514,1.737,3.293,1.236,3.89-1.1,6.484.663,7.125,4.874a36.214,36.214,0,0,1,.323,11.86c-.829,4.611-1.944,9.173-2.929,13.758-.378,1.755-.816,3.68-2.308,4.655-4.338,2.837-4.7,7.581-5.968,11.838-2.124,7.144-1.888,14.517-1.51,21.855.339,6.59.761,13.186,1.125,19.768.414,7.475,1.394,14.881,1.857,22.343a199.131,199.131,0,0,0,5.4,36.06c2.313,9.269,4.167,18.639,6.425,27.913,1.709,7.027,2.584,14.176,3.762,21.278,1.414,8.545,2.6,17.129,3.936,25.685,1.249,8,1.731,16.077,2.658,24.1.875,7.581,1.275,15.2,2.225,22.783.969,7.753.934,15.808-2.42,23.316-1.525-.335-.988-1.406-.932-2.15a130.844,130.844,0,0,0-1.337-28.6c-1.28-8.724-1.9-17.548-2.708-26.337-1.124-12.175-3.315-24.2-4.918-36.305-2.418-18.27-6.758-36.121-11.1-54a242.427,242.427,0,0,1-5.445-34.4c-1.192-12.6-1.956-25.235-3.037-37.841a78.465,78.465,0,0,1-.518-7.832c-2.3-.039-2.719,1.151-2.448,2.872,1.344,8.481-.057,17.106,1.007,25.529,1.343,10.641.007,21.148-.212,31.708-.212,10.28-.079,20.557.227,30.826.214,7.178.162,14.382,1.275,21.521,1.225,7.847,2.676,15.683,3.387,23.581,1.2,13.358,4.581,26.357,6.067,39.65.9,8.033,1.551,16.1,2.292,24.146q.768,8.35,1.47,16.7a35.124,35.124,0,0,1,.1,3.958,1.684,1.684,0,0,1-3.363.149c-.127-1.02-.068-2.063-.2-3.082-1.871-14.168-2.615-28.447-4.281-42.63-.635-5.4-1.418-10.809-2.461-16.147-2.964-15.181-4.1-30.615-6.529-45.878-1.687-10.613-1.478-21.431-1.651-32.177-.218-13.4-.033-26.8,1.053-40.177a36.445,36.445,0,0,0-.374-9.254,59.269,59.269,0,0,1-.628-11.444c.09-5.007.267-10.013-.674-14.981-.558-2.949-.475-2.969-3.549-2.575-.431.055-.853.2-1.812.429" transform="translate(-1034.806 652.44)"/>
    </g>
  </g>
</svg>
