<svg xmlns="http://www.w3.org/2000/svg" width="159.323" height="343.303" viewBox="0 0 159.323 343.303">
  <g id="Group_126" data-name="Group 126" transform="translate(-1685.115 -680.862)">
    <path id="Polygon_3" data-name="Polygon 3" d="M40.5,0,81,70H0Z" transform="translate(1703 791)" fill="#9fff4d"/>
    <path id="Polygon_5" data-name="Polygon 5" d="M40.5,0,81,70H0Z" transform="translate(1703 912)" fill="#9fff4d"/>
    <path id="Polygon_4" data-name="Polygon 4" d="M40.5,0,81,70H0Z" transform="translate(1814 941) rotate(180)" fill="#9fff4d"/>
    <g id="Group_98" data-name="Group 98" transform="translate(850.115)">
      <g id="Group_94" data-name="Group 94">
        <path id="Path_193" data-name="Path 193" d="M231.258,197.524c.971-5.513.569-9.516-.921-12.238.346,4.607.634,8.423.921,12.238m5.6-4.446c.492-2.131.991-4.261,1.472-6.394.149-.661.573-1.542-.566-1.663-.986-.107-1.074.816-1.2,1.5a15.316,15.316,0,0,0,.291,6.554m-24.086-6.32c-.169,3.376-.86,6.751.4,10.007,1.418-3.4.56-6.731-.4-10.007m12.94,10.3a17.256,17.256,0,0,0-.225-10.155,23.5,23.5,0,0,0,.225,10.155m-17.794-8.887c-.44-.048-.877-.1-1.317-.142a65.783,65.783,0,0,1-1.624,7.858c-.339,1.094.507,1.859,1.775,1.868,1.361.011,1.157-.967,1.161-1.8.013-2.6.005-5.191.005-7.786m8.851-1.289a4.856,4.856,0,0,1,1.015,2.689,31.753,31.753,0,0,1,.549,5.642c-.026.652.085,1.6,1.015,1.683,1.279.118,1.326-1.009,1.326-1.807,0-2.045-.308-4.093-.238-6.13.094-2.706-1.273-2.862-3.667-2.078m29.4,193.082c-.278,2.384-.89,4.4-.669,6.32a133.62,133.62,0,0,1,.6,18.882c-.033,1.184-.138,2.855,1.3,2.822,1.527-.037,1.083-1.789,1.062-2.855q-.212-11.019-.55-22.041a2.884,2.884,0,0,0-1.748-3.128m.405-31c-.468-4.135-.941-8.212-1.389-12.288-.4-3.641-.762-7.287-1.155-10.928a1.367,1.367,0,0,0-1.387-1.394c-.908,0-1.254.678-1.2,1.472a48.022,48.022,0,0,0,.477,4.8,121.865,121.865,0,0,1,2.054,18.272c.026,1.437-.906,4.36,1.68,4.148,2.035-.168.226-2.741.921-4.085m-10.366-26.261a2.9,2.9,0,0,0-.7,2.857c.527,5.992,1.245,12.011.77,18-.254,3.2,1.29,5.822,1.536,8.788a.8.8,0,0,0,.958.681c.446-.066.844-.287.851-.812.007-.731-.05-1.464-.05-2.2.007-7.073-1.157-14.038-2.061-21.017-.251-1.932.133-4.084-1.3-6.3m-4.985-86.418a7.423,7.423,0,0,0,.216-1.512c-.5-5.25-1.6-10.442-1.422-15.758.079-2.327-1.429-2.844-3.756-2.9.062,6.309.645,12.448.252,18.584-.059.923.611,1.232,1.4,1.295,1.01.081,1.951.7,3.308.291m-8.585-10.853h-.566q0-4.38,0-8.757c0-1.137-.3-2-1.7-1.991-1.363.009-1.72.816-1.753,1.98-.155,5.555-.136,11.109.118,16.662a1.9,1.9,0,0,0,2.2,2.068c1.348,0,1.687-.947,1.695-2.074.016-2.628.005-5.259.005-7.889m18.98,171.505c-.286-5.231-.6-11.078-.928-16.924-.05-.91-.212-1.816-1.455-1.647-.949.127-1.006.89-1,1.645a12.656,12.656,0,0,0,.033,1.755,63.472,63.472,0,0,1-.033,15.738c-.146,1.437-.492,2.942.4,4.277.853,1.271.477,2.54.028,3.776-.352.967-1.1,1.921.545,2.37,1.775.484,2.407-.413,2.409-2.039Zm-43.57-179.493q-.876-.113-1.75-.223c-.921,7.464-3.953,14.426-4.844,22.011a6.59,6.59,0,0,0,4.94-1c.713-.5.435-2.369.665-3.61.186-1,.459-2,.7-2.991,1.17-4.756.311-9.462.285-14.191m42.3,58.094c-.148-2.663-.4-7.336-.671-12.008-.044-.757-.238-1.47-1.144-1.6-1.212-.183-1.591.742-1.612,1.59-.05,1.892.111,3.789.192,5.682.3,7.007.582,14.014.923,21.017.044.9-.265,2.343,1.352,2.175,1.175-.124.943-1.286.949-2.109.024-4.242.011-8.488.011-14.743M193.291,393.417c.186,0,.37,0,.555,0,.145-1.757.273-3.518.438-5.274a51.649,51.649,0,0,0-.311-11c-.118-.985-.435-1.7-1.588-1.658s-1.413.753-1.415,1.768c0,.873-.273,1.756-.208,2.619.647,8.772.054,17.56.379,26.336.026.711-.3,1.656.7,1.7.925.039,1.5-.575,1.479-1.728-.068-4.253-.028-8.512-.028-12.767M209.762,235.5c1.19,0,1.916.005,2.642,0,2.083-.017,2.674-1.068,2.534-3.091-.367-5.255-.81-10.518-.239-15.793.164-1.523-.632-2.135-2.067-2.109-1.219.02-2.264.033-2.275,1.805-.04,6.267-.921,12.516-.6,19.188m5.994,115.383c-.626-4.588-1.2-8.348-1.643-12.126a134.323,134.323,0,0,1-1.03-15.775c0-1.011.153-2.2-1.35-2.275-1.742-.085-1.706,1.12-1.652,2.38.068,1.6-.057,3.22.07,4.817q.76,9.632,1.648,19.247a16.083,16.083,0,0,0,.764,3.861c.352,1,1.418.84,2.288.711,1.019-.149.9-.945.9-.84m-14.319-134c.46,5.918,1.641,11.264-.956,16.488-.639,1.286-1.03,2.722-.05,4.109.516-.094.95-.166,1.38-.258,3.951-.84,4.014-.072,4.17-5.123.135-4.26.164-8.525.332-12.785.149-3.795.2-3.8-3.4-2.9-.549.137-1.079.337-1.477.464m5.613,127.729c.042,0,.083-.005.123-.011q-.644-7.9-1.289-15.8c-.183-2.194-.383-4.382-.58-6.572a1.264,1.264,0,0,0-1.45-1.267c-.866.022-1.9-.092-2.072,1.087a10.384,10.384,0,0,0-.077,3.058,193.609,193.609,0,0,1,2.039,22.794,12.757,12.757,0,0,0,.468,2.581,1.76,1.76,0,0,0,2.3,1.448c1.155-.245,1.168-1.144,1.079-2.058-.168-1.752-.356-3.5-.536-5.255m10.42,38.493c0-2.33.035-3.942-.013-5.55-.033-1.125.184-2.448-1.551-2.614-1.836-.175-1.744,1.159-1.792,2.306-.072,1.755-.031,3.514-.079,5.272-.21,7.893,1.5,15.686,1.2,23.581-.037.962.551,1.275,1.361,1.284.713.009,1.579.052,1.706-.9a34.416,34.416,0,0,0,.171-3.5,162.92,162.92,0,0,0-1.008-19.882m-15.813,8.25c-.068,0-.136,0-.2,0,0-4.27.013-8.539-.009-12.813a14.691,14.691,0,0,0-.236-3.054c-.19-.866-1.037-.93-1.789-.844a1.165,1.165,0,0,0-1.1,1.149c-.05.735-.031,1.474-.018,2.209a171.593,171.593,0,0,1-.759,21.6,14.818,14.818,0,0,0,1.1,6.386,1.6,1.6,0,0,0,1.885,1.326c1.243-.081,1.184-.822,1.168-1.826-.079-4.71-.035-9.423-.035-14.135M216.2,273.489h-.566q0-7.706,0-15.413c0-1.1-.219-2.153-1.623-2.093-1.056.046-1.409.925-1.555,1.833-.118.722-.124,1.463-.23,2.188a46.265,46.265,0,0,0,.111,12.284c.6,5.126-.064,10.263-.063,15.4,0,1.529.249,2.518,2.087,2.573,2.159.061,1.835-1.387,1.838-2.68q.011-7.045,0-14.089m10.949,63.038h.291c0,3.805-.005,7.611.006,11.416a18.634,18.634,0,0,0,.1,2.63c.308,2.135,2.061,1.732,3.421,1.728,1.549,0,1.319-1.144,1.155-2.216a69.506,69.506,0,0,1-.309-10.529c-.006-5.134-.514-10.23-.96-15.336-.151-1.724-.869-2.977-2.59-2.82-1.658.151-1.081,1.783-1.1,2.833-.053,4.1-.02,8.195-.02,12.293m-18.989-79.778c-2.625-.217-3.5.79-3.492,2.8.018,3.078.075,6.159-.043,9.232-.219,5.7-.545,11.406-.84,17.108a8.989,8.989,0,0,0,.538,3.866c.464,1.173,1.322.912,2.163.831.753-.076,1.571-.287,1.486-1.229-.424-4.706,1.122-9.315.626-14.025a86.461,86.461,0,0,1-.439-18.58m14.848,79.339h-.4c0-4.4-.013-8.794.007-13.189.005-1.5.227-2.912-2.105-2.918-2.22-.006-2.818,1.1-2.824,2.969-.006,1.755-.042,3.514.026,5.268a107.28,107.28,0,0,0,2.639,21.763c.217.879.538,1.842,1.6,1.772,1.221-.079,1.041-1.208,1.044-2.034.026-4.544.013-9.088.013-13.632M205.592,374.6c0,2.372-.027,4.412,0,6.452.12,7.74.273,15.478.376,23.216.02,1.564,0,2.87,2.188,2.953,2.1.081,2.49-1.031,2.485-2.691,0-.879-.046-1.757-.033-2.636.123-8.066-1.38-16.057-1.116-24.13.1-3.257.018-3.26-3.9-3.165m-16.3-52.31c.328,10.061-.12,19.652,1.111,29.514,3.133-1.486,6.15-.652,9.027-1.287-.107-1.973-.275-3.73-.282-5.487-.028-7.517-1.514-14.909-1.857-22.4-.033-.731-.07-1.523-1.1-1.508-1.175.015-1.52.746-1.264,1.763a40.282,40.282,0,0,1,.694,5.677c.555,5.236.148,10.554,1.407,15.737.365,1.5-.494,2.035-2.05,1.615-1.766-.479-2.185-1.835-2.332-3.349-.51-5.264-.948-10.534-1.473-15.8-.14-1.4.18-3-1.883-4.482m44.943,85.1c-1.227-3.588-.848-6.856-.387-10.013.925-6.344.451-12.63-.177-18.935-.085-.856-.009-1.879-1.321-1.8-1.131.064-1.437.959-1.488,1.855a23.165,23.165,0,0,0-.029,5.692c1.14,6.066.385,12.317,1.844,18.376.359,1.494.024,3.384-2.09,3.815-1.693.343-3.2-1.068-3.126-3.2.3-8.412-1.334-16.734-1.114-25.134.037-1.429-.278-2.212-1.861-2.291-1.468-.074-2.225.5-2.352,1.94a13.189,13.189,0,0,0-.129,1.761c.392,8.524.823,17.046,1.2,25.572.083,1.949,1.109,2.452,2.868,2.393,2.638-.087,5.281-.022,8.166-.022m1.827-191.717c0-4.2-.006-7.414,0-10.63a3.043,3.043,0,0,0-1.588-2.9,12.4,12.4,0,0,0-6.4-2.291c-2.772-.083-5.843,1.359-8.484-.829a1.734,1.734,0,0,0-1.606.23c-1.019,2.413-2.6,1.892-4.3.967-.552-.3-1.359-.512-1.639-.085-1.612,2.459-3.087,1.024-4.837.151-2.247-1.122-4.386-.516-5.281,1.47a47.937,47.937,0,0,0-4.135,13.247c12.991-5.183,25.5-4,38.261.671m3.313,42.842a15.611,15.611,0,0,0-.086-5.467c-1.236-10.223-1.709-20.5-2.166-30.772-.026-.588-.052-1.173-.083-1.763-.052-.963-.414-1.814-1.448-1.9-1.262-.1-1.33,1.026-1.3,1.833.138,3.817.028,7.692.7,11.419.468,2.6-.6,5.627,1.956,7.85.868.755-.175,1.846-1.1,1.593a86.031,86.031,0,0,0-12.4-2.14c-2.462-.3-4.9-.9-7.4-.718a133.83,133.83,0,0,0-23,3.87c-1.4.354-1.96.943-2.032,2.33-.158,3.063-.468,6.119-.624,9.182-.131,2.512.366,3.049,2.743,2.352a106.365,106.365,0,0,1,15.143-2.931c9.917-1.4,19.656-1.341,28.409,4.642a2.674,2.674,0,0,0,2.674.619M247.486,376.8a77.029,77.029,0,0,0-.1-16.342c-.125-1.221-.164-2.667-2.039-2.925-4.511-.615-9-1.394-13.507-2.048-1.332-.194-2.465-.109-3.271,1.463a2.209,2.209,0,0,1-3.747.379c-1.934-2.7-4.583-2.015-7.108-2.221-4.4-.357-8.817.6-13.2-.077-4.609-.711-9.186-1.687-14.235-1.057.291,5.913.582,11.848.886,18.014a127.937,127.937,0,0,1,28.438.053c9.322.951,18.716,1.4,27.885,4.761m-58.333-57.9c18.18-1.477,36.11-3.61,54.4,2.391-.939-8.256-1.8-15.662-2.614-23.074-.181-1.656-.969-2.2-2.612-2.1A49.383,49.383,0,0,1,224.746,295a59.057,59.057,0,0,0-30.4.812,4.163,4.163,0,0,1-3.01.118c-2.614-1.24-2.765.659-2.7,2.24.286,6.828.621,13.653.52,20.726m53-200.522a30.044,30.044,0,0,0-7.139,15.4,54.961,54.961,0,0,1-3.342,11.855c-.646,1.606-1.812,2.695-3.789,2.26-2.21-.488-2.091-2.245-1.962-3.842a60.671,60.671,0,0,1,1.728-9.994c1.262-4.994,2.52-9.991,3.616-15.019.464-2.137,1.129-4.445-.775-6.836-5,6.887-8.1,14-7.747,22.255a19.718,19.718,0,0,1-1.155,7.351c-.6,1.761-1.369,3.964-3.677,3.839-2.759-.151-2.75-2.664-2.986-4.68-.709-6.079.6-12.017,1.328-18,.3-2.481.678-4.953.949-7.438.129-1.186.129-2.674-1.236-2.962-1.516-.32-1.639,1.22-2.007,2.3-1.743,5.139-3.658,10.21-4.944,15.509-1.691,6.979-3.647,13.859-2.546,21.2a11.723,11.723,0,0,1-1.022,7.751c-1.626,2.835-4.251,3.192-6.471.827a7.737,7.737,0,0,1-1.262-1.807c-2.181-4.332-5.213-8.188-7.071-12.708-.685-1.671-1.374-3.52-3.673-4.01-.486,2.494-1.538,4.758-.787,7.125,1.241,3.907,2.242,7.972,4.1,11.582,3.957,7.685,8.392,15.128,12.653,22.658.761,1.346,1.7,2.459,3.531,1.787,2.138-.788,4.377-.348,6.569-.483,7.344-.449,14.714-.436,22.026-1.4a3.354,3.354,0,0,0,3.271-2.828A183.635,183.635,0,0,1,251.006,147.2a68.343,68.343,0,0,0,5.053-12.7,8.424,8.424,0,0,0,.118-5.507,16.232,16.232,0,0,0-5.1,5.62,90.1,90.1,0,0,0-5.541,11.041c-.906,2.026-2,3.96-4.172,4.957-3.06,1.407-5.848-.168-5.784-3.448a23.746,23.746,0,0,1,.871-6.543c1.354-4.352,2.21-8.84,3.829-13.126a21.023,21.023,0,0,0,1.879-9.116M196.107,292.039c3.73-1.074,3.76-1.076,3.667-4.988a60.842,60.842,0,0,1,.538-8.775c.724-5.994.486-12.023.51-18.044.007-2.148-1.041-2.459-2.759-2.124-1.942.379-3.242,1.4-3.286,3.513q-.08,3.738-.022,7.482c.068,5.123.753,10.212.074,15.371-.332,2.514-.65,5.334,1.306,7.556a19.946,19.946,0,0,1-2.2-.068c-2.732-.377-3.443-1.05-3.135-3.675.95-8.088.123-16.163-.044-24.244-.013-.621.6-1.757-.993-2.069-1.987,10.571-.985,21.116-1.024,31.573,2.9.718,4.9-1.484,7.373-1.509m30.033-.122c2.291.142,4.531,1.172,6.926.4.7-1.509.459-3.141.4-4.725-.346-8.793-.742-17.585-1.137-26.377a5.367,5.367,0,0,0-.33-2.138,3.426,3.426,0,0,0-3.34-1.68c-1.206.028-1.162,1.107-1,2,1.84,10.132.591,20.486,2.22,30.628.18,1.112-.208,1.715-1.22,1.859a20.085,20.085,0,0,1-2.623.031,17.163,17.163,0,0,1-1.343-7.174c.066-2.936-.074-5.878.005-8.812.158-5.754-.67-11.426-1.254-17.121-.225-2.192-.925-3.773-3.422-2.831-.8,10.07.267,20,.453,29.941.077,4.17,1.339,5.467,5.666,6M202.3,157.019a9.332,9.332,0,0,0,.757-5.244c-1.1-7.027.418-13.818,2.1-20.512,1.47-5.835,3.577-11.51,5.4-17.256a4.727,4.727,0,0,1,.28-.836c.963-1.781,1.592-3.94,4.266-3.831,2.374.1,4.8,2.356,5.658,4.863.844,2.467-.567,4.837-.048,7.759,1.984-3.78,3.386-7.34,5.548-10.49,1.264-1.836,2.325-3.892,5.133-3.174,2.713.691,3.7,2.792,3.973,5.244a55.881,55.881,0,0,1,.04,5.929c1.831-.315,2-2.008,2.875-3.01,1.424-1.619,2.656-3.735,5.36-3.124,1.781.4,2.643,2.651,2.6,5.961-.064,5.126-2.516,9.624-3.669,14.461-.941,3.947-3.015,7.646-2.748,12.079,1.709-.792,1.866-2.383,2.43-3.628a57.62,57.62,0,0,1,6.285-11.125c2.054-2.73,4.4-5.2,8.335-4.948,2.652.171,3.693,1.035,4.049,3.669a15.218,15.218,0,0,1-1.47,8.158c-2.339,5.379-4.708,10.75-7.27,16.023-3.727,7.667-6.359,15.706-8.965,23.8-1.253,3.887-.311,7.943-1.851,11.706-1.581,3.855-1.473,8.064-1.765,12.1-.164,2.267.7,4.7.849,7.152.317,5.4.624,10.761.663,16.193a178.826,178.826,0,0,0,1.5,23.292c.943,6.8,1.995,13.678,1.842,20.5-.14,6.274-.044,12.549-.1,18.814-.064,7.447,1.58,14.8,2.24,22.2.9,10.147,3.063,20.109,3.824,30.262.711,9.519,1.884,19.013,2.332,28.543.361,7.72-.085,15.48-.112,23.222-.02,5.533.068,11.068.087,16.6,0,1.018-.221,2.031.685,2.872.42.39.729,1.229.26,1.6-3.673,2.888-2.358,7.53-4,11.118-.3.656-.357,1.436-.706,2.057a1.756,1.756,0,0,1-2.2.984c-.914-.335-.693-1.166-.569-1.87.5-2.9,1.05-5.786,1.547-8.683.352-2.045-.241-3.1-2.562-3.662a84.656,84.656,0,0,0-19.239-2.2c-9.12-.07-18.241-.357-27.361-.331-7.828.022-7.837.155-9.775,7.729-.291,1.135-.379,2.321-.685,3.452a1.627,1.627,0,0,1-1.962,1.337c-1.059-.234-.654-1.14-.519-1.807,2.085-10.36.989-20.84,1.087-31.266.107-11.63-.637-23.246-1.4-34.854-.772-11.765-.385-23.549-.543-35.327-.14-10.591.206-21.19-.42-31.776a134.274,134.274,0,0,1,1.827-31.229,63.15,63.15,0,0,0,.569-9.685,55.607,55.607,0,0,1,1.984-13.946c1.267-4.527,2.21-9.151,3.2-13.75a72.727,72.727,0,0,1,6.323-18.3c1.612-3.1,3.785-5.861,4.448-9.435a5.794,5.794,0,0,0-.733-4.562c-4.542-7.217-8.641-14.694-12.8-22.137-2.77-4.955-4.045-10.4-5.863-15.666a11.472,11.472,0,0,1-.125-5.7c.762-4.286,4.316-5.64,7.81-2.966a12.606,12.606,0,0,1,3.89,5.786c1.381,3.588,3.857,6.567,5.677,9.915a1.552,1.552,0,0,0,1.721.945" transform="translate(693.257 597.049)"/>
        <path id="Path_194" data-name="Path 194" d="M600.778.919a4.975,4.975,0,0,1-.525,1.041c-2.05,2.5-4.7,4.443-6.521,7.162a1.579,1.579,0,0,1-2.347.307c-1.013-.656-.84-1.416-.269-2.221A25.272,25.272,0,0,1,598.925.222a1.2,1.2,0,0,1,1.853.7" transform="translate(377.271 680.857)"/>
        <path id="Path_195" data-name="Path 195" d="M5.079,64.539a2.228,2.228,0,0,1,2.511.891c2.19,2.94,4.307,5.944,7.36,8.1a1.367,1.367,0,0,1,.582,1.884c-.47.812-1.24.483-1.936.245a9.235,9.235,0,0,1-4.926-4.2C7.4,69.352,6.389,67.094,5.079,64.539" transform="translate(831.064 630.884)"/>
        <path id="Path_196" data-name="Path 196" d="M11.146,116.866a2.293,2.293,0,0,1-3.039.455,13.455,13.455,0,0,1-6.32-6.491c-.269-.543-.413-1.129.142-1.59a.973.973,0,0,1,1.523.166c1.98,3.054,5,5.093,7.694,7.46" transform="translate(833.799 596.429)"/>
        <path id="Path_197" data-name="Path 197" d="M0,162.356c3.17.549,5.7,2.406,8.759,2.875a1.336,1.336,0,0,1,1.2,1.884,1.312,1.312,0,0,1-1.835.674c-3.17-1.116-6.607-1.875-8.127-5.434" transform="translate(835 555.043)"/>
        <path id="Path_198" data-name="Path 198" d="M637.277,47.939c-2.01,1.835-3.988,3.708-6.049,5.482a1.515,1.515,0,0,1-2.024-.007,1.227,1.227,0,0,1-.077-1.923c2.092-2.179,4.174-4.45,8.151-3.551" transform="translate(347.79 643.867)"/>
        <path id="Path_199" data-name="Path 199" d="M683.061,124.048c-1.26,2.019-3.549,2.636-4.62,4.644-.455.851-1.289,1.273-2.107.429a1.645,1.645,0,0,1-.005-2.356c1.82-1.849,3.968-3.074,6.732-2.717" transform="translate(311.262 584.778)"/>
      </g>
    </g>
  </g>
</svg>
