<?xml version="1.0" encoding="UTF-8"?>
<svg id="Layer_1" xmlns="http://www.w3.org/2000/svg" xmlns:xlink="http://www.w3.org/1999/xlink" version="1.1" viewBox="0 0 156 357">
  <!-- Generator: Adobe Illustrator 30.3.0, SVG Export Plug-In . SVG Version: 2.1.3 Build 182)  -->
  <defs>
    <style>
      .st0 {
        fill: none;
      }

      .st1 {
        fill: #ffe200;
      }

      .st2 {
        fill: #fff;
      }

      .st3 {
        clip-path: url(#clippath);
      }
    </style>
    <clipPath id="clippath">
      <rect class="st0" y="0" width="156" height="357"/>
    </clipPath>
  </defs>
  <path class="st2" d="M64.48,82.02l-16.85,2.8s-4.29,3.96-3.63,5.94,6.59,3.16,6.59,3.16h4.96l7.44,10.15,11.7,6.21.22,21.71-15.49,38.44-6.43,39.38.78,74.37.63,27.51,4.45,45.3h60.75l-1.86-61.62v-54.99l-9.54-61.89-7.77-37.8-6.04-13.15,3.4-7.41,12.87-23.1,2.52-22.1-5.91-9.1-26.71-.15-2.56,4.29-7.32-3.74-5.57,11.42-.63,4.37Z"/>
  <g class="st3">
    <g id="hand_03">
      <circle id="Ellipse_19" class="st1" cx="58.36" cy="170.97" r="17.5"/>
      <circle id="Ellipse_20" class="st1" cx="102.36" cy="180.97" r="17.5"/>
      <circle id="Ellipse_22" class="st1" cx="76.36" cy="285.97" r="17.5"/>
      <circle id="Ellipse_23" class="st1" cx="103.36" cy="258.97" r="23.5"/>
      <circle id="Ellipse_21" class="st1" cx="80.36" cy="216.97" r="17.5"/>
      <g id="Group_96">
        <path id="Path_186" d="M84.21,84.88c-.95-1.44-2.32-1.39-3.19-2.16-.48-.42-.98-.66-1.36.12-.31.66-.74,1.44.18,1.86,1.3.6,2.67,1.15,4.38.17M72.1,83.38c1.08-.47,3.31,1.03,3.48-1,.14-1.64-2.33-1.14-3.48-1.9-.31-.21-.84-.09-1.28-.1-1.21-.03-1.36.8-1.39,1.73-.02.84.3,1.38,1.22,1.37.43,0,.86-.06,1.44-.11M85.6,66.6c-2.38,1.43-4.13,2.88-3.88,5.01.21,1.75,2.33,1.07,3.75,1.27.81-1.89.73-3.72.13-6.28M80.57,87.06c-1.29-.25-1.54.45-1.58,1.46-.07,1.98.91,3.88,2.1,3.7,1.67-.26,2.34-1.6,2.47-3.12.2-2.4-1.99-1.42-2.98-2.03M69.21,85.72c-.04,1.4.05,2.79.25,4.17.39,1.68,1.37,2.93,3.42,2.63,1-.14,2.29-.03,2.22-1.48-.06-1.21-1.27-.91-2.07-1.06-.44-.03-.87-.09-1.3-.17-.67-.22-1.56-.39-1.5-1.29s.87-1.08,1.64-1.02c.88.07,1.75.27,2.62.28.46-.03.81-.42.79-.88,0-.46-.32-.98-.73-.92-1.78.16-3.58.07-5.34-.27M81.1,77.08c1.04-.82,2.08-.15,3.05-.32.48-.01.87-.41.86-.89,0-.12-.03-.25-.09-.36-.43-1.15-1.52-1.21-2.53-1.35-.69-.1-1.4-.4-1.84.54-.76,1.43-1.01,3.09-.7,4.68.45,1.83,2.22,1.59,3.58,1.83.57.08,1.11-.31,1.19-.88,0-.04,0-.08.01-.12.07-1.4-1.1-1.5-2.05-1.8-.69-.15-1.26-.66-1.49-1.33M71.1,73.14c2.03-2.02,4.38,1.73,6.13-.8-.7-1.11-1.33-2.08-1.94-3.06-.69-1.09-1.61-1.09-2.66-.6-2.16,1.01-3.12,3.71-2.67,7.35.31,2.52,2.41,2.11,4,2.49.83.2,1.83.37,2.14-.81.41-.9,0-1.96-.9-2.36-.09-.04-.18-.07-.27-.1-1.35-.43-2.83-.58-3.82-2.11M81.92,122.43c-1.3,0-2.9-.03-4.5.02-.74-.07-1.4.47-1.47,1.21,0,.03,0,.05,0,.08-.08.76.41,1.46,1.15,1.64,5.16,1.58,10.52,2.47,15.91,2.64,1.27.05,1.83-.67,1.82-1.9,0-1.06-.04-2.23-1.39-2.31-3.78-.24-7.34-2.1-11.52-1.37M55.17,260.71c1.73-.82,3.05-2.31,3.66-4.13.91-2.77,1.75-5.57,2.39-8.41.8-3.56.16-4.38-3.47-4.95-.81-.08-1.62-.12-2.44-.12-.26,5.79.59,11.43-.14,17.61M96.98,141.53c.41-3.64-1.14-6.81-2.52-10.01-.25-.71-.88-1.22-1.63-1.32-2.19-.23-4.38-.43-6.57-.53-1.25-.06-1.74.64-1.74,1.95.02,6.8,5.4,11.16,12.46,9.91M91.16,72.63c1.6-1.06,2.71-.36,3.81-.12.61.13,1.27.2,1.55-.39.64-1.21.51-2.68-.33-3.76-.62-.87-1.82-1.07-2.68-.45-.15.11-.29.24-.41.39-1.47,1.52-3.08,2.98-3.61,5.26-.96,4.16-1.18,8.41-1.72,12.61-.21,1.16-.25,2.35-.14,3.52.3,1.78,1.57,3.25,3.29,3.79,1.29.42,2.27-.92,2.71-2.16-.97-1.44-3.56-.6-3.95-2.89,1.51-.71,2.76-.08,4.03.18.82.17,1.47.03,1.76-.82.3-.88-.19-1.39-.97-1.65-1.62-.56-3.52-.74-3.95-2.9.91-.72,1.7-.32,2.52.06,1.09.5,2.26,1.04,2.84-.65.48-1.37-.04-2.07-1.43-2.64-1.27-.52-3.08-.9-3.1-2.9,1.35-.59,2.24.15,3.2.41.74.2,1.55.43,1.87-.46.37-.71.09-1.58-.62-1.95-.11-.06-.22-.1-.34-.13-1.45-.52-3.16-.65-4.33-2.34M116.01,333.77c1.36-7.21.99-29.14-.5-33.1-9.54,8.46-8.9,28.05.5,33.1M58.5,191.36c5.11-2.61,9.63-6.94,10.36-10.26,1.62-7.46,3.13-14.95,3.43-22.61.1-1.33-.14-2.66-.7-3.87-1.08-2.11-2.67-2.18-3.79-.13-.82,1.55-1.55,3.16-2.16,4.8-2.45,6.31-3.48,12.99-4.99,19.55-.92,3.98-2.03,7.92-2.15,12.52M108.43,195.48c-3.17-14-4.39-27.49-8.69-40.31-.36,0-.72.07-1.07.19-.39.21-.72.5-.98.85-5.43,8.9-7.98,18.2-4.48,28.56,2.37,7.03,7.92,9.22,15.22,10.71M115.56,286.42c1.01-3.28.65-5.77.65-8.24,0-12.9.23-25.81-.99-38.69-.34-3.64-1.29-4.38-4.65-2.21-4.46,2.89-7.74,6.64-8.85,12.06-.47,2.28-1.4,4.47-2.05,6.72-1.23,3.62-1.46,7.5-.67,11.24,2.19,9.13,9.03,13.93,16.55,19.12M108.69,75.32c.31-2.14-.68-4-1.39-5.88-.82-2.16-2.67-1.13-4.17-1.01-1.29.11-2.19.55-2.11,2.14.25,4.91-.86,9.76-1.02,15.29,4.32-3.44,4.17-8.24,5.43-12.31,1.38-.37,2.81.36,3.32,1.69.1,2.35-.33,4.69-1.26,6.85-.95,2.41-1.52,5.61-4.29,6.32-2.93.75-3.95,2.94-5.57,4.85-4.05,4.8-4.94,4.87-10.07,1.26-.59-.41-1.04-.95-1.91-.58-3.59,1.54-7.41,1.29-11.18,1.36-6.24.11-8.36-1.87-9.02-8.19-.17-1.67.16-3.48-.97-5.09-3.41,1.05-6.91,1.77-10.46,2.16-3.86.42-6.75,2.46-7.72,6.66,1.38.5,2.55.12,3.69.05,4.56-.27,8.18,1.5,10.16,5.54,1.52,3.1,3.83,4.98,6.64,6.72,5.23,3.26,9.82,7.13,9.75,14.09-.01,1.34.52,1.97,1.77,1.84,5.03-.5,9.91.84,14.86,1.26,1.63.14,2.36-.22,3.06-1.6,2.38-5.05,5.31-9.82,8.73-14.22,1.42-1.71,2.41-3.73,2.88-5.91,1.41-7.06,2.02-14.26,1.84-21.47.07-.75-.31-1.47-.97-1.82M114.25,233.81c-.67-6.11-1.21-12.1-2-18.05-.6-4.52-1.69-8.97-2.23-13.5-.32-2.66-1.65-3.84-4.03-4.47-4.14-1.11-8.01-3.05-11.37-5.7-1.39-1.08-2.52-2.47-3.3-4.06-5.75-11.38-3.8-22.24,2.2-32.83.64-1.35,1.73-2.43,3.08-3.07,2.3-.89,1.88-2.59,1.65-4.39-.25-1.89-1.4-2.07-3.03-2.39-7.64-1.5-12.65-5.88-14.26-13.74-.22-1.1.04-2.42-1.16-3.19-1.27-.98-3.09-.75-4.07.52-.35.45-.56,1-.6,1.57-.82,6.28-1.97,12.45-4.83,18.18-.52.8-.28,1.87.52,2.39.11.07.23.13.35.17,4.73,2.54,4.83,6.72,4.48,11.4-.63,6.44-1.71,12.83-3.23,19.12-.5,2.62-1.88,4.99-3.92,6.72-3.21,2.71-5.66,6.46-10.19,7.4-1.25.26-1.22,1.47-1.44,2.47-1.2,5.46-1.8,11.04-1.77,16.64.05,5.75-.15,11.48-.36,17.22-.05,1.17-.05,2.35.02,3.52.23,3.99.25,3.99,4.19,5.01,6,1.55,7.7,4.54,5.83,10.44-1.18,3.74-1.52,7.77-4.1,11.07-1.02,1.3-1.7,2.72-3.55,2.93-1.68.19-2.22,1.23-1.94,2.79,1.59,9.06.88,18.22.83,27.32.1,7.94.83,15.86,2.17,23.68.46,3.64,1.94,30.47,2.02,34.14.26,1.44-.26,2.91-1.36,3.88-.16-6.22-2.64-35.16-3.78-40.95-1.09-6.09-1.53-12.28-1.31-18.46.33-9.57-.02-19.15-1.06-28.67-.18-1.02-.24-2.05-.19-3.08.95-10.16.03-20.3-.29-30.44-.56-18.19,1.41-36.11,4.8-53.98,2.04-10.76,4.8-21.14,9.35-31.16,4.62-10.06,6.64-21.13,5.87-32.17-.41-6.14-3.08-10.39-8.05-13.28-3.58-2.08-6.44-4.57-8.14-8.35-1.09-2.42-3.05-3.08-5.46-2.53-1.57.35-3.09.94-4.64,1.4-1.57.57-3.32.18-4.5-.99-1.41-1.37-.38-2.72.2-4.03.29-.67.71-1.3.98-1.98,1.9-4.77,5.4-7.12,10.54-7.27,3.39-.22,6.72-.96,9.88-2.19,1.72-.6,2.79-1.45,2.88-3.37.11-1.17.3-2.34.57-3.48,1.14-5.8,5.78-7.81,10.84-4.71.36.22.73.43,1.19.71.7-.79,1.39-1.55,2.04-2.33.92-1.1,2.41-2.02,3.47-1.45,4.93,2.66,10.29-1.08,15.18,1.28,1.24.6,2.6.02,3.91-.15,4.15-.54,6.71,1.45,8.53,5.25,3.68,7.69,1.94,15.55,1.26,23.38-.63,5.89-2.98,11.45-6.77,16-1.55,1.97-2.72,4.22-3.44,6.62-.45,1.5-.65,3.23-2.57,3.82-1.03.32-.94,1.39-1.16,2.21-.69,2.55-.29,5.3-1.47,7.77-.18.4-.17.87.03,1.26,3.32,4.9,2.76,10.73,3.85,16.14,1.74,8.65,4.31,17.11,6.02,25.78,1.16,5.92,1.53,11.95,3.08,17.79,4.59,17.29,5.91,35.06,7.6,52.77.9,9.38.97,18.76,1.09,28.18.07,5.51.41,11.15.59,16.68.15,4.44-.04,9.03.06,13.52.24,10.43-.37,20.84-.21,31.26.04.74.01,1.47-.08,2.21-.41,2.44-1.29,2.84-3.64,1.72-5.1-2.44-8.13-6.72-9.92-11.84-2.79-8.01-1.49-15.65,2.67-22.93.75-1.3,2.02-2.31,1.69-4.31-.24-1.43,1.78-1.56,2.93-2.05,1.25-.53,3.1-.34,2.87-2.58-.22-2.21.38-4.25-2.47-5.87-7.63-4.34-14.16-10-17.55-18.5-1.16-2.89-1.51-6.05-1.01-9.13.99-5.66,2.55-11.2,4.67-16.55,1.71-4.49,5.27-7.32,9.14-9.87,1.71-1.13,3.39-.24,5.35-.3"/>
        <path id="Path_187" d="M76.31,266.87c-3.21,1.73-5.98,3.37-7.72,6.29-2.54,3.99-4.32,8.41-5.25,13.04-1.17,6.86,1.26,12.82,5.68,17.86,3.1,3.53,6.27,3.29,9.45-.18,2.93-2.96,4.72-6.87,5.04-11.02.55-9.39-1.33-18.08-7.2-25.98M87.82,289.97c.56,5.17-1,10.36-4.34,14.35-4.78,5.91-11.17,6.52-16.8,1.4-6.65-6.06-9.61-18.13-4.89-28.1,2.58-5.44,5.97-9.96,11.06-13.22,2.23-1.59,5.33-1.08,6.93,1.15.11.15.21.31.3.47,4.68,7.58,7.21,13.25,7.74,23.94"/>
        <path id="Path_188" d="M67.44,223.95c.13,2.16.1,3.64.32,5.08.6,3.82,2.47,5.12,6.18,4.07,4.66-1.33,8.7-3.65,10.63-8.43,3.31-8.23,2.76-16.4-1.06-24.27-1.88-3.87-5.2-4.07-8.07-.9-.37.46-.7.94-1,1.45-4.45,6.86-6.88,14.83-7.02,23.01M89.84,216.86c-.11,1.37-.17,3.13-.4,4.87-1.25,8.15-8.26,14.17-16.5,14.17-4.19-.08-7.46-2.51-8.05-6.67-1.71-10.86.92-21.96,7.31-30.9,1.6-2.27,4.12-4.97,6.68-4.43,3.63.8,6.66,3.29,8.14,6.71,2.21,5.12,3.18,10.68,2.82,16.25"/>
      </g>
    </g>
  </g>
  <polygon points="116.5 357 115.88 337.73 119.6 333.81 119.6 357 116.5 357"/>
</svg>