<?xml version="1.0" encoding="UTF-8"?>
<svg id="Layer_1" xmlns="http://www.w3.org/2000/svg" xmlns:xlink="http://www.w3.org/1999/xlink" version="1.1" viewBox="0 0 156 357">
  <!-- Generator: Adobe Illustrator 30.3.0, SVG Export Plug-In . SVG Version: 2.1.3 Build 182)  -->
  <defs>
    <style>
      .st0 {
        fill: none;
      }

      .st1 {
        clip-path: url(#clippath-1);
      }

      .st2 {
        fill: #fff;
      }

      .st3 {
        fill: #ff81c0;
      }

      .st4 {
        clip-path: url(#clippath);
      }

      .st5 {
        fill: #a484ff;
      }
    </style>
    <clipPath id="clippath">
      <rect class="st0" y="0" width="156" height="357"/>
    </clipPath>
    <clipPath id="clippath-1">
      <rect class="st0" x="105" y="176.24" width="29.83" height="44.15"/>
    </clipPath>
  </defs>
  <path class="st2" d="M33.64,52.54l-3.83,3.24,1.92,19.47,9.89,38.85-1.12,30.89-12.99,77.77-4.62,64.02v45.87l.33,24.33,59.07-.11,7.81-48-5.23-29.31-8.52-74.8-6.27-36.78-3.96-40.26,9.1-18.6,14.88-10.77,3.68-27.77-2.9,7.55-1.98,5.15-6.32,9.03-7.14.14,2.57-13.89,3.23-4.55,7.65,2.9,2.31-3.41-.22-4.4-6.49-5.39-8.14-.11-8.14,4.84-.33-5.06-2.31-27.06-5.06-8.91-5.28,19.03-8.14-7.26-3.41,14.19s-1.87,9.57-1.87,9.24-8.16-10.06-8.16-10.06h0Z"/>
  <g class="st4">
    <g id="hand_02">
      <g id="Group_128">
        <rect id="Rectangle_93" class="st3" x="45.67" y="138.97" width="23" height="64" transform="translate(-122.93 163.07) rotate(-69)"/>
        <rect id="Rectangle_94" class="st5" x="49.61" y="181.4" width="23.79" height="78.28" transform="translate(-166.44 198.92) rotate(-69)"/>
        <rect id="Rectangle_95" class="st3" x="45.67" y="249.26" width="23" height="64" transform="translate(-225.9 233.84) rotate(-69)"/>
        <g id="Group_97">
          <path id="Path_192" d="M87.42,78.05c-1.73-.55-2.84-.91-3.96-1.24-1.45-.43-2.86-.08-3.39,1.28-1.82,4.22-2.54,8.84-2.08,13.41,4.78-4.05,6.33-9.05,9.42-13.45M64.46,137.17c.25-2.39.04-4.81-.61-7.12-.25-1.24-.9-1.59-2.08-1.76-5.51-.81-11.05-1.25-16.62-1.51-2.09-.1-2.82.78-2.95,2.8-.13,1.93.16,3.09,2.39,3.23,2.94.11,5.84.73,8.57,1.84,3.53,1.54,7.33,1.77,11.3,2.51M67.44,160.91c-.73-3.57-1.17-7.19-1.32-10.84-.01-2.35-.11-4.7-.19-7.05.11-1.51-1-2.83-2.5-2.98-5.26-1.29-10.46-2.87-15.7-4.27-1.27-.34-2.62-.34-3.92-.58-2.14-.4-2.97.54-2.98,2.6.03,3.38-.21,6.76-.73,10.1-.71,4.28.25,5.71,4.46,6.4,4.9.97,9.65,2.55,14.15,4.7,2.73,1.28,5.7,1.94,8.71,1.92M70.88,180.27c-.96-5.42-2.26-10.38-2.75-15.46-.13-1.38-1.22-1.48-2.28-1.47-3.18.04-5.9-1.38-8.77-2.53-4.88-1.95-9.76-3.96-15.01-4.92-1.9-.35-2.77,0-3.11,1.81-.67,3.6-1.28,7.22-2.05,10.8-.45,2.09.11,3.08,2.24,3.9,8.79,3.39,17.72,6.12,27.13,7.09,1.31.13,2.59.43,4.59.77M36.53,174.28c-1,6.47-2,12.81-2.97,19.16-.21,1.36.6,2.07,1.71,2.76,2.94,1.67,6,3.13,9.16,4.34,8.54,3.58,17.55,5.91,26.75,6.92,3.71.43,4.22-.28,3.13-3.95-1.22-4.24-1.8-8.63-1.73-13.04-.15-2.34-.52-4.67-1.1-6.95-.01-.7-.59-1.25-1.29-1.23-.05,0-.09,0-.14,0-6.82.08-13.35-1.5-19.79-3.58-4.45-1.44-8.9-2.87-13.73-4.43M33.06,198.72c-1.29,7.36-1.92,14.39-3.64,21.22-.57,1.73.17,3.63,1.76,4.52,3.17,2.14,6.31,4.35,9.97,5.53,10.17,3.39,20.73,5.5,31.42,6.29,3.48.23,3.56.14,3.39-3.27-.35-6.89-1.04-13.77-.93-20.68.03-1.59-.76-1.89-2.14-2.02-11.5-1.11-22.39-4.5-33.07-8.72-2.15-.85-3.97-2.49-6.76-2.86M28.56,226.54c-.27.51-.49,1.05-.66,1.61-1.24,9.92-1.22,19.9-1.27,29.88-.21,1.45.8,2.8,2.26,3.01.05,0,.1.01.15.02,7.02,1.44,13.78,4.2,21.13,4,2.64.02,5.28.19,7.91.51,7.45.63,14.93.67,22.38.1-1.97-7.56-2.51-15.02-3.54-22.42-.54-3.86-.52-3.67-4.51-4.26-15.05-2.21-30.41-3.41-43.85-12.44M26.72,263.22c-.21,1.14-.39,1.83-.46,2.54-.69,6.87-.23,13.81-1.28,20.66-.24,1.55.88,2,2,2.46,3.9,1.71,7.93,3.13,12.04,4.24,6.16,1.41,12.39,2.45,18.68,3.11,7,.83,13.93,2.21,20.93,3.14,5.24.7,5.27.55,5.7-4.52.1-1.17.09-2.34.17-3.51.38-5.82-1.47-11.33-2.27-16.99-.54-3.81-2.72-5.73-6.54-5.76-.59,0-1.18,0-1.77-.01-14.84-.35-29.72-.47-44.16-4.64-.84-.24-1.71-.41-3.04-.72M82.99,332.78c1.46-9.04,1.16-18.02,1.4-26.97.05-1.85-.47-2.99-2.66-3.14-7.78-.53-15.4-2.32-23.12-3.29-9.48-1.19-18.91-2.56-27.97-5.81-2.01-.72-3.83-2.16-6.38-2.05-.6,5.66-1.4,11.16-.49,16.75.59,3.62,1.32,7.25,1.13,10.92-.14,2.7,1.15,3.45,3.51,3.89,7.38,1.27,14.68,2.99,21.86,5.12,7.59,2.26,15.3,4.11,23.09,5.55,1.57.31,3.59.79,4.71-.24,1.61-1.48,3.24-.67,4.93-.74M60.7,30.81c-1.52,2.27-1.28,4.52-1.59,6.65-1.2,8.28.54,16.79-1.96,24.97-.12.43-.12.87,0,1.3.94,3.55-.7,6.99-.43,10.5.07.96-.24,1.84-1.36,1.86-.91.13-1.79-.39-2.12-1.26-.17-.72-.28-1.44-.33-2.17-1.19-7.58-1.17-15.26-1.86-22.88-.02-1.92-.33-3.82-.91-5.65-.42-1.05-.79-2.57-2.12-2.51-1.43.06-1.48,1.62-1.65,2.74-.14,1.02-.18,2.05-.14,3.08.21,8.84-1.19,17.61-1.17,26.44,0,.98.08,2.26-1.33,2.4-1.23.11-2.35-.73-2.6-1.94-.17-.71-.31-1.43-.42-2.16-.88-3.87-1.72-7.75-2.68-11.61-.77-3-2.28-5.77-4.39-8.04-2.02,1.87-1.88,4.08-1.82,6.23.1,3.37.31,6.75.57,10.1.26,3.21-.2,6.47.67,9.64,1.68,6.09,3.28,12.21,4.95,18.3.85,3.1,2.09,6.14,2.59,9.29.81,5.04,1.21,10.14,1.69,15.23.16,1.74.83,2.66,2.67,2.79,6.31.44,12.61.92,18.91,1.45,2.29.19,3.43-.68,3.96-3,1.59-6.96,5.78-13.05,11.72-17.02,3.61-2.58,6.6-5.93,8.74-9.82,2.52-4.28,3.12-9.43,1.63-14.17-1.63,2.66-2.89,4.75-4.18,6.83-1.09,1.75-2.2,3.51-4.1,4.49-1.97,1.16-4.44.99-6.23-.44-1.75-1.32-1.93-3-1.38-5.1.52-2.44.92-4.91,1.19-7.4.73-4.66,4.11-6.87,8.56-5.59.83.3,1.67.56,2.52.78,2.8.51,4.76-1.53,3.71-4.12-1-2.45-2.53-4.86-5.03-5.92-3.16-1.42-6.82-1.17-9.76.67-3.4,2.1-7.44,3.71-7.2,8.94.11,2.46-.65,4.93-.57,7.45-.03,1.03-.23,2.05-.59,3.01-.19.58-.81.91-1.4.75-.45-.08-.78-.48-.77-.94-.15-2.2-.14-4.41.01-6.61,1.33-11.48.7-22.93-.3-34.38-.39-4.49-1.09-8.97-3.71-13.19M41.7,58.57c1.03-4.08.79-8.04.7-11.99-.18-2.21.27-4.43,1.32-6.39,1.58-2.7,2.87-2.99,5.8-1.65,2.36,1.08,3.07,3.46,4.91,5.46.55-1.18.78-2.49.68-3.79.21-3.97.96-7.9,2.21-11.67.98-2.86,2.54-3.3,4.94-1.54.89.78,1.56,1.78,1.93,2.91,1.8,3.71,2.94,7.71,3.36,11.81.59,7.62,1.92,15.18,1.43,22.83,1.23.81,2.02-.16,2.83-.56,3.59-1.75,7.64-2.35,11.59-1.71,5.11.67,7.92,4.09,10.26,8.15.33.5.46,1.1.38,1.7-1.56,4.66.97,9.05.78,13.7-.23,7.09-3.27,13.8-8.46,18.63-3.44,3.4-7.73,5.84-10.62,9.88-2.08,2.85-3.53,6.11-4.25,9.56-.4,1.91,0,3.98-1.9,5.61-.97.84-.41,2.83-.25,4.27.59,5.11,1.17,10.15-.05,15.33-.7,2.98.37,6.14.8,9.2,1.81,12.66,5.15,25.05,6.51,37.8.5,3.5,1.25,6.95,2.26,10.34,1.28,4.91.53,9.97,1.27,14.91,1.44,9.58,2.88,19.16,4.21,28.76.77,5.52.59,11.13,1.3,16.68.6,4.66.8,9.36,1.93,13.95,1.59,6.44,1.77,13.09,2.17,19.62.49,8.01.45,16.09.43,24.14-.02,7.16-3.14,20.16-3.21,27.2-.14,1.17-.51,2.3-1.09,3.33-.51,1.47-2.09,2.29-3.59,1.86-1.24-.38-1.29-1.9-1.26-3.03.08-2.35.99-11.02,1.17-13.37.3-3.93.28-4.05-3.58-3.82-9.32.54-18.02-2.34-26.77-4.83-7.65-2.18-15.3-4.31-23.09-5.92-3.31-.68-3.73-.45-3.5,2.75.36,5.7,0,19.65-.26,25.36-.05,1.46,0,2.64-1.78,2.97-1.47-1.68-1.5-3.72-1.56-5.76-.15-5.15.05-18.53-.08-23.68-.18-7.21-.8-14.41-1.83-21.55-.59-4.1-.03-8.23.5-12.33,1.91-15.94,2.88-31.98,2.89-48.04,0-9.58,1.12-19.13,3.34-28.45,2.03-8.16,2.06-16.66,3.64-24.88,2.41-12.59,2.81-25.45,5.48-38,1.09-5.04,1.63-10.19,1.63-15.35-.02-4.01,1.71-7.66,1.73-11.71.04-8.37-1.1-16.7-3.4-24.75-2.31-8.08-4.05-16.28-5.96-24.44-1.74-7.46-1.43-15.21-1.37-22.86,0-.15.02-.29.05-.44.72-2.49.75-5.51,4.04-6.22,3.24-.69,4.22,2.1,5.6,4.08,1.38,1.91,2.64,3.9,3.77,5.97"/>
        </g>
        <g id="Group_108">
          <g class="st1">
            <g id="Group_107">
              <path id="Path_216" d="M117.53,205.38c2.11-3.53,5.2-6.37,8.89-8.17-1.5-1.69-2.77-3.59-3.76-5.63-.79-1.87-1.62-3.74-2.72-6.25-2.47,4.18-5.33,8.12-8.56,11.75,3.14,2.04,4.5,5.06,6.15,8.31M105,195.49c4.16-.33,6.35-2.92,8.19-5.87,2.19-3.51,4.98-6.73,5.26-11.16.07-1.04.17-2.12,1.5-2.21,1.25-.22,2.44.62,2.66,1.85.02.12.03.23.03.35.08,2.51,1.4,4.65,1.8,7.05.37,1.69.87,3.34,1.5,4.93,1.24,3.59,4.03,6.43,7.59,7.72.69.27,1.4.74,1.27,1.49-.15.67-.8,1.09-1.47.94-.08-.02-.17-.05-.25-.08-2.56-1.12-5.53-.67-7.65,1.15-2.89,2.11-4.03,5.18-5.06,8.27-.82,2.31-1.22,4.75-1.14,7.19.07,1.32.45,3.34-1.69,3.28-1.89-.05-2.12-1.5-2.11-3.43.22-4.45-.5-8.89-2.11-13.03-.87-2.61-2.84-4.71-5.4-5.73-1.34-.43-2.41-1.42-2.96-2.71"/>
            </g>
          </g>
        </g>
      </g>
    </g>
  </g>
</svg>