<svg xmlns="http://www.w3.org/2000/svg" xmlns:xlink="http://www.w3.org/1999/xlink" width="125.325" height="324.702" viewBox="0 0 125.325 324.702">
  <defs>
    <clipPath id="clip-path">
      <rect id="Rectangle_88" data-name="Rectangle 88" width="17.846" height="26.417" fill="none"/>
    </clipPath>
  </defs>
  <g id="Group_122" data-name="Group 122" transform="translate(-1044.636 -700.501)">
    <rect id="Rectangle_93" data-name="Rectangle 93" width="64" height="23" transform="translate(1056.554 823.296) rotate(21)" fill="#ff81c0"/>
    <rect id="Rectangle_94" data-name="Rectangle 94" width="64" height="23" transform="translate(1056.554 869.506) rotate(21)" fill="#ffe200"/>
    <rect id="Rectangle_95" data-name="Rectangle 95" width="64" height="23" transform="translate(1056.554 933.592) rotate(21)" fill="#ff81c0"/>
    <g id="Group_97" data-name="Group 97">
      <path id="Path_192" data-name="Path 192" d="M999.427,139.355c-1.733-.547-2.844-.91-3.962-1.245-1.453-.435-2.859-.081-3.389,1.28A27.005,27.005,0,0,0,990,152.8c4.778-4.051,6.333-9.053,9.423-13.447m-22.949,59.124a18.912,18.912,0,0,0-.611-7.119c-.253-1.238-.9-1.59-2.078-1.765-5.513-.812-11.054-1.247-16.618-1.509-2.087-.1-2.818.783-2.953,2.805-.129,1.927.158,3.089,2.393,3.233a25.243,25.243,0,0,1,8.567,1.842c3.527,1.538,7.326,1.774,11.3,2.512m2.982,23.734a68.391,68.391,0,0,1-1.315-10.835c-.013-2.352-.114-4.7-.186-7.053a2.8,2.8,0,0,0-2.5-2.984c-5.264-1.293-10.457-2.872-15.7-4.266-1.269-.337-2.623-.339-3.921-.582-2.14-.405-2.973.538-2.977,2.6a61.9,61.9,0,0,1-.729,10.1c-.713,4.283.248,5.708,4.461,6.4a59.617,59.617,0,0,1,14.154,4.7,20.16,20.16,0,0,0,8.714,1.916m3.435,19.363c-.958-5.421-2.264-10.378-2.752-15.461-.132-1.382-1.216-1.481-2.282-1.47-3.185.035-5.9-1.38-8.766-2.529-4.879-1.954-9.762-3.955-15.007-4.916-1.9-.35-2.774-.009-3.113,1.814-.671,3.6-1.28,7.221-2.05,10.8-.448,2.093.107,3.076,2.245,3.9,8.792,3.387,17.72,6.119,27.132,7.088,1.306.133,2.594.431,4.592.77m-34.349-5.985c-1,6.467-2,12.813-2.968,19.162-.208,1.363.6,2.067,1.709,2.756a67.553,67.553,0,0,0,9.16,4.342,96.229,96.229,0,0,0,26.751,6.924c3.708.429,4.221-.282,3.133-3.945A44.507,44.507,0,0,1,984.6,251.78a38.236,38.236,0,0,0-1.1-6.948,1.261,1.261,0,0,0-1.429-1.223c-6.819.083-13.351-1.5-19.786-3.584-4.45-1.439-8.9-2.873-13.732-4.434m-3.485,24.43c-1.291,7.361-1.919,14.388-3.642,21.22a3.809,3.809,0,0,0,1.763,4.515c3.167,2.144,6.314,4.347,9.974,5.533a129.483,129.483,0,0,0,31.424,6.288c3.478.232,3.564.136,3.39-3.275-.352-6.891-1.041-13.767-.928-20.676.026-1.588-.763-1.892-2.144-2.024-11.5-1.107-22.387-4.5-33.074-8.724-2.15-.849-3.975-2.49-6.762-2.857m-4.5,27.817a8.4,8.4,0,0,0-.656,1.606c-1.245,9.925-1.219,19.9-1.265,29.881a2.66,2.66,0,0,0,2.407,3.028c7.02,1.437,13.776,4.2,21.128,4a68.289,68.289,0,0,1,7.908.507,139.638,139.638,0,0,0,22.38.1c-1.966-7.558-2.511-15.021-3.538-22.415-.536-3.857-.519-3.671-4.513-4.259-15.052-2.208-30.405-3.407-43.85-12.444m-1.836,36.681c-.206,1.135-.385,1.833-.455,2.54-.687,6.871-.234,13.809-1.276,20.658-.236,1.547.879,2,2,2.459a85.582,85.582,0,0,0,12.039,4.238,157.8,157.8,0,0,0,18.676,3.113c7,.832,13.935,2.212,20.927,3.139,5.244.695,5.274.545,5.7-4.515.1-1.168.088-2.343.166-3.513.378-5.815-1.47-11.33-2.271-16.988-.812-5.719-.8-5.723-6.539-5.758-.588,0-1.177,0-1.767-.013-14.844-.35-29.715-.47-44.159-4.64-.842-.243-1.707-.407-3.037-.72m56.261,69.556c1.457-9.044,1.157-18.02,1.4-26.968.05-1.849-.468-2.993-2.662-3.144-7.782-.527-15.4-2.321-23.119-3.293-9.479-1.188-18.91-2.562-27.972-5.807-2.006-.72-3.828-2.163-6.379-2.048-.6,5.658-1.4,11.164-.49,16.751.588,3.619,1.321,7.252,1.133,10.925-.138,2.7,1.149,3.448,3.505,3.886a189.131,189.131,0,0,1,21.857,5.125,224.623,224.623,0,0,0,23.093,5.555c1.573.313,3.585.792,4.706-.239,1.612-1.477,3.242-.669,4.929-.74M972.711,92.111c-1.516,2.268-1.278,4.52-1.588,6.648-1.2,8.28.536,16.79-1.958,24.973a2.49,2.49,0,0,0,0,1.3c.939,3.547-.7,6.986-.428,10.5.074.963-.245,1.838-1.359,1.86a1.986,1.986,0,0,1-2.124-1.256,14.7,14.7,0,0,1-.334-2.174c-1.194-7.58-1.17-15.261-1.864-22.883a19.49,19.49,0,0,0-.912-5.646c-.425-1.05-.792-2.569-2.116-2.512-1.429.059-1.483,1.619-1.652,2.744a17.934,17.934,0,0,0-.144,3.083c.212,8.842-1.186,17.609-1.168,26.443,0,.98.081,2.255-1.33,2.4a2.438,2.438,0,0,1-2.6-1.943,21.835,21.835,0,0,1-.416-2.159c-.879-3.87-1.723-7.753-2.677-11.606a18.551,18.551,0,0,0-4.388-8.038c-2.017,1.866-1.881,4.08-1.82,6.228.1,3.373.306,6.754.573,10.1.258,3.209-.2,6.469.669,9.639,1.68,6.093,3.279,12.209,4.948,18.3.849,3.1,2.085,6.136,2.593,9.285.812,5.038,1.21,10.144,1.689,15.231.164,1.742.834,2.663,2.673,2.792q9.461.655,18.91,1.453c2.286.19,3.433-.679,3.957-3a27.948,27.948,0,0,1,11.719-17.022,29.721,29.721,0,0,0,8.744-9.816,17.573,17.573,0,0,0,1.634-14.166c-1.628,2.663-2.892,4.754-4.178,6.83-1.087,1.752-2.2,3.505-4.1,4.491a5.5,5.5,0,0,1-6.226-.438c-1.75-1.319-1.93-3-1.376-5.1a73.128,73.128,0,0,0,1.192-7.4c.726-4.66,4.115-6.872,8.56-5.587a26.154,26.154,0,0,0,2.52.776c2.8.514,4.763-1.527,3.71-4.122-1-2.452-2.526-4.857-5.025-5.92a10.364,10.364,0,0,0-9.76.67c-3.4,2.1-7.44,3.71-7.2,8.939.114,2.463-.652,4.931-.566,7.451a9.412,9.412,0,0,1-.595,3.01,1.156,1.156,0,0,1-1.4.748.941.941,0,0,1-.77-.941,48.837,48.837,0,0,1,.011-6.611c1.332-11.479.7-22.934-.3-34.377-.391-4.487-1.094-8.972-3.714-13.194m-19.016,27.779c1.028-4.085.794-8.04.7-11.988a11.56,11.56,0,0,1,1.319-6.392c1.58-2.7,2.872-2.988,5.8-1.652,2.359,1.076,3.072,3.463,4.911,5.456a7.552,7.552,0,0,0,.676-3.787,44.587,44.587,0,0,1,2.212-11.672c.983-2.863,2.538-3.3,4.944-1.545A6.587,6.587,0,0,1,976.2,91.2a35.3,35.3,0,0,1,3.362,11.814c.593,7.617,1.925,15.185,1.435,22.829,1.227.809,2.023-.158,2.833-.564a19.418,19.418,0,0,1,11.588-1.715c5.112.672,7.924,4.091,10.264,8.153a2.426,2.426,0,0,1,.377,1.695c-1.564,4.66.975,9.053.778,13.7a26.629,26.629,0,0,1-8.462,18.635c-3.441,3.4-7.727,5.837-10.619,9.884a24.882,24.882,0,0,0-4.253,9.56c-.4,1.912,0,3.975-1.9,5.609-.974.838-.412,2.83-.247,4.274.589,5.113,1.166,10.151-.052,15.327-.7,2.975.367,6.138.8,9.2,1.811,12.66,5.154,25.051,6.513,37.8a71.592,71.592,0,0,0,2.256,10.339c1.28,4.911.525,9.967,1.269,14.911,1.442,9.578,2.882,19.158,4.214,28.755.766,5.524.591,11.129,1.3,16.679.6,4.657.8,9.365,1.93,13.951,1.59,6.438,1.765,13.089,2.17,19.622.494,8.005.453,16.086.427,24.141-.02,7.16-2.522,13.824-2.588,20.868a8.8,8.8,0,0,1-1.094,3.325,2.946,2.946,0,0,1-3.588,1.864c-1.243-.378-1.295-1.9-1.258-3.034.076-2.349.368-4.69.547-7.033.3-3.929.282-4.047-3.581-3.82-9.324.54-18.018-2.338-26.773-4.833-7.646-2.183-15.3-4.31-23.091-5.918-3.314-.685-3.734-.453-3.5,2.752a158.19,158.19,0,0,1,.14,17.134c-.053,1.457,0,2.641-1.776,2.968-1.468-1.678-1.5-3.721-1.562-5.762-.153-5.15-.344-10.3-.475-15.452a182.807,182.807,0,0,0-1.831-21.547c-.591-4.1-.029-8.235.5-12.325a404.993,404.993,0,0,0,2.886-48.04,122.711,122.711,0,0,1,3.345-28.445c2.028-8.164,2.058-16.657,3.636-24.885,2.415-12.59,2.809-25.449,5.476-38a72.61,72.61,0,0,0,1.626-15.351c-.018-4.01,1.713-7.657,1.732-11.709a88.321,88.321,0,0,0-3.4-24.747c-2.306-8.077-4.052-16.283-5.957-24.441-1.743-7.464-1.427-15.209-1.369-22.864a1.652,1.652,0,0,1,.052-.438c.717-2.487.751-5.513,4.036-6.217,3.236-.692,4.224,2.1,5.6,4.084a54.565,54.565,0,0,1,3.768,5.975" transform="translate(113.128 613.23)"/>
    </g>
    <g id="Group_108" data-name="Group 108" transform="translate(1152.115 878.502)">
      <g id="Group_107" data-name="Group 107" clip-path="url(#clip-path)">
        <path id="Path_216" data-name="Path 216" d="M7.5,17.44a12.587,12.587,0,0,1,5.32-4.888A14.688,14.688,0,0,1,10.573,9.18C10.1,8.055,9.6,6.943,8.946,5.438a45.043,45.043,0,0,1-5.125,7.028C5.7,13.69,6.509,15.5,7.5,17.44M0,11.516c2.491-.2,3.8-1.75,4.9-3.513,1.313-2.1,2.983-4.035,3.151-6.677.04-.616.095-1.274.9-1.322a1.37,1.37,0,0,1,1.608,1.318c.051,1.5.837,2.78,1.079,4.22a18.32,18.32,0,0,0,.9,2.955,7.481,7.481,0,0,0,4.543,4.616c.411.164.836.444.76.892a.736.736,0,0,1-1.022.515,4.359,4.359,0,0,0-4.578.686c-1.726,1.258-2.409,3.1-3.032,4.945a11.691,11.691,0,0,0-.683,4.3c.038.794.266,2-1.006,1.961-1.128-.035-1.274-.9-1.257-2.048A18.973,18.973,0,0,0,5,16.566a5.616,5.616,0,0,0-3.228-3.434A2.916,2.916,0,0,1,0,11.516" transform="translate(0 0)"/>
      </g>
    </g>
  </g>
</svg>
