<svg id="Group_116" data-name="Group 116" xmlns="http://www.w3.org/2000/svg" xmlns:xlink="http://www.w3.org/1999/xlink" width="525.763" height="563.505" viewBox="0 0 525.763 563.505">
  <defs>
    <clipPath id="clip-path">
      <rect id="Rectangle_97" data-name="Rectangle 97" width="525.763" height="563.505" fill="#ffe200"/>
    </clipPath>
  </defs>
  <g id="Group_115" data-name="Group 115" clip-path="url(#clip-path)">
    <path id="Path_361" data-name="Path 361" d="M29.41,190.878c-1.149-10.681-2.348-21.558-6.659-31.4S10.435,140.82,0,138.269a39.77,39.77,0,0,0,27.444-11.953A39.778,39.778,0,0,0,38.51,98.5a72.062,72.062,0,0,0,5.161,32.462c4.235,10.572,12.375,19.947,23.1,23.77-23.651,5.055-33.634,12.252-37.364,36.145" transform="translate(0 228.644)" fill="#ffe200"/>
    <path id="Path_362" data-name="Path 362" d="M136.376,116.681c-1.149-10.681-2.348-21.558-6.659-31.4S117.4,66.623,106.966,64.072A39.769,39.769,0,0,0,134.41,52.119a39.776,39.776,0,0,0,11.066-27.812,72.055,72.055,0,0,0,5.161,32.459c4.235,10.572,12.375,19.947,23.1,23.774-23.651,5.052-33.634,12.249-37.364,36.142" transform="translate(248.296 56.423)" fill="#ffe200"/>
    <path id="Path_363" data-name="Path 363" d="M131.623,234.23c-1.149-10.681-2.348-21.558-6.659-31.4s-12.315-18.659-22.751-21.21a39.3,39.3,0,0,0,38.51-39.769,72.062,72.062,0,0,0,5.161,32.462c4.235,10.572,12.375,19.947,23.1,23.77-23.651,5.055-33.634,12.252-37.364,36.145" transform="translate(237.263 329.276)" fill="#ffe200"/>
    <path id="Path_364" data-name="Path 364" d="M167.608,92.375c-1.149-10.681-2.348-21.558-6.662-31.4S148.633,42.317,138.2,39.766a39.77,39.77,0,0,0,27.444-11.953A39.776,39.776,0,0,0,176.708,0a72.055,72.055,0,0,0,5.161,32.459c4.235,10.572,12.375,19.947,23.1,23.774-23.651,5.052-33.634,12.249-37.364,36.142" transform="translate(320.794 0.002)" fill="#ffe200"/>
  </g>
</svg>
