<svg xmlns="http://www.w3.org/2000/svg" xmlns:xlink="http://www.w3.org/1999/xlink" width="542" height="616" viewBox="0 0 542 616">
  <defs>
    <clipPath id="clip-visual_03">
      <rect width="542" height="616"/>
    </clipPath>
  </defs>
  <g id="visual_03" clip-path="url(#clip-visual_03)">
    <g id="Group_135" data-name="Group 135">
      <path id="Path_367" data-name="Path 367" d="M62.52,171.147a16.771,16.771,0,1,1-16.772-16.772A16.773,16.773,0,0,1,62.52,171.147" transform="translate(67.268 358.226)" fill="#00ffe2"/>
      <path id="Path_368" data-name="Path 368" d="M52.718,119.061A22.739,22.739,0,1,1,29.979,96.322a22.741,22.741,0,0,1,22.739,22.739" transform="translate(23.86 218.509)" fill="#00ffe2"/>
      <path id="Path_369" data-name="Path 369" d="M94.11,13.261A7.758,7.758,0,1,1,86.351,5.5a7.759,7.759,0,0,1,7.758,7.758" transform="translate(182.435 12.656)" fill="#00ffe2"/>
      <path id="Path_370" data-name="Path 370" d="M53.976,40.514a7.76,7.76,0,1,1-7.758-7.758,7.759,7.759,0,0,1,7.758,7.758" transform="translate(89.267 75.917)" fill="#00ffe2"/>
      <path id="Path_371" data-name="Path 371" d="M131.768,25.3a7.758,7.758,0,1,1-7.759-7.758,7.759,7.759,0,0,1,7.759,7.758" transform="translate(269.849 40.59)" fill="#00ffe2"/>
      <path id="Path_372" data-name="Path 372" d="M69.211,34.011a18.1,18.1,0,1,1-18.1-18.1,18.1,18.1,0,0,1,18.1,18.1" transform="translate(66.271 26.467)" fill="#00ffe2"/>
      <path id="Path_373" data-name="Path 373" d="M174.027,65.428a7.758,7.758,0,1,1-7.759-7.755,7.757,7.757,0,0,1,7.759,7.755" transform="translate(367.943 133.756)" fill="#00ffe2"/>
      <path id="Path_374" data-name="Path 374" d="M14.238,92.074a7.119,7.119,0,1,1-7.117-7.117,7.118,7.118,0,0,1,7.117,7.117" transform="translate(0 197.089)" fill="#00ffe2"/>
      <path id="Path_375" data-name="Path 375" d="M169.2,190.993a13.7,13.7,0,1,1-13.7-13.7,13.7,13.7,0,0,1,13.7,13.7" transform="translate(329.155 411.425)" fill="#00ffe2"/>
      <path id="Path_376" data-name="Path 376" d="M32.918,146.185a7.054,7.054,0,1,1-7.054-7.054,7.055,7.055,0,0,1,7.054,7.054" transform="translate(43.661 322.841)" fill="#00ffe2"/>
      <path id="Path_377" data-name="Path 377" d="M147.2,127.833a7.157,7.157,0,1,1-7.157-7.157,7.158,7.158,0,0,1,7.157,7.157" transform="translate(308.468 280.002)" fill="#00ffe2"/>
    </g>
  </g>
</svg>
