<svg xmlns="http://www.w3.org/2000/svg" xmlns:xlink="http://www.w3.org/1999/xlink" width="473.337" height="496.21" viewBox="0 0 473.337 496.21">
  <defs>
    <clipPath id="clip-path">
      <rect id="Rectangle_96" data-name="Rectangle 96" width="473.337" height="496.21" fill="none"/>
    </clipPath>
  </defs>
  <g id="Group_113" data-name="Group 113" clip-path="url(#clip-path)">
    <path id="Path_319" data-name="Path 319" d="M430.961,213.172c-.95.85-1.863,1.73-2.733,2.62-21.289,21.831-32.166,54.362-58.923,68.986-5.161,2.823-15.2,4.162-16.988-3.444a13.646,13.646,0,0,1,.448-6.649c4.813-17.7,18-31.984,29.971-45.272a232.836,232.836,0,0,0,42.273-66.073,188.257,188.257,0,0,0,11.116-36.976c2.248-11.97,5.42-27.3.531-38.975a20.676,20.676,0,0,0-5.038-7.5c-5.892-5.354-14.633-6.021-21.924-3.54-5.573,1.893-10.369,6.128-14.371,10.329-13.992,14.683-20.456,34.093-28.36,52.31-9.758,22.488-19.416,45.913-36.8,63.745-1.946,2-3.982,3.916-6.085,5.732a17.748,17.748,0,0,1-11.392,4.487c-13.816.08-17.287-16.626-15.892-29.141,5.527-49.513,38.1-95.593,31.442-144.966C326.776,28.038,323.189,17.1,315.6,9.27S295.8-2.544,285.779,1.77c-10.91,4.7-16.068,17.1-19.18,28.563-12.671,46.7-9.044,97.09-25.3,142.668-2.527,7.084-7.051,18.642-15.374,20.678-27.168,6.689-10.352-104.1-25.74-154.246-3.036-9.891-7.323-19.878-15.231-26.55S164.7,3.863,156.3,9.9c-7.768,5.573-9.931,16.072-10.771,25.594-5.769,65.386,22.256,131.847,7.775,195.865-1.671,7.387-5.676,16.224-14.278,14.637a12.461,12.461,0,0,1-7.8-5.151c-27.394-38.54-39.483-86.7-69.693-123.01C50.082,104.082,31.569,91.541,15.4,99.209-.641,106.822-2.746,129.327,2.7,146.232c9.691,30.111,34.641,52.8,48.311,81.328,27.39,57.149,7.161,131.635,44.548,182.806,19.287,26.391,50.247,40.981,77.87,58.454,11.97,7.573,23.757,15.969,37.364,19.9,24.352,7.034,51.081-1.6,71.45-16.679s35.557-35.963,50.327-56.558c32.694-45.588,65.2-91.71,104.922-131.326,12.7-12.671,26.517-25.222,33.126-41.908,5.354-13.518,3.242-32.435-10.236-37.889-10.05-4.062-21.15,1.4-29.42,8.815" transform="translate(0 0)" fill="#ff81c0"/>
    <path id="Path_320" data-name="Path 320" d="M65.137,81.237c-6.011-1.71-12.578-2.77-18.406-.515s-10.352,8.854-8.346,14.773c2.647,7.825,13,8.752,21.127,10.233C77.439,109,102.6,148.618,113.555,131.9c14.69-22.422-33.11-46.312-48.417-50.666" transform="translate(87.979 184.391)" fill="#f0f4f7"/>
    <path id="Path_321" data-name="Path 321" d="M140.027,96.631c5.9,2.062,11.88,4.979,15.344,10.18s3.361,13.2-1.684,16.885c-6.669,4.869-15.67-.335-23.166-3.8-16.54-7.649-59.929,10.249-59.255-9.725.9-26.789,53.738-18.792,68.76-13.537" transform="translate(165.41 211.908)" fill="#f0f4f7"/>
    <path id="Path_322" data-name="Path 322" d="M92.095,102.9C80.381,91.813,61.705,83,52.376,80.082c-.206.3-.415.591-.6.893a55.8,55.8,0,0,0-2.806,4.972c-.292.581-.568,1.172-.837,1.767.043-.08-.342.814-.644,1.657-.641,1.77-1.2,3.57-1.7,5.384q-.747,2.745-1.3,5.533-.3,1.529-.551,3.069c-.01.063-.03.193-.05.352.043.083.1.159.14.239.535.093,1.063.186,1.581.279,9.412,1.72,20.824,13.461,31.124,21.8.611-.521,1.232-1.026,1.837-1.554,1.249-1.093,2.461-2.222,3.627-3.4,1.272-1.279,2.435-2.64,3.637-3.982l.093-.1c.405-.621.87-1.212,1.282-1.83a45.591,45.591,0,0,0,2.411-4.075c.183-.349.482-.84.741-1.335.023-.116.076-.312.166-.618.495-1.644.98-3.255,1.368-4.932.083-.365.153-.618.209-.8,0-.169,0-.339-.01-.5" transform="translate(101.88 185.891)"/>
    <path id="Path_323" data-name="Path 323" d="M118.319,119.155q2.018-2.192,3.982-4.454c.163-.223.329-.442.488-.668.551-.814,1.133-1.611,1.671-2.434.97-1.481,1.883-3,2.713-4.567.448-.83.84-1.677,1.255-2.524.027-.08.053-.169.086-.272a53.151,53.151,0,0,0,1.495-5.251l.073-.4c.013-.139.03-.3.046-.515.03-.428.047-.857.05-1.289-.146-.05-.292-.106-.435-.156-8.569-3-29.423-6.882-45.94-4.706l-.2.176a41.218,41.218,0,0,0-2.949,3.052l-.1.163c-.3.492-.634.96-.933,1.451-.442.734-.867,1.491-1.262,2.258l-.382.771c-.033.073-.06.126-.086.186-.076.209-.153.422-.229.631-.286.824-.548,1.657-.784,2.494-.4,1.415-.664,2.846-.966,4.281l0,.007c-.047.727-.12,1.455-.159,2.185-.073,1.491-.086,2.983-.027,4.477q.035,1.121.123,2.242c.033.452.076.9.126,1.348.116,1.033.047.6-.2-1.305-.259.2.315,2.441.641,3.673,13.116-.023,31.432-4.2,41.9-.86" transform="translate(175.696 211.908)"/>
    <path id="Path_324" data-name="Path 324" d="M58.73,87.443c0,2.8-3.521,5.075-7.865,5.075S43,90.246,43,87.443s3.521-5.075,7.865-5.075,7.865,2.272,7.865,5.075" transform="translate(99.814 191.198)" fill="#f0f4f7"/>
    <path id="Path_325" data-name="Path 325" d="M102.958,100.014c0,2.8-3.521,5.075-7.865,5.075s-7.865-2.272-7.865-5.075,3.521-5.075,7.865-5.075,7.865,2.272,7.865,5.075" transform="translate(202.479 220.378)" fill="#f0f4f7"/>
    <path id="Path_326" data-name="Path 326" d="M83.821,80.623C74.8,95.715,69.755,111.9,65.457,128.844c-1.963,7.739-4.331,15.869-2.833,23.9,1.152,6.178,4.859,13.059,11.316,14.756,2.268.595,4.3-2.434,2.395-4.115-5.008-4.414-7.8-9.011-7.875-15.862-.083-7.566,2.378-15.175,4.165-22.465C76.2,110.5,79.7,95.509,85.73,81.739c.558-1.272-1.159-2.371-1.91-1.116" transform="translate(144.27 185.862)"/>
    <path id="Path_327" data-name="Path 327" d="M96.972,130.79c-.893-8.755-8.227-13.783-15.185-18.081-6.809-4.2-15.6-7.2-21.871-.409-11.807,12.8,1.754,31.31,15.291,35.538,2.67.834,4.324-2.587,2.6-4.47-3.866-4.241-9.256-6.7-12.6-11.541-2.8-4.059-3.816-9.628-.89-13.946,4-5.905,11.09-1.362,15.62,1.431,5.274,3.255,10.136,7.157,13.511,12.431.927,1.448,3.726,1.036,3.524-.953" transform="translate(128.601 251.364)"/>
    <path id="Path_328" data-name="Path 328" d="M86.074,120.765c-14.368-7.841-32.575,4.155-31.867,20.373.335,7.659,4.2,15.221,11.083,18.958,8.011,4.351,18.048,3.447,26.055-.4,3.839-1.847,1.362-6.679-1.926-7.114-8.934-1.179-22.943,1.282-23.734-11.442-.641-10.382,10.246-15.427,19.147-15.786,2.341-.093,3.474-3.368,1.242-4.587" transform="translate(125.782 274.612)"/>
    <path id="Path_329" data-name="Path 329" d="M77.131,114.186c13.949-6.264,30.1-5.7,45.03-4.706a102.684,102.684,0,0,1,21.578,3.471,88.6,88.6,0,0,1,20.047,9.057c3.315,1.926,6.712-2.524,4.065-5.268-11.462-11.87-29.948-14.567-45.691-15.344-15.959-.787-33.8-.063-46.328,11.11-.973.867.266,2.142,1.3,1.681" transform="translate(175.208 234.839)"/>
    <path id="Path_330" data-name="Path 330" d="M31.878,86.117c3.534-1.621,8.589,2.5,11.631,4.009,3.318,1.644,6.652,3.255,9.967,4.9a174.294,174.294,0,0,1,19.29,11.053c11.136,7.43,19.874,17.466,27.115,28.643a2.617,2.617,0,0,0,4.759-2.009c-3.813-15.653-16.938-26.955-30.184-35.036A132.191,132.191,0,0,0,50.946,86.745c-5.643-2.059-14.736-6.762-20.19-2.086-.857.734.232,1.867,1.123,1.458" transform="translate(70.669 191.866)"/>
    <path id="Path_331" data-name="Path 331" d="M53.269,86.217a60.189,60.189,0,0,0,37.3,3,65.24,65.24,0,0,0,17.878-7.509c5.128-3.125,10.821-7.918,17.151-7.851,11.462.116,15.567,15.965,20.383,23.906A73.08,73.08,0,0,0,170.9,122.339c11.717,7.018,25.009,10.575,38.66,9.379a2.607,2.607,0,0,0,0-5.211c-24.049-1.229-47.574-13.714-59.295-35.2-4.71-8.635-8.848-19.858-19.074-23.259C118.95,63.981,108.87,75.121,98.8,79.976a67.259,67.259,0,0,1-45,4.314,1,1,0,0,0-.531,1.926" transform="translate(122.064 155.926)"/>
    <path id="Path_332" data-name="Path 332" d="M146.3,116.66c-4.284-3.783-11.269-5.168-16.746-6.344-6.128-1.315-12.305-2.282-18.5-3.178-10.213-1.475-28.33-4.646-33.734,7.393C74.4,121.017,79.188,126.945,85.561,128c6.417,1.069,13.484.282,19.977.272q10.078-.01,20.153-.027c6.978-.01,14.345.644,21.23-.518,6.54-1.106,6.543-12.1,0-13.212-5.241-.887-10.7-.508-16-.518q-7.842-.015-15.676-.027l-14.929-.03q-4.105,0-8.21-.013c-1.594,0-3.411.372-4.264-.262l2.581,2.581c.04.1.076.206.113.309v3.829c-.4,1.548-.867.488.419.179.777-.183,1.531-.468,2.325-.591a37.212,37.212,0,0,1,6.085-.159c5.434.066,10.877.432,16.3.684a125.21,125.21,0,0,0,16.138.116c4.706-.385,10.166-.315,14.335-2.727a.791.791,0,0,0,.159-1.232" transform="translate(177.44 245.202)"/>
    <path id="Path_333" data-name="Path 333" d="M36.648,98.33c6.34,4.494,12.285,9.5,18.586,14.049,6.231,4.5,12.4,9.127,18.28,14.076,1.863,1.568,4.952,2.531,7.174.927,13.777-9.964-10.4-23.478-17.556-28.121A171.259,171.259,0,0,0,44.971,88.732c-5.789-2.81-13.454-2.265-13.966,5.6-.269,4.168,4.354,5.7,7.519,4.311-1.747.767-3.607-.209-.365.545.2.046.458.013.654.073a33.761,33.761,0,0,1,5.417,2.806q5.654,3.074,11.113,6.5,5.161,3.238,10.13,6.785c1.425,1.016,7.423,4.626,7.27,5.826.272-1,.541-2,.814-3q.573-.513,1.152-1.023,3.592.463,7.177.923a161.306,161.306,0,0,0-20.821-14.325c-7.177-4.059-15.055-6.626-22.933-8.944-2.205-.651-3.188,2.312-1.485,3.521" transform="translate(71.944 202.377)"/>
    <path id="Path_334" data-name="Path 334" d="M32.2,59.187c-6.247,3.929-11.372,9.994-15.2,16.248-3.066,5.018-8.961,14.511-6.018,20.436a2.5,2.5,0,0,0,3.414.9c2.488-1.807,3.248-4.739,4.231-7.556A82.819,82.819,0,0,1,22.89,78.882c3.215-6.327,7.33-11.827,11.405-17.6.9-1.272-.847-2.886-2.1-2.1" transform="translate(23.621 136.907)"/>
    <path id="Path_335" data-name="Path 335" d="M32.127,63.84c-5.42,2.468-9.625,7.9-12.71,12.837-3.192,5.1-6.556,11.08-5.091,17.244a3.127,3.127,0,0,0,5.188,1.368c3.75-4.009,4.749-9.552,7.167-14.368,2.461-4.905,5.962-9.333,8.23-14.3a2.054,2.054,0,0,0-2.783-2.783" transform="translate(32.432 147.661)"/>
    <path id="Path_336" data-name="Path 336" d="M58.9,129.574c-6.838.7-10.528,10.7-11.156,16.457-.844,7.838,1.4,16.1,5.407,22.847a61.049,61.049,0,0,0,16.54,17.745c6.367,4.686,14.594,9.23,22.764,8.8,4.039-.213,6.43-5.125,3.381-8.164C91.25,182.7,85.092,179.748,79.742,176.2a51.809,51.809,0,0,1-13.1-11.993,40.922,40.922,0,0,1-7.35-15.939,30.439,30.439,0,0,1-.465-8.629c.239-2.86,1.87-5.43,1.923-8.213a1.861,1.861,0,0,0-1.853-1.857" transform="translate(110.411 300.759)"/>
    <path id="Path_337" data-name="Path 337" d="M75.511,131.991c-4.7,13.451-20.363,19.13-33.236,14.839-3.2-1.063-5.2,3.8-2.282,5.414a25.122,25.122,0,0,0,25.8-.518c7.074-4.49,10.4-11.385,11.329-19.516.113-.97-1.325-1.04-1.611-.219" transform="translate(89.543 305.071)"/>
    <path id="Path_338" data-name="Path 338" d="M117.876,93.2c.365,5.7,2,11.269,2.471,16.978.229,2.787.3,5.57.286,8.363-.01,2.856-.418,5.832.571,8.552.847,2.332,4.593,3.487,5.869.767,2.471-5.274.867-12.329-.146-17.872-1.083-5.935-2.537-12.571-5.992-17.616-.847-1.239-3.172-.923-3.059.827" transform="translate(273.612 212.685)"/>
    <path id="Path_339" data-name="Path 339" d="M123.894,92.168a50.037,50.037,0,0,0-1.176,11.113c-.05,3.756-.737,8.087.608,11.648.986,2.607,5.088,3.142,5.849,0,.87-3.594-.156-7.38-.658-10.99a54.538,54.538,0,0,0-2.627-11.771c-.329-.89-1.747-1.073-2,0" transform="translate(284.352 212.233)"/>
    <path id="Path_340" data-name="Path 340" d="M107.033,45.432c.631,2.425,2.451,4.012,4.128,5.819,2.059,2.215,4.181,4.367,6.221,6.6q2.83,3.1,5.553,6.3c2.116,2.481,3.713,5.284,7.134,5.889,3.614.638,6.051-2,5.53-5.53-.5-3.411-3.348-5.128-5.852-7.171-2.272-1.85-4.583-3.65-6.912-5.424-3.906-2.969-9.187-8.273-14.288-8.469a1.585,1.585,0,0,0-1.514,1.986" transform="translate(248.339 100.846)"/>
    <path id="Path_341" data-name="Path 341" d="M109.5,44.582c2.368,1.916,5.032,3.374,7.141,5.61,1.2,1.279,2.315,2.9,4.108,3.394a3.9,3.9,0,0,0,4.367-1.777c2.179-3.809-2.577-7.277-5.42-8.878a14.209,14.209,0,0,0-9.22-2.046,2.221,2.221,0,0,0-.976,3.7" transform="translate(252.674 94.586)"/>
    <path id="Path_342" data-name="Path 342" d="M102.56,25.354c-1.956-4.627-12.123-2.76-15.716-1.79C80.988,25.148,73.383,28.5,72.15,35.132a3.585,3.585,0,0,0,4.344,4.348c3.235-.648,5.477-2.554,8.124-4.361a42.53,42.53,0,0,1,7.915-4.274c1.734-.707,11.382-2.288,10.027-5.49" transform="translate(167.303 51.905)"/>
    <path id="Path_343" data-name="Path 343" d="M96.666,27.9a42.477,42.477,0,0,0-20.824,5.121c-3.614,2.026-.98,6.835,2.64,6.261A42.273,42.273,0,0,0,97.7,30.4c1.03-.854.139-2.464-1.033-2.5" transform="translate(172.041 64.733)"/>
    <path id="Path_344" data-name="Path 344" d="M57.608,30.929c-5.875,2.2-11.824,6.134-15.228,11.448-1.671,2.607,1.79,6.413,4.444,4.441,4.706-3.5,8.841-8.15,12.727-12.551,1.2-1.358.073-4.092-1.943-3.338" transform="translate(97.359 71.495)"/>
    <path id="Path_345" data-name="Path 345" d="M62.8,35.478a19.48,19.48,0,0,0-11.9,1.677c-3.657,1.661-8.283,5.268-7.021,9.818a2.9,2.9,0,0,0,2.753,2.1c3.564-.189,5.636-3.255,7.984-5.576a32.882,32.882,0,0,1,8.492-5.666,1.3,1.3,0,0,0-.306-2.348" transform="translate(101.358 81.583)"/>
    <path id="Path_346" data-name="Path 346" d="M8.867,34.945c-4.381,8.7-7.755,24.886-3.066,33.91a2.6,2.6,0,0,0,4.7-.611c1.1-5.028-.236-10.445-.226-15.607.013-5.729.844-11.309,1.123-17.008a1.366,1.366,0,0,0-2.527-.684" transform="translate(8.211 79.592)" fill="#f0f4f7"/>
    <path id="Path_347" data-name="Path 347" d="M8.429,52.626a25.724,25.724,0,0,1,3.753,5.7c.98,2.033,1.152,4.623,2.976,6.118,1.614,1.315,4.8,1.172,5.221-1.378.917-5.523-5.706-10.615-10.09-12.847a1.541,1.541,0,0,0-1.86,2.408" transform="translate(18.599 116.121)" fill="#f0f4f7"/>
    <path id="Path_348" data-name="Path 348" d="M64.113,5.363c-7.29.927-12.581,6.606-15.261,13.222-3.032,7.479-4.849,20.559.87,27a3.164,3.164,0,0,0,4.929-.638c3.225-5.51.8-12.252,1.4-18.406A28.473,28.473,0,0,1,65.146,7.861c.827-.81.272-2.664-1.033-2.5" transform="translate(106.769 12.425)" fill="#f0f4f7"/>
    <path id="Path_349" data-name="Path 349" d="M48.961,21.788c-1.9,2.179-2.365,6.4-2.491,9.193a4.014,4.014,0,0,0,2.9,3.816,3.61,3.61,0,0,0,2.106,0,4.026,4.026,0,0,0,2.9-3.816c-.126-2.8-.594-7.021-2.491-9.193a2.081,2.081,0,0,0-2.929,0" transform="translate(107.862 49.177)" fill="#f0f4f7"/>
    <path id="Path_350" data-name="Path 350" d="M101.554,3.739C91.942,8.651,79.8,19.578,81.211,31.591c.405,3.461,4.351,4.646,6.45,1.747,3-4.152,4.238-9.333,6.516-13.893A63.563,63.563,0,0,1,103.2,5.868a1.362,1.362,0,0,0-1.644-2.129" transform="translate(188.253 8.284)" fill="#f0f4f7"/>
    <path id="Path_351" data-name="Path 351" d="M84.895,15.852c-1.471,3.152-2.913,6.29-4.245,9.5-.92,2.209,2.126,4.271,3.982,3.062A9.085,9.085,0,0,0,88.91,23a11.916,11.916,0,0,0,.223-6.593c-.535-1.757-3.351-2.458-4.238-.555" transform="translate(186.818 34.163)" fill="#f0f4f7"/>
    <path id="Path_352" data-name="Path 352" d="M139,28.681c-9.861-1.813-18.762,7.363-20.881,16.294-.761,3.208,4.185,5.7,5.61,2.365a31.246,31.246,0,0,1,6.35-9.562c2.737-2.767,6.068-4.686,9.2-6.945.734-.528.81-1.953-.282-2.152" transform="translate(273.998 66.038)" fill="#f0f4f7"/>
    <path id="Path_353" data-name="Path 353" d="M119.25,38.865a18.7,18.7,0,0,0-2.4,6.264,2.118,2.118,0,0,0,3.849,1.624,18.615,18.615,0,0,0,2.6-6.184c.694-2.368-2.876-3.962-4.042-1.7" transform="translate(271.171 87.689)" fill="#f0f4f7"/>
    <path id="Path_354" data-name="Path 354" d="M148.03,67.45c-3.574-1.554-8.29.847-11.349,2.733a25.243,25.243,0,0,0-9.363,10.342,2.819,2.819,0,0,0,4.866,2.843,41.7,41.7,0,0,1,8.008-8.635c2.514-2.039,6.317-3.381,8.157-6.065a.889.889,0,0,0-.319-1.219" transform="translate(294.697 155.41)" fill="#f0f4f7"/>
    <path id="Path_355" data-name="Path 355" d="M133.659,78A190.143,190.143,0,0,0,119.71,93.754c-1.714,2.215,1.093,5.311,3.178,3.178a190.506,190.506,0,0,0,13.7-16.005c1.6-2.036-1.023-4.9-2.926-2.926" transform="translate(276.646 179.526)" fill="#f0f4f7"/>
    <path id="Path_356" data-name="Path 356" d="M24.259,91.56c-1.229,3.67-.548,7.081-.578,10.884-.027,3.414-.568,6.755,1.534,9.711a3.544,3.544,0,0,0,5.437.7c3.62-2.816,3.315-7.626,2.677-11.717-.707-4.53-2.126-8.316-6.081-10.794a2.059,2.059,0,0,0-2.989,1.216" transform="translate(54.595 209.041)" fill="#f0f4f7"/>
    <path id="Path_357" data-name="Path 357" d="M35.171,124.9c-3.534,4.985,5.234,13.518,8.582,16.42,4.952,4.288,14.391,11.3,20.5,5.593a4.22,4.22,0,0,0,1.093-4.128c-1.186-4.1-4.6-5.231-8.257-6.613a50.718,50.718,0,0,1-9.449-4.789c-1.8-1.152-10.12-9.791-12.465-6.483" transform="translate(79.728 288.187)" fill="#f0f4f7"/>
    <path id="Path_358" data-name="Path 358" d="M58.15,140.648c4.846,6.762,10.455,12.162,18.606,14.5,3.325.953,4.524-3.909,1.4-5.091-6.55-2.481-13.252-5.716-18.051-10.92-.943-1.02-2.8.345-1.96,1.514" transform="translate(134.49 322.134)" fill="#f0f4f7"/>
    <path id="Path_359" data-name="Path 359" d="M82.36,69.306c3.6,11.435,10.409,21.638,20.429,28.354,2.6,1.74,5.261-2.053,3.245-4.2C98.481,85.4,91.121,77.407,84.9,68.233c-.844-1.242-3.042-.511-2.544,1.073" transform="translate(191.01 156.932)" fill="#f0f4f7"/>
    <path id="Path_360" data-name="Path 360" d="M96.141,84.6c4.029.668,7.712,2.451,11.741,2.963,1.681.213,2.508-2.235,1.362-3.291-3.4-3.129-8.243-3.434-12.667-2.9-1.647.2-2.441,2.893-.435,3.225" transform="translate(220.406 188.402)" fill="#f0f4f7"/>
  </g>
</svg>
