<svg id="Group_118" data-name="Group 118" xmlns="http://www.w3.org/2000/svg" xmlns:xlink="http://www.w3.org/1999/xlink" width="541.97" height="616.237" viewBox="0 0 541.97 616.237">
  <defs>
    <clipPath id="clip-path">
      <rect id="Rectangle_98" data-name="Rectangle 98" width="541.97" height="616.237" fill="#00ffe2"/>
    </clipPath>
  </defs>
  <g id="Group_117" data-name="Group 117" clip-path="url(#clip-path)">
    <path id="Path_365" data-name="Path 365" d="M106.141,155.181c8.582,1.926,15.387,8.791,19.4,16.616s5.649,16.623,7.237,25.275c-.568-7.988.332-16.254,3.939-23.4s10.2-13.039,18.068-14.544c-6.819-1.013-12.083-6.938-14.361-13.444-2.1-6.011-.983-12.309-2.531-18.187-4.384,10.3-16.925,31.011-31.751,27.683" transform="translate(246.381 295.956)" fill="#00ffe2"/>
    <path id="Path_366" data-name="Path 366" d="M8.954,27.684c8.582,1.926,15.387,8.791,19.4,16.62S34,60.923,35.591,69.575c-.568-7.988.332-16.251,3.942-23.4s10.2-13.039,18.064-14.54c-6.819-1.016-12.083-6.941-14.358-13.448C41.134,12.177,42.253,5.88,40.705,0,36.325,10.3,23.783,31.012,8.954,27.684" transform="translate(20.785 0.002)" fill="#ffe200"/>
    <path id="Path_367" data-name="Path 367" d="M62.52,171.147a16.771,16.771,0,1,1-16.772-16.772A16.773,16.773,0,0,1,62.52,171.147" transform="translate(67.268 358.345)" fill="#00ffe2"/>
    <path id="Path_368" data-name="Path 368" d="M22.757,104.08A7.758,7.758,0,1,1,15,96.322a7.759,7.759,0,0,1,7.758,7.758" transform="translate(16.806 223.589)" fill="#00ffe2"/>
    <path id="Path_369" data-name="Path 369" d="M94.11,13.261A7.758,7.758,0,1,1,86.351,5.5a7.759,7.759,0,0,1,7.758,7.758" transform="translate(182.435 12.774)" fill="#00ffe2"/>
    <path id="Path_370" data-name="Path 370" d="M53.976,40.514a7.76,7.76,0,1,1-7.758-7.758,7.759,7.759,0,0,1,7.758,7.758" transform="translate(89.267 76.035)" fill="#00ffe2"/>
    <path id="Path_371" data-name="Path 371" d="M131.768,25.3a7.758,7.758,0,1,1-7.759-7.758,7.759,7.759,0,0,1,7.759,7.758" transform="translate(269.849 40.708)" fill="#00ffe2"/>
    <path id="Path_372" data-name="Path 372" d="M48.523,23.667a7.758,7.758,0,1,1-7.758-7.758,7.759,7.759,0,0,1,7.758,7.758" transform="translate(76.616 36.929)" fill="#00ffe2"/>
    <path id="Path_373" data-name="Path 373" d="M174.027,65.428a7.758,7.758,0,1,1-7.759-7.755,7.757,7.757,0,0,1,7.759,7.755" transform="translate(367.943 133.874)" fill="#00ffe2"/>
    <path id="Path_374" data-name="Path 374" d="M14.238,92.074a7.119,7.119,0,1,1-7.117-7.117,7.118,7.118,0,0,1,7.117,7.117" transform="translate(0 197.207)" fill="#00ffe2"/>
    <path id="Path_375" data-name="Path 375" d="M169.2,190.993a13.7,13.7,0,1,1-13.7-13.7,13.7,13.7,0,0,1,13.7,13.7" transform="translate(329.155 411.543)" fill="#00ffe2"/>
    <path id="Path_376" data-name="Path 376" d="M32.918,146.185a7.054,7.054,0,1,1-7.054-7.054,7.055,7.055,0,0,1,7.054,7.054" transform="translate(43.661 322.959)" fill="#00ffe2"/>
    <path id="Path_377" data-name="Path 377" d="M147.2,127.833a7.157,7.157,0,1,1-7.157-7.157,7.158,7.158,0,0,1,7.157,7.157" transform="translate(308.468 280.121)" fill="#00ffe2"/>
    <path id="Path_378" data-name="Path 378" d="M172.369,79.553a7.157,7.157,0,1,1-7.157-7.157,7.158,7.158,0,0,1,7.157,7.157" transform="translate(366.885 168.05)" fill="#00ffe2"/>
  </g>
</svg>
