<svg xmlns="http://www.w3.org/2000/svg" xmlns:xlink="http://www.w3.org/1999/xlink" width="542" height="616" viewBox="0 0 542 616">
  <defs>
    <clipPath id="clip-visual_02">
      <rect width="542" height="616"/>
    </clipPath>
  </defs>
  <g id="visual_02" clip-path="url(#clip-visual_02)">
    <g id="Group_134" data-name="Group 134">
      <path id="Path_361" data-name="Path 361" d="M29.41,190.878c-1.149-10.681-2.348-21.558-6.659-31.4S10.435,140.82,0,138.269a39.77,39.77,0,0,0,27.444-11.953A39.778,39.778,0,0,0,38.51,98.5a72.062,72.062,0,0,0,5.161,32.462c4.235,10.572,12.375,19.947,23.1,23.77-23.651,5.055-33.634,12.252-37.364,36.145" transform="translate(6.643 255.096)" fill="#ffe200"/>
      <path id="Path_362" data-name="Path 362" d="M136.376,116.681c-1.149-10.681-2.348-21.558-6.659-31.4S117.4,66.623,106.966,64.072A39.769,39.769,0,0,0,134.41,52.119a39.776,39.776,0,0,0,11.066-27.812,72.055,72.055,0,0,0,5.161,32.459c4.235,10.572,12.375,19.947,23.1,23.774-23.651,5.052-33.634,12.249-37.364,36.142" transform="translate(254.939 82.874)" fill="#ffe200"/>
      <path id="Path_363" data-name="Path 363" d="M131.623,234.23c-1.149-10.681-2.348-21.558-6.659-31.4s-12.315-18.659-22.751-21.21a39.3,39.3,0,0,0,38.51-39.769,72.062,72.062,0,0,0,5.161,32.462c4.235,10.572,12.375,19.947,23.1,23.77-23.651,5.055-33.634,12.252-37.364,36.145" transform="translate(243.906 355.727)" fill="#ffe200"/>
      <path id="Path_364" data-name="Path 364" d="M167.608,92.375c-1.149-10.681-2.348-21.558-6.662-31.4S148.633,42.317,138.2,39.766a39.77,39.77,0,0,0,27.444-11.953A39.776,39.776,0,0,0,176.708,0a72.055,72.055,0,0,0,5.161,32.459c4.235,10.572,12.375,19.947,23.1,23.774-23.651,5.052-33.634,12.249-37.364,36.142" transform="translate(327.437 26.454)" fill="#ffe200"/>
      <path id="Path_366" data-name="Path 366" d="M8.954,27.684c8.582,1.926,15.387,8.791,19.4,16.62S34,60.923,35.591,69.575c-.568-7.988.332-16.251,3.942-23.4s10.2-13.039,18.064-14.54c-6.819-1.016-12.083-6.941-14.358-13.448C41.134,12.177,42.253,5.88,40.705,0,36.325,10.3,23.783,31.012,8.954,27.684" transform="translate(20.785 -0.116)" fill="#ffe200"/>
      <path id="Path_365" data-name="Path 365" d="M106.141,155.181c8.582,1.926,15.387,8.791,19.4,16.616s5.649,16.623,7.237,25.275c-.568-7.988.332-16.254,3.939-23.4s10.2-13.039,18.068-14.544c-6.819-1.013-12.083-6.938-14.361-13.444-2.1-6.011-.983-12.309-2.531-18.187-4.384,10.3-16.925,31.011-31.751,27.683" transform="translate(164.859 352.838)" fill="#ffe200"/>
    </g>
  </g>
</svg>
